<svg xmlns="http://www.w3.org/2000/svg" xmlns:xlink="http://www.w3.org/1999/xlink" version="1.1" width="30.953465381849657" height="36.82784835456694" viewBox="-7.6303527849857264 -7.392852743262475 30.953465381849657 36.82784835456694">
  <!-- Exported by Scratch - http://scratch.mit.edu/ -->
  <path id="ID0.9358589742332697" fill="#DB861B" stroke="none" stroke-width="16.26050223380971" stroke-linecap="round" d="M 8.0701 13.1208 C 7.9961 13.4331 8.2567 13.8859 8.4979 14.1811 C 8.8902 14.6601 9.3764 14.9509 9.8581 15.2586 C 10.2235 15.5084 10.5859 15.9732 11.043 15.9359 C 11.3668 15.8726 11.701 15.3498 11.5699 15.0445 C 11.2967 14.4123 10.5829 14.0807 10.0455 13.6425 C 9.6613 13.3289 9.2889 12.9632 8.8059 12.8571 C 8.5581 12.7689 8.129 12.8796 8.0701 13.1208 Z "/>
  <path id="ID0.19551143841817975" fill="#DB861B" stroke="none" stroke-width="16.26050559638823" stroke-linecap="round" d="M 8.9593 15.8351 C 8.6737 15.9142 8.222 15.9483 8.0688 16.2373 C 7.7238 16.8955 7.6815 17.7093 7.5906 18.4656 C 7.4873 19.1836 7.2905 19.9223 7.3975 20.6311 C 7.488 20.8812 7.8791 20.9349 8.1108 20.9688 C 8.5443 21.0316 9.2121 21.3387 9.483 20.9758 C 9.7961 20.5507 9.2702 19.9837 9.285 19.5148 C 9.3364 18.2465 9.7903 16.9899 9.681 15.7895 C 9.6537 15.4895 9.1886 15.7708 8.9593 15.8351 Z "/>
  <g id="ID0.30696602864190936">
    <path id="ID0.637318427208811" fill="#FAA51D" stroke="none" stroke-linecap="round" d="M 5.2677 16.633 C 5.9706 16.5561 6.5907 15.9533 7.304 15.9625 C 7.6438 15.9683 7.9806 16.3179 7.9433 16.6019 C 7.9313 17.018 7.552 17.3369 7.1919 17.5231 C 6.6507 17.8254 6.0636 18.0071 5.4087 18.0906 C 4.6873 18.1831 3.9327 18.2658 3.2239 18.1105 C 2.8752 18.0632 2.4001 17.8645 2.3781 17.5131 C 2.3534 17.1095 2.7232 16.6541 3.1268 16.5234 C 3.7911 16.3149 4.5524 16.7465 5.2677 16.633 Z " stroke-width="1.0840335331673352"/>
    <path id="ID0.9894068208523095" fill="#FFFFFF" stroke="none" stroke-linecap="round" d="M 2.9264 16.5525 C 3.418 16.271 4.2623 16.3523 4.6887 16.644 C 4.8875 16.7321 4.2169 17.0322 4.1771 17.3142 C 4.1359 17.6184 4.7584 18.1003 4.5074 18.1449 C 3.9403 18.3206 2.9939 18.2289 2.5406 17.7527 C 2.2516 17.4492 2.5628 16.761 2.9264 16.5525 Z " stroke-width="1.0840335331673352"/>
  </g>
  <g id="ID0.536394951865077">
    <path id="ID0.6198067106306553" fill="#FAA51D" stroke="none" stroke-linecap="round" d="M 7.6415 10.1202 C 8.157 10.077 8.886 9.8766 9.1653 10.3293 C 9.7599 11.186 9.7444 12.3682 9.8424 13.4164 C 9.9402 14.4625 10.1401 15.6486 9.7777 16.6967 C 9.609 17.1238 8.9426 17.2124 8.4532 17.2831 C 7.9872 17.349 7.3271 17.33 7.0788 16.9479 C 6.4789 16.093 6.336 14.9854 6.1984 13.993 C 6.043 12.8618 5.7506 11.649 6.1371 10.5634 C 6.3107 10.0735 7.1216 10.1627 7.6415 10.1202 Z " stroke-width="1.0840336501046555"/>
    <path id="ID0.21503017749637365" fill="#FFFFFF" stroke="none" stroke-linecap="round" d="M 8.5866 11.7958 C 8.884 11.7632 9.2127 11.978 9.3477 12.2551 C 9.6618 12.8511 9.7704 13.5687 9.8459 14.2442 C 9.9328 15.0209 10.0225 15.8224 9.842 16.6175 C 9.7656 16.8672 9.4385 17.0232 9.1369 17.1338 C 8.8215 17.2393 8.3025 17.3189 8.143 17.0282 C 7.7273 16.2669 7.7283 15.2653 7.6763 14.3536 C 7.6416 13.7488 7.6363 13.0566 7.8397 12.4259 C 7.9598 12.1472 8.2645 11.8323 8.5866 11.7958 Z " stroke-width="1.0840336501046555"/>
  </g>
  <path id="ID0.19551143841817975" fill="#FAA51D" stroke="none" stroke-linecap="round" d="M 7.5386 15.6736 C 7.2784 15.6151 7.1639 16.0839 7.0576 16.3446 C 6.7719 17.0465 6.5927 17.794 6.4617 18.5444 C 6.3204 19.2558 6.0845 19.9831 6.1537 20.6966 C 6.2308 20.9512 6.6185 21.0255 6.8481 21.0717 C 7.2776 21.1575 7.9282 21.4996 8.218 21.1517 C 8.5532 20.7438 8.0733 20.1718 8.0979 19.6821 C 8.1503 18.6691 8.5575 17.7132 8.4105 16.7539 C 8.3575 16.2793 7.9632 15.7716 7.5386 15.6736 Z " stroke-width="1.0840335955687337"/>
  <g id="ID0.6909988787956536">
    <g id="ID0.847524844110012">
      <path id="ID0.10025785537436604" fill="#FAA51D" stroke="none" d="M 7.0695 2.856 C 8.7139 2.6568 10.2757 3.0767 11.4722 3.9158 C 12.6677 4.7549 13.498 6.0133 13.677 7.4915 C 13.8561 8.9697 13.3503 10.3899 12.3898 11.4903 C 11.4282 12.5907 10.0118 13.3714 8.3674 13.5705 C 6.7231 13.7697 5.1613 13.3499 3.9647 12.5108 C 2.7692 11.6716 1.9389 10.4133 1.7599 8.9351 C 1.5808 7.4569 2.0866 6.0367 3.0471 4.9363 C 4.0088 3.8358 5.4252 3.0552 7.0695 2.856 Z " stroke-width="1.1013091546473397"/>
      <path id="ID0.23814574256539345" fill="#FAA51D" stroke="none" stroke-linecap="round" d="M 0.4999 2.7279 L 5.0436 4.0634 L 1.7651 7.6777 L 0.4999 2.7279 Z " stroke-width="1.1013091546473397"/>
      <path id="ID0.23814574256539345" fill="#FAA51D" stroke="none" stroke-linecap="round" d="M 11.3243 0.7374 L 7.5242 3.5638 L 11.8515 5.8191 L 11.3243 0.7374 Z " stroke-width="1.101309045355273"/>
      <path id="ID0.46886637480929494" fill="#FFFFFF" stroke="none" stroke-linecap="round" d="M 10.4692 8.8522 C 11.404 8.638 12.0246 7.4335 12.9673 7.4957 C 13.8989 7.557 15.0496 8.3384 15.1737 9.2253 C 15.3202 10.288 14.6055 11.4673 13.7489 12.1158 C 12.5957 13.0454 11.0523 13.3544 9.5768 13.6196 C 8.6127 13.793 7.5581 13.7687 6.6406 13.4206 C 5.8956 13.1403 4.9453 12.622 4.7275 11.8219 C 4.5605 10.938 4.8957 9.6849 5.6934 9.2643 C 7.1084 8.5183 8.9319 9.2392 10.4692 8.8522 Z " stroke-width="1.1013091546473397"/>
      <path id="ID0.2958779144100845" fill="#666666" stroke="none" stroke-linecap="round" d="M 10.1239 8.3103 C 10.4666 8.2178 11.0176 8.0501 11.1211 8.3005 C 11.2607 8.6197 11.0375 9.3223 10.6456 9.412 C 10.1344 9.5604 9.3314 9.1585 9.1863 8.8122 C 9.0868 8.568 9.7734 8.3661 10.1239 8.3103 Z " stroke-width="1.1013091546473397"/>
    </g>
    <g id="ID0.26280788984149694">
      <g id="ID0.2985607646405697">
        <path id="ID0.6929170889779925" fill="#000000" stroke="none" d="M 10.877 4.1576 C 11.2159 4.1165 11.5483 4.2782 11.8092 4.5727 C 12.0712 4.8672 12.2628 5.2954 12.3222 5.7852 C 12.3815 6.2751 12.2977 6.7367 12.1136 7.0852 C 11.9305 7.4335 11.6463 7.6698 11.3074 7.7109 C 10.9685 7.7519 10.6361 7.5903 10.3752 7.2958 C 10.1132 7.0013 9.9215 6.573 9.8622 6.0832 C 9.8029 5.5934 9.8867 5.1318 10.0708 4.7833 C 10.2538 4.435 10.538 4.1987 10.877 4.1576 Z " stroke-width="1.1013091546473397"/>
        <path id="ID0.02252052817493677" fill="#CCCCCC" stroke="none" d="M 11.2825 4.4626 C 11.4104 4.4471 11.54 4.5368 11.6435 4.6951 C 11.748 4.8533 11.8286 5.0787 11.8597 5.3356 C 11.8908 5.5925 11.8664 5.8307 11.8026 6.0092 C 11.7399 6.1877 11.6355 6.3057 11.5076 6.3212 C 11.3797 6.3367 11.2501 6.247 11.1467 6.0887 C 11.0421 5.9305 10.9615 5.7051 10.9304 5.4482 C 10.8993 5.1913 10.9237 4.9531 10.9875 4.7745 C 11.0502 4.5961 11.1546 4.4781 11.2825 4.4626 Z " stroke-width="1.1013091546473397"/>
      </g>
      <g id="ID0.2985607646405697">
        <path id="ID0.6929170889779925" fill="#000000" stroke="none" d="M 6.727 4.8076 C 7.0659 4.7665 7.3983 4.9282 7.6592 5.2227 C 7.9212 5.5172 8.1128 5.9454 8.1722 6.4352 C 8.2315 6.9251 8.1477 7.3867 7.9636 7.7352 C 7.7805 8.0835 7.4963 8.3198 7.1574 8.3609 C 6.8185 8.4019 6.4861 8.2403 6.2252 7.9458 C 5.9632 7.6513 5.7715 7.223 5.7122 6.7332 C 5.6529 6.2434 5.7367 5.7818 5.9208 5.4333 C 6.1038 5.085 6.388 4.8487 6.727 4.8076 Z " stroke-width="1.1013091546473397"/>
        <path id="ID0.02252052817493677" fill="#CCCCCC" stroke="none" d="M 7.1825 5.0626 C 7.3104 5.0471 7.44 5.1368 7.5435 5.2951 C 7.648 5.4533 7.7286 5.6787 7.7597 5.9356 C 7.7908 6.1925 7.7664 6.4307 7.7026 6.6092 C 7.6399 6.7877 7.5355 6.9057 7.4076 6.9212 C 7.2797 6.9367 7.1501 6.847 7.0467 6.6887 C 6.9421 6.5305 6.8615 6.3051 6.8304 6.0482 C 6.7993 5.7913 6.8237 5.5531 6.8875 5.3745 C 6.9502 5.1961 7.0546 5.0781 7.1825 5.0626 Z " stroke-width="1.1013091546473397"/>
      </g>
    </g>
  </g>
  <path id="ID0.9358589742332697" fill="#F9B341" stroke="none" stroke-width="16.26050406676044" stroke-linecap="round" d="M 6.2574 13.4478 C 6.528 13.2752 7.0413 13.3723 7.3994 13.503 C 7.9808 13.7159 8.4154 14.0793 8.8645 14.4329 C 9.2206 14.6959 9.7787 14.8851 9.8939 15.329 C 9.9406 15.6556 9.5569 16.1432 9.2255 16.1199 C 8.5386 16.0699 7.9906 15.5049 7.4 15.1416 C 6.9774 14.882 6.5095 14.6506 6.2505 14.2295 C 6.0857 14.0245 6.049 13.5828 6.2574 13.4478 Z "/>
</svg>