<svg xmlns="http://www.w3.org/2000/svg" xmlns:xlink="http://www.w3.org/1999/xlink" version="1.1" width="29.46772172531027" height="35.96974351486105" viewBox="-6.944152725142928 -7.700352710885497 29.46772172531027 35.96974351486105">
  <!-- Exported by Scratch - http://scratch.mit.edu/ -->
  <path id="ID0.9358589742332697" fill="#DB861B" stroke="none" stroke-width="16.260503591004344" stroke-linecap="round" d="M 7.6468 11.5602 C 7.3735 11.3918 6.8618 11.4969 6.5057 11.633 C 5.9277 11.8549 5.4988 12.225 5.0552 12.5855 C 4.7032 12.8539 4.1481 13.0518 4.0398 13.4974 C 3.9981 13.8247 4.3894 14.3063 4.7204 14.2778 C 5.4064 14.2173 5.9456 13.6439 6.5305 13.2715 C 6.949 13.0054 7.4133 12.7667 7.6658 12.3417 C 7.8274 12.1341 7.8572 11.6919 7.6468 11.5602 Z "/>
  <path id="ID0.19551143841817975" fill="#DB861B" stroke="none" stroke-width="16.260505462492887" stroke-linecap="round" d="M 8.2253 14.8346 C 7.9439 14.9275 7.4944 14.9834 7.3553 15.2794 C 7.0426 15.9536 7.0399 16.7685 6.9857 17.5283 C 6.9173 18.2504 6.7565 18.9979 6.8978 19.7007 C 7.0003 19.9461 7.3935 19.9807 7.6266 20.0034 C 8.0626 20.0451 8.7445 20.3195 8.9976 19.9439 C 9.2897 19.5041 8.7369 18.9632 8.729 18.4941 C 8.7189 17.2249 9.1113 15.9477 8.944 14.7541 C 8.9022 14.4557 8.4512 14.7592 8.2253 14.8346 Z "/>
  <g id="ID0.30696602864190936">
    <path id="ID0.637318427208811" fill="#FAA51D" stroke="none" stroke-linecap="round" d="M 4.8284 14.9248 C 5.5083 15.1186 6.31 14.7942 6.9672 15.0717 C 7.2797 15.2052 7.4598 15.6561 7.3182 15.9049 C 7.1502 16.2858 6.6785 16.4381 6.2749 16.4748 C 5.6596 16.5507 5.0474 16.4975 4.4093 16.328 C 3.7062 16.1415 2.9762 15.9336 2.3783 15.5225 C 2.0732 15.3472 1.7081 14.984 1.8202 14.6502 C 1.9495 14.2671 2.4638 13.9848 2.8868 14.0159 C 3.5808 14.0734 4.123 14.7601 4.8284 14.9248 Z " stroke-width="1.084033625024221"/>
    <path id="ID0.9894068208523095" fill="#FFFFFF" stroke="none" stroke-linecap="round" d="M 2.6319 14.0249 C 3.1933 13.9496 3.9447 14.3434 4.2296 14.7743 C 4.3805 14.9309 3.6462 14.9559 3.503 15.2021 C 3.3502 15.4682 3.745 16.1493 3.4956 16.096 C 2.9042 16.0449 2.0623 15.603 1.822 14.9911 C 1.6688 14.6009 2.2165 14.0809 2.6319 14.0249 Z " stroke-width="1.084033625024221"/>
  </g>
  <g id="ID0.536394951865077">
    <path id="ID0.6198067106306553" fill="#FAA51D" stroke="none" stroke-linecap="round" d="M 6.3055 9.3116 C 6.8095 9.1954 7.5025 8.8931 7.8435 9.3014 C 8.5541 10.0646 8.7073 11.2369 8.9538 12.2605 C 9.1997 13.2819 9.5666 14.4274 9.3574 15.5164 C 9.2513 15.9632 8.6044 16.1459 8.13 16.2857 C 7.6781 16.4174 7.0221 16.4926 6.7218 16.1499 C 6.0062 15.3891 5.7068 14.3133 5.4292 13.3506 C 5.1141 12.2531 4.6518 11.0944 4.8796 9.9648 C 4.9816 9.4551 5.7969 9.4278 6.3055 9.3116 Z " stroke-width="1.0840336259501413"/>
    <path id="ID0.21503017749637365" fill="#FFFFFF" stroke="none" stroke-linecap="round" d="M 7.5368 10.8593 C 7.8265 10.7846 8.1825 10.9503 8.3556 11.2053 C 8.7515 11.7506 8.9613 12.4453 9.1322 13.1031 C 9.329 13.8596 9.5321 14.6401 9.4668 15.4527 C 9.4267 15.7108 9.1252 15.9119 8.8424 16.0643 C 8.5454 16.2137 8.043 16.3664 7.8437 16.1015 C 7.3237 15.4072 7.1819 14.4157 7.0005 13.5208 C 6.8799 12.9271 6.7759 12.2427 6.8874 11.5895 C 6.9665 11.2965 7.2232 10.9413 7.5368 10.8593 Z " stroke-width="1.0840336259501413"/>
  </g>
  <path id="ID0.19551143841817975" fill="#FAA51D" stroke="none" stroke-linecap="round" d="M 7.0951 13.2554 C 6.8154 13.3072 6.9088 13.8897 6.8917 14.2112 C 6.8769 15.0035 6.997 15.858 7.0784 16.4826 C 7.172 17.2006 7.2031 17.9673 7.5199 18.6114 C 7.6707 18.829 8.0687 18.7629 8.3004 18.7283 C 8.7335 18.6631 9.4616 18.7639 9.616 18.3382 C 9.7928 17.8407 9.1501 17.4642 9.0039 16.9968 C 8.6946 15.9997 8.6697 14.9447 8.1816 14.043 C 7.999 13.6317 7.4903 13.1842 7.0951 13.2554 Z " stroke-width="1.084033640144299"/>
  <g id="ID0.6909988787956536">
    <g id="ID0.847524844110012">
      <path id="ID0.10025785537436604" fill="#FAA51D" stroke="none" d="M 7.6678 1.7644 C 9.3204 1.876 10.7762 2.5804 11.7949 3.6283 C 12.8125 4.6761 13.3929 6.0675 13.2925 7.5531 C 13.1922 9.0387 12.4299 10.3394 11.2806 11.2408 C 10.1302 12.1422 8.5929 12.6443 6.9403 12.5327 C 5.2877 12.421 3.8319 11.7166 2.8132 10.6687 C 1.7956 9.6209 1.2152 8.2295 1.3156 6.7439 C 1.4159 5.2583 2.1783 3.9577 3.3275 3.0562 C 4.4779 2.1549 6.0152 1.6527 7.6678 1.7644 Z " stroke-width="1.1013090302545538"/>
      <path id="ID0.23814574256539345" fill="#FAA51D" stroke="none" stroke-linecap="round" d="M 1.1861 0.4299 L 5.4002 2.5911 L 1.5039 5.5289 L 1.1861 0.4299 Z " stroke-width="1.1013090302545538"/>
      <path id="ID0.23814574256539345" fill="#FAA51D" stroke="none" stroke-linecap="round" d="M 12.0438 0.5762 L 7.7824 2.6426 L 11.612 5.6669 L 12.0438 0.5762 Z " stroke-width="1.101308922588253"/>
      <path id="ID0.46886637480929494" fill="#FFFFFF" stroke="none" stroke-linecap="round" d="M 9.8401 8.2945 C 10.7984 8.2588 11.6332 7.1915 12.5477 7.4288 C 13.4514 7.6631 14.4358 8.6458 14.3919 9.5402 C 14.3372 10.6117 13.4147 11.6366 12.452 12.1135 C 11.1454 12.8112 9.5714 12.8262 8.0723 12.8111 C 7.0928 12.8012 6.0613 12.5803 5.2251 12.0668 C 4.5456 11.6522 3.7089 10.9654 3.6445 10.1387 C 3.6456 9.2392 4.2091 8.0708 5.0714 7.8067 C 6.6009 7.3383 8.2575 8.3873 9.8401 8.2945 Z " stroke-width="1.1013090302545538"/>
      <path id="ID0.2958779144100845" fill="#666666" stroke="none" stroke-linecap="round" d="M 9.5383 7.6645 C 9.8922 7.6376 10.4648 7.5758 10.5198 7.8411 C 10.5973 8.1808 10.2466 8.8294 9.8449 8.8442 C 9.315 8.8945 8.6012 8.3495 8.5233 7.9822 C 8.4713 7.7237 9.1835 7.6537 9.5383 7.6645 Z " stroke-width="1.1013090302545538"/>
    </g>
    <g id="ID0.26280788984149694">
      <g id="ID0.2985607646405697">
        <path id="ID0.6929170889779925" fill="#000000" stroke="none" d="M 11.081 3.8022 C 11.4216 3.8252 11.718 4.0461 11.9192 4.3843 C 12.1215 4.7224 12.2298 5.179 12.1965 5.6713 C 12.1633 6.1635 11.9946 6.6014 11.7486 6.9093 C 11.5037 7.2173 11.1804 7.3963 10.8397 7.3733 C 10.4991 7.3503 10.2027 7.1294 10.0015 6.7913 C 9.7992 6.4531 9.691 5.9965 9.7242 5.5042 C 9.7575 5.012 9.9261 4.5741 10.1721 4.2662 C 10.417 3.9582 10.7404 3.7792 11.081 3.8022 Z " stroke-width="1.1013090302545538"/>
        <path id="ID0.02252052817493677" fill="#CCCCCC" stroke="none" d="M 11.5248 4.1825 C 11.6533 4.1912 11.7638 4.3035 11.8359 4.4784 C 11.9091 4.6533 11.9461 4.8898 11.9286 5.1481 C 11.9112 5.4063 11.8427 5.6357 11.7467 5.7992 C 11.6517 5.9627 11.5271 6.0592 11.3985 6.0505 C 11.27 6.0418 11.1595 5.9295 11.0874 5.7546 C 11.0142 5.5797 10.9772 5.3432 10.9947 5.085 C 11.0121 4.8267 11.0806 4.5974 11.1766 4.4339 C 11.2716 4.2703 11.3962 4.1738 11.5248 4.1825 Z " stroke-width="1.1013090302545538"/>
      </g>
      <g id="ID0.2985607646405697">
        <path id="ID0.6929170889779925" fill="#000000" stroke="none" d="M 6.981 3.6522 C 7.3216 3.6752 7.618 3.8961 7.8192 4.2343 C 8.0215 4.5724 8.1298 5.029 8.0965 5.5213 C 8.0633 6.0135 7.8946 6.4514 7.6486 6.7593 C 7.4037 7.0673 7.0804 7.2463 6.7397 7.2233 C 6.3991 7.2003 6.1027 6.9794 5.9015 6.6413 C 5.6992 6.3031 5.591 5.8465 5.6242 5.3542 C 5.6575 4.862 5.8261 4.4241 6.0721 4.1162 C 6.317 3.8082 6.6404 3.6292 6.981 3.6522 Z " stroke-width="1.1013090302545538"/>
        <path id="ID0.02252052817493677" fill="#CCCCCC" stroke="none" d="M 7.3248 3.9825 C 7.4533 3.9912 7.5638 4.1035 7.6359 4.2784 C 7.7091 4.4533 7.7461 4.6898 7.7286 4.9481 C 7.7112 5.2063 7.6427 5.4357 7.5467 5.5992 C 7.4517 5.7627 7.3271 5.8592 7.1985 5.8505 C 7.07 5.8418 6.9595 5.7295 6.8874 5.5546 C 6.8142 5.3797 6.7772 5.1432 6.7947 4.885 C 6.8121 4.6267 6.8806 4.3974 6.9766 4.2339 C 7.0716 4.0703 7.1962 3.9738 7.3248 3.9825 Z " stroke-width="1.1013090302545538"/>
      </g>
    </g>
  </g>
  <path id="ID0.9358589742332697" fill="#F9B341" stroke="none" stroke-width="16.260503185310046" stroke-linecap="round" d="M 6.5141 12.1935 C 6.5333 12.5139 6.1987 12.9151 5.9104 13.1644 C 5.4415 13.5689 4.9126 13.7718 4.3852 13.9921 C 3.9822 14.1753 3.5454 14.571 3.1015 14.4556 C 2.7934 14.3376 2.554 13.7651 2.7357 13.4869 C 3.1135 12.9111 3.8736 12.7071 4.4784 12.3678 C 4.9107 12.1249 5.3405 11.8287 5.8345 11.8072 C 6.0938 11.763 6.4975 11.9458 6.5141 12.1935 Z "/>
</svg>