<svg xmlns="http://www.w3.org/2000/svg" xmlns:xlink="http://www.w3.org/1999/xlink" version="1.1" width="29.45198906413529" height="36.76641643992875" viewBox="-7.568452780206073 -7.298252766091693 29.45198906413529 36.76641643992875">
  <!-- Exported by Scratch - http://scratch.mit.edu/ -->
  <path id="ID0.9358589742332697" fill="#DB861B" stroke="none" stroke-width="16.26050339717964" stroke-linecap="round" d="M 6.8883 12.6524 C 6.622 12.4733 6.1065 12.5581 5.7453 12.6801 C 5.1589 12.879 4.7158 13.2318 4.2583 13.5746 C 3.896 13.8289 3.3335 14.0046 3.2077 14.4456 C 3.1531 14.7711 3.525 15.2678 3.8569 15.2524 C 4.5448 15.2189 5.1062 14.6673 5.7053 14.3183 C 6.134 14.0689 6.6073 13.8488 6.8765 13.434 C 7.0461 13.233 7.0934 12.7923 6.8883 12.6524 Z "/>
  <path id="ID0.19551143841817975" fill="#DB861B" stroke="none" stroke-width="16.26050556651566" stroke-linecap="round" d="M 8.114 15.8412 C 7.8577 15.6925 7.5174 15.3934 7.2037 15.486 C 6.4919 15.6997 5.8807 16.2386 5.2765 16.7025 C 4.6911 17.1308 4.0254 17.5068 3.5936 18.0789 C 3.4781 18.3185 3.7133 18.6356 3.8511 18.8249 C 4.1093 19.1788 4.3569 19.8709 4.8057 19.8108 C 5.3285 19.7372 5.366 18.9647 5.7116 18.6474 C 6.6541 17.7972 7.8697 17.2428 8.6512 16.3253 C 8.8466 16.0959 8.3203 15.9601 8.114 15.8412 Z "/>
  <g id="ID0.30696602864190936">
    <path id="ID0.637318427208811" fill="#FAA51D" stroke="none" stroke-linecap="round" d="M 4.0799 15.1917 C 4.6197 15.6483 5.4839 15.6828 5.9684 16.2063 C 6.1983 16.4567 6.1768 16.9417 5.9452 17.1101 C 5.6352 17.3881 5.1427 17.3326 4.7598 17.1998 C 4.1678 17.0156 3.6318 16.7151 3.1202 16.2978 C 2.5563 15.8384 1.9766 15.3483 1.6011 14.7275 C 1.3952 14.4421 1.212 13.9608 1.4516 13.7028 C 1.7272 13.407 2.3121 13.3614 2.6849 13.5639 C 3.2935 13.9021 3.5049 14.7512 4.0799 15.1917 Z " stroke-width="1.0840335990555365"/>
    <path id="ID0.9894068208523095" fill="#FFFFFF" stroke="none" stroke-linecap="round" d="M 2.4571 13.4766 C 2.9997 13.6391 3.5223 14.3073 3.6045 14.8173 C 3.6775 15.0222 2.9981 14.7426 2.7662 14.908 C 2.5173 15.0876 2.5967 15.8708 2.3914 15.7196 C 1.8735 15.4294 1.2882 14.6801 1.3212 14.0235 C 1.3422 13.6049 2.0555 13.3566 2.4571 13.4766 Z " stroke-width="1.0840335990555365"/>
  </g>
  <g id="ID0.536394951865077">
    <path id="ID0.6198067106306553" fill="#FAA51D" stroke="none" stroke-linecap="round" d="M 5.3055 10.3116 C 5.8095 10.1954 6.5025 9.8931 6.8435 10.3014 C 7.5541 11.0646 7.7073 12.2369 7.9538 13.2605 C 8.1997 14.2819 8.5666 15.4274 8.3574 16.5164 C 8.2513 16.9632 7.6044 17.1459 7.13 17.2857 C 6.6781 17.4174 6.0221 17.4926 5.7218 17.1499 C 5.0062 16.3891 4.7068 15.3133 4.4292 14.3506 C 4.1141 13.2531 3.6518 12.0944 3.8796 10.9648 C 3.9816 10.4551 4.7969 10.4278 5.3055 10.3116 Z " stroke-width="1.0840336259501413"/>
    <path id="ID0.21503017749637365" fill="#FFFFFF" stroke="none" stroke-linecap="round" d="M 6.5368 11.8593 C 6.8265 11.7846 7.1825 11.9503 7.3556 12.2053 C 7.7515 12.7506 7.9613 13.4453 8.1322 14.1031 C 8.329 14.8596 8.5321 15.6401 8.4668 16.4527 C 8.4267 16.7108 8.1252 16.9119 7.8424 17.0643 C 7.5454 17.2137 7.043 17.3664 6.8437 17.1015 C 6.3237 16.4072 6.1819 15.4157 6.0005 14.5208 C 5.8799 13.9271 5.7759 13.2427 5.8874 12.5895 C 5.9665 12.2965 6.2232 11.9413 6.5368 11.8593 Z " stroke-width="1.0840336259501413"/>
  </g>
  <path id="ID0.19551143841817975" fill="#FAA51D" stroke="none" stroke-linecap="round" d="M 5.5421 15.8032 C 5.2609 15.8459 5.3355 16.4311 5.3079 16.7518 C 5.2675 17.5433 5.3599 18.4012 5.4211 19.0281 C 5.4914 19.7488 5.4977 20.5161 5.7935 21.1701 C 5.9372 21.3924 6.3372 21.3393 6.5698 21.3122 C 7.0048 21.261 7.7293 21.3853 7.8974 20.9648 C 8.0901 20.4733 7.4599 20.0763 7.3289 19.6044 C 7.0521 18.5977 7.0613 17.5425 6.6026 16.6255 C 6.4334 16.2085 5.9394 15.7448 5.5421 15.8032 Z " stroke-width="1.084033654078093"/>
  <g id="ID0.6909988787956536">
    <g id="ID0.847524844110012">
      <path id="ID0.10025785537436604" fill="#FAA51D" stroke="none" d="M 7.0167 2.1481 C 8.6696 2.2558 10.1271 2.9567 11.1483 4.0022 C 12.1683 5.0476 12.7521 6.4376 12.6553 7.9234 C 12.5584 9.4092 11.7992 10.7117 10.6521 11.6159 C 9.5039 12.52 7.9678 13.0258 6.3149 12.9181 C 4.662 12.8104 3.2045 12.1095 2.1834 11.064 C 1.1633 10.0186 0.5796 8.6286 0.6764 7.1428 C 0.7732 5.657 1.5324 4.3545 2.6795 3.4503 C 3.8277 2.5462 5.3639 2.0404 7.0167 2.1481 Z " stroke-width="1.1013090161476777"/>
      <path id="ID0.23814574256539345" fill="#FAA51D" stroke="none" stroke-linecap="round" d="M 0.5618 0.832 L 4.781 2.9831 L 0.8918 5.9303 L 0.5618 0.832 Z " stroke-width="1.1013090161476777"/>
      <path id="ID0.23814574256539345" fill="#FAA51D" stroke="none" stroke-linecap="round" d="M 11.3568 0.9528 L 7.1004 3.0293 L 10.9372 6.0444 L 11.3568 0.9528 Z " stroke-width="1.1013088834785558"/>
      <path id="ID0.46886637480929494" fill="#FFFFFF" stroke="none" stroke-linecap="round" d="M 9.1972 8.6493 C 10.1554 8.6113 10.9877 7.542 11.9028 7.7771 C 12.807 8.0093 13.7938 8.9897 13.752 9.8842 C 13.6999 10.9557 12.7798 11.9829 11.8182 12.4621 C 10.5133 13.1629 8.9394 13.1817 7.4403 13.1701 C 6.4607 13.1626 5.4287 12.9441 4.5913 12.4326 C 3.9107 12.0197 3.0724 11.3348 3.006 10.5083 C 3.005 9.6088 3.5658 8.439 4.4274 8.1729 C 5.9558 7.7008 7.6149 8.7459 9.1972 8.6493 Z " stroke-width="1.1013090161476777"/>
      <path id="ID0.2958779144100845" fill="#666666" stroke="none" stroke-linecap="round" d="M 8.9132 8.0262 C 9.267 7.9985 9.8395 7.9354 9.8951 8.2006 C 9.9734 8.5401 9.6243 9.1895 9.2226 9.2052 C 8.6928 9.2568 7.9777 8.7135 7.899 8.3464 C 7.8463 8.088 8.5584 8.0164 8.9132 8.0262 Z " stroke-width="1.1013090161476777"/>
    </g>
    <g id="ID0.26280788984149694">
      <g id="ID0.2985607646405697">
        <path id="ID0.6929170889779925" fill="#000000" stroke="none" d="M 10.4542 4.1736 C 10.7949 4.1958 11.0918 4.416 11.2938 4.7536 C 11.497 5.0913 11.6063 5.5476 11.5742 6.04 C 11.5421 6.5323 11.3745 6.9706 11.1293 7.2791 C 10.8851 7.5876 10.5622 7.7675 10.2215 7.7453 C 9.8808 7.7231 9.5839 7.5029 9.3819 7.1652 C 9.1787 6.8275 9.0694 6.3712 9.1015 5.8789 C 9.1336 5.3865 9.3012 4.9483 9.5465 4.6398 C 9.7906 4.3312 10.1135 4.1514 10.4542 4.1736 Z " stroke-width="1.1013090161476777"/>
        <path id="ID0.02252052817493677" fill="#CCCCCC" stroke="none" d="M 10.8868 4.5484 C 11.0154 4.5568 11.1262 4.6688 11.1987 4.8435 C 11.2723 5.0183 11.3098 5.2547 11.293 5.513 C 11.2762 5.7712 11.2082 6.0008 11.1126 6.1645 C 11.018 6.3283 10.8936 6.425 10.7651 6.4166 C 10.6365 6.4083 10.5257 6.2962 10.4532 6.1215 C 10.3796 5.9468 10.342 5.7103 10.3589 5.4521 C 10.3757 5.1938 10.4436 4.9643 10.5393 4.8005 C 10.6338 4.6367 10.7582 4.54 10.8868 4.5484 Z " stroke-width="1.1013090161476777"/>
      </g>
      <g id="ID0.2985607646405697">
        <path id="ID0.6929170889779925" fill="#000000" stroke="none" d="M 6.3418 4.0298 C 6.6825 4.052 6.9794 4.2722 7.1814 4.6098 C 7.3846 4.9475 7.4939 5.4038 7.4618 5.8962 C 7.4297 6.3885 7.2621 6.8268 7.0169 7.1353 C 6.7727 7.4438 6.4498 7.6237 6.1091 7.6015 C 5.7684 7.5793 5.4715 7.359 5.2695 7.0214 C 5.0663 6.6837 4.957 6.2274 4.9891 5.7351 C 5.0212 5.2427 5.1888 4.8044 5.4341 4.496 C 5.6782 4.1874 6.0012 4.0076 6.3418 4.0298 Z " stroke-width="1.1013090161476777"/>
        <path id="ID0.02252052817493677" fill="#CCCCCC" stroke="none" d="M 6.672 4.3597 C 6.8006 4.368 6.9114 4.4801 6.9839 4.6548 C 7.0575 4.8295 7.0951 5.066 7.0782 5.3242 C 7.0614 5.5825 6.9935 5.812 6.8978 5.9758 C 6.8033 6.1396 6.6789 6.2363 6.5503 6.2279 C 6.4217 6.2195 6.3109 6.1075 6.2384 5.9328 C 6.1648 5.758 6.1273 5.5216 6.1441 5.2634 C 6.1609 5.0051 6.2289 4.7755 6.3245 4.6118 C 6.4191 4.448 6.5435 4.3513 6.672 4.3597 Z " stroke-width="1.1013090161476777"/>
      </g>
    </g>
  </g>
  <path id="ID0.9358589742332697" fill="#F9B341" stroke="none" stroke-width="16.260503574564353" stroke-linecap="round" d="M 5.2282 12.8383 C 5.2687 13.1567 4.9617 13.5794 4.6906 13.8474 C 4.2499 14.2823 3.7357 14.52 3.2241 14.7751 C 2.8343 14.9848 2.4248 15.4087 1.9743 15.3233 C 1.659 15.226 1.3819 14.6708 1.5446 14.3811 C 1.8831 13.7813 2.6279 13.5271 3.2087 13.1482 C 3.6239 12.877 4.0329 12.5527 4.5244 12.4983 C 4.7801 12.4368 5.1952 12.5923 5.2282 12.8383 Z "/>
</svg>