<svg xmlns="http://www.w3.org/2000/svg" xmlns:xlink="http://www.w3.org/1999/xlink" version="1.1" width="30.09361300059293" height="37.71687445231412" viewBox="-7.338660643439166 -7.423752532343737 30.09361300059293 37.71687445231412">
  <!-- Exported by Scratch - http://scratch.mit.edu/ -->
  <path id="ID0.9358589742332697" fill="#DB861B" stroke="none" stroke-width="16.26050333982983" stroke-linecap="round" d="M 8.566 16.4146 C 8.3112 16.2194 8.2268 15.7039 8.2269 15.3227 C 8.2279 14.7035 8.4206 14.1708 8.5992 13.6278 C 8.7243 13.2032 8.711 12.614 9.0887 12.3538 C 9.3796 12.1981 9.9691 12.3917 10.0606 12.7111 C 10.2488 13.3736 9.9055 14.0819 9.7664 14.7612 C 9.6671 15.2471 9.6098 15.7659 9.3028 16.1535 C 9.1666 16.3785 8.7642 16.5642 8.566 16.4146 Z "/>
  <path id="ID0.19551143841817975" fill="#DB861B" stroke="none" stroke-width="16.26050505228971" stroke-linecap="round" d="M 11.3122 16.9875 C 11.6086 16.9865 12.0527 16.8973 12.2783 17.1341 C 12.7883 17.6747 13.0488 18.4468 13.3407 19.1504 C 13.6341 19.8138 14.0231 20.472 14.1116 21.1833 C 14.092 21.4485 13.73 21.6058 13.516 21.7011 C 13.1156 21.8787 12.5556 22.3548 12.1967 22.0786 C 11.7804 21.7539 12.1336 21.0658 11.9926 20.6183 C 11.6005 19.4111 10.8241 18.3238 10.6051 17.1386 C 10.5503 16.8423 11.0741 16.9875 11.3122 16.9875 Z "/>
  <g id="ID0.30696602864190936">
    <path id="ID0.637318427208811" fill="#FAA51D" stroke="none" stroke-linecap="round" d="M 12.5395 13.6106 C 12.4634 14.3135 11.8613 14.9343 11.8713 15.6476 C 11.8774 15.9874 12.2274 16.3238 12.5113 16.2862 C 12.9274 16.2738 13.2459 15.8941 13.4317 15.5338 C 13.7334 14.9922 13.9144 14.405 13.9973 13.75 C 14.089 13.0284 14.1709 12.2738 14.0148 11.5652 C 13.9672 11.2165 13.7679 10.7416 13.4165 10.72 C 13.0129 10.6958 12.5579 11.0661 12.4276 11.4697 C 12.2199 12.1343 12.6522 12.8951 12.5395 13.6106 Z " stroke-width="1.0840335945090882"/>
    <path id="ID0.9894068208523095" fill="#FFFFFF" stroke="none" stroke-linecap="round" d="M 12.4849 11.1762 C 12.204 11.6681 12.2862 12.5124 12.5784 12.9384 C 12.6667 13.1372 12.966 12.4662 13.2481 12.4261 C 13.5521 12.3846 14.0347 13.0066 14.0791 12.7555 C 14.2541 12.1882 14.1614 11.242 13.6847 10.7892 C 13.3809 10.5005 12.693 10.8124 12.4849 11.1762 Z " stroke-width="1.0840335945090882"/>
  </g>
  <g id="ID0.536394951865077">
    <path id="ID0.6198067106306553" fill="#FAA51D" stroke="none" stroke-linecap="round" d="M 9.7395 10.2756 C 9.2608 10.4718 8.5205 10.6251 8.4779 11.1554 C 8.3384 12.1888 8.8903 13.2344 9.2801 14.2123 C 9.6692 15.1883 10.0311 16.3354 10.8308 17.1037 C 11.1754 17.4072 11.809 17.1828 12.2771 17.023 C 12.722 16.8695 13.301 16.5522 13.3483 16.0989 C 13.4932 15.0646 13.1164 14.0134 12.7872 13.0671 C 12.4107 11.9892 12.119 10.7762 11.2807 9.9855 C 10.9032 9.6283 10.2218 10.0768 9.7395 10.2756 Z " stroke-width="1.0840335113218365"/>
    <path id="ID0.21503017749637365" fill="#FFFFFF" stroke="none" stroke-linecap="round" d="M 9.6 12.2555 C 9.3203 12.3619 9.1254 12.7027 9.1312 13.0109 C 9.1229 13.6846 9.3528 14.3729 9.5931 15.0088 C 9.8692 15.7399 10.1541 16.4945 10.6767 17.1202 C 10.8584 17.3078 11.2207 17.2978 11.5396 17.259 C 11.8684 17.2094 12.3668 17.044 12.3765 16.7126 C 12.4001 15.8455 11.9433 14.9541 11.5747 14.1187 C 11.3303 13.5644 11.02 12.9457 10.5518 12.4767 C 10.318 12.2831 9.9034 12.1414 9.6 12.2555 Z " stroke-width="1.0840335113218365"/>
  </g>
  <path id="ID0.19551143841817975" fill="#FAA51D" stroke="none" stroke-linecap="round" d="M 11.6467 14.3114 C 11.9128 14.211 12.1343 14.7578 12.3152 15.024 C 12.7378 15.6944 13.0771 16.4879 13.3305 17.0645 C 13.6219 17.7274 13.9919 18.3995 14.054 19.1147 C 14.0375 19.3789 13.6627 19.5283 13.4466 19.6185 C 13.0422 19.7868 12.4712 20.2497 12.1188 19.9653 C 11.7102 19.631 12.0654 18.9763 11.9487 18.5007 C 11.6975 17.4874 11.1731 16.5716 11.1243 15.5475 C 11.0678 15.101 11.2717 14.4549 11.6467 14.3114 Z " stroke-width="1.0840336389179162"/>
  <g id="ID0.6909988787956536">
    <g id="ID0.847524844110012">
      <path id="ID0.10025785537436604" fill="#FAA51D" stroke="none" d="M 8.0867 2.2334 C 6.4303 2.227 4.928 2.8259 3.8372 3.7985 C 2.7476 4.7712 2.0695 6.1177 2.0637 7.6066 C 2.058 9.0956 2.7256 10.4473 3.8078 11.4283 C 4.891 12.4094 6.3886 13.0198 8.045 13.0262 C 9.7013 13.0326 11.2036 12.4338 12.2944 11.4611 C 13.384 10.4885 14.0621 9.142 14.0679 7.653 C 14.0737 6.1641 13.406 4.8124 12.3239 3.8313 C 11.2407 2.8503 9.743 2.2398 8.0867 2.2334 Z " stroke-width="1.1013090168013062"/>
      <path id="ID0.23814574256539345" fill="#FAA51D" stroke="none" stroke-linecap="round" d="M 14.6247 1.3868 L 10.2674 3.2422 L 13.9444 6.4503 L 14.6247 1.3868 Z " stroke-width="1.1013090168013062"/>
      <path id="ID0.23814574256539345" fill="#FAA51D" stroke="none" stroke-linecap="round" d="M 3.6894 0.7065 L 7.7927 3.0712 L 3.7574 5.8149 L 3.6894 0.7065 Z " stroke-width="1.1013089035305401"/>
      <path id="ID0.46886637480929494" fill="#FFFFFF" stroke="none" stroke-linecap="round" d="M 5.4211 8.5942 C 4.4678 8.4903 3.7111 7.3662 2.782 7.5377 C 1.864 7.7071 0.812 8.6171 0.792 9.5124 C 0.7703 10.585 1.6174 11.6731 2.5437 12.2174 C 3.7972 13.0064 5.3661 13.1336 6.8625 13.2253 C 7.8402 13.2852 8.8848 13.1384 9.7555 12.6858 C 10.4629 12.3207 11.3463 11.6952 11.4695 10.8752 C 11.5325 9.9779 11.0537 8.7723 10.2124 8.4475 C 8.7202 7.8712 6.993 8.7996 5.4211 8.5942 Z " stroke-width="1.1013090168013062"/>
      <path id="ID0.2958779144100845" fill="#666666" stroke="none" stroke-linecap="round" d="M 5.7728 8.0097 C 5.4216 7.9577 4.8549 7.8553 4.7812 8.116 C 4.6797 8.4493 4.9832 9.1212 5.3828 9.1646 C 5.9078 9.2525 6.6586 8.7598 6.7624 8.399 C 6.8328 8.1448 6.1273 8.0243 5.7728 8.0097 Z " stroke-width="1.1013090168013062"/>
    </g>
    <g id="ID0.26280788984149694">
      <g id="ID0.2985607646405697">
        <path id="ID0.6929170889779925" fill="#000000" stroke="none" d="M 4.498 3.9842 C 4.1566 3.9829 3.8452 4.1821 3.6204 4.5051 C 3.3945 4.828 3.254 5.2757 3.2521 5.769 C 3.2502 6.2624 3.3872 6.7112 3.6106 7.0358 C 3.833 7.3605 4.1427 7.5621 4.4842 7.5634 C 4.8256 7.5648 5.1369 7.3655 5.3617 7.0426 C 5.5876 6.7197 5.7281 6.272 5.73 5.7786 C 5.7319 5.2852 5.5949 4.8365 5.3715 4.5118 C 5.1492 4.1872 4.8394 3.9855 4.498 3.9842 Z " stroke-width="1.1013090168013062"/>
        <path id="ID0.02252052817493677" fill="#CCCCCC" stroke="none" d="M 4.1017 4.3336 C 3.9728 4.3331 3.8546 4.4373 3.7702 4.6066 C 3.6847 4.7759 3.631 5.0091 3.63 5.2679 C 3.629 5.5267 3.6809 5.7604 3.7651 5.9303 C 3.8481 6.1003 3.9656 6.2053 4.0944 6.2058 C 4.2233 6.2063 4.3415 6.1022 4.4259 5.9329 C 4.5113 5.7636 4.5651 5.5304 4.5661 5.2715 C 4.5671 5.0127 4.5151 4.7791 4.431 4.6091 C 4.3479 4.4392 4.2305 4.3341 4.1017 4.3336 Z " stroke-width="1.1013090168013062"/>
      </g>
      <g id="ID0.2985607646405697">
        <path id="ID0.6929170889779925" fill="#000000" stroke="none" d="M 8.6246 4.16 C 8.2832 4.1587 7.9719 4.3579 7.7471 4.6809 C 7.5211 5.0038 7.3806 5.4515 7.3787 5.9448 C 7.3768 6.4382 7.5139 6.887 7.7373 7.2116 C 7.9596 7.5363 8.2694 7.7379 8.6108 7.7392 C 8.9522 7.7406 9.2635 7.5413 9.4883 7.2184 C 9.7143 6.8955 9.8548 6.4478 9.8567 5.9544 C 9.8586 5.461 9.7215 5.0123 9.4981 4.6876 C 9.2758 4.363 8.966 4.1613 8.6246 4.16 Z " stroke-width="1.1013090168013062"/>
        <path id="ID0.02252052817493677" fill="#CCCCCC" stroke="none" d="M 8.2858 4.4683 C 8.1569 4.4678 8.0387 4.5719 7.9543 4.7412 C 7.8689 4.9105 7.8151 5.1438 7.8141 5.4026 C 7.8131 5.6614 7.8651 5.8951 7.9492 6.065 C 8.0323 6.2349 8.1497 6.34 8.2785 6.3405 C 8.4074 6.341 8.5256 6.2368 8.61 6.0675 C 8.6954 5.8983 8.7492 5.665 8.7502 5.4062 C 8.7512 5.1474 8.6993 4.9137 8.6151 4.7438 C 8.5321 4.5738 8.4146 4.4688 8.2858 4.4683 Z " stroke-width="1.1013090168013062"/>
      </g>
    </g>
  </g>
  <path id="ID0.9358589742332697" fill="#F9B341" stroke="none" stroke-width="16.260503120124604" stroke-linecap="round" d="M 11.9327 12.6831 C 12.2534 12.697 12.6491 12.3561 12.8938 12.0637 C 13.2906 11.5884 13.4849 11.0563 13.6967 10.5253 C 13.8734 10.1195 14.2619 9.6763 14.1394 9.2344 C 14.0164 8.9282 13.4402 8.6981 13.1649 8.8842 C 12.5953 9.2713 12.4036 10.0346 12.0742 10.6448 C 11.8383 11.081 11.549 11.5155 11.5355 12.0098 C 11.4955 12.2697 11.6848 12.6705 11.9327 12.6831 Z "/>
</svg>