<svg xmlns="http://www.w3.org/2000/svg" xmlns:xlink="http://www.w3.org/1999/xlink" version="1.1" width="30.511856295567572" height="36.50404665659052" viewBox="-8.082752466401368 -7.910952452769786 30.511856295567572 36.50404665659052">
  <!-- Exported by Scratch - http://scratch.mit.edu/ -->
  <path id="ID0.9358589742332697" fill="#DB861B" stroke="none" stroke-width="16.26050312850638" stroke-linecap="round" d="M 8.053 12.042 C 7.7815 12.2131 7.6504 12.7188 7.6158 13.0985 C 7.5604 13.7151 7.7037 14.2632 7.832 14.8202 C 7.918 15.2544 7.851 15.84 8.2034 16.1335 C 8.4789 16.3151 9.0836 16.176 9.2039 15.8662 C 9.4517 15.2237 9.1744 14.4871 9.0977 13.7979 C 9.0431 13.305 9.0334 12.7831 8.763 12.3691 C 8.6478 12.1327 8.264 11.9111 8.053 12.042 Z "/>
  <path id="ID0.19551143841817975" fill="#DB861B" stroke="none" stroke-width="16.260504939061224" stroke-linecap="round" d="M 7.6317 15.087 C 7.3516 15.1838 6.9029 15.2459 6.7679 15.5437 C 6.4644 16.2221 6.4728 17.037 6.429 17.7975 C 6.3705 18.5205 6.2199 19.27 6.3707 19.9708 C 6.4766 20.2148 6.8702 20.2441 7.1036 20.2635 C 7.5402 20.2994 8.2258 20.5644 8.4736 20.1854 C 8.7597 19.7417 8.1996 19.2083 8.1853 18.7394 C 8.1579 17.4704 8.5328 16.188 8.3492 14.9968 C 8.3033 14.699 7.8566 15.0086 7.6317 15.087 Z "/>
  <g id="ID0.30696602864190936">
    <path id="ID0.637318427208811" fill="#FAA51D" stroke="none" stroke-linecap="round" d="M 4.1808 15.4723 C 4.8876 15.4551 5.5564 14.9068 6.2664 14.9763 C 6.6045 15.0107 6.9106 15.3876 6.8494 15.6673 C 6.8023 16.081 6.3974 16.3667 6.0229 16.5218 C 5.458 16.7773 4.8578 16.9087 4.1982 16.9367 C 3.4714 16.9679 2.7126 16.9865 2.0194 16.7719 C 1.676 16.6954 1.2194 16.4573 1.2271 16.1052 C 1.2366 15.701 1.6436 15.2785 2.0567 15.1823 C 2.7363 15.0307 3.4584 15.525 4.1808 15.4723 Z " stroke-width="1.0840336057944824"/>
    <path id="ID0.9894068208523095" fill="#FFFFFF" stroke="none" stroke-linecap="round" d="M 1.8209 15.2151 C 2.3345 14.9761 3.169 15.1285 3.5692 15.4551 C 3.7599 15.5598 3.0663 15.8021 3.0028 16.0798 C 2.936 16.3793 3.5156 16.9121 3.2617 16.9354 C 2.6819 17.0625 1.7466 16.8912 1.3351 16.3785 C 1.0728 16.0516 1.441 15.3921 1.8209 15.2151 Z " stroke-width="1.0840336057944824"/>
  </g>
  <g id="ID0.536394951865077">
    <path id="ID0.6198067106306553" fill="#FAA51D" stroke="none" stroke-linecap="round" d="M 6.6124 9.1152 C 7.1292 9.0914 7.8651 8.9184 8.1273 9.3812 C 8.6894 10.2595 8.6297 11.4403 8.6885 12.4915 C 8.7472 13.5405 8.9025 14.7332 8.5013 15.767 C 8.3167 16.1875 7.6475 16.2512 7.1557 16.3035 C 6.6876 16.352 6.0287 16.3083 5.7948 15.9172 C 5.2274 15.0404 5.1259 13.9283 5.0256 12.9314 C 4.9125 11.7952 4.6657 10.5724 5.0925 9.5019 C 5.2843 9.0188 6.0912 9.1383 6.6124 9.1152 Z " stroke-width="1.0840335748749965"/>
    <path id="ID0.21503017749637365" fill="#FFFFFF" stroke="none" stroke-linecap="round" d="M 7.5506 10.8639 C 7.849 10.8424 8.1695 11.0693 8.294 11.3513 C 8.5856 11.9587 8.6673 12.6798 8.7175 13.3576 C 8.7753 14.1371 8.835 14.9414 8.6249 15.7291 C 8.5392 15.9758 8.2066 16.1195 7.901 16.2187 C 7.5819 16.3124 7.0603 16.3724 6.9118 16.076 C 6.5248 15.2997 6.5633 14.2988 6.5454 13.3859 C 6.5333 12.7802 6.5538 12.0883 6.7807 11.4656 C 6.9111 11.1916 7.2274 10.8883 7.5506 10.8639 Z " stroke-width="1.0840335748749965"/>
  </g>
  <path id="ID0.19551143841817975" fill="#FAA51D" stroke="none" stroke-linecap="round" d="M 6.2776 14.8408 C 6.0161 14.7889 5.9134 15.2604 5.8137 15.5237 C 5.5456 16.2325 5.3852 16.9843 5.2731 17.7377 C 5.1496 18.4525 4.9321 19.1854 5.0191 19.897 C 5.1026 20.1495 5.492 20.2141 5.7227 20.2545 C 6.1543 20.3295 6.8132 20.6552 7.0942 20.3002 C 7.4191 19.884 6.9249 19.3242 6.9373 18.8341 C 6.9643 17.82 7.3474 16.8542 7.1764 15.8989 C 7.1115 15.4258 6.7046 14.9282 6.2776 14.8408 Z " stroke-width="1.0840336128809243"/>
  <g id="ID0.6909988787956536">
    <g id="ID0.847524844110012">
      <path id="ID0.10025785537436604" fill="#FAA51D" stroke="none" d="M 6.6148 1.9994 C 8.2688 1.9116 9.7987 2.4359 10.936 3.3538 C 12.0721 4.2718 12.8156 5.5833 12.8945 7.0702 C 12.9734 8.5571 12.3729 9.9399 11.3403 10.973 C 10.3066 12.0061 8.8408 12.6893 7.1867 12.7771 C 5.5327 12.8649 4.0028 12.3406 2.8655 11.4227 C 1.7294 10.5048 0.986 9.1932 0.9071 7.7063 C 0.8282 6.2195 1.4286 4.8366 2.4612 3.8036 C 3.4949 2.7705 4.9607 2.0872 6.6148 1.9994 Z " stroke-width="1.1013090817453284"/>
      <path id="ID0.23814574256539345" fill="#FAA51D" stroke="none" stroke-linecap="round" d="M 0.0475 1.4504 L 4.4908 3.0895 L 0.9758 6.4743 L 0.0475 1.4504 Z " stroke-width="1.1013090817453284"/>
      <path id="ID0.23814574256539345" fill="#FAA51D" stroke="none" stroke-linecap="round" d="M 11.0461 0.2193 L 7.0639 2.7828 L 11.2292 5.325 L 11.0461 0.2193 Z " stroke-width="1.1013090814427378"/>
      <path id="ID0.46886637480929494" fill="#FFFFFF" stroke="none" stroke-linecap="round" d="M 9.6254 8.2089 C 10.5724 8.0583 11.273 6.8984 12.2094 7.0241 C 13.1346 7.1481 14.23 8.0054 14.294 8.8986 C 14.3684 9.9688 13.5758 11.0972 12.6773 11.6864 C 11.4641 12.536 9.9033 12.7401 8.4133 12.9052 C 7.4397 13.0132 6.3891 12.9178 5.4972 12.5086 C 4.7728 12.1787 3.8597 11.5974 3.6963 10.7844 C 3.5894 9.8913 4.0084 8.6636 4.8326 8.2978 C 6.2948 7.6489 8.0655 8.4913 9.6254 8.2089 Z " stroke-width="1.1013090817453284"/>
      <path id="ID0.2958779144100845" fill="#666666" stroke="none" stroke-linecap="round" d="M 9.2326 7.653 C 9.5807 7.5838 10.1418 7.4536 10.2282 7.7104 C 10.346 8.0383 10.0758 8.7243 9.6788 8.7873 C 9.1588 8.9009 8.3847 8.4457 8.2632 8.0904 C 8.1805 7.84 8.8792 7.685 9.2326 7.653 Z " stroke-width="1.1013090817453284"/>
    </g>
    <g id="ID0.26280788984149694">
      <g id="ID0.2985607646405697">
        <path id="ID0.6929170889779925" fill="#000000" stroke="none" d="M 10.3035 3.5961 C 10.6444 3.578 10.9652 3.7617 11.2056 4.0731 C 11.4471 4.3846 11.6094 4.8248 11.6356 5.3175 C 11.6617 5.8102 11.5469 6.2652 11.3397 6.6004 C 11.1336 6.9356 10.8341 7.1522 10.4932 7.1703 C 10.1523 7.1884 9.8315 7.0047 9.5911 6.6932 C 9.3496 6.3818 9.1873 5.9415 9.1611 5.4488 C 9.135 4.9561 9.2498 4.5012 9.457 4.1659 C 9.6631 3.8308 9.9626 3.6142 10.3035 3.5961 Z " stroke-width="1.1013090817453284"/>
        <path id="ID0.02252052817493677" fill="#CCCCCC" stroke="none" d="M 10.7073 3.9309 C 10.836 3.924 10.9592 4.0223 11.0517 4.1872 C 11.1454 4.3521 11.2106 4.5824 11.2243 4.8408 C 11.238 5.0993 11.1976 5.3352 11.1219 5.5091 C 11.0473 5.6829 10.9352 5.7936 10.8065 5.8004 C 10.6778 5.8073 10.5546 5.709 10.462 5.5441 C 10.3684 5.3792 10.3032 5.1489 10.2895 4.8905 C 10.2758 4.632 10.3162 4.3961 10.3919 4.2222 C 10.4665 4.0484 10.5786 3.9377 10.7073 3.9309 Z " stroke-width="1.1013090817453284"/>
      </g>
      <g id="ID0.2985607646405697">
        <path id="ID0.6929170889779925" fill="#000000" stroke="none" d="M 6.1646 3.9158 C 6.5056 3.8978 6.8263 4.0814 7.0667 4.3929 C 7.3082 4.7044 7.4706 5.1446 7.4967 5.6373 C 7.5229 6.13 7.408 6.5849 7.2008 6.9202 C 6.9948 7.2554 6.6952 7.472 6.3543 7.4901 C 6.0134 7.5082 5.6926 7.3245 5.4522 7.013 C 5.2107 6.7016 5.0484 6.2613 5.0222 5.7686 C 4.9961 5.2759 5.1109 4.821 5.3181 4.4857 C 5.5242 4.1505 5.8237 3.9339 6.1646 3.9158 Z " stroke-width="1.1013090817453284"/>
        <path id="ID0.02252052817493677" fill="#CCCCCC" stroke="none" d="M 6.5658 4.2007 C 6.6944 4.1939 6.8177 4.2921 6.9102 4.457 C 7.0039 4.6219 7.0691 4.8523 7.0828 5.1107 C 7.0965 5.3691 7.0561 5.6051 6.9804 5.779 C 6.9058 5.9528 6.7936 6.0635 6.665 6.0703 C 6.5363 6.0771 6.4131 5.9789 6.3205 5.814 C 6.2268 5.6491 6.1617 5.4188 6.148 5.1603 C 6.1343 4.9019 6.1747 4.6659 6.2504 4.4921 C 6.325 4.3183 6.4371 4.2075 6.5658 4.2007 Z " stroke-width="1.1013090817453284"/>
      </g>
    </g>
  </g>
  <path id="ID0.9358589742332697" fill="#F9B341" stroke="none" stroke-width="16.260503602997964" stroke-linecap="round" d="M 5.8081 12.2608 C 6.1028 12.3881 6.3101 12.8676 6.4027 13.2374 C 6.5524 13.8382 6.4951 14.4018 6.454 14.9719 C 6.4359 15.4142 6.5922 15.9825 6.2892 16.3267 C 6.0449 16.5485 5.426 16.5041 5.2595 16.2166 C 4.9158 15.6198 5.0764 14.8493 5.0461 14.1566 C 5.0242 13.6611 4.9535 13.1439 5.157 12.6933 C 5.2344 12.4419 5.5796 12.1639 5.8081 12.2608 Z "/>
</svg>