<svg xmlns="http://www.w3.org/2000/svg" xmlns:xlink="http://www.w3.org/1999/xlink" version="1.1" width="44.35124007222324" height="44.35124007222324" viewBox="-0.3981709647043028 -0.3323708939416685 44.35124007222324 44.35124007222324">
  <!-- Exported by Scratch - http://scratch.mit.edu/ -->
  <g id="ID0.25541364355012774">
    <path id="ID0.48833495704457164" fill="#CC0000" stroke="none" d="M 13.2608 2.3057 L 41.239 13.2382 L 30.3065 41.2163 L 2.3283 30.2838 L 13.2608 2.3057 Z " stroke-width="1.8715418042845302"/>
    <path id="ID0.48833495704457164" fill="#CC0000" stroke="none" d="M 29.2943 2.1869 L 41.3041 29.7198 L 13.7713 41.7297 L 1.7614 14.1968 L 29.2943 2.1869 Z " stroke-width="1.8715418271420825"/>
  </g>
  <g id="ID0.25541364355012774">
    <path id="ID0.48833495704457164" fill="#AB0101" stroke="none" d="M 21.6484 0.6034 L 43.0173 21.7143 L 21.9064 43.0831 L 0.5376 21.9723 L 21.6484 0.6034 Z " stroke-width="1.871541891070898"/>
    <path id="ID0.48833495704457164" fill="#AB0101" stroke="none" d="M 36.5535 6.843 L 36.6887 36.881 L 6.6508 37.0162 L 6.5155 6.9783 L 36.5535 6.843 Z " stroke-width="1.871541882245776"/>
  </g>
  <g id="ID0.25541364355012774">
    <path id="ID0.48833495704457164" fill="#985050" stroke="none" d="M 21.738 6.2897 L 37.7966 21.9279 L 22.1585 37.9866 L 6.0998 22.3484 L 21.738 6.2897 Z " stroke-width="1.3965734112507435"/>
    <path id="ID0.48833495704457164" fill="#985050" stroke="none" d="M 32.8947 10.8919 L 33.1568 33.3053 L 10.7433 33.5675 L 10.4812 11.154 L 32.8947 10.8919 Z " stroke-width="1.3965734287981557"/>
  </g>
  <g id="ID0.25541364355012774">
    <path id="ID0.48833495704457164" fill="#977373" stroke="none" d="M 15.2695 7.4999 L 36.3341 15.1625 L 28.6716 36.2271 L 7.607 28.5645 L 15.2695 7.4999 Z " stroke-width="1.3965734352874484"/>
    <path id="ID0.48833495704457164" fill="#977373" stroke="none" d="M 27.3774 7.1032 L 36.8221 27.4312 L 16.4941 36.876 L 7.0493 16.548 L 27.3774 7.1032 Z " stroke-width="1.3965734524732976"/>
  </g>
  <g id="ID0.25541364355012774">
    <path id="ID0.48833495704457164" fill="#B2B2B2" stroke="none" d="M 11.4806 17.1523 L 26.4608 11.3907 L 32.2224 26.3709 L 17.2422 32.1325 L 11.4806 17.1523 Z " stroke-width="1.0000000078817934"/>
    <path id="ID0.48833495704457164" fill="#B2B2B2" stroke="none" d="M 17.8036 11.2226 L 32.4601 17.7641 L 25.9185 32.4205 L 11.2621 25.879 L 17.8036 11.2226 Z " stroke-width="0.9999999934167718"/>
  </g>
  <g id="ID0.25541364355012774">
    <path id="ID0.48833495704457164" fill="#C6C6C6" stroke="none" d="M 13.85 13.95 L 29.9 13.95 L 29.9 30 L 13.85 30 L 13.85 13.95 Z " stroke-width="1"/>
    <path id="ID0.48833495704457164" fill="#C6C6C6" stroke="none" d="M 21.9779 10.6874 L 33.3091 22.0543 L 21.9423 33.3855 L 10.611 22.0186 L 21.9779 10.6874 Z " stroke-width="0.9999999928324588"/>
  </g>
  <path id="ID0.6092350943945348" fill="#666666" stroke="none" d="M 22 19.05 C 22.828 19.05 23.578 19.386 24.121 19.929 C 24.664 20.472 25 21.222 25 22.05 C 25 22.878 24.664 23.628 24.121 24.171 C 23.578 24.714 22.828 25.05 22 25.05 C 21.172 25.05 20.422 24.714 19.879 24.171 C 19.336 23.628 19 22.878 19 22.05 C 19 21.222 19.336 20.472 19.879 19.929 C 20.422 19.386 21.172 19.05 22 19.05 Z " stroke-width="1"/>
  <path id="ID0.34108690824359655" fill="#CC0000" stroke="none" d="M 19.529 33.1736 L 21.2543 33.4666 L 20.9613 35.1919 L 19.236 34.8989 L 19.529 33.1736 Z " stroke-width="1.0000000082462468"/>
  <path id="ID0.34108690824359655" fill="#CC0000" stroke="none" d="M 9.45 27.45 L 11.2 27.45 L 11.2 29.2 L 9.45 29.2 L 9.45 27.45 Z " stroke-width="1"/>
  <path id="ID0.34108690824359655" fill="#CC0000" stroke="none" d="M 10.3501 16.3748 L 11.7609 17.4102 L 10.7256 18.8211 L 9.3147 17.7857 L 10.3501 16.3748 Z " stroke-width="0.9999999870767978"/>
  <path id="ID0.34108690824359655" fill="#CC0000" stroke="none" d="M 6.4317 21.5698 L 8.0887 22.1326 L 7.526 23.7896 L 5.8689 23.2269 L 6.4317 21.5698 Z " stroke-width="1.000000006645843"/>
  <path id="ID0.34108690824359655" fill="#CC0000" stroke="none" d="M 10.4207 10.7613 L 12.0681 11.3519 L 11.4775 12.9992 L 9.8302 12.4087 L 10.4207 10.7613 Z " stroke-width="1.0000000262923723"/>
  <path id="ID0.34108690824359655" fill="#CC0000" stroke="none" d="M 17.5252 8.3791 L 18.9726 7.3955 L 19.9562 8.8429 L 18.5088 9.8265 L 17.5252 8.3791 Z " stroke-width="0.9999999998968363"/>
  <path id="ID0.34108690824359655" fill="#CC0000" stroke="none" d="M 22.446 9.0007 L 24.0153 9.7752 L 23.2407 11.3445 L 21.6715 10.5699 L 22.446 9.0007 Z " stroke-width="0.9999999965658035"/>
  <path id="ID0.34108690824359655" fill="#CC0000" stroke="none" d="M 25.6489 8.135 L 27.0784 7.1255 L 28.0878 8.555 L 26.6583 9.5645 L 25.6489 8.135 Z " stroke-width="0.999999989474448"/>
  <path id="ID0.34108690824359655" fill="#CC0000" stroke="none" d="M 14.8899 10.0212 L 16.4946 10.7194 L 15.7964 12.3241 L 14.1917 11.6259 L 14.8899 10.0212 Z " stroke-width="1.0000000171554662"/>
  <path id="ID0.34108690824359655" fill="#CC0000" stroke="none" d="M 29.619 11.6247 L 31.0703 12.6025 L 30.0925 14.0538 L 28.6412 13.076 L 29.619 11.6247 Z " stroke-width="0.9999999974925302"/>
  <path id="ID0.34108690824359655" fill="#CC0000" stroke="none" d="M 32.0383 15.5987 L 33.6331 16.3192 L 32.9126 17.914 L 31.3178 17.1935 L 32.0383 15.5987 Z " stroke-width="1.000000014020717"/>
  <path id="ID0.34108690824359655" fill="#CC0000" stroke="none" d="M 32.7791 21.3643 L 34.4678 20.9055 L 34.9266 22.5943 L 33.2379 23.0531 L 32.7791 21.3643 Z " stroke-width="1.0000000246887966"/>
  <path id="ID0.34108690824359655" fill="#CC0000" stroke="none" d="M 33.5556 24.701 L 35.2607 25.0951 L 34.8665 26.8002 L 33.1615 26.406 L 33.5556 24.701 Z " stroke-width="0.999999990834985"/>
  <path id="ID0.34108690824359655" fill="#CC0000" stroke="none" d="M 29.3378 31.6911 L 30.8234 30.7663 L 31.7483 32.2519 L 30.2626 33.1768 L 29.3378 31.6911 Z " stroke-width="0.9999999921446268"/>
  <path id="ID0.34108690824359655" fill="#CC0000" stroke="none" d="M 23.9142 34.3234 L 25.5491 33.6993 L 26.1732 35.3342 L 24.5383 35.9583 L 23.9142 34.3234 Z " stroke-width="0.9999999898008838"/>
  <path id="ID0.34108690824359655" fill="#CC0000" stroke="none" d="M 13.2466 32.5483 L 14.8913 31.9503 L 15.4893 33.5949 L 13.8447 34.193 L 13.2466 32.5483 Z " stroke-width="0.999999981579254"/>
  <path id="ID0.34108690824359655" fill="#CC0000" stroke="none" d="M 17.0416 31.2199 L 17.7792 31.5297 L 17.4694 32.2673 L 16.7318 31.9574 L 17.0416 31.2199 Z " stroke-width="0.4571428261210047"/>
  <path id="ID0.34108690824359655" fill="#CC0000" stroke="none" d="M 9.2916 20.2699 L 10.0292 20.5797 L 9.7194 21.3173 L 8.9818 21.0074 L 9.2916 20.2699 Z " stroke-width="0.4571428261210047"/>
  <path id="ID0.34108690824359655" fill="#CC0000" stroke="none" d="M 13.6416 11.9699 L 14.3792 12.2797 L 14.0694 13.0173 L 13.3318 12.7074 L 13.6416 11.9699 Z " stroke-width="0.4571428261210047"/>
  <path id="ID0.34108690824359655" fill="#CC0000" stroke="none" d="M 21.6416 7.8199 L 22.3792 8.1297 L 22.0694 8.8673 L 21.3318 8.5574 L 21.6416 7.8199 Z " stroke-width="0.4571428261210047"/>
  <path id="ID0.34108690824359655" fill="#CC0000" stroke="none" d="M 30.8916 18.4199 L 31.6292 18.7297 L 31.3194 19.4673 L 30.5818 19.1574 L 30.8916 18.4199 Z " stroke-width="0.4571428261210047"/>
  <path id="ID0.34108690824359655" fill="#CC0000" stroke="none" d="M 31.3916 28.9199 L 32.1292 29.2297 L 31.8194 29.9673 L 31.0818 29.6574 L 31.3916 28.9199 Z " stroke-width="0.4571428261210047"/>
  <path id="ID0.34108690824359655" fill="#CC0000" stroke="none" d="M 26.8916 31.9199 L 27.6292 32.2297 L 27.3194 32.9673 L 26.5818 32.6574 L 26.8916 31.9199 Z " stroke-width="0.4571428261210047"/>
</svg>