<svg xmlns="http://www.w3.org/2000/svg" xmlns:xlink="http://www.w3.org/1999/xlink" version="1.1" width="19.7500000425375" height="24.900001568416407" viewBox="-0.2500000212687499 -0.2500000212687499 19.7500000425375 24.900001568416407">
  <!-- Exported by Scratch - http://scratch.mit.edu/ -->
  <g id="ID0.7675583399832249">
    <path id="ID0.38039665995165706" fill="#FF99E5" stroke="none" stroke-linecap="round" d="M 6.1 20.75 L 8.45 20.8 L 8.45 24.15 L 5.1 24.15 L 6.1 20.75 Z " stroke-width="1"/>
    <path id="ID0.38039665995165706" fill="#FF99E5" stroke="none" stroke-linecap="round" d="M 12.05 20.65 L 14.4 20.7 L 14.4 24.05 L 11.05 24.05 L 12.05 20.65 Z " stroke-width="1"/>
    <g id="ID0.5386813376098871">
      <path id="ID0.16596183879300952" fill="#FF99E5" stroke="none" d="M 3.65 8.8 L 16.15 8.8 L 16.15 21.3 L 3.65 21.3 L 3.65 8.8 Z " stroke-width="1"/>
      <g id="ID0.552080174908042">
        <path id="ID0.7763987220823765" fill="#FFCCF2" stroke="none" d="M 7.2161 12.1526 L 7.7843 10.6569 L 11.3833 12.0241 L 10.8151 13.5198 L 7.2161 12.1526 Z " stroke-width="0.9999999583632788"/>
        <path id="ID0.7698537898249924" fill="#FFCCF2" stroke="none" d="M 8.0748 13.307 L 9.2467 10.2221 L 10.6489 10.7548 L 9.477 13.8397 L 8.0748 13.307 Z " stroke-width="0.9999999583632788"/>
      </g>
      <g id="ID0.552080174908042">
        <path id="ID0.7763987220823765" fill="#FFCCF2" stroke="none" d="M 4.7125 17.765 L 5.145 16.2246 L 8.8516 17.2654 L 8.4191 18.8058 L 4.7125 17.765 Z " stroke-width="1.0000000030326022"/>
        <path id="ID0.7698537898249924" fill="#FFCCF2" stroke="none" d="M 5.6895 18.8098 L 6.5816 15.6326 L 8.0258 16.0382 L 7.1336 19.2153 L 5.6895 18.8098 Z " stroke-width="1.0000000030326022"/>
      </g>
      <g id="ID0.552080174908042">
        <path id="ID0.7763987220823765" fill="#FFCCF2" stroke="none" d="M 10.3358 17.7977 L 11.6084 16.8279 L 13.942 19.8901 L 12.6694 20.8599 L 10.3358 17.7977 Z " stroke-width="0.999999981813353"/>
        <path id="ID0.7698537898249924" fill="#FFCCF2" stroke="none" d="M 10.4871 19.2193 L 13.1119 17.2191 L 14.021 18.4121 L 11.3963 20.4123 L 10.4871 19.2193 Z " stroke-width="0.999999981813353"/>
      </g>
      <path id="ID0.4600676717236638" fill="#000000" stroke="none" d="M 4.4563 11.3019 L 8.2563 11.3019 L 8.2563 14.8519 L 4.4563 14.8519 L 4.4563 11.3019 Z " stroke-width="0.8468940958319876"/>
      <path id="ID0.7364376271143556" fill="#000000" stroke="none" d="M 3.7 11 L 5 11 L 5 12.3 L 3.7 12.3 L 3.7 11 Z " stroke-width="1"/>
      <path id="ID0.4600676717236638" fill="#000000" stroke="none" d="M 10.9063 11.1449 L 14.7063 11.1449 L 14.7063 14.8449 L 10.9063 14.8449 L 10.9063 11.1449 Z " stroke-width="0.8672253585763413"/>
      <path id="ID0.7364376271143556" fill="#000000" stroke="none" d="M 14.4 11 L 15.7 11 L 15.7 12.3 L 14.4 12.3 L 14.4 11 Z " stroke-width="1"/>
      <path id="ID0.4044948620721698" fill="#000000" stroke="none" d="M 6.95 15.2281 L 12.3 15.2281 L 12.3 18.7281 L 6.95 18.7281 L 6.95 15.2281 Z " stroke-width="0.979667558181756"/>
      <path id="ID0.9302744306623936" fill="#99B2FF" stroke="none" d="M 13.3 15 L 15.05 15 L 15.05 16 L 13.3 16 L 13.3 15 Z " stroke-width="1"/>
      <path id="ID0.9302744306623936" fill="#99B2FF" stroke="none" d="M 3.9 14.9 L 5.65 14.9 L 5.65 15.9 L 3.9 15.9 L 3.9 14.9 Z " stroke-width="1"/>
      <path id="ID0.08808353403583169" fill="#FFCCF2" stroke="none" d="M 14.0472 7.9425 L 15.6865 6.982 L 17.3547 9.8293 L 15.7154 10.7898 L 14.0472 7.9425 Z " stroke-width="1.0000000251807977"/>
      <path id="ID0.9458503313362598" fill="#FF99E5" stroke="none" d="M 0.25 6.45 L 4.75 6.45 L 4.75 10.95 L 0.25 10.95 L 0.25 6.45 Z " stroke-width="1"/>
      <path id="ID0.9458503313362598" fill="#FF99E5" stroke="none" d="M 14.5 5.95 L 19 5.95 L 19 10.45 L 14.5 10.45 L 14.5 5.95 Z " stroke-width="1"/>
    </g>
  </g>
  <path id="ID0.7980184806510806" fill="#000000" stroke="none" d="M 8.65 0.25 L 10.05 0.25 L 9.5 4.9 L 8.65 0.25 Z " stroke-width="1"/>
  <path id="ID0.7980184806510806" fill="#000000" stroke="none" d="M 3.3309 3.2162 L 4.4114 2.326 L 6.7439 6.494 L 3.3309 3.2162 Z " stroke-width="1.000000004637231"/>
  <path id="ID0.7980184806510806" fill="#000000" stroke="none" d="M 15.4191 3.3662 L 14.3386 2.476 L 12.0879 6.3874 L 15.4191 3.3662 Z " stroke-width="1.0000000425374997"/>
</svg>