<svg xmlns="http://www.w3.org/2000/svg" xmlns:xlink="http://www.w3.org/1999/xlink" version="1.1" width="31.101736027367743" height="36.74065776503864" viewBox="-7.252252796475009 -8.181352821920232 31.101736027367743 36.74065776503864">
  <!-- Exported by Scratch - http://scratch.mit.edu/ -->
  <path id="ID0.9358589742332697" fill="#DB861B" stroke="none" stroke-width="16.260503585843423" stroke-linecap="round" d="M 8.9773 12.6333 C 8.7429 12.4141 8.2205 12.4155 7.8444 12.4783 C 7.2339 12.5811 6.7401 12.8588 6.2338 13.1242 C 5.8356 13.3174 5.2522 13.4012 5.0577 13.8165 C 4.9519 14.1291 5.2398 14.6787 5.5699 14.7165 C 6.2544 14.7932 6.8965 14.3381 7.5437 14.0892 C 8.0067 13.9114 8.509 13.7696 8.8409 13.403 C 9.0404 13.2317 9.1574 12.8042 8.9773 12.6333 Z "/>
  <path id="ID0.19551143841817975" fill="#DB861B" stroke="none" stroke-width="16.260505634911688" stroke-linecap="round" d="M 9.7356 15.4571 C 9.6192 15.7296 9.364 16.1038 9.4941 16.4039 C 9.7931 17.0843 10.4026 17.6251 10.9368 18.1682 C 11.4333 18.697 11.8878 19.3118 12.5084 19.6705 C 12.7603 19.7559 13.0462 19.4838 13.2173 19.3239 C 13.537 19.0244 14.1937 18.6942 14.0793 18.2561 C 13.9425 17.7462 13.1712 17.8032 12.8141 17.499 C 11.8552 16.6673 11.1565 15.5285 10.1504 14.8647 C 9.8989 14.6988 9.8285 15.2378 9.7356 15.4571 Z "/>
  <g id="ID0.30696602864190936">
    <path id="ID0.637318427208811" fill="#FAA51D" stroke="none" stroke-linecap="round" d="M 6.0779 15.2058 C 6.696 15.549 7.5505 15.4152 8.1274 15.8347 C 8.4015 16.0357 8.4744 16.5157 8.28 16.7259 C 8.0298 17.0587 7.5359 17.0999 7.1345 17.0439 C 6.518 16.9781 5.9339 16.7872 5.3511 16.4772 C 4.7087 16.1359 4.045 15.7676 3.5561 15.2314 C 3.2987 14.9915 3.0256 14.5548 3.2106 14.2552 C 3.4236 13.9116 3.9886 13.7534 4.3935 13.8797 C 5.0562 14.0933 5.4283 14.8853 6.0779 15.2058 Z " stroke-width="1.0840336296178195"/>
    <path id="ID0.9894068208523095" fill="#FFFFFF" stroke="none" stroke-linecap="round" d="M 4.1431 13.8306 C 4.707 13.8848 5.3493 14.4389 5.5289 14.9233 C 5.6403 15.1101 4.9195 14.9676 4.7241 15.1749 C 4.5148 15.3994 4.7447 16.1523 4.5139 16.0438 C 3.9496 15.8596 3.23 15.2381 3.135 14.5876 C 3.0744 14.1729 3.7259 13.7908 4.1431 13.8306 Z " stroke-width="1.0840336296178195"/>
  </g>
  <g id="ID0.536394951865077">
    <path id="ID0.6198067106306553" fill="#FAA51D" stroke="none" stroke-linecap="round" d="M 7.3055 10.0616 C 7.8095 9.9454 8.5025 9.6431 8.8435 10.0514 C 9.5541 10.8146 9.7073 11.9869 9.9538 13.0105 C 10.1997 14.0319 10.5666 15.1774 10.3574 16.2664 C 10.2513 16.7132 9.6044 16.8959 9.13 17.0357 C 8.6781 17.1674 8.0221 17.2426 7.7218 16.8999 C 7.0062 16.1391 6.7068 15.0633 6.4292 14.1006 C 6.1141 13.0031 5.6518 11.8444 5.8796 10.7148 C 5.9816 10.2051 6.7969 10.1778 7.3055 10.0616 Z " stroke-width="1.0840336259501413"/>
    <path id="ID0.21503017749637365" fill="#FFFFFF" stroke="none" stroke-linecap="round" d="M 8.5368 11.6093 C 8.8265 11.5346 9.1825 11.7003 9.3556 11.9553 C 9.7515 12.5006 9.9613 13.1953 10.1322 13.8531 C 10.329 14.6096 10.5321 15.3901 10.4668 16.2027 C 10.4267 16.4608 10.1252 16.6619 9.8424 16.8143 C 9.5454 16.9637 9.043 17.1164 8.8437 16.8515 C 8.3237 16.1572 8.1819 15.1657 8.0005 14.2708 C 7.8799 13.6771 7.7759 12.9927 7.8874 12.3395 C 7.9665 12.0465 8.2232 11.6913 8.5368 11.6093 Z " stroke-width="1.0840336259501413"/>
  </g>
  <path id="ID0.19551143841817975" fill="#FAA51D" stroke="none" stroke-linecap="round" d="M 8.2154 15.4227 C 8.0117 15.2241 7.5899 15.6366 7.3175 15.8081 C 6.6619 16.2532 6.0333 16.8444 5.5702 17.2713 C 5.0378 17.7621 4.4296 18.2299 4.0863 18.8604 C 3.9957 19.1091 4.2793 19.396 4.4412 19.5653 C 4.7445 19.8814 5.0823 20.5342 5.5191 20.4146 C 6.0274 20.2719 5.964 19.5298 6.2613 19.1406 C 6.8972 18.3126 7.7445 17.6835 8.1992 16.7645 C 8.4297 16.3781 8.5016 15.7043 8.2154 15.4227 Z " stroke-width="1.0840336805835837"/>
  <g id="ID0.6909988787956536">
    <g id="ID0.847524844110012">
      <path id="ID0.10025785537436604" fill="#FAA51D" stroke="none" d="M 7.4088 2.0302 C 9.0485 1.7959 10.6189 2.1822 11.8331 2.9955 C 13.0463 3.8089 13.9033 5.0492 14.1139 6.5232 C 14.3246 7.9972 13.8493 9.428 12.9125 10.5486 C 11.9746 11.6694 10.5753 12.4801 8.9355 12.7145 C 7.2958 12.9488 5.7254 12.5624 4.5112 11.7492 C 3.298 10.9357 2.441 9.6954 2.2304 8.2214 C 2.0197 6.7474 2.495 5.3167 3.4318 4.196 C 4.3697 3.0752 5.769 2.2645 7.4088 2.0302 Z " stroke-width="1.1013089285275535"/>
      <path id="ID0.23814574256539345" fill="#FAA51D" stroke="none" stroke-linecap="round" d="M 0.878 2.0615 L 5.4493 3.2995 L 2.2488 6.9831 L 0.878 2.0615 Z " stroke-width="1.1013089285275535"/>
      <path id="ID0.23814574256539345" fill="#FAA51D" stroke="none" stroke-linecap="round" d="M 11.3861 -0.0511 L 7.6474 2.8559 L 12.0219 5.0181 L 11.3861 -0.0511 Z " stroke-width="1.1013089176641233"/>
      <path id="ID0.46886637480929494" fill="#FFFFFF" stroke="none" stroke-linecap="round" d="M 10.9821 7.9771 C 11.9121 7.743 12.5068 6.5255 13.4506 6.5675 C 14.3833 6.6089 15.5505 7.3654 15.6935 8.2495 C 15.8627 9.3089 15.1734 10.5032 14.3308 11.1698 C 13.1978 12.1238 11.6613 12.4658 10.1919 12.7625 C 9.2317 12.9565 8.1768 12.9548 7.2521 12.6264 C 6.5012 12.3621 5.5401 11.8642 5.3052 11.069 C 5.1193 10.1888 5.4277 8.9288 6.2162 8.4913 C 7.6149 7.7151 9.4534 8.3969 10.9821 7.9771 Z " stroke-width="1.1013089285275535"/>
      <path id="ID0.2958779144100845" fill="#666666" stroke="none" stroke-linecap="round" d="M 10.5736 7.3942 C 10.9142 7.2944 11.4615 7.1149 11.5704 7.363 C 11.7168 7.6792 11.5086 8.3864 11.1188 8.4844 C 10.6109 8.6438 9.7994 8.2591 9.6469 7.916 C 9.5423 7.674 10.2244 7.4574 10.5736 7.3942 Z " stroke-width="1.1013089285275535"/>
    </g>
    <g id="ID0.26280788984149694">
      <g id="ID0.2985607646405697">
        <path id="ID0.6929170889779925" fill="#000000" stroke="none" d="M 11.2228 3.2825 C 11.5608 3.2342 11.8966 3.3887 12.1637 3.6776 C 12.4319 3.9663 12.6327 4.3904 12.7025 4.8789 C 12.7723 5.3673 12.6983 5.8306 12.5217 6.1829 C 12.3462 6.5351 12.0671 6.7775 11.7292 6.8258 C 11.3912 6.874 11.0554 6.7196 10.7883 6.4307 C 10.5201 6.1419 10.3193 5.7178 10.2495 5.2294 C 10.1797 4.741 10.2536 4.2776 10.4303 3.9253 C 10.6058 3.5731 10.8849 3.3308 11.2228 3.2825 Z " stroke-width="1.1013089285275535"/>
        <path id="ID0.02252052817493677" fill="#CCCCCC" stroke="none" d="M 11.7285 3.5755 C 11.8561 3.5573 11.9875 3.6442 12.0944 3.8003 C 12.2023 3.9562 12.2877 4.1798 12.3243 4.436 C 12.3609 4.6922 12.3416 4.9308 12.2816 5.1107 C 12.2228 5.2905 12.1209 5.4107 11.9933 5.4289 C 11.8658 5.4472 11.7343 5.3603 11.6275 5.2042 C 11.5195 5.0483 11.4342 4.8247 11.3976 4.5685 C 11.361 4.3123 11.3803 4.0736 11.4402 3.8938 C 11.4991 3.714 11.6009 3.5938 11.7285 3.5755 Z " stroke-width="1.1013089285275535"/>
      </g>
      <g id="ID0.2985607646405697">
        <path id="ID0.6929170889779925" fill="#000000" stroke="none" d="M 7.2026 4.019 C 7.5405 3.9707 7.8763 4.1252 8.1435 4.4141 C 8.4117 4.7029 8.6124 5.127 8.6822 5.6154 C 8.752 6.1038 8.6781 6.5672 8.5015 6.9195 C 8.326 7.2716 8.0469 7.514 7.7089 7.5623 C 7.3709 7.6106 7.0351 7.4561 6.768 7.1672 C 6.4998 6.8784 6.299 6.4543 6.2292 5.9659 C 6.1594 5.4775 6.2334 5.0141 6.41 4.6618 C 6.5855 4.3097 6.8646 4.0673 7.2026 4.019 Z " stroke-width="1.1013089285275535"/>
        <path id="ID0.02252052817493677" fill="#CCCCCC" stroke="none" d="M 7.5561 4.2691 C 7.6836 4.2508 7.8151 4.3377 7.9219 4.4938 C 8.0299 4.6497 8.1152 4.8733 8.1519 5.1296 C 8.1885 5.3858 8.1692 5.6244 8.1092 5.8043 C 8.0503 5.984 7.9485 6.1042 7.8209 6.1225 C 7.6934 6.1407 7.5619 6.0538 7.4551 5.8977 C 7.3471 5.7418 7.2618 5.5182 7.2252 5.262 C 7.1885 5.0058 7.2078 4.7672 7.2678 4.5873 C 7.3267 4.4075 7.4285 4.2873 7.5561 4.2691 Z " stroke-width="1.1013089285275535"/>
      </g>
    </g>
  </g>
  <path id="ID0.9358589742332697" fill="#F9B341" stroke="none" stroke-width="16.260504033539803" stroke-linecap="round" d="M 7.369 12.8061 C 7.3398 13.1258 6.9487 13.4721 6.6261 13.6753 C 6.1018 14.0046 5.5484 14.1257 4.9938 14.2642 C 4.5679 14.3847 4.0765 14.7102 3.655 14.5294 C 3.3682 14.3664 3.2176 13.7644 3.439 13.5167 C 3.8991 13.0042 4.6813 12.9169 5.3302 12.6724 C 5.7942 12.4973 6.2636 12.269 6.7552 12.3221 C 7.0182 12.3173 7.3899 12.5588 7.369 12.8061 Z "/>
</svg>