<svg xmlns="http://www.w3.org/2000/svg" xmlns:xlink="http://www.w3.org/1999/xlink" version="1.1" width="14.704700495151501" height="16.91799929275892" viewBox="0.1999999754886722 -0.26800000436495786 14.704700495151501 16.91799929275892">
  <!-- Exported by Scratch - http://scratch.mit.edu/ -->
  <g id="ID0.3352248161099851">
    <path id="ID0.16596183879300952" fill="#FF99E5" stroke="none" d="M 0.7 1.75 L 13.2 1.75 L 13.2 14.25 L 0.7 14.25 L 0.7 1.75 Z " stroke-width="1"/>
    <g id="ID0.552080174908042">
      <path id="ID0.7763987220823765" fill="#FFCCF2" stroke="none" d="M 4.2661 5.4526 L 4.8343 3.9569 L 8.4333 5.3241 L 7.8651 6.8198 L 4.2661 5.4526 Z " stroke-width="0.9999999583632788"/>
      <path id="ID0.7698537898249924" fill="#FFCCF2" stroke="none" d="M 5.1248 6.607 L 6.2967 3.5221 L 7.6989 4.0548 L 6.527 7.1397 L 5.1248 6.607 Z " stroke-width="0.9999999583632788"/>
    </g>
    <g id="ID0.552080174908042">
      <path id="ID0.7763987220823765" fill="#FFCCF2" stroke="none" d="M 1.7625 11.115 L 2.195 9.5746 L 5.9016 10.6154 L 5.4691 12.1558 L 1.7625 11.115 Z " stroke-width="1.0000000030326022"/>
      <path id="ID0.7698537898249924" fill="#FFCCF2" stroke="none" d="M 2.7395 12.1598 L 3.6316 8.9826 L 5.0758 9.3882 L 4.1836 12.5653 L 2.7395 12.1598 Z " stroke-width="1.0000000030326022"/>
    </g>
    <path id="ID0.38039665995165706" fill="#FF99E5" stroke="none" stroke-linecap="round" d="M 3.15 12.75 L 5.5 12.8 L 5.5 16.15 L 2.15 16.15 L 3.15 12.75 Z " stroke-width="1"/>
    <path id="ID0.38039665995165706" fill="#FF99E5" stroke="none" stroke-linecap="round" d="M 9.1 12.65 L 11.45 12.7 L 11.45 16.05 L 8.1 16.05 L 9.1 12.65 Z " stroke-width="1"/>
    <g id="ID0.552080174908042">
      <path id="ID0.7763987220823765" fill="#FFCCF2" stroke="none" d="M 7.3858 11.0977 L 8.6584 10.1279 L 10.992 13.1901 L 9.7194 14.1599 L 7.3858 11.0977 Z " stroke-width="0.999999981813353"/>
      <path id="ID0.7698537898249924" fill="#FFCCF2" stroke="none" d="M 7.4871 12.5193 L 10.1119 10.5191 L 11.021 11.7121 L 8.3963 13.7123 L 7.4871 12.5193 Z " stroke-width="0.999999981813353"/>
    </g>
    <path id="ID0.4600676717236638" fill="#000000" stroke="none" d="M 1.5063 4.7019 L 5.3063 4.7019 L 5.3063 8.2519 L 1.5063 8.2519 L 1.5063 4.7019 Z " stroke-width="0.8468940958319876"/>
    <path id="ID0.7364376271143556" fill="#000000" stroke="none" d="M 0.75 3.95 L 2.05 3.95 L 2.05 5.25 L 0.75 5.25 L 0.75 3.95 Z " stroke-width="1"/>
    <path id="ID0.4600676717236638" fill="#000000" stroke="none" d="M 7.9063 4.4949 L 11.7063 4.4949 L 11.7063 8.1949 L 7.9063 8.1949 L 7.9063 4.4949 Z " stroke-width="0.8672253585763413"/>
    <path id="ID0.7364376271143556" fill="#000000" stroke="none" d="M 11.45 3.95 L 12.75 3.95 L 12.75 5.25 L 11.45 5.25 L 11.45 3.95 Z " stroke-width="1"/>
    <path id="ID0.4044948620721698" fill="#000000" stroke="none" d="M 4 8.5781 L 9.35 8.5781 L 9.35 12.0781 L 4 12.0781 L 4 8.5781 Z " stroke-width="0.979667558181756"/>
    <path id="ID0.08808353403583169" fill="#FFCCF2" stroke="none" d="M 11.0972 1.1925 L 12.7365 0.232 L 14.4047 3.0793 L 12.7654 4.0398 L 11.0972 1.1925 Z " stroke-width="1.0000000251807977"/>
    <path id="ID0.9458503313362598" fill="#FF99E5" stroke="none" d="M 2.65 7.75 L 7.15 7.75 L 7.15 12.25 L 2.65 12.25 L 2.65 7.75 Z " stroke-width="1"/>
    <path id="ID0.9458503313362598" fill="#FF99E5" stroke="none" d="M 6.3 7.75 L 10.8 7.75 L 10.8 12.25 L 6.3 12.25 L 6.3 7.75 Z " stroke-width="1"/>
    <path id="ID0.9302744306623936" fill="#99B2FF" stroke="none" d="M 1.3 7.55 L 3.05 7.55 L 3.05 8.55 L 1.3 8.55 L 1.3 7.55 Z " stroke-width="1"/>
    <path id="ID0.9302744306623936" fill="#99B2FF" stroke="none" d="M 10.25 7.5 L 12 7.5 L 12 8.5 L 10.25 8.5 L 10.25 7.5 Z " stroke-width="1"/>
  </g>
</svg>