<svg xmlns="http://www.w3.org/2000/svg" xmlns:xlink="http://www.w3.org/1999/xlink" version="1.1" width="481" height="361" viewBox="-0.5 -0.5 481 361">
  <defs>
    <linearGradient id="grad_1" y2="1" x2="0">
      <stop offset="0" stop-color="#CCFFDD" stop-opacity="1"/>
      <stop offset="1" stop-color="#99FFBB" stop-opacity="1"/>
    </linearGradient>
    <radialGradient id="grad_2" cx="0.49439999999999995" cy="0.49229999999999996" r="0.6600100000000001">
      <stop offset="0" stop-color="#00CC44" stop-opacity="1"/>
      <stop offset="1" stop-color="#00CC44" stop-opacity="0"/>
    </radialGradient>
    <radialGradient id="grad_3" cx="0.5007" cy="0.0425" r="1.24475">
      <stop offset="0" stop-color="#009933" stop-opacity="1"/>
      <stop offset="1" stop-color="#006622" stop-opacity="1"/>
    </radialGradient>
    <radialGradient id="grad_4" cx="0.49479999999999996" cy="0.0467" r="1.23929">
      <stop offset="0" stop-color="#009933" stop-opacity="1"/>
      <stop offset="1" stop-color="#009933" stop-opacity="0"/>
    </radialGradient>
    <radialGradient id="grad_5" cx="0.5146999999999999" cy="0.053200000000000004" r="1.23084">
      <stop offset="0" stop-color="#00CC44" stop-opacity="1"/>
      <stop offset="1" stop-color="#00CC44" stop-opacity="0"/>
    </radialGradient>
    <radialGradient id="grad_6" cx="0.5112" cy="0.0323" r="1.25801">
      <stop offset="0" stop-color="#00FF55" stop-opacity="1"/>
      <stop offset="1" stop-color="#00FF55" stop-opacity="0"/>
    </radialGradient>
    <linearGradient id="grad_7" y2="1" x2="0">
      <stop offset="0" stop-color="#006622" stop-opacity="0"/>
      <stop offset="1" stop-color="#006622" stop-opacity="1"/>
    </linearGradient>
    <radialGradient id="grad_8" cx="0.5168" cy="0.2" r="1.04">
      <stop offset="0" stop-color="#99FFBB" stop-opacity="1"/>
      <stop offset="1" stop-color="#99FFBB" stop-opacity="0"/>
    </radialGradient>
    <radialGradient id="grad_9" cx="0.5724" cy="0.0949" r="1.17663">
      <stop offset="0" stop-color="#99FFBB" stop-opacity="1"/>
      <stop offset="1" stop-color="#99FFBB" stop-opacity="0"/>
    </radialGradient>
    <radialGradient id="grad_10" cx="0.7826000000000001" cy="0.14400000000000002" r="1.1128">
      <stop offset="0" stop-color="#2E2E2E" stop-opacity="1"/>
      <stop offset="1" stop-color="#000000" stop-opacity="1"/>
    </radialGradient>
    <radialGradient id="grad_11" cx="0.7398" cy="0.1423" r="1.11501">
      <stop offset="0" stop-color="#E5E5E5" stop-opacity="1"/>
      <stop offset="1" stop-color="#E5E5E5" stop-opacity="0"/>
    </radialGradient>
    <radialGradient id="grad_12" cx="0.7826000000000001" cy="0.14400000000000002" r="1.1128">
      <stop offset="0" stop-color="#2E2E2E" stop-opacity="1"/>
      <stop offset="1" stop-color="#000000" stop-opacity="1"/>
    </radialGradient>
    <radialGradient id="grad_13" cx="0.7644" cy="0.18510000000000001" r="1.05937">
      <stop offset="0" stop-color="#E5E5E5" stop-opacity="1"/>
      <stop offset="1" stop-color="#E5E5E5" stop-opacity="0"/>
    </radialGradient>
  <radialGradient id="grad_2-,0,0,1,-13,0" cx="238.984" cy="286.9995" r="170.7278" gradientUnits="userSpaceOnUse">
      <stop offset="0" stop-color="#00CC44" stop-opacity="1"/>
      <stop offset="1" stop-color="#00CC44" stop-opacity="0"/>
    </radialGradient><radialGradient id="grad_3-.814912736415863,0,0,0.814912736415863,44.2,37" cx="238.9419" cy="153.5114" r="247.0341" gradientUnits="userSpaceOnUse">
      <stop offset="0" stop-color="#009933" stop-opacity="1"/>
      <stop offset="1" stop-color="#006622" stop-opacity="1"/>
    </radialGradient><radialGradient id="grad_4-.814912736415863,0,0,0.814912736415863,14.95,37" cx="237.4267" cy="154.5415" r="236.0151" gradientUnits="userSpaceOnUse">
      <stop offset="0" stop-color="#009933" stop-opacity="1"/>
      <stop offset="1" stop-color="#009933" stop-opacity="0"/>
    </radialGradient><radialGradient id="grad_5-.6535871624946594,0,0,0.6535871624946594,58.85,61.65" cx="241.0074" cy="155.5475" r="224.9292" gradientUnits="userSpaceOnUse">
      <stop offset="0" stop-color="#00CC44" stop-opacity="1"/>
      <stop offset="1" stop-color="#00CC44" stop-opacity="0"/>
    </radialGradient><radialGradient id="grad_6-.814912736415863,0,0,0.814912736415863,26.3,50.05" cx="239.8275" cy="152.799" r="211.698" gradientUnits="userSpaceOnUse">
      <stop offset="0" stop-color="#00FF55" stop-opacity="1"/>
      <stop offset="1" stop-color="#00FF55" stop-opacity="0"/>
    </radialGradient><linearGradient id="grad_7-.814912736415863,0,0,0.814912736415863,44.2,61.449999999999996" y2="301.1157" x2="120.3999" x1="120.3999" y1="148.6446" gradientUnits="userSpaceOnUse">
      <stop offset="0" stop-color="#006622" stop-opacity="0"/>
      <stop offset="1" stop-color="#006622" stop-opacity="1"/>
    </linearGradient><radialGradient id="grad_8-.814912736415863,0,0,0.814912736415863,53.15,59" cx="256.8743" cy="161.679" r="58.4751" gradientUnits="userSpaceOnUse">
      <stop offset="0" stop-color="#99FFBB" stop-opacity="1"/>
      <stop offset="1" stop-color="#99FFBB" stop-opacity="0"/>
    </radialGradient><radialGradient id="grad_9-.33878394961357117,0,0,0.4482020139694214,136.25,135.65" cx="222.6208" cy="190.2392" r="32.2523" gradientUnits="userSpaceOnUse">
      <stop offset="0" stop-color="#99FFBB" stop-opacity="1"/>
      <stop offset="1" stop-color="#99FFBB" stop-opacity="0"/>
    </radialGradient><radialGradient id="grad_10-.814912736415863,0,0,0.814912736415863,159.91760857105254,37.002617907524105" cx="309.0462" cy="185.3102" r="87.6516" gradientUnits="userSpaceOnUse">
      <stop offset="0" stop-color="#2E2E2E" stop-opacity="1"/>
      <stop offset="1" stop-color="#000000" stop-opacity="1"/>
    </radialGradient><radialGradient id="grad_11-.4842234917414956,0,0,0.4842234917414956,219.65071215033532,97.55063422322272" cx="306.8333" cy="185.5783" r="52.1863" gradientUnits="userSpaceOnUse">
      <stop offset="0" stop-color="#E5E5E5" stop-opacity="1"/>
      <stop offset="1" stop-color="#E5E5E5" stop-opacity="0"/>
    </radialGradient><radialGradient id="grad_12-.814912736415863,0,0,0.814912736415863,53.164040100574496,39.447356116771694" cx="202.2926" cy="187.755" r="87.6516" gradientUnits="userSpaceOnUse">
      <stop offset="0" stop-color="#2E2E2E" stop-opacity="1"/>
      <stop offset="1" stop-color="#000000" stop-opacity="1"/>
    </radialGradient><radialGradient id="grad_13-.4842234917414956,0,0,0.4842234917414956,112.89714367985725,99.9953724324703" cx="200.9017" cy="190.4686" r="49.5821" gradientUnits="userSpaceOnUse">
      <stop offset="0" stop-color="#E5E5E5" stop-opacity="1"/>
      <stop offset="1" stop-color="#E5E5E5" stop-opacity="0"/>
    </radialGradient></defs>
  <!-- Exported by Scratch - http://scratch.mit.edu/ -->
  <path id="ID0.8097323281690478" fill="url(#grad_1)" stroke="none" d="M 0 0 L 480 0 L 480 360 L 0 360 L 0 0 Z " stroke-width="1"/>
  <path id="ID0.9905056622810662" fill="url(#grad_2-,0,0,1,-13,0)" stroke="none" d="M 241 255 C 290.661 255 335.661 258.642 368.245 264.525 C 400.83 270.409 421 278.534 421 287.5 C 421 296.466 400.83 304.591 368.245 310.475 C 335.661 316.358 290.661 320 241 320 C 191.339 320 146.339 316.358 113.755 310.475 C 81.17 304.591 61 296.466 61 287.5 C 61 278.534 81.17 270.409 113.755 264.525 C 146.339 258.642 191.339 255 241 255 Z " stroke-width="1"/>
  <g id="ID0.9704334107227623">
    <path id="ID0.8163061137311161" fill="url(#grad_3-.814912736415863,0,0,0.814912736415863,44.2,37)" stroke="none" stroke-linecap="round" d="M 234.0747 147.0132 C 259.6923 146.6229 286.6838 154.1673 309.8616 166.5711 C 326.278 175.6615 340.3792 191.0967 348.1625 208.9466 C 356.7859 228.7237 357.3188 251.1941 355.4967 273.3247 C 354.8602 280.3875 348.521 286.8905 340.8282 288.808 C 310.0661 296.487 277.7304 299.9365 246.2984 300.2168 C 210.3558 300.5346 173.9863 297.0924 138.7299 291.2528 C 129.532 289.7321 124.1772 286.1808 123.2465 279.844 C 119.9869 257.6107 120.3291 234.9545 126.5062 213.8361 C 131.8284 195.6032 141.2977 177.9628 156.658 168.201 C 179.3981 153.6963 207.3529 147.4248 234.0747 147.0132 Z " stroke-width="0.814912736415863"/>
    <path id="ID0.4389553884975612" fill="url(#grad_4-.814912736415863,0,0,0.814912736415863,14.95,37)" stroke="none" stroke-linecap="round" d="M 233.3466 147.8281 C 255.7372 147.4313 279.4454 151.9597 300.1695 161.6816 C 316.3349 169.6849 331.8052 182.7634 340.1002 199.1676 C 350.4895 219.7238 352.0916 244.1932 352.3239 267.6203 C 352.3825 273.0501 349.0984 277.9012 340.9151 279.844 C 308.176 287.4683 274.3033 291.9194 240.6808 292.0677 C 205.9281 292.2209 170.1379 287.7063 135.5571 280.6589 C 127.0681 278.8954 125.1384 274.6171 124.9632 269.2501 C 124.5224 246.3332 126.0389 222.9069 133.9273 201.6124 C 139.3041 187.1029 150.0707 172.4556 164.079 164.9413 C 184.6882 153.8797 209.5569 148.3978 233.3466 147.8281 Z " stroke-width="0.814912736415863"/>
    <path id="ID0.4389553884975612" fill="url(#grad_5-.6535871624946594,0,0,0.6535871624946594,58.85,61.65)" stroke="none" stroke-linecap="round" d="M 233.2597 148.6425 C 255.4288 148.1738 279.1481 152.5248 299.272 162.4985 C 315.3705 170.4827 329.9155 184.7623 339.2062 200.7987 C 347.2578 216.0377 347.5591 234.5526 348.9773 252.138 C 349.3329 256.5281 350.695 257.3458 342.4415 259.4582 C 309.4301 267.9071 276.2056 278.3102 242.2139 279.0004 C 207.6385 279.6906 173.0604 271.9449 139.5353 263.5431 C 131.1544 261.4424 127.0786 256.9464 126.4963 250.504 C 125.0159 233.4833 128.7237 215.6632 135.4831 199.9817 C 141.3582 186.3603 150.881 172.6539 163.9795 165.7338 C 185.0348 154.6117 209.5031 149.1366 233.2597 148.6425 Z " stroke-width="0.6535871624946594"/>
    <path id="ID0.8360596471466124" fill="url(#grad_6-.814912736415863,0,0,0.814912736415863,26.3,50.05)" stroke="none" stroke-linecap="round" d="M 232.4729 149.4694 C 253.7275 148.938 276.1889 152.9857 296.0361 161.693 C 312.3287 169.2342 326.4927 182.1571 337.5967 196.7343 C 343.6596 204.6952 344.9244 216.1007 344.116 226.0712 C 343.7354 230.6208 342.7306 233.2293 335.1519 235.0352 C 303.746 243.5853 271.8544 252.5346 239.8071 253.7782 C 207.3467 255.0356 174.7119 248.7363 142.8325 243.1843 C 134.7355 241.0321 130.8533 237.6812 130.6088 232.5905 C 129.9194 218.9154 133.8261 204.5909 140.3878 192.6597 C 146.6064 181.4058 155.7562 170.5153 167.2799 164.9527 C 187.374 155.2585 210.1671 150.0292 232.4729 149.4694 Z " stroke-width="0.814912736415863"/>
    <path id="ID0.9498420660383999" fill="url(#grad_7-.814912736415863,0,0,0.814912736415863,44.2,61.449999999999996)" stroke="none" stroke-linecap="round" d="M 230.0001 148.6457 C 261.5364 148.5332 294.124 157.4809 321.2703 173.093 C 337.2222 182.9347 345.078 203.2684 351.4221 220.358 C 357.2178 235.9464 357.2764 253.4679 356.3116 270.0677 C 355.9612 276.2496 355.5798 284.5731 347.3475 287.1808 C 314.6744 296.0846 280.255 300.3156 246.2984 301.0343 C 209.8326 301.8061 173.6 296.9582 137.915 292.0703 C 128.6445 290.7053 124.42 289.3868 123.2465 283.9212 C 119.1695 264.8897 119.4988 243.7093 124.0614 224.4325 C 128.2371 206.8247 134.89 186.3337 150.1387 175.5378 C 172.7443 159.2526 201.9402 148.7475 230.0001 148.6457 Z " stroke-width="0.814912736415863"/>
    <path id="ID0.1098822457715869" fill="url(#grad_8-.814912736415863,0,0,0.814912736415863,53.15,59)" stroke="none" stroke-linecap="round" d="M 255.6558 155.1597 C 265.6605 155.1597 274.7264 156.9859 281.2913 159.9367 C 287.8563 162.8867 291.9194 166.9613 291.9194 171.458 C 291.9194 175.9546 287.8563 180.0292 281.2913 182.9792 C 274.7264 185.93 265.6605 187.7562 255.6558 187.7562 C 245.6511 187.7562 236.5852 185.93 230.0203 182.9792 C 223.4554 180.0292 219.3922 175.9546 219.3922 171.458 C 219.3922 166.9613 223.4554 162.8867 230.0203 159.9367 C 236.5852 156.9859 245.6511 155.1597 255.6558 155.1597 Z " stroke-width="0.814912736415863"/>
    <path id="ID0.1098822457715869" fill="url(#grad_9-.33878394961357117,0,0,0.4482020139694214,136.25,135.65)" stroke="none" d="M 220.4378 188.5378 C 224.5971 188.5378 228.366 189.5423 231.0953 191.1652 C 233.8245 192.7877 235.5137 195.0287 235.5137 197.5019 C 235.5137 199.9751 233.8245 202.2161 231.0953 203.8386 C 228.366 205.4615 224.5971 206.4659 220.4378 206.4659 C 216.2786 206.4659 212.5096 205.4615 209.7803 203.8386 C 207.0511 202.2161 205.3619 199.9751 205.3619 197.5019 C 205.3619 195.0287 207.0511 192.7877 209.7803 191.1652 C 212.5096 189.5423 216.2786 188.5378 220.4378 188.5378 Z " stroke-width="0.39727799450889306"/>
    <g id="ID0.2628619414754212">
      <path id="ID0.7882435834035277" fill="url(#grad_10-.814912736415863,0,0,0.814912736415863,159.91760857105254,37.002617907524105)" stroke="none" d="M 293.1558 171.4632 C 300.9122 171.4632 307.9408 176.8506 313.0307 185.5547 C 318.1199 194.258 321.2703 206.2779 321.2703 219.5431 C 321.2703 232.8082 318.1199 244.8282 313.0307 253.5315 C 307.9408 262.2355 300.9122 267.6229 293.1558 267.6229 C 285.3995 267.6229 278.3709 262.2355 273.2809 253.5315 C 268.1918 244.8282 265.0414 232.8082 265.0414 219.5431 C 265.0414 206.2779 268.1918 194.258 273.2809 185.5547 C 278.3709 176.8506 285.3995 171.4632 293.1558 171.4632 Z " stroke-width="0.814912736415863"/>
      <path id="ID0.7882435834035277" fill="url(#grad_11-.4842234917414956,0,0,0.4842234917414956,219.65071215033532,97.55063422322272)" stroke="none" d="M 298.8213 177.4475 C 303.4301 177.4475 307.6065 180.6487 310.631 185.8207 C 313.655 190.9922 315.527 198.1345 315.527 206.0167 C 315.527 213.8989 313.655 221.0412 310.631 226.2127 C 307.6065 231.3847 303.4301 234.5859 298.8213 234.5859 C 294.2124 234.5859 290.036 231.3847 287.0115 226.2127 C 283.9876 221.0412 282.1155 213.8989 282.1155 206.0167 C 282.1155 198.1345 283.9876 190.9922 287.0115 185.8207 C 290.036 180.6487 294.2124 177.4475 298.8213 177.4475 Z " stroke-width="0.4842234917414956"/>
    </g>
    <g id="ID0.0334260668605566">
      <path id="ID0.7882435834035277" fill="url(#grad_12-.814912736415863,0,0,0.814912736415863,53.164040100574496,39.447356116771694)" stroke="none" d="M 186.4023 173.908 C 194.1586 173.908 201.1872 179.2953 206.2772 187.9994 C 211.3663 196.7027 214.5168 208.7227 214.5168 221.9878 C 214.5168 235.253 211.3663 247.2729 206.2772 255.9762 C 201.1872 264.6803 194.1586 270.0677 186.4023 270.0677 C 178.6459 270.0677 171.6173 264.6803 166.5274 255.9762 C 161.4382 247.2729 158.2878 235.253 158.2878 221.9878 C 158.2878 208.7227 161.4382 196.7027 166.5274 187.9994 C 171.6173 179.2953 178.6459 173.908 186.4023 173.908 Z " stroke-width="0.814912736415863"/>
      <path id="ID0.7882435834035277" fill="url(#grad_13-.4842234917414956,0,0,0.4842234917414956,112.89714367985725,99.9953724324703)" stroke="none" d="M 192.0677 179.8922 C 196.6765 179.8922 200.853 183.0935 203.8774 188.2654 C 206.9014 193.4369 208.7734 200.5792 208.7734 208.4614 C 208.7734 216.3436 206.9014 223.4859 203.8774 228.6574 C 200.853 233.8294 196.6765 237.0306 192.0677 237.0306 C 187.4588 237.0306 183.2824 233.8294 180.258 228.6574 C 177.234 223.4859 175.362 216.3436 175.362 208.4614 C 175.362 200.5792 177.234 193.4369 180.258 188.2654 C 183.2824 183.0935 187.4588 179.8922 192.0677 179.8922 Z " stroke-width="0.4842234917414956"/>
    </g>
    <path id="ID0.059698885306715965" fill="#000000" stroke="none" d="M 257.2997 261.9273 C 258.9857 261.9273 260.5137 263.2059 261.6203 265.2709 C 262.727 267.3367 263.4115 270.1889 263.4115 273.3361 C 263.4115 276.4833 262.727 279.3355 261.6203 281.4013 C 260.5137 283.4663 258.9857 284.7449 257.2997 284.7449 C 255.6136 284.7449 254.0857 283.4663 252.979 281.4013 C 251.8724 279.3355 251.1878 276.4833 251.1878 273.3361 C 251.1878 270.1889 251.8724 267.3367 252.979 265.2709 C 254.0857 263.2059 255.6136 261.9273 257.2997 261.9273 Z " stroke-width="0.814912736415863"/>
  </g>
</svg>