<svg xmlns="http://www.w3.org/2000/svg" xmlns:xlink="http://www.w3.org/1999/xlink" version="1.1" width="29.3125577050264" height="37.926554210763705" viewBox="-7.361207489064103 -7.3550521770027935 29.3125577050264 37.926554210763705">
  <!-- Exported by Scratch - http://scratch.mit.edu/ -->
  <path id="ID0.9358589742332697" fill="#DB861B" stroke="none" stroke-width="16.26050408257795" stroke-linecap="round" d="M 3.9469 11.93 C 3.94 12.2509 4.2895 12.6391 4.5872 12.8773 C 5.0711 13.2636 5.6073 13.4463 6.1428 13.6464 C 6.5524 13.8141 7.004 14.1928 7.4431 14.0607 C 7.7465 13.931 7.9639 13.3498 7.7718 13.0787 C 7.3724 12.5177 6.605 12.3428 5.9878 12.0268 C 5.5465 11.8005 5.1057 11.5209 4.6113 11.5182 C 4.3506 11.4838 3.954 11.6819 3.9469 11.93 Z "/>
  <path id="ID0.19551143841817975" fill="#DB861B" stroke="none" stroke-width="16.260503406204244" stroke-linecap="round" d="M 7.4639 16.9015 C 7.2489 17.1054 6.866 17.3475 6.8663 17.6746 C 6.8705 18.4178 7.2151 19.1562 7.4897 19.8667 C 7.7355 20.5492 7.9084 21.2939 8.3355 21.8696 C 8.5328 22.048 8.9033 21.9118 9.1238 21.833 C 9.5361 21.6851 10.2699 21.6428 10.3389 21.1952 C 10.4159 20.6729 9.6853 20.419 9.4784 19.998 C 8.9286 18.8539 8.7396 17.5313 8.0798 16.5226 C 7.9149 16.2705 7.6362 16.7371 7.4639 16.9015 Z "/>
  <g id="ID0.30696602864190936">
    <path id="ID0.637318427208811" fill="#FAA51D" stroke="none" stroke-linecap="round" d="M 4.4914 16.5462 C 5.0502 16.9794 5.915 16.9769 6.4215 17.4792 C 6.6618 17.7195 6.661 18.205 6.4369 18.3832 C 6.1391 18.6741 5.6447 18.6398 5.2564 18.5235 C 4.6571 18.3647 4.1088 18.0874 3.5798 17.6923 C 2.9967 17.2574 2.3967 16.7926 1.9949 16.1883 C 1.777 15.912 1.5735 15.4389 1.8019 15.1709 C 2.0646 14.8636 2.647 14.7931 3.028 14.9795 C 3.6506 15.2914 3.8981 16.1307 4.4914 16.5462 Z " stroke-width="1.0840336076775576"/>
    <path id="ID0.9894068208523095" fill="#FFFFFF" stroke="none" stroke-linecap="round" d="M 2.7243 14.793 C 3.2734 14.9322 3.824 15.5775 3.9279 16.0835 C 4.0097 16.2851 3.3189 16.0348 3.0943 16.2099 C 2.8533 16.4 2.966 17.1791 2.7545 17.0368 C 2.2247 16.769 1.6079 16.0454 1.6128 15.388 C 1.6159 14.9688 2.318 14.6902 2.7243 14.793 Z " stroke-width="1.0840336076775576"/>
  </g>
  <g id="ID0.536394951865077">
    <path id="ID0.6198067106306553" fill="#FAA51D" stroke="none" stroke-linecap="round" d="M 5.8705 11.3473 C 6.3811 11.264 7.0922 11.0073 7.406 11.4369 C 8.0656 12.2445 8.1424 13.4243 8.322 14.4617 C 8.5012 15.4969 8.793 16.6639 8.5136 17.737 C 8.3788 18.176 7.7213 18.3163 7.2389 18.4251 C 6.7794 18.5271 6.12 18.5597 5.8425 18.1982 C 5.1778 17.3926 4.9488 16.2997 4.7342 15.321 C 4.4909 14.2054 4.1048 13.0191 4.4053 11.9066 C 4.5401 11.4047 5.3555 11.4303 5.8705 11.3473 Z " stroke-width="1.08403349199083"/>
    <path id="ID0.21503017749637365" fill="#FFFFFF" stroke="none" stroke-linecap="round" d="M 6.981 13.0037 C 7.275 12.948 7.6194 13.1365 7.7757 13.4022 C 8.1354 13.9719 8.2996 14.6788 8.4276 15.3463 C 8.5749 16.1139 8.7269 16.906 8.609 17.7127 C 8.5523 17.9676 8.2384 18.1487 7.9463 18.2824 C 7.6402 18.4123 7.129 18.5321 6.9473 18.2548 C 6.4734 17.5282 6.3962 16.5296 6.2732 15.6248 C 6.1914 15.0245 6.132 14.3349 6.2856 13.6902 C 6.3836 13.403 6.6628 13.0653 6.981 13.0037 Z " stroke-width="1.08403349199083"/>
  </g>
  <path id="ID0.19551143841817975" fill="#FAA51D" stroke="none" stroke-linecap="round" d="M 5.8224 17.0316 C 5.549 17.1099 5.6978 17.6808 5.7116 18.0024 C 5.7728 18.7925 5.9744 19.6315 6.1153 20.2454 C 6.2773 20.9512 6.3817 21.7113 6.7588 22.3221 C 6.9298 22.5242 7.3197 22.4203 7.5469 22.3637 C 7.9718 22.2572 8.7062 22.2877 8.8191 21.8492 C 8.9473 21.337 8.2715 21.0239 8.0812 20.5727 C 7.6777 19.6098 7.5518 18.5621 6.9795 17.7113 C 6.7583 17.3195 6.209 16.9228 5.8224 17.0316 Z " stroke-width="1.084033654660302"/>
  <g id="ID0.6909988787956536">
    <g id="ID0.847524844110012">
      <path id="ID0.10025785537436604" fill="#FAA51D" stroke="none" d="M 7.3719 2.3697 C 9.0177 2.5562 10.4401 3.3259 11.4102 4.4189 C 12.3792 5.5118 12.8959 6.9281 12.7282 8.4076 C 12.5606 9.8871 11.74 11.1519 10.5511 12.0002 C 9.361 12.8485 7.8025 13.2804 6.1566 13.0939 C 4.5108 12.9074 3.0884 12.1377 2.1184 11.0447 C 1.1494 9.9518 0.6326 8.5355 0.8003 7.056 C 0.9679 5.5765 1.7885 4.3117 2.9774 3.4633 C 4.1675 2.6151 5.726 2.1832 7.3719 2.3697 Z " stroke-width="1.101309012425662"/>
      <path id="ID0.23814574256539345" fill="#FAA51D" stroke="none" stroke-linecap="round" d="M 1.033 0.7752 L 5.1447 3.1254 L 1.1192 5.8834 L 1.033 0.7752 Z " stroke-width="1.101309012425662"/>
      <path id="ID0.23814574256539345" fill="#FAA51D" stroke="none" stroke-linecap="round" d="M 11.762 1.3333 L 7.4113 3.2042 L 11.0997 6.3991 L 11.762 1.3333 Z " stroke-width="1.1013089580073108"/>
      <path id="ID0.46886637480929494" fill="#FFFFFF" stroke="none" stroke-linecap="round" d="M 9.3251 8.9885 C 10.2841 8.9963 11.1665 7.968 12.0693 8.2465 C 12.9614 8.5216 13.9002 9.548 13.8158 10.4395 C 13.7125 11.5073 12.7445 12.4894 11.7611 12.9221 C 10.4242 13.5598 8.8512 13.5035 7.3544 13.4203 C 6.3763 13.366 5.3559 13.0985 4.5438 12.5476 C 3.8838 12.1026 3.0791 11.3786 3.0523 10.5498 C 3.0942 9.6513 3.7102 8.5096 4.5835 8.285 C 6.1327 7.8864 7.74 9.0095 9.3251 8.9885 Z " stroke-width="1.101309012425662"/>
      <path id="ID0.2958779144100845" fill="#666666" stroke="none" stroke-linecap="round" d="M 9.0317 8.3665 C 9.3865 8.3557 9.9613 8.32 10.0042 8.5875 C 10.0662 8.9304 9.6864 9.5623 9.2845 9.5589 C 8.7528 9.5851 8.0645 9.0084 8.0034 8.6379 C 7.9631 8.3773 8.6778 8.3397 9.0317 8.3665 Z " stroke-width="1.101309012425662"/>
    </g>
    <g id="ID0.26280788984149694">
      <g id="ID0.2985607646405697">
        <path id="ID0.6929170889779925" fill="#000000" stroke="none" d="M 10.8082 4.5293 C 11.1475 4.5678 11.4335 4.8019 11.6192 5.1488 C 11.806 5.4958 11.8934 5.9568 11.8378 6.4471 C 11.7823 6.9373 11.5939 7.3671 11.3342 7.6635 C 11.0756 7.9601 10.7445 8.1243 10.4052 8.0858 C 10.066 8.0474 9.78 7.8133 9.5943 7.4664 C 9.4075 7.1193 9.3201 6.6583 9.3756 6.1681 C 9.4312 5.6778 9.6195 5.2481 9.8792 4.9517 C 10.1378 4.6551 10.469 4.4909 10.8082 4.5293 Z " stroke-width="1.101309012425662"/>
        <path id="ID0.02252052817493677" fill="#CCCCCC" stroke="none" d="M 11.1057 4.871 C 11.2338 4.8855 11.3391 5.0027 11.4031 5.1807 C 11.4683 5.3587 11.4945 5.5967 11.4654 5.8538 C 11.4363 6.111 11.3574 6.337 11.2541 6.496 C 11.1518 6.6551 11.023 6.7458 10.8949 6.7313 C 10.7669 6.7168 10.6616 6.5996 10.5975 6.4216 C 10.5323 6.2435 10.5061 6.0056 10.5352 5.7484 C 10.5644 5.4913 10.6432 5.2652 10.7466 5.1063 C 10.8488 4.9472 10.9777 4.8565 11.1057 4.871 Z " stroke-width="1.101309012425662"/>
      </g>
      <g id="ID0.2985607646405697">
        <path id="ID0.6929170889779925" fill="#000000" stroke="none" d="M 6.6663 4.2303 C 7.0055 4.2688 7.2916 4.5029 7.4773 4.8498 C 7.664 5.1968 7.7514 5.6578 7.6959 6.1481 C 7.6403 6.6383 7.452 7.0681 7.1923 7.3645 C 6.9337 7.6611 6.6025 7.8253 6.2633 7.7868 C 5.9241 7.7484 5.638 7.5142 5.4523 7.1673 C 5.2656 6.8203 5.1782 6.3593 5.2337 5.8691 C 5.2893 5.3788 5.4776 4.9491 5.7373 4.6526 C 5.9959 4.3561 6.3271 4.1919 6.6663 4.2303 Z " stroke-width="1.101309012425662"/>
        <path id="ID0.02252052817493677" fill="#CCCCCC" stroke="none" d="M 6.9141 4.5666 C 7.0421 4.5811 7.1474 4.6983 7.2115 4.8762 C 7.2767 5.0543 7.3029 5.2923 7.2738 5.5494 C 7.2446 5.8066 7.1658 6.0326 7.0625 6.1916 C 6.9602 6.3507 6.8313 6.4414 6.7033 6.4269 C 6.5753 6.4124 6.4699 6.2951 6.4059 6.1172 C 6.3407 5.9391 6.3145 5.7012 6.3436 5.444 C 6.3727 5.1868 6.4516 4.9608 6.5549 4.8018 C 6.6572 4.6427 6.7861 4.552 6.9141 4.5666 Z " stroke-width="1.101309012425662"/>
      </g>
    </g>
  </g>
  <path id="ID0.9358589742332697" fill="#F9B341" stroke="none" stroke-width="16.260504253488314" stroke-linecap="round" d="M 1.598 12.1071 C 1.8033 11.8603 2.3219 11.7968 2.7028 11.8123 C 3.3214 11.8383 3.8459 12.0523 4.3813 12.2526 C 4.8005 12.3948 5.3897 12.4053 5.6344 12.7931 C 5.7783 13.0901 5.561 13.6713 5.2382 13.7498 C 4.5687 13.9112 3.8748 13.5396 3.2017 13.3731 C 2.7202 13.2543 2.2041 13.1762 1.8292 12.8538 C 1.6099 12.7086 1.4406 12.299 1.598 12.1071 Z "/>
</svg>