<svg xmlns="http://www.w3.org/2000/svg" xmlns:xlink="http://www.w3.org/1999/xlink" version="1.1" width="21.254605196300698" height="17.59200467902775" viewBox="0.09584783395948371 -0.6344521752911572 21.254605196300698 17.59200467902775">
  <!-- Exported by Scratch - http://scratch.mit.edu/ -->
  <path id="ID0.1019937596283853" fill="#B40101" stroke="none" d="M 19.6139 0.799 L 14.4964 1.7215 L 15.4188 6.839 L 20.5363 5.9166 L 19.6139 0.799 Z " stroke-width="1.2839506375719016"/>
  <g id="ID0.38220522552728653">
    <path id="ID0.9160578120499849" fill="#B40101" stroke="none" d="M 8.9389 12.1771 L 4.3708 10.703 L 3.081 14.7001 L 7.5539 16.1434 L 8.9389 12.1771 Z " stroke-width="1.000000048476317"/>
    <path id="ID0.5961301568895578" fill="#CC0000" stroke="none" d="M 5.0562 11.8999 L 3.6287 11.4393 L 2.5999 14.6274 L 4.0274 15.0881 L 5.0562 11.8999 Z " stroke-width="1.1268180107550492"/>
  </g>
  <g id="ID0.6226657046936452">
    <path id="ID0.9160578120499849" fill="#B40101" stroke="none" d="M 15.145 12.0934 L 10.9439 10.4797 L 9.3945 14.3835 L 13.4841 16.0067 L 15.145 12.0934 Z " stroke-width="0.999999986548817"/>
    <path id="ID0.5961301568895578" fill="#CC0000" stroke="none" d="M 11.6416 12.5029 L 10.2474 11.9495 L 9.2514 14.4591 L 10.6455 15.0125 L 11.6416 12.5029 Z " stroke-width="0.999999986548817"/>
  </g>
  <g id="ID0.4915104955434799">
    <path id="ID0.20379002764821053" fill="#CC0000" stroke="none" d="M 18.0862 1.4466 L 2.9862 0.2175 L 1.9599 12.8258 L 17.06 14.0549 L 18.0862 1.4466 Z " stroke-width="1.0134497281962016"/>
    <path id="ID0.8935396964661777" fill="#FF0000" stroke="none" d="M 8.3721 0.7042 L 1.9281 0.1797 L 0.91 12.6883 L 7.354 13.2129 L 8.3721 0.7042 Z " stroke-width="1.62830438453312"/>
  </g>
  <path id="ID0.1019937596283853" fill="#CC0000" stroke="none" d="M 6.6527 8.268 L 1.4653 7.9052 L 1.1026 13.0926 L 6.2899 13.4553 L 6.6527 8.268 Z " stroke-width="1.2839506837377772"/>
  <g id="ID0.3748739790171385">
    <path id="ID0.8617808222770691" fill="#CC0000" stroke="none" d="M 9.7979 6.6336 L 9.7482 6.6284 L 9.7482 6.6284 L 9.7979 6.6336 L 9.7979 6.6336 Z " stroke-width="1.0000000230971555"/>
    <path id="ID0.8655728464946151" fill="#000000" stroke="none" stroke-linecap="round" d="M 11.5401 3.0372 L 16.8966 4.7008 L 16.529 8.2317 L 11.0585 7.6622 L 11.5401 3.0372 Z " stroke-width="1.0952181414574131"/>
    <path id="ID0.006696532014757395" fill="#990000" stroke="none" d="M 11.6791 2.403 L 17.1384 4.208 L 16.9658 4.7302 L 11.5065 2.9252 L 11.6791 2.403 Z " stroke-width="0.9999999931065204"/>
    <path id="ID0.8491002093069255" fill="#E5E5E5" stroke="none" d="M 16.1666 4.2079 L 15.3242 4.1202 L 15.2286 5.0392 L 16.0709 5.1269 L 16.1666 4.2079 Z " stroke-width="1.5398551882137754"/>
  </g>
  <g id="ID0.2829335597343743">
    <path id="ID0.09020493365824223" fill="#000000" stroke="none" d="M 17.4455 9.6718 L 12.6879 8.7299 L 12.3869 10.2503 L 17.1445 11.1923 L 17.4455 9.6718 Z " stroke-width="0.6562000249017232"/>
    <path id="ID0.18048822786659002" fill="#FFFFFF" stroke="none" d="M 17.3126 9.5661 L 13.2416 8.7602 L 13.1348 9.2997 L 17.2058 10.1057 L 17.3126 9.5661 Z " stroke-width="0.7203534871619445"/>
  </g>
</svg>