<svg xmlns="http://www.w3.org/2000/svg" xmlns:xlink="http://www.w3.org/1999/xlink" version="1.1" width="29.706340704527044" height="36.38089076098456" viewBox="-7.04279382733829 -7.8285523226691005 29.706340704527044 36.38089076098456">
  <!-- Exported by Scratch - http://scratch.mit.edu/ -->
  <path id="ID0.9358589742332697" fill="#DB861B" stroke="none" stroke-width="16.260502957157623" stroke-linecap="round" d="M 7.7832 12.6288 C 7.5987 12.3661 7.0871 12.2605 6.7062 12.2449 C 6.0875 12.2204 5.5473 12.3909 4.9974 12.5469 C 4.568 12.6544 3.9798 12.6168 3.7043 12.9834 C 3.5367 13.2677 3.7059 13.8647 4.0212 13.9693 C 4.6754 14.1847 5.3972 13.8709 6.0817 13.7599 C 6.5712 13.6808 7.092 13.6449 7.4919 13.3542 C 7.7223 13.2274 7.9245 12.8329 7.7832 12.6288 Z "/>
  <path id="ID0.19551143841817975" fill="#DB861B" stroke="none" stroke-width="16.260504637327337" stroke-linecap="round" d="M 6.799 15.1285 C 6.5463 15.2832 6.1214 15.4405 6.0537 15.7604 C 5.9033 16.4882 6.0869 17.2822 6.2077 18.0342 C 6.3062 18.7529 6.3205 19.5173 6.6186 20.1692 C 6.7745 20.3847 7.1652 20.3286 7.3973 20.2973 C 7.8313 20.2384 8.5579 20.3496 8.7184 19.9262 C 8.9023 19.4313 8.2405 19.031 8.1256 18.5761 C 7.8257 17.3428 7.9159 16.0097 7.4802 14.8859 C 7.3713 14.605 7.0017 15.0035 6.799 15.1285 Z "/>
  <g id="ID0.30696602864190936">
    <path id="ID0.637318427208811" fill="#FAA51D" stroke="none" stroke-linecap="round" d="M 4.1435 15.065 C 4.809 15.3038 5.6305 15.0335 6.2677 15.3542 C 6.5707 15.5083 6.7203 15.9701 6.5623 16.209 C 6.3693 16.5778 5.8886 16.6984 5.4834 16.708 C 4.8644 16.7428 4.2571 16.6489 3.6318 16.4372 C 2.9427 16.2043 2.2282 15.9482 1.659 15.4981 C 1.3662 15.3029 1.0261 14.9162 1.1602 14.5906 C 1.3148 14.217 1.8467 13.9696 2.2668 14.0288 C 2.9553 14.1324 3.4506 14.8538 4.1435 15.065 Z " stroke-width="1.084033608638252"/>
    <path id="ID0.9894068208523095" fill="#FFFFFF" stroke="none" stroke-linecap="round" d="M 1.9777 13.9521 C 2.5429 13.9144 3.2664 14.3573 3.5219 14.8063 C 3.6621 14.9726 2.9277 14.9486 2.7684 15.1847 C 2.5982 15.4401 2.9467 16.146 2.7015 16.0761 C 2.1148 15.9857 1.3042 15.4887 1.1052 14.8621 C 0.9783 14.4627 1.5595 13.9803 1.9777 13.9521 Z " stroke-width="1.084033608638252"/>
  </g>
  <g id="ID0.536394951865077">
    <path id="ID0.6198067106306553" fill="#FAA51D" stroke="none" stroke-linecap="round" d="M 6.5053 9.3003 C 7.0208 9.3427 7.7729 9.265 7.9738 9.7576 C 8.4192 10.7004 8.2092 11.8639 8.1334 12.914 C 8.0576 13.9619 8.0594 15.1648 7.5294 16.1388 C 7.2927 16.5323 6.6208 16.51 6.1264 16.4992 C 5.6559 16.4874 5.008 16.36 4.8259 15.9422 C 4.3751 15.0002 4.4164 13.8842 4.4442 12.8827 C 4.4771 11.7413 4.3885 10.497 4.9484 9.4898 C 5.2003 9.0352 5.9854 9.2567 6.5053 9.3003 Z " stroke-width="1.084033586270866"/>
    <path id="ID0.21503017749637365" fill="#FFFFFF" stroke="none" stroke-linecap="round" d="M 7.1944 11.1359 C 7.4932 11.1527 7.782 11.4187 7.8696 11.7142 C 8.0813 12.3539 8.0702 13.0795 8.0334 13.7582 C 7.9912 14.5387 7.9478 15.344 7.6388 16.0985 C 7.5223 16.3323 7.174 16.4323 6.8583 16.4916 C 6.5299 16.5438 6.0048 16.5368 5.8954 16.2238 C 5.6107 15.4045 5.7767 14.4167 5.8755 13.509 C 5.9408 12.9067 6.0495 12.2231 6.354 11.6345 C 6.5184 11.3793 6.8708 11.1189 7.1944 11.1359 Z " stroke-width="1.084033586270866"/>
  </g>
  <path id="ID0.19551143841817975" fill="#FAA51D" stroke="none" stroke-linecap="round" d="M 5.0555 14.8575 C 4.7725 14.8861 4.8177 15.4743 4.7742 15.7933 C 4.6943 16.5817 4.7438 17.4432 4.7735 18.0723 C 4.8078 18.7956 4.7757 19.5623 5.0385 20.2303 C 5.1709 20.4595 5.573 20.4264 5.8067 20.411 C 6.2438 20.3816 6.9611 20.5419 7.15 20.1303 C 7.367 19.649 6.7575 19.221 6.6502 18.7432 C 6.424 17.724 6.4859 16.6705 6.0736 15.7318 C 5.9254 15.3068 5.4552 14.819 5.0555 14.8575 Z " stroke-width="1.0840336004106397"/>
  <g id="ID0.6909988787956536">
    <g id="ID0.847524844110012">
      <path id="ID0.10025785537436604" fill="#FAA51D" stroke="none" d="M 8.349 2.0935 C 9.9888 2.3273 11.3884 3.1377 12.3265 4.2582 C 13.2636 5.3786 13.7393 6.8092 13.5291 8.2833 C 13.3189 9.7573 12.4622 10.9979 11.2493 11.8117 C 10.0353 12.6253 8.4649 13.012 6.8252 12.7782 C 5.1854 12.5443 3.7858 11.734 2.8476 10.6134 C 1.9105 9.493 1.4348 8.0624 1.6451 6.5884 C 1.8553 5.1143 2.7119 3.8738 3.9249 3.06 C 5.1389 2.2464 6.7092 1.8596 8.349 2.0935 Z " stroke-width="1.1013089936304215"/>
      <path id="ID0.23814574256539345" fill="#FAA51D" stroke="none" stroke-linecap="round" d="M 1.9853 0.3017 L 6.0275 2.7694 L 1.9242 5.4103 L 1.9853 0.3017 Z " stroke-width="1.1013089936304215"/>
      <path id="ID0.23814574256539345" fill="#FAA51D" stroke="none" stroke-linecap="round" d="M 12.988 1.1921 L 8.5852 2.9368 L 12.18 6.2367 L 12.988 1.1921 Z " stroke-width="1.1013089780006058"/>
      <path id="ID0.46886637480929494" fill="#FFFFFF" stroke="none" stroke-linecap="round" d="M 10.0772 8.7812 C 11.0356 8.8166 11.9472 7.8142 12.8416 8.1186 C 13.7254 8.4193 14.6343 9.4723 14.5242 10.361 C 14.3902 11.4254 13.3943 12.3792 12.3988 12.7834 C 11.0441 13.3823 9.4734 13.2806 7.9795 13.1543 C 7.0034 13.0719 5.9912 12.7751 5.1953 12.201 C 4.5484 11.7372 3.7649 10.9903 3.7619 10.1611 C 3.8298 9.2641 4.4784 8.1407 5.3578 7.9413 C 6.9179 7.5875 8.4922 8.7565 10.0772 8.7812 Z " stroke-width="1.1013089936304215"/>
      <path id="ID0.2958779144100845" fill="#666666" stroke="none" stroke-linecap="round" d="M 9.8043 8.137 C 10.1592 8.1364 10.7349 8.1173 10.77 8.3859 C 10.8221 8.7304 10.4243 9.3512 10.0226 9.3362 C 9.4904 9.347 8.819 8.7507 8.7686 8.3786 C 8.7358 8.117 9.4513 8.1 9.8043 8.137 Z " stroke-width="1.1013089936304215"/>
    </g>
    <g id="ID0.26280788984149694">
      <g id="ID0.2985607646405697">
        <path id="ID0.6929170889779925" fill="#000000" stroke="none" d="M 11.6435 4.3607 C 11.9815 4.4089 12.2607 4.6512 12.4363 5.0033 C 12.613 5.3556 12.6871 5.8189 12.6174 6.3074 C 12.5478 6.7958 12.3471 7.2199 12.079 7.5088 C 11.8119 7.7977 11.4762 7.9523 11.1382 7.9041 C 10.8002 7.8559 10.521 7.6136 10.3454 7.2615 C 10.1687 6.9093 10.0946 6.4459 10.1643 5.9575 C 10.234 5.4691 10.4346 5.0449 10.7027 4.7561 C 10.9698 4.4671 11.3055 4.3125 11.6435 4.3607 Z " stroke-width="1.1013089936304215"/>
        <path id="ID0.02252052817493677" fill="#CCCCCC" stroke="none" d="M 11.9896 4.7648 C 12.1172 4.783 12.2191 4.9032 12.278 5.0829 C 12.338 5.2628 12.3573 5.5014 12.3208 5.7576 C 12.2843 6.0138 12.199 6.2375 12.0911 6.3934 C 11.9843 6.5495 11.8528 6.6365 11.7253 6.6183 C 11.5977 6.6001 11.4958 6.4799 11.4369 6.3001 C 11.3769 6.1203 11.3575 5.8817 11.3941 5.6255 C 11.4306 5.3692 11.5159 5.1456 11.6238 4.9896 C 11.7306 4.8335 11.862 4.7466 11.9896 4.7648 Z " stroke-width="1.1013089936304215"/>
      </g>
      <g id="ID0.2985607646405697">
        <path id="ID0.6929170889779925" fill="#000000" stroke="none" d="M 7.5435 3.9107 C 7.8815 3.9589 8.1607 4.2012 8.3363 4.5533 C 8.513 4.9056 8.5871 5.3689 8.5174 5.8574 C 8.4478 6.3458 8.2471 6.7699 7.979 7.0588 C 7.7119 7.3477 7.3762 7.5023 7.0382 7.4541 C 6.7002 7.4059 6.421 7.1636 6.2454 6.8115 C 6.0687 6.4593 5.9946 5.9959 6.0643 5.5075 C 6.134 5.0191 6.3346 4.5949 6.6027 4.3061 C 6.8698 4.0171 7.2055 3.8625 7.5435 3.9107 Z " stroke-width="1.1013089936304215"/>
        <path id="ID0.02252052817493677" fill="#CCCCCC" stroke="none" d="M 7.8396 4.2648 C 7.9672 4.283 8.0691 4.4032 8.128 4.5829 C 8.188 4.7628 8.2073 5.0014 8.1708 5.2576 C 8.1343 5.5138 8.049 5.7375 7.9411 5.8934 C 7.8343 6.0495 7.7028 6.1365 7.5753 6.1183 C 7.4477 6.1001 7.3458 5.9799 7.2869 5.8001 C 7.2269 5.6203 7.2075 5.3817 7.2441 5.1255 C 7.2806 4.8692 7.3659 4.6456 7.4738 4.4896 C 7.5806 4.3335 7.712 4.2466 7.8396 4.2648 Z " stroke-width="1.1013089936304215"/>
      </g>
    </g>
  </g>
  <path id="ID0.9358589742332697" fill="#F9B341" stroke="none" stroke-width="16.260504378543267" stroke-linecap="round" d="M 5.685 12.6609 C 5.594 12.9687 5.1429 13.2321 4.7869 13.3685 C 4.2085 13.5893 3.6421 13.6001 3.0711 13.6279 C 2.6299 13.6631 2.0845 13.8865 1.7064 13.627 C 1.4568 13.4112 1.4265 12.7914 1.6919 12.5916 C 2.2431 12.1786 3.0273 12.2455 3.7114 12.1322 C 4.2006 12.0509 4.7056 11.9186 5.1774 12.0664 C 5.4362 12.113 5.7537 12.4223 5.685 12.6609 Z "/>
</svg>