<svg xmlns="http://www.w3.org/2000/svg" xmlns:xlink="http://www.w3.org/1999/xlink" version="1.1" width="30.092473510517017" height="36.02842474342717" viewBox="-7.497452618486353 -7.385752560502954 30.092473510517017 36.02842474342717">
  <!-- Exported by Scratch - http://scratch.mit.edu/ -->
  <path id="ID0.9358589742332697" fill="#DB861B" stroke="none" stroke-width="16.260503714403484" stroke-linecap="round" d="M 8.0973 12.313 C 7.7773 12.2882 7.3702 12.6156 7.1158 12.8996 C 6.7032 13.3612 6.491 13.8864 6.2614 14.4099 C 6.0711 14.8095 5.6678 15.2393 5.7753 15.6852 C 5.8879 15.9953 6.456 16.2447 6.7374 16.068 C 7.3198 15.7005 7.5371 14.944 7.887 14.3454 C 8.1375 13.9174 8.4413 13.4929 8.4715 12.9994 C 8.5203 12.7409 8.3447 12.334 8.0973 12.313 Z "/>
  <path id="ID0.19551143841817975" fill="#DB861B" stroke="none" stroke-width="16.2605052030219" stroke-linecap="round" d="M 7.4693 15.2432 C 7.1957 15.3572 6.7517 15.4471 6.6356 15.7528 C 6.375 16.4488 6.4341 17.2616 6.4378 18.0233 C 6.4245 18.7485 6.3209 19.506 6.5151 20.1961 C 6.636 20.433 7.0307 20.4376 7.2648 20.4425 C 7.7028 20.4511 8.4036 20.6728 8.6273 20.2791 C 8.8852 19.8184 8.2929 19.321 8.2494 18.8539 C 8.1429 17.5891 8.4372 16.2858 8.1797 15.1084 C 8.1154 14.814 7.6888 15.1509 7.4693 15.2432 Z "/>
  <g id="ID0.30696602864190936">
    <path id="ID0.637318427208811" fill="#FAA51D" stroke="none" stroke-linecap="round" d="M 4.3019 15.4346 C 5.0005 15.5435 5.7562 15.1231 6.4425 15.3178 C 6.7691 15.4119 7.0032 15.8372 6.8932 16.1016 C 6.7732 16.5003 6.3239 16.7093 5.9278 16.7953 C 5.3264 16.9462 4.7124 16.9686 4.0583 16.8787 C 3.3376 16.78 2.5876 16.6633 1.9437 16.3287 C 1.6194 16.1923 1.2124 15.8767 1.2827 15.5317 C 1.364 15.1356 1.8397 14.7922 2.2634 14.7711 C 2.9591 14.743 3.5816 15.3579 4.3019 15.4346 Z " stroke-width="1.084033625221076"/>
    <path id="ID0.9894068208523095" fill="#FFFFFF" stroke="none" stroke-linecap="round" d="M 2.0255 14.7614 C 2.5734 14.6177 3.3674 14.9162 3.7031 15.3089 C 3.8721 15.4458 3.1465 15.5607 3.0346 15.8227 C 2.9156 16.1056 3.3911 16.733 3.1371 16.7107 C 2.5438 16.7326 1.654 16.3976 1.3404 15.8197 C 1.1404 15.4514 1.6201 14.868 2.0255 14.7614 Z " stroke-width="1.084033625221076"/>
  </g>
  <g id="ID0.536394951865077">
    <path id="ID0.6198067106306553" fill="#FAA51D" stroke="none" stroke-linecap="round" d="M 6.8094 9.3364 C 7.3266 9.3468 8.0724 9.2228 8.3034 9.702 C 8.8062 10.6156 8.6685 11.7898 8.6576 12.8426 C 8.6467 13.8932 8.7228 15.0936 8.2539 16.0985 C 8.042 16.5059 7.37 16.5251 6.8758 16.5449 C 6.4055 16.5622 5.751 16.475 5.5435 16.0693 C 5.0353 15.1569 5.0077 14.0405 4.9735 13.0391 C 4.9359 11.8979 4.7706 10.6615 5.2673 9.6216 C 5.4906 9.1523 6.2879 9.3249 6.8094 9.3364 Z " stroke-width="1.0840335800119214"/>
    <path id="ID0.21503017749637365" fill="#FFFFFF" stroke="none" stroke-linecap="round" d="M 7.6298 11.1433 C 7.929 11.1416 8.2338 11.3892 8.3394 11.6788 C 8.5902 12.3041 8.624 13.0291 8.6291 13.7087 C 8.6352 14.4903 8.6416 15.2968 8.3799 16.0689 C 8.278 16.3094 7.9365 16.4307 7.6251 16.5095 C 7.3005 16.5819 6.776 16.6073 6.6475 16.3017 C 6.3127 15.5015 6.4174 14.5053 6.4599 13.5932 C 6.4879 12.988 6.5542 12.299 6.8218 11.6927 C 6.9701 11.4279 7.3057 11.1462 7.6298 11.1433 Z " stroke-width="1.0840335800119214"/>
  </g>
  <path id="ID0.19551143841817975" fill="#FAA51D" stroke="none" stroke-linecap="round" d="M 5.778 14.9487 C 5.5125 14.9241 5.459 15.4036 5.387 15.6758 C 5.1935 16.4085 5.1115 17.1728 5.0776 17.9338 C 5.0286 18.6575 4.8879 19.409 5.0478 20.1077 C 5.1569 20.3503 5.5509 20.3744 5.7845 20.3908 C 6.2215 20.4209 6.9105 20.6769 7.1534 20.2947 C 7.4337 19.8473 6.8844 19.3414 6.8461 18.8526 C 6.7684 17.8412 7.0498 16.841 6.7811 15.9085 C 6.6677 15.4446 6.2117 14.9916 5.778 14.9487 Z " stroke-width="1.0840336126999996"/>
  <g id="ID0.6909988787956536">
    <g id="ID0.847524844110012">
      <path id="ID0.10025785537436604" fill="#FAA51D" stroke="none" d="M 7.1617 2.2873 C 8.8181 2.2873 10.3181 2.8919 11.4051 3.8687 C 12.491 4.8456 13.1639 6.1947 13.1639 7.6837 C 13.1639 9.1726 12.491 10.5217 11.4051 11.4986 C 10.3181 12.4755 8.8181 13.0801 7.1617 13.0801 C 5.5054 13.0801 4.0054 12.4755 2.9184 11.4986 C 1.8325 10.5217 1.1596 9.1726 1.1596 7.6837 C 1.1596 6.1947 1.8325 4.8456 2.9184 3.8687 C 4.0054 2.8919 5.5054 2.2873 7.1617 2.2873 Z " stroke-width="1.101309061050415"/>
      <path id="ID0.23814574256539345" fill="#FAA51D" stroke="none" stroke-linecap="round" d="M 0.6328 1.391 L 4.983 3.2632 L 1.2936 6.457 L 0.6328 1.391 Z " stroke-width="1.101309061050415"/>
      <path id="ID0.23814574256539345" fill="#FAA51D" stroke="none" stroke-linecap="round" d="M 11.6811 0.7445 L 7.5687 3.0934 L 11.5934 5.8526 L 11.6811 0.7445 Z " stroke-width="1.1013090607478242"/>
      <path id="ID0.46886637480929494" fill="#FFFFFF" stroke="none" stroke-linecap="round" d="M 9.839 8.6476 C 10.7928 8.5473 11.5538 7.4262 12.4822 7.6013 C 13.3996 7.7742 14.448 8.6883 14.4645 9.5837 C 14.4821 10.6563 13.6308 11.7411 12.7024 12.2819 C 11.4458 13.066 9.8765 13.1872 8.3798 13.2731 C 7.4018 13.3292 6.3578 13.1783 5.4888 12.7224 C 4.7829 12.3546 3.9019 11.7257 3.7818 10.9052 C 3.7223 10.0077 4.2058 8.8039 5.0483 8.4824 C 6.5428 7.9119 8.2663 8.8469 9.839 8.6476 Z " stroke-width="1.101309061050415"/>
      <path id="ID0.2958779144100845" fill="#666666" stroke="none" stroke-linecap="round" d="M 9.5263 8.0716 C 9.8776 8.0209 10.4448 7.9207 10.5174 8.1817 C 10.6177 8.5154 10.3115 9.1861 9.9117 9.2279 C 9.3864 9.3138 8.6375 8.8183 8.5351 8.457 C 8.4657 8.2026 9.1716 8.0848 9.5263 8.0716 Z " stroke-width="1.101309061050415"/>
    </g>
    <g id="ID0.26280788984149694">
      <g id="ID0.2985607646405697">
        <path id="ID0.6929170889779925" fill="#000000" stroke="none" d="M 10.7607 4.0771 C 11.1021 4.0771 11.4126 4.2776 11.6362 4.6013 C 11.8609 4.9251 11.9996 5.3734 11.9996 5.8667 C 11.9996 6.3601 11.8609 6.8084 11.6362 7.1322 C 11.4126 7.4559 11.1021 7.6564 10.7607 7.6564 C 10.4193 7.6564 10.1087 7.4559 9.8851 7.1322 C 9.6605 6.8084 9.5217 6.3601 9.5217 5.8667 C 9.5217 5.3734 9.6605 4.9251 9.8851 4.6013 C 10.1087 4.2776 10.4193 4.0771 10.7607 4.0771 Z " stroke-width="1.101309061050415"/>
        <path id="ID0.02252052817493677" fill="#CCCCCC" stroke="none" d="M 11.1461 4.4328 C 11.275 4.4328 11.3928 4.5375 11.4765 4.7071 C 11.5613 4.8767 11.6142 5.1101 11.6142 5.369 C 11.6142 5.6278 11.5613 5.8612 11.4765 6.0308 C 11.3928 6.2004 11.275 6.3051 11.1461 6.3051 C 11.0173 6.3051 10.8994 6.2004 10.8157 6.0308 C 10.7309 5.8612 10.6781 5.6278 10.6781 5.369 C 10.6781 5.1101 10.7309 4.8767 10.8157 4.7071 C 10.8994 4.5375 11.0173 4.4328 11.1461 4.4328 Z " stroke-width="1.101309061050415"/>
      </g>
      <g id="ID0.2985607646405697">
        <path id="ID0.6929170889779925" fill="#000000" stroke="none" d="M 6.6607 4.1771 C 7.0021 4.1771 7.3126 4.3776 7.5362 4.7013 C 7.7609 5.0251 7.8996 5.4734 7.8996 5.9667 C 7.8996 6.4601 7.7609 6.9084 7.5362 7.2322 C 7.3126 7.5559 7.0021 7.7564 6.6607 7.7564 C 6.3193 7.7564 6.0087 7.5559 5.7851 7.2322 C 5.5605 6.9084 5.4217 6.4601 5.4217 5.9667 C 5.4217 5.4734 5.5605 5.0251 5.7851 4.7013 C 6.0087 4.3776 6.3193 4.1771 6.6607 4.1771 Z " stroke-width="1.101309061050415"/>
        <path id="ID0.02252052817493677" fill="#CCCCCC" stroke="none" d="M 7.0461 4.4828 C 7.175 4.4828 7.2928 4.5875 7.3765 4.7571 C 7.4613 4.9267 7.5142 5.1601 7.5142 5.419 C 7.5142 5.6778 7.4613 5.9112 7.3765 6.0808 C 7.2928 6.2504 7.175 6.3551 7.0461 6.3551 C 6.9173 6.3551 6.7994 6.2504 6.7157 6.0808 C 6.6309 5.9112 6.5781 5.6778 6.5781 5.419 C 6.5781 5.1601 6.6309 4.9267 6.7157 4.7571 C 6.7994 4.5875 6.9173 4.4828 7.0461 4.4828 Z " stroke-width="1.101309061050415"/>
      </g>
    </g>
  </g>
  <path id="ID0.9358589742332697" fill="#F9B341" stroke="none" stroke-width="16.26050319529916" stroke-linecap="round" d="M 5.8345 12.257 C 6.0055 12.5286 5.9053 13.0413 5.7726 13.3987 C 5.5562 13.9788 5.1902 14.4113 4.834 14.8582 C 4.5689 15.2128 4.3764 15.7698 3.9318 15.8823 C 3.6049 15.9271 3.1196 15.5405 3.1449 15.2092 C 3.1989 14.5226 3.7671 13.978 4.1339 13.3896 C 4.396 12.9686 4.6302 12.502 5.0529 12.2455 C 5.2588 12.0819 5.7007 12.0478 5.8345 12.257 Z "/>
</svg>