<svg xmlns="http://www.w3.org/2000/svg" xmlns:xlink="http://www.w3.org/1999/xlink" version="1.1" width="19.341994361296553" height="11.63949687899675" viewBox="0.3508756974263688 -0.09829849810166158 19.341994361296553 11.63949687899675">
  <!-- Exported by Scratch - http://scratch.mit.edu/ -->
  <g id="ID0.1867492450401187">
    <path id="ID0.6487746122293174" fill="#006622" stroke="none" stroke-linecap="round" d="M 9.5373 11.0066 C 11.3568 11.0523 13.3569 10.8731 14.899 10.1666 C 16.4236 9.4686 17.6977 8.2871 18.3959 6.9936 C 19.1931 5.5171 19.1885 3.7999 19.1535 2.1873 C 19.1686 1.6833 19.0195 0.9638 18.3376 0.834 C 15.6334 0.3208 12.7823 0.4299 10.0035 0.4607 C 7.4217 0.4897 4.7618 0.4374 2.2522 0.9274 C 1.5505 1.0972 0.9596 1.7412 0.9118 2.3273 C 0.7929 3.7934 0.984 5.3454 1.6694 6.7136 C 2.2942 7.9567 3.2838 9.1587 4.6417 9.8867 C 6.0509 10.6687 7.8704 10.9646 9.5373 11.0066 Z " stroke-width="1.0558424753102262"/>
    <path id="ID0.6862273388542235" fill="#009933" stroke="none" stroke-linecap="round" d="M 10.0347 0.73 C 12.6643 0.7375 15.3499 0.6806 17.8443 1.29 C 18.5728 1.4785 18.9551 2.3147 18.8933 2.9232 C 18.7196 4.6133 18.6182 6.6497 17.0866 7.8695 C 15.4524 9.2012 12.8217 9.6968 10.4427 9.736 C 7.9553 9.777 5.0716 9.4336 3.2742 8.0561 C 1.5526 6.757 1.3346 4.5116 1.1178 2.6432 C 1.0514 2.0702 1.7671 1.4374 2.4583 1.29 C 4.9142 0.7655 7.5018 0.7198 10.0347 0.73 Z " stroke-width="1.0558424753102262"/>
    <path id="ID0.01353864697739482" fill="#00CC44" stroke="none" stroke-linecap="round" d="M 9.8605 0.9866 C 12.215 0.9605 14.7712 0.9381 16.9124 1.7333 C 17.7971 2.0963 17.9067 3.2293 17.7866 4.0197 C 17.6328 5.0286 17.1653 6.2605 16.0382 6.8195 C 14.3085 7.7108 12.0926 7.9786 9.9771 7.9861 C 7.9174 7.9936 5.7133 7.6744 3.9742 6.8195 C 2.9368 6.3333 2.5044 5.2162 2.3424 4.2997 C 2.2013 3.4971 2.0836 2.324 2.9834 1.9199 C 5.0104 1.0128 7.5386 1.0128 9.8605 0.9866 Z " stroke-width="1.0558424753102262"/>
    <path id="ID0.40726609993726015" fill="#99FFBB" stroke="none" d="M 13.5807 1.47 C 14.0388 1.47 14.4538 1.5904 14.7545 1.7845 C 15.0552 1.9786 15.2417 2.2474 15.2417 2.5433 C 15.2417 2.8391 15.0552 3.1079 14.7545 3.302 C 14.4538 3.4961 14.0388 3.6165 13.5807 3.6165 C 13.1226 3.6165 12.7077 3.4961 12.407 3.302 C 12.1062 3.1079 11.9197 2.8391 11.9197 2.5433 C 11.9197 2.2474 12.1062 1.9786 12.407 1.7845 C 12.7077 1.5904 13.1226 1.47 13.5807 1.47 Z " stroke-width="1.0558424753102262"/>
    <path id="ID0.44971933402121067" fill="#99FFBB" stroke="none" d="M 10.2826 4.2632 C 10.5321 4.2632 10.7582 4.3229 10.9214 4.4209 C 11.0846 4.518 11.186 4.6514 11.186 4.7998 C 11.186 4.9482 11.0846 5.0816 10.9214 5.1787 C 10.7582 5.2767 10.5321 5.3364 10.2826 5.3364 C 10.0332 5.3364 9.8071 5.2767 9.6439 5.1787 C 9.4807 5.0816 9.3793 4.9482 9.3793 4.7998 C 9.3793 4.6514 9.4807 4.518 9.6439 4.4209 C 9.8071 4.3229 10.0332 4.2632 10.2826 4.2632 Z " stroke-width="1.0558424753102262"/>
  </g>
  <g id="ID0.8220732379704714">
    <g id="ID0.20715344790369272">
      <path id="ID0.19440001714974642" fill="#000000" stroke="none" d="M 9.05 1.35 C 9.643 1.35 10.181 1.756 10.57 2.412 C 10.959 3.069 11.2 3.975 11.2 4.975 C 11.2 5.975 10.959 6.881 10.57 7.538 C 10.181 8.194 9.643 8.6 9.05 8.6 C 8.457 8.6 7.919 8.194 7.53 7.538 C 7.141 6.881 6.9 5.975 6.9 4.975 C 6.9 3.975 7.141 3.069 7.53 2.412 C 7.919 1.756 8.457 1.35 9.05 1.35 Z " stroke-width="1"/>
      <path id="ID0.35307061253115535" fill="#FFFFFF" stroke="none" d="M 9.7 1.95 C 9.921 1.95 10.121 2.129 10.266 2.419 C 10.41 2.709 10.5 3.109 10.5 3.55 C 10.5 3.991 10.41 4.391 10.266 4.681 C 10.121 4.971 9.921 5.15 9.7 5.15 C 9.479 5.15 9.279 4.971 9.134 4.681 C 8.99 4.391 8.9 3.991 8.9 3.55 C 8.9 3.109 8.99 2.709 9.134 2.419 C 9.279 2.129 9.479 1.95 9.7 1.95 Z " stroke-width="1"/>
    </g>
    <g id="ID0.20715344790369272">
      <path id="ID0.19440001714974642" fill="#000000" stroke="none" d="M 14.9 1.5 C 15.493 1.5 16.031 1.906 16.42 2.562 C 16.809 3.219 17.05 4.125 17.05 5.125 C 17.05 6.125 16.809 7.031 16.42 7.688 C 16.031 8.344 15.493 8.75 14.9 8.75 C 14.307 8.75 13.769 8.344 13.38 7.688 C 12.991 7.031 12.75 6.125 12.75 5.125 C 12.75 4.125 12.991 3.219 13.38 2.562 C 13.769 1.906 14.307 1.5 14.9 1.5 Z " stroke-width="1"/>
      <path id="ID0.35307061253115535" fill="#FFFFFF" stroke="none" d="M 15.55 2.1 C 15.771 2.1 15.971 2.279 16.116 2.569 C 16.26 2.859 16.35 3.259 16.35 3.7 C 16.35 4.141 16.26 4.541 16.116 4.831 C 15.971 5.121 15.771 5.3 15.55 5.3 C 15.329 5.3 15.129 5.121 14.984 4.831 C 14.84 4.541 14.75 4.141 14.75 3.7 C 14.75 3.259 14.84 2.859 14.984 2.569 C 15.129 2.279 15.329 2.1 15.55 2.1 Z " stroke-width="1"/>
    </g>
  </g>
</svg>