<svg xmlns="http://www.w3.org/2000/svg" xmlns:xlink="http://www.w3.org/1999/xlink" version="1.1" width="14.59999942779541" height="20.299999237060547" viewBox="-0.44999999552965164 -0.1499999761581421 14.59999942779541 20.299999237060547">
  <!-- Exported by Scratch - http://scratch.mit.edu/ -->
  <path id="ID0.4261480770073831" fill="#006622" stroke="none" d="M 6.85 0.35 C 8.726 0.35 10.426 1.431 11.657 3.178 C 12.888 4.925 13.65 7.338 13.65 10 C 13.65 12.662 12.888 15.075 11.657 16.822 C 10.426 18.569 8.726 19.65 6.85 19.65 C 4.974 19.65 3.274 18.569 2.043 16.822 C 0.812 15.075 0.05 12.662 0.05 10 C 0.05 7.338 0.812 4.925 2.043 3.178 C 3.274 1.431 4.974 0.35 6.85 0.35 Z " stroke-width="1"/>
  <path id="ID0.861708318348974" fill="#009933" stroke="none" stroke-linecap="round" d="M 6.725 0.85 C 8.23 0.86 9.831 1.757 10.8 2.95 C 12.047 4.569 12.859 6.692 12.95 8.75 C 13.046 10.911 12.61 13.305 11.3 15 C 10.325 16.315 8.423 16.951 6.8 16.85 C 4.972 16.736 2.967 15.923 1.85 14.45 C 0.687 12.844 0.488 10.595 0.65 8.55 C 0.812 6.529 1.658 4.441 2.89 2.887 C 3.789 1.753 5.27 0.84 6.725 0.85 Z " stroke-width="1"/>
  <path id="ID0.36423635948449373" fill="#00CC44" stroke="none" stroke-linecap="round" d="M 6.7 1.15 C 7.944 1.216 9.231 1.793 10.15 2.65 C 11.131 3.588 11.784 4.916 12.1 6.25 C 12.444 7.708 12.937 9.543 12.05 10.75 C 10.899 12.317 8.779 13.272 6.85 13.3 C 4.938 13.343 2.73 12.478 1.55 10.95 C 0.593 9.71 1.065 7.833 1.45 6.35 C 1.84 4.845 2.719 3.399 3.85 2.3 C 4.562 1.573 5.677 1.096 6.7 1.15 Z " stroke-width="1"/>
  <path id="ID0.21407686965540051" fill="#99FFBB" stroke="none" d="M 7.6627 1.65 C 8.063 1.65 8.4248 1.779 8.6879 1.987 C 8.9501 2.195 9.1127 2.483 9.1127 2.8 C 9.1127 3.117 8.9501 3.405 8.6879 3.613 C 8.4248 3.821 8.063 3.95 7.6627 3.95 C 7.2624 3.95 6.9005 3.821 6.6375 3.613 C 6.3752 3.405 6.2127 3.117 6.2127 2.8 C 6.2127 2.483 6.3752 2.195 6.6375 1.987 C 6.9005 1.779 7.2624 1.65 7.6627 1.65 Z " stroke-width="0.9130519903313457"/>
  <path id="ID0.5379764609970152" fill="#99FFBB" stroke="none" d="M 6.5206 3.95 C 6.6865 3.95 6.8361 4.009 6.9448 4.104 C 7.0535 4.199 7.1206 4.33 7.1206 4.475 C 7.1206 4.62 7.0535 4.751 6.9448 4.846 C 6.8361 4.941 6.6865 5 6.5206 5 C 6.3547 5 6.2051 4.941 6.0964 4.846 C 5.9877 4.751 5.9206 4.62 5.9206 4.475 C 5.9206 4.33 5.9877 4.199 6.0964 4.104 C 6.2051 4.009 6.3547 3.95 6.5206 3.95 Z " stroke-width="0.8655258288875918"/>
  <g id="ID0.8220732379704714">
    <g id="ID0.20715344790369272">
      <path id="ID0.19440001714974642" fill="#000000" stroke="none" d="M 3.95 0.4 C 4.543 0.4 5.081 0.806 5.47 1.462 C 5.859 2.119 6.1 3.025 6.1 4.025 C 6.1 5.025 5.859 5.931 5.47 6.588 C 5.081 7.244 4.543 7.65 3.95 7.65 C 3.357 7.65 2.819 7.244 2.43 6.588 C 2.041 5.931 1.8 5.025 1.8 4.025 C 1.8 3.025 2.041 2.119 2.43 1.462 C 2.819 0.806 3.357 0.4 3.95 0.4 Z " stroke-width="1"/>
      <path id="ID0.35307061253115535" fill="#FFFFFF" stroke="none" d="M 4.6 1 C 4.821 1 5.021 1.179 5.166 1.469 C 5.31 1.759 5.4 2.159 5.4 2.6 C 5.4 3.041 5.31 3.441 5.166 3.731 C 5.021 4.021 4.821 4.2 4.6 4.2 C 4.379 4.2 4.179 4.021 4.034 3.731 C 3.89 3.441 3.8 3.041 3.8 2.6 C 3.8 2.159 3.89 1.759 4.034 1.469 C 4.179 1.179 4.379 1 4.6 1 Z " stroke-width="1"/>
    </g>
    <g id="ID0.20715344790369272">
      <path id="ID0.19440001714974642" fill="#000000" stroke="none" d="M 9.8 0.6 C 10.393 0.6 10.931 1.006 11.32 1.662 C 11.709 2.319 11.95 3.225 11.95 4.225 C 11.95 5.225 11.709 6.131 11.32 6.788 C 10.931 7.444 10.393 7.85 9.8 7.85 C 9.207 7.85 8.669 7.444 8.28 6.788 C 7.891 6.131 7.65 5.225 7.65 4.225 C 7.65 3.225 7.891 2.319 8.28 1.662 C 8.669 1.006 9.207 0.6 9.8 0.6 Z " stroke-width="1"/>
      <path id="ID0.35307061253115535" fill="#FFFFFF" stroke="none" d="M 10.45 1.2 C 10.671 1.2 10.871 1.379 11.016 1.669 C 11.16 1.959 11.25 2.359 11.25 2.8 C 11.25 3.241 11.16 3.641 11.016 3.931 C 10.871 4.221 10.671 4.4 10.45 4.4 C 10.229 4.4 10.029 4.221 9.884 3.931 C 9.74 3.641 9.65 3.241 9.65 2.8 C 9.65 2.359 9.74 1.959 9.884 1.669 C 10.029 1.379 10.229 1.2 10.45 1.2 Z " stroke-width="1"/>
    </g>
  </g>
</svg>