<svg xmlns="http://www.w3.org/2000/svg" xmlns:xlink="http://www.w3.org/1999/xlink" version="1.1" width="17.81617580254774" height="17.224276884395884" viewBox="-0.5383381168042645 -0.2024381081258282 17.81617580254774 17.224276884395884">
  <!-- Exported by Scratch - http://scratch.mit.edu/ -->
  <path id="ID0.09066551923751831" fill="#B40101" stroke="none" d="M 6.7147 12.1177 L 3.2738 11.674 L 2.7623 15.6412 L 6.2033 16.0848 L 6.7147 12.1177 Z " stroke-width="0.9574941352997981"/>
  <path id="ID0.09066551923751831" fill="#B40101" stroke="none" d="M 12.706 11.1529 L 9.0938 11.6766 L 9.6677 15.6352 L 13.2799 15.1115 L 12.706 11.1529 Z " stroke-width="0.9804618141117454"/>
  <g id="ID0.08273157011717558">
    <path id="ID0.20379002764821053" fill="#CC0000" stroke="none" d="M 16.3408 1.2339 L 6.7372 1.0058 L 6.4379 13.698 L 16.0416 13.9261 L 16.3408 1.2339 Z " stroke-width="0.8134916489679649"/>
    <path id="ID0.8935396964661777" fill="#FF0000" stroke="none" d="M 8.2934 0.915 L 0.6956 0.7346 L 0.3987 13.3265 L 7.9966 13.5069 L 8.2934 0.915 Z " stroke-width="1.8740762313197106"/>
  </g>
  <path id="ID0.1019937596283853" fill="#CC0000" stroke="none" d="M 8.8371 8.6617 L 3.6434 8.4059 L 3.3876 13.5996 L 8.5813 13.8554 L 8.8371 8.6617 Z " stroke-width="1.2839504978325567"/>
  <path id="ID0.8617808222770691" fill="#CC0000" stroke="none" d="M 6.2032 7.0745 L 6.1538 7.0667 L 6.1538 7.0667 L 6.2032 7.0745 L 6.2032 7.0745 Z " stroke-width="0.9999999766464479"/>
  <g id="ID0.6190438214689493">
    <path id="ID0.09020493365824223" fill="#000000" stroke="none" d="M 16.1418 8.3308 L 12.2265 8.2335 L 12.1879 9.783 L 16.1033 9.8803 L 16.1418 8.3308 Z " stroke-width="0.602781508934987"/>
    <path id="ID0.18048822786659002" fill="#FFFFFF" stroke="none" d="M 15.9995 8.5362 L 13.3503 8.4704 L 13.3367 9.0202 L 15.9858 9.0861 L 15.9995 8.5362 Z " stroke-width="0.6280106351641983"/>
    <path id="ID0.5967760691419244" fill="#E5E5E5" stroke="none" d="M 15.8796 9.3084 L 13.5303 9.25 L 13.5154 9.8498 L 15.8647 9.9082 L 15.8796 9.3084 Z " stroke-width="0.6224253821581038"/>
  </g>
  <g id="ID0.6651764921844006">
    <path id="ID0.8655728464946151" fill="#000000" stroke="none" stroke-linecap="round" d="M 10.1521 3.3526 L 15.5721 4.6268 L 15.3635 7.4137 L 9.8788 7.003 L 10.1521 3.3526 Z " stroke-width="1.0046748347561354"/>
    <path id="ID0.006696532014757395" fill="#990000" stroke="none" d="M 10.1956 2.8844 L 15.8145 4.1048 L 15.6978 4.6423 L 10.0788 3.4218 L 10.1956 2.8844 Z " stroke-width="0.9999999870441129"/>
    <path id="ID0.8491002093069255" fill="#E5E5E5" stroke="none" d="M 14.685 4.4771 L 13.8404 4.4139 L 13.7714 5.3352 L 14.616 5.3984 L 14.685 4.4771 Z " stroke-width="1.539855374892966"/>
  </g>
</svg>