<svg xmlns="http://www.w3.org/2000/svg" xmlns:xlink="http://www.w3.org/1999/xlink" version="1.1" width="31.102810235700353" height="38.692075105390295" viewBox="-6.91500930581557 -7.748952523808352 31.102810235700353 38.692075105390295">
  <!-- Exported by Scratch - http://scratch.mit.edu/ -->
  <path id="ID0.9358589742332697" fill="#DB861B" stroke="none" stroke-width="16.260503542267816" stroke-linecap="round" d="M 11.1538 10.431 C 10.8342 10.4013 10.4222 10.7224 10.1635 11.0024 C 9.7438 11.4577 9.5236 11.9797 9.286 12.4996 C 9.0896 12.8962 8.6798 13.3198 8.7805 13.7672 C 8.8883 14.0791 9.4526 14.3372 9.7367 14.1648 C 10.3246 13.8062 10.5535 13.0531 10.9125 12.4599 C 11.1695 12.0358 11.4797 11.6159 11.5175 11.1229 C 11.5702 10.8653 11.4008 10.4557 11.1538 10.431 Z "/>
  <path id="ID0.19551143841817975" fill="#DB861B" stroke="none" stroke-width="16.26050505228971" stroke-linecap="round" d="M 7.8378 17.6375 C 7.5414 17.6365 7.0973 17.5473 6.8717 17.7841 C 6.3617 18.3247 6.1012 19.0968 5.8093 19.8004 C 5.5159 20.4638 5.1269 21.122 5.0384 21.8333 C 5.058 22.0985 5.42 22.2558 5.634 22.3511 C 6.0344 22.5287 6.5944 23.0048 6.9533 22.7286 C 7.3696 22.4039 7.0164 21.7158 7.1574 21.2683 C 7.5495 20.0611 8.3259 18.9738 8.5449 17.7886 C 8.5997 17.4923 8.0759 17.6375 7.8378 17.6375 Z "/>
  <g id="ID0.30696602864190936">
    <path id="ID0.637318427208811" fill="#FAA51D" stroke="none" stroke-linecap="round" d="M 4.011 17.0124 C 4.6935 16.828 5.2132 16.1366 5.9193 16.0356 C 6.256 15.9888 6.6427 16.2822 6.6497 16.5685 C 6.7021 16.9815 6.3766 17.3552 6.0496 17.5947 C 5.5615 17.977 5.0096 18.2471 4.3755 18.4308 C 3.6769 18.6336 2.9442 18.8319 2.2199 18.7879 C 1.8681 18.7951 1.368 18.6722 1.292 18.3283 C 1.2053 17.9334 1.5003 17.4263 1.8788 17.2348 C 2.503 16.9263 3.3218 17.2351 4.011 17.0124 Z " stroke-width="1.084033612237512"/>
    <path id="ID0.9894068208523095" fill="#FFFFFF" stroke="none" stroke-linecap="round" d="M 1.5816 17.3271 C 2.0238 16.9731 2.8706 16.923 3.3369 17.1454 C 3.547 17.2017 2.9307 17.6018 2.935 17.8866 C 2.9412 18.1934 3.6307 18.5734 3.3896 18.6563 C 2.8564 18.9174 1.9073 18.973 1.3858 18.5725 C 1.0534 18.3173 1.2546 17.5893 1.5816 17.3271 Z " stroke-width="1.084033612237512"/>
  </g>
  <g id="ID0.536394951865077">
    <path id="ID0.6198067106306553" fill="#FAA51D" stroke="none" stroke-linecap="round" d="M 8.1469 11.4276 C 8.6522 11.5388 9.4078 11.5628 9.5408 12.0779 C 9.8554 13.0721 9.4911 14.1969 9.2748 15.2272 C 9.0589 16.2554 8.8991 17.4476 8.2431 18.3416 C 7.9556 18.6998 7.2929 18.5874 6.8044 18.5103 C 6.3397 18.4354 5.7148 18.2221 5.5905 17.7837 C 5.2703 16.7895 5.4612 15.6893 5.6233 14.7005 C 5.8092 13.574 5.8886 12.329 6.5788 11.4061 C 6.8894 10.9895 7.6377 11.3145 8.1469 11.4276 Z " stroke-width="1.0840335312115439"/>
    <path id="ID0.21503017749637365" fill="#FFFFFF" stroke="none" stroke-linecap="round" d="M 8.5817 13.3892 C 8.8755 13.4459 9.126 13.7483 9.1731 14.0529 C 9.2969 14.7152 9.1884 15.4328 9.0608 16.1004 C 8.9142 16.8681 8.7629 17.6603 8.3554 18.3664 C 8.2085 18.5824 7.85 18.6347 7.5291 18.6511 C 7.1967 18.6587 6.6773 18.5813 6.6109 18.2564 C 6.4389 17.4062 6.736 16.4497 6.9559 15.5635 C 7.1016 14.9754 7.3011 14.3126 7.682 13.7703 C 7.8791 13.5395 8.2632 13.3288 8.5817 13.3892 Z " stroke-width="1.0840335312115439"/>
  </g>
  <path id="ID0.19551143841817975" fill="#FAA51D" stroke="none" stroke-linecap="round" d="M 6.1932 16.3523 C 5.9364 16.23 5.67 16.7564 5.4675 17.0065 C 4.9903 17.6393 4.5859 18.4015 4.2851 18.9549 C 3.9393 19.5911 3.5143 20.23 3.3926 20.9374 C 3.387 21.2021 3.748 21.3823 3.9558 21.4903 C 4.3447 21.6918 4.875 22.2009 5.2499 21.9469 C 5.6851 21.6479 5.3858 20.9659 5.5419 20.5017 C 5.877 19.5129 6.4762 18.6443 6.6104 17.6278 C 6.704 17.1876 6.5549 16.5267 6.1932 16.3523 Z " stroke-width="1.0840336712195"/>
  <g id="ID0.6909988787956536">
    <g id="ID0.847524844110012">
      <path id="ID0.10025785537436604" fill="#FAA51D" stroke="none" d="M 7.9308 2.403 C 9.575 2.2027 11.1371 2.6214 12.3342 3.4596 C 13.5303 4.298 14.3615 5.5558 14.5416 7.0338 C 14.7217 8.5118 14.2169 9.9324 13.2571 11.0335 C 12.2963 12.1346 10.8804 12.9162 9.2362 13.1166 C 7.592 13.3169 6.0299 12.8982 4.8327 12.06 C 3.6367 11.2217 2.8055 9.9638 2.6254 8.4858 C 2.4453 7.0078 2.9501 5.5872 3.9099 4.4861 C 4.8707 3.385 6.2865 2.6034 7.9308 2.403 Z " stroke-width="1.1013089777213054"/>
      <path id="ID0.23814574256539345" fill="#FAA51D" stroke="none" stroke-linecap="round" d="M 1.3614 2.3332 L 5.9061 3.6654 L 2.6301 7.2821 L 1.3614 2.3332 Z " stroke-width="1.1013089777213054"/>
      <path id="ID0.23814574256539345" fill="#FAA51D" stroke="none" stroke-linecap="round" d="M 11.9965 0.3813 L 8.1984 3.2103 L 12.5273 5.4625 L 11.9965 0.3813 Z " stroke-width="1.1013088628796008"/>
      <path id="ID0.46886637480929494" fill="#FFFFFF" stroke="none" stroke-linecap="round" d="M 11.3334 8.3974 C 12.268 8.1826 12.8878 6.9777 13.8306 7.0392 C 14.7622 7.0998 15.9135 7.8804 16.0382 8.7672 C 16.1854 9.8299 15.4716 11.0097 14.6154 11.6587 C 13.4629 12.5891 11.9197 12.8992 10.4444 13.1655 C 9.4804 13.3395 8.4258 13.316 7.508 12.9686 C 6.7628 12.6888 5.8122 12.1711 5.5938 11.3712 C 5.4262 10.4874 5.7605 9.2341 6.5579 8.8129 C 7.9724 8.0659 9.7964 8.7855 11.3334 8.3974 Z " stroke-width="1.1013089777213054"/>
      <path id="ID0.2958779144100845" fill="#666666" stroke="none" stroke-linecap="round" d="M 10.9377 7.8573 C 11.2803 7.7645 11.8312 7.5964 11.9349 7.8467 C 12.0748 8.1658 11.852 8.8686 11.4602 8.9585 C 10.9491 9.1073 10.1458 8.706 10.0004 8.3598 C 9.9008 8.1156 10.5873 7.9133 10.9377 7.8573 Z " stroke-width="1.1013089777213054"/>
    </g>
    <g id="ID0.26280788984149694">
      <g id="ID0.2985607646405697">
        <path id="ID0.6929170889779925" fill="#000000" stroke="none" d="M 11.7384 3.7067 C 12.0773 3.6654 12.4098 3.8268 12.6709 4.1212 C 12.9331 4.4154 13.1251 4.8436 13.1847 5.3333 C 13.2444 5.8231 13.1609 6.2848 12.977 6.6334 C 12.7943 6.9818 12.5102 7.2184 12.1713 7.2597 C 11.8324 7.301 11.4999 7.1396 11.2388 6.8452 C 10.9766 6.551 10.7847 6.1228 10.725 5.633 C 10.6653 5.1433 10.7488 4.6816 10.9327 4.333 C 11.1155 3.9845 11.3995 3.748 11.7384 3.7067 Z " stroke-width="1.1013089777213054"/>
        <path id="ID0.02252052817493677" fill="#CCCCCC" stroke="none" d="M 12.1443 4.0113 C 12.2722 3.9958 12.4018 4.0854 12.5054 4.2436 C 12.6101 4.4017 12.6908 4.6271 12.7221 4.884 C 12.7534 5.1409 12.7292 5.379 12.6655 5.5576 C 12.603 5.7361 12.4987 5.8542 12.3708 5.8698 C 12.2428 5.8854 12.1132 5.7958 12.0096 5.6376 C 11.9049 5.4795 11.8242 5.2541 11.7929 4.9972 C 11.7616 4.7403 11.7858 4.5021 11.8495 4.3235 C 11.9121 4.145 12.0164 4.0269 12.1443 4.0113 Z " stroke-width="1.1013089777213054"/>
      </g>
      <g id="ID0.2985607646405697">
        <path id="ID0.6929170889779925" fill="#000000" stroke="none" d="M 7.6384 4.4067 C 7.9773 4.3654 8.3098 4.5268 8.5709 4.8212 C 8.8331 5.1154 9.0251 5.5436 9.0847 6.0333 C 9.1444 6.5231 9.0609 6.9848 8.877 7.3334 C 8.6943 7.6818 8.4102 7.9184 8.0713 7.9597 C 7.7324 8.001 7.3999 7.8396 7.1388 7.5452 C 6.8766 7.251 6.6847 6.8228 6.625 6.333 C 6.5653 5.8433 6.6488 5.3816 6.8327 5.033 C 7.0155 4.6845 7.2995 4.448 7.6384 4.4067 Z " stroke-width="1.1013089777213054"/>
        <path id="ID0.02252052817493677" fill="#CCCCCC" stroke="none" d="M 7.9943 4.6613 C 8.1222 4.6458 8.2518 4.7354 8.3554 4.8936 C 8.4601 5.0517 8.5408 5.2771 8.5721 5.534 C 8.6034 5.7909 8.5792 6.029 8.5155 6.2076 C 8.453 6.3861 8.3487 6.5042 8.2208 6.5198 C 8.0928 6.5354 7.9632 6.4458 7.8596 6.2876 C 7.7549 6.1295 7.6742 5.9041 7.6429 5.6472 C 7.6116 5.3903 7.6358 5.1521 7.6995 4.9735 C 7.7621 4.795 7.8664 4.6769 7.9943 4.6613 Z " stroke-width="1.1013089777213054"/>
      </g>
    </g>
  </g>
  <path id="ID0.9358589742332697" fill="#F9B341" stroke="none" stroke-width="16.26050342775244" stroke-linecap="round" d="M 9.003 10.5306 C 9.1429 10.8195 8.9866 11.318 8.8152 11.6585 C 8.536 12.2112 8.1245 12.6005 7.721 13.0053 C 7.4184 13.3284 7.1654 13.8607 6.7112 13.9234 C 6.3813 13.9318 5.9417 13.4939 6.0035 13.1674 C 6.1331 12.491 6.758 12.0126 7.1876 11.4683 C 7.4946 11.0788 7.779 10.6411 8.2274 10.4328 C 8.4502 10.293 8.8932 10.308 9.003 10.5306 Z "/>
</svg>