<svg xmlns="http://www.w3.org/2000/svg" xmlns:xlink="http://www.w3.org/1999/xlink" version="1.1" width="19.489856004714966" height="16.82535481452942" viewBox="-0.661927618086338 -0.055427610874176025 19.489856004714966 16.82535481452942">
  <!-- Exported by Scratch - http://scratch.mit.edu/ -->
  <path id="ID0.9160578120499849" fill="#B40101" stroke="none" d="M 7.8 11.75 L 3 11.75 L 3 15.95 L 8.35 15.95 L 7.8 11.75 Z " stroke-width="1"/>
  <path id="ID0.9160578120499849" fill="#B40101" stroke="none" d="M 15 11.7 L 10.5 11.75 L 10.5 15.95 L 15.5 15.95 L 15 11.7 Z " stroke-width="1"/>
  <path id="ID0.20379002764821053" fill="#CC0000" stroke="none" d="M 16.9126 0.7145 L 1.7626 0.7145 L 1.7626 13.3645 L 16.9126 13.3645 L 16.9126 0.7145 Z " stroke-width="1.0134497699351919"/>
  <path id="ID0.8617808222770691" fill="#CC0000" stroke="none" d="M 1.55 6.95 L 1.5 6.95 L 1.5 6.95 L 1.55 6.95 L 1.55 6.95 Z " stroke-width="1"/>
  <path id="ID0.8935396964661777" fill="#FF0000" stroke="none" d="M 2.5049 0.7384 L 0.7549 0.7384 L 0.7549 13.2884 L 2.5049 13.2884 L 2.5049 0.7384 Z " stroke-width="0.7545089835894483"/>
  <path id="ID0.1019937596283853" fill="#CC0000" stroke="none" d="M 5.308 8.208 L 0.108 8.208 L 0.108 13.408 L 5.308 13.408 L 5.308 8.208 Z " stroke-width="1.283950686454773"/>
  <path id="ID0.1019937596283853" fill="#CC0000" stroke="none" d="M 18.058 8.208 L 12.7938 7.3093 L 12.858 13.408 L 18.058 13.408 L 18.058 8.208 Z " stroke-width="1.283950686454773"/>
  <path id="ID0.09020493365824223" fill="#000000" stroke="none" d="M 14.1038 8.4667 L 5.2538 8.4667 L 5.2538 10.0167 L 14.1038 10.0167 L 14.1038 8.4667 Z " stroke-width="0.9385947376654071"/>
  <path id="ID0.8655728464946151" fill="#000000" stroke="none" stroke-linecap="round" d="M 2.8247 3.05 L 8.3247 4.15 L 8.3247 7.7 L 2.8247 7.7 L 2.8247 3.05 Z " stroke-width="1.0952181369497886"/>
  <path id="ID0.18048822786659002" fill="#FFFFFF" stroke="none" d="M 12.9656 8.4643 L 6.1656 8.4643 L 6.1656 9.0143 L 12.9656 9.0143 L 12.9656 8.4643 Z " stroke-width="0.9344124506016294"/>
  <path id="ID0.5967760691419244" fill="#E5E5E5" stroke="none" d="M 12.6578 9.36 L 6.8578 9.36 L 6.8578 9.96 L 12.6578 9.96 L 12.6578 9.36 Z " stroke-width="0.8547775081683312"/>
  <path id="ID0.8655728464946151" fill="#000000" stroke="none" stroke-linecap="round" d="M 16.3253 2.95 L 10.8253 4.05 L 10.8253 7.6 L 16.3253 7.6 L 16.3253 2.95 Z " stroke-width="1.0952181369497886"/>
  <path id="ID0.5961301568895578" fill="#CC0000" stroke="none" d="M 11.85 13.3 L 10.35 13.3 L 10.35 16 L 11.85 16 L 11.85 13.3 Z " stroke-width="1"/>
  <path id="ID0.5961301568895578" fill="#CC0000" stroke="none" d="M 4.1 13.3 L 2.6 13.3 L 2.6 16 L 4.1 16 L 4.1 13.3 Z " stroke-width="1"/>
  <path id="ID0.006696532014757395" fill="#990000" stroke="none" d="M 16.3749 2.6097 L 10.758 3.8397 L 10.8757 4.377 L 16.4926 3.147 L 16.3749 2.6097 Z " stroke-width="1.0000000120779955"/>
  <path id="ID0.006696532014757395" fill="#990000" stroke="none" d="M 2.9251 2.4597 L 8.542 3.6897 L 8.4243 4.227 L 2.8074 2.997 L 2.9251 2.4597 Z " stroke-width="1.0000000120779955"/>
  <path id="ID0.8491002093069255" fill="#E5E5E5" stroke="none" d="M 7.6389 3.7636 L 6.792 3.7636 L 6.792 4.6875 L 7.6389 4.6875 L 7.6389 3.7636 Z " stroke-width="1.5398552417755127"/>
  <path id="ID0.8491002093069255" fill="#E5E5E5" stroke="none" d="M 15.8889 3.4636 L 15.042 3.4636 L 15.042 4.3875 L 15.8889 4.3875 L 15.8889 3.4636 Z " stroke-width="1.5398552417755127"/>
</svg>