<svg xmlns="http://www.w3.org/2000/svg" xmlns:xlink="http://www.w3.org/1999/xlink" version="1.1" width="100.0333023071289" height="48.79999923706055" viewBox="-1.53329998254776 -1.7999999970197678 100.0333023071289 48.79999923706055">
  <defs>
    <linearGradient id="grad_1" y2="1" x2="0">
      <stop offset="0" stop-color="#CC0000" stop-opacity="1"/>
      <stop offset="1" stop-color="#CC0000" stop-opacity="1"/>
    </linearGradient>
    <linearGradient id="grad_2" y2="1" x2="0">
      <stop offset="0" stop-color="#CC0000" stop-opacity="1"/>
      <stop offset="1" stop-color="#CC0000" stop-opacity="1"/>
    </linearGradient>
  <linearGradient id="grad_1-,0,0,1,-188,-153.75" y2="26.5" x2="10.75" x1="10.75" y1="19.25" gradientUnits="userSpaceOnUse">
      <stop offset="0" stop-color="#CC0000" stop-opacity="1"/>
      <stop offset="1" stop-color="#CC0000" stop-opacity="1"/>
    </linearGradient></defs>
  <!-- Exported by Scratch - http://scratch.mit.edu/ -->
  <path id="ID0.22475405596196651" fill="#CC0000" stroke="none" d="M 11.125 26.75 C 11.573 26.75 11.98 26.932 12.274 27.226 C 12.568 27.52 12.75 27.927 12.75 28.375 C 12.75 28.823 12.568 29.23 12.274 29.524 C 11.98 29.818 11.573 30 11.125 30 C 10.677 30 10.27 29.818 9.976 29.524 C 9.682 29.23 9.5 28.823 9.5 28.375 C 9.5 27.927 9.682 27.52 9.976 27.226 C 10.27 26.932 10.677 26.75 11.125 26.75 Z " stroke-width="1"/>
  <path id="ID0.6875929525122046" fill="#CC0000" stroke="none" d="M 68.7644 10.5915 C 73.2135 10.5915 77.2445 12.3984 80.163 15.3178 C 83.0824 18.2363 84.8894 22.2674 84.8894 26.7165 C 84.8894 31.1656 83.0824 35.1966 80.163 38.1152 C 77.2445 41.0346 73.2135 42.8415 68.7644 42.8415 C 64.3152 42.8415 60.2842 41.0346 57.3657 38.1152 C 54.4463 35.1966 52.6394 31.1656 52.6394 26.7165 C 52.6394 22.2674 54.4463 18.2363 57.3657 15.3178 C 60.2842 12.3984 64.3152 10.5915 68.7644 10.5915 Z " stroke-width="0.914893627166748"/>
  <path id="ID0.6042904816567898" fill="url(#grad_1-,0,0,1,-188,-153.75)" stroke="url(#grad_2)" stroke-width="4" d="M 10.75 19.25 L 57 19.25 L 57 26.5 L 10.75 26.5 L 10.75 19.25 Z "/>
  <g id="ID0.6023043445311487">
    <text id="ID0.32901171408593655" fill="#000000" text-anchor="start" font-family="Sans Serif" font-size="22" transform="matrix(0.81446 -0.255311 0.220351 0.943679 53.7679 12.0083)" stroke-width="1" alignment-baseline="text-before-edge" xml:space="preserve"><tspan x="0" style="white-space: pre" dy="1.13em">A+</tspan></text>
    <text id="ID0.32901171408593655" fill="#000000" text-anchor="start" font-family="Sans Serif" font-size="22" transform="matrix(0.81446 -0.255311 0.220351 0.943679 54.7179 11.8083)" stroke-width="1" alignment-baseline="text-before-edge" xml:space="preserve"><tspan x="0" style="white-space: pre" dy="1.13em">A+</tspan></text>
  </g>
  <path id="ID0.523566456977278" fill="#CC0000" stroke="none" d="M 59.75 1.25 C 60.854 1.25 61.854 1.698 62.578 2.422 C 63.302 3.146 63.75 4.146 63.75 5.25 C 63.75 6.354 63.302 7.354 62.578 8.078 C 61.854 8.802 60.854 9.25 59.75 9.25 C 58.646 9.25 57.646 8.802 56.922 8.078 C 56.198 7.354 55.75 6.354 55.75 5.25 C 55.75 4.146 56.198 3.146 56.922 2.422 C 57.646 1.698 58.646 1.25 59.75 1.25 Z " stroke-width="1"/>
  <path id="ID0.17225979967042804" fill="#CC0000" stroke="none" d="M 80.5062 0.2 C 80.9042 0.2 81.2654 0.3617 81.5268 0.6231 C 81.7883 0.8846 81.95 1.2458 81.95 1.6437 C 81.95 2.0417 81.7883 2.4029 81.5268 2.6643 C 81.2654 2.9258 80.9042 3.0875 80.5062 3.0875 C 80.1083 3.0875 79.7471 2.9258 79.4856 2.6643 C 79.2242 2.4029 79.0625 2.0417 79.0625 1.6437 C 79.0625 1.2458 79.2242 0.8846 79.4856 0.6231 C 79.7471 0.3617 80.1083 0.2 80.5062 0.2 Z " stroke-width="1.0499999523162842"/>
  <path id="ID0.7527792183682323" fill="#CC0000" stroke="none" d="M 94.875 14 C 95.323 14 95.73 14.182 96.024 14.476 C 96.318 14.77 96.5 15.177 96.5 15.625 C 96.5 16.073 96.318 16.48 96.024 16.774 C 95.73 17.068 95.323 17.25 94.875 17.25 C 94.427 17.25 94.02 17.068 93.726 16.774 C 93.432 16.48 93.25 16.073 93.25 15.625 C 93.25 15.177 93.432 14.77 93.726 14.476 C 94.02 14.182 94.427 14 94.875 14 Z " stroke-width="1"/>
  <path id="ID0.44771945336833596" fill="#CC0000" stroke="none" d="M 8.7 11.45 C 9.3896 11.45 10.0144 11.73 10.4672 12.1828 C 10.92 12.6356 11.2 13.2604 11.2 13.95 C 11.2 14.6396 10.92 15.2644 10.4672 15.7172 C 10.0144 16.17 9.3896 16.45 8.7 16.45 C 8.0104 16.45 7.3856 16.17 6.9328 15.7172 C 6.48 15.2644 6.2 14.6396 6.2 13.95 C 6.2 13.2604 6.48 12.6356 6.9328 12.1828 C 7.3856 11.73 8.0104 11.45 8.7 11.45 Z " stroke-width="0.800000011920929"/>
  <path id="ID0.32810594933107495" fill="#CC0000" stroke="none" d="M 53.875 41 C 54.323 41 54.73 41.182 55.024 41.476 C 55.318 41.77 55.5 42.177 55.5 42.625 C 55.5 43.073 55.318 43.48 55.024 43.774 C 54.73 44.068 54.323 44.25 53.875 44.25 C 53.427 44.25 53.02 44.068 52.726 43.774 C 52.432 43.48 52.25 43.073 52.25 42.625 C 52.25 42.177 52.432 41.77 52.726 41.476 C 53.02 41.182 53.427 41 53.875 41 Z " stroke-width="1"/>
  <path id="ID0.9481219374574721" fill="#CC0000" stroke="none" d="M 56.125 31.75 C 56.918 31.75 57.637 32.072 58.157 32.593 C 58.678 33.113 59 33.832 59 34.625 C 59 35.418 58.678 36.137 58.157 36.657 C 57.637 37.178 56.918 37.5 56.125 37.5 C 55.332 37.5 54.613 37.178 54.093 36.657 C 53.572 36.137 53.25 35.418 53.25 34.625 C 53.25 33.832 53.572 33.113 54.093 32.593 C 54.613 32.072 55.332 31.75 56.125 31.75 Z " stroke-width="1"/>
  <path id="ID0.39754705131053925" fill="#CC0000" stroke="none" d="M 79.25 37.25 C 79.595 37.25 79.907 37.39 80.134 37.616 C 80.36 37.843 80.5 38.155 80.5 38.5 C 80.5 38.845 80.36 39.157 80.134 39.384 C 79.907 39.61 79.595 39.75 79.25 39.75 C 78.905 39.75 78.593 39.61 78.366 39.384 C 78.14 39.157 78 38.845 78 38.5 C 78 38.155 78.14 37.843 78.366 37.616 C 78.593 37.39 78.905 37.25 79.25 37.25 Z " stroke-width="1"/>
  <path id="ID0.20780103048309684" fill="#CC0000" stroke="none" d="M 2.0917 25.8667 C 2.5397 25.8667 2.9462 26.0487 3.24 26.3433 C 3.5347 26.6371 3.7167 27.0436 3.7167 27.4917 C 3.7167 27.9397 3.5347 28.3462 3.24 28.64 C 2.9462 28.9347 2.5397 29.1167 2.0917 29.1167 C 1.6436 29.1167 1.2371 28.9347 0.9433 28.64 C 0.6487 28.3462 0.4667 27.9397 0.4667 27.4917 C 0.4667 27.0436 0.6487 26.6371 0.9433 26.3433 C 1.2371 26.0487 1.6436 25.8667 2.0917 25.8667 Z " stroke-width="0.8666666746139526"/>
  <path id="ID0.06110706040635705" fill="#CC0000" stroke="none" d="M 66.875 39.25 C 67.668 39.25 68.387 39.572 68.907 40.093 C 69.428 40.613 69.75 41.332 69.75 42.125 C 69.75 42.918 69.428 43.637 68.907 44.157 C 68.387 44.678 67.668 45 66.875 45 C 66.082 45 65.363 44.678 64.843 44.157 C 64.322 43.637 64 42.918 64 42.125 C 64 41.332 64.322 40.613 64.843 40.093 C 65.363 39.572 66.082 39.25 66.875 39.25 Z " stroke-width="1"/>
  <g id="ID0.7631263164803386">
    <text id="ID0.9744727602228522" fill="#000000" text-anchor="start" font-family="Sans Serif" font-size="22" transform="matrix(0.688042 0 0 0.688042 9.27608 14.3359)" stroke-width="1" alignment-baseline="text-before-edge" xml:space="preserve"><tspan x="0" style="white-space: pre" dy="1.13em">Grade</tspan></text>
    <text id="ID0.9744727602228522" fill="#000000" text-anchor="start" font-family="Sans Serif" font-size="22" transform="matrix(0.688042 0 0 0.688042 10.0261 14.3359)" stroke-width="1" alignment-baseline="text-before-edge" xml:space="preserve"><tspan x="0" style="white-space: pre" dy="1.13em">Grade</tspan></text>
  </g>
  <path id="ID0.443753007799387" fill="#CC0000" stroke="none" d="M 9 24.75 C 9.276 24.75 9.526 24.862 9.707 25.043 C 9.888 25.224 10 25.474 10 25.75 C 10 26.026 9.888 26.276 9.707 26.457 C 9.526 26.638 9.276 26.75 9 26.75 C 8.724 26.75 8.474 26.638 8.293 26.457 C 8.112 26.276 8 26.026 8 25.75 C 8 25.474 8.112 25.224 8.293 25.043 C 8.474 24.862 8.724 24.75 9 24.75 Z " stroke-width="1"/>
</svg>