<svg xmlns="http://www.w3.org/2000/svg" xmlns:xlink="http://www.w3.org/1999/xlink" version="1.1" width="15.399417877197266" height="12.989907264709473" viewBox="-0.29941774904727936 -0.17937085032463074 15.399417877197266 12.989907264709473">
  <!-- Exported by Scratch - http://scratch.mit.edu/ -->
  <g id="ID0.9007245465181768">
    <path id="ID0.6487746122293174" fill="#006622" stroke="none" stroke-linecap="round" d="M 6.659 0.3282 C 8.0161 0.2764 9.5081 0.4794 10.6583 1.2797 C 11.7955 2.0706 12.7458 3.4091 13.2666 4.8745 C 13.8613 6.5471 13.8578 8.4924 13.8317 10.3194 C 13.843 10.8903 13.7318 11.7055 13.2231 11.8524 C 11.2061 12.4339 9.0795 12.3102 7.0067 12.2753 C 5.081 12.2426 3.0969 12.3018 1.2251 11.7467 C 0.7017 11.5543 0.2609 10.8248 0.2252 10.1608 C 0.1365 8.4998 0.2791 6.7416 0.7903 5.1916 C 1.2564 3.7834 1.9945 2.4216 3.0074 1.5969 C 4.0585 0.7109 5.4157 0.3758 6.659 0.3282 Z " stroke-width="0.9679153300443444"/>
    <path id="ID0.6862273388542235" fill="#009933" stroke="none" stroke-linecap="round" d="M 7.015 0.5457 C 8.3052 0.5763 9.6537 0.8724 10.7318 1.7087 C 11.7768 2.5037 12.6662 3.783 13.0792 5.1977 C 13.4896 6.6007 13.9565 8.5841 13.0792 9.5325 C 11.6255 11.2019 9.3589 11.6026 7.3845 11.5941 C 5.2352 11.5846 2.7696 11.2262 1.1681 9.4796 C 0.2265 8.4826 0.7986 6.3723 1.2115 4.9333 C 1.6063 3.5578 2.4331 2.2796 3.472 1.4972 C 4.4823 0.7296 5.8056 0.5161 7.015 0.5457 Z " stroke-width="0.9679153300443444"/>
    <path id="ID0.01353864697739482" fill="#00CC44" stroke="none" stroke-linecap="round" d="M 7.0631 0.7576 C 8.1134 0.7417 9.228 0.9342 10.1496 1.4977 C 11.0112 2.0549 11.7493 2.944 12.1928 3.9823 C 12.6136 4.9666 13.25 6.469 12.584 7.1541 C 11.1833 8.6966 9.115 9.3606 7.237 9.3215 C 5.3104 9.2824 3.2116 8.5962 1.7596 7.0483 C 1.0876 6.3315 1.6136 4.7583 1.977 3.718 C 2.3239 2.8246 3.0116 2.0506 3.7593 1.6034 C 4.7678 0.9997 5.9703 0.7745 7.0631 0.7576 Z " stroke-width="0.9679153300443444"/>
    <path id="ID0.40726609993726015" fill="#99FFBB" stroke="none" d="M 8.1784 1.228 C 8.5201 1.228 8.8296 1.3644 9.0539 1.5843 C 9.2782 1.8042 9.4173 2.1087 9.4173 2.4439 C 9.4173 2.7791 9.2782 3.0835 9.0539 3.3035 C 8.8296 3.5234 8.5201 3.6598 8.1784 3.6598 C 7.8367 3.6598 7.5272 3.5234 7.3029 3.3035 C 7.0786 3.0835 6.9395 2.7791 6.9395 2.4439 C 6.9395 2.1087 7.0786 1.8042 7.3029 1.5843 C 7.5272 1.3644 7.8367 1.228 8.1784 1.228 Z " stroke-width="0.9679153300443444"/>
    <path id="ID0.44971933402121067" fill="#99FFBB" stroke="none" d="M 7.0285 3.66 C 7.2145 3.66 7.3832 3.7277 7.5049 3.8387 C 7.6266 3.9486 7.7023 4.0998 7.7023 4.2679 C 7.7023 4.436 7.6266 4.5872 7.5049 4.6972 C 7.3832 4.8082 7.2145 4.8758 7.0285 4.8758 C 6.8424 4.8758 6.6737 4.8082 6.552 4.6972 C 6.4303 4.5872 6.3547 4.436 6.3547 4.2679 C 6.3547 4.0998 6.4303 3.9486 6.552 3.8387 C 6.6737 3.7277 6.8424 3.66 7.0285 3.66 Z " stroke-width="0.9679153300443444"/>
  </g>
  <g id="ID0.8220732379704714">
    <g id="ID0.20715344790369272">
      <path id="ID0.19440001714974642" fill="#000000" stroke="none" d="M 6.6 2.35 C 7.193 2.35 7.731 2.756 8.12 3.412 C 8.509 4.069 8.75 4.975 8.75 5.975 C 8.75 6.975 8.509 7.881 8.12 8.538 C 7.731 9.194 7.193 9.6 6.6 9.6 C 6.007 9.6 5.469 9.194 5.08 8.538 C 4.691 7.881 4.45 6.975 4.45 5.975 C 4.45 4.975 4.691 4.069 5.08 3.412 C 5.469 2.756 6.007 2.35 6.6 2.35 Z " stroke-width="1"/>
      <path id="ID0.35307061253115535" fill="#FFFFFF" stroke="none" d="M 7.25 2.95 C 7.471 2.95 7.671 3.129 7.816 3.419 C 7.96 3.709 8.05 4.109 8.05 4.55 C 8.05 4.991 7.96 5.391 7.816 5.681 C 7.671 5.971 7.471 6.15 7.25 6.15 C 7.029 6.15 6.829 5.971 6.684 5.681 C 6.54 5.391 6.45 4.991 6.45 4.55 C 6.45 4.109 6.54 3.709 6.684 3.419 C 6.829 3.129 7.029 2.95 7.25 2.95 Z " stroke-width="1"/>
    </g>
    <g id="ID0.20715344790369272">
      <path id="ID0.19440001714974642" fill="#000000" stroke="none" d="M 12.45 2.5 C 13.043 2.5 13.581 2.906 13.97 3.562 C 14.359 4.219 14.6 5.125 14.6 6.125 C 14.6 7.125 14.359 8.031 13.97 8.688 C 13.581 9.344 13.043 9.75 12.45 9.75 C 11.857 9.75 11.319 9.344 10.93 8.688 C 10.541 8.031 10.3 7.125 10.3 6.125 C 10.3 5.125 10.541 4.219 10.93 3.562 C 11.319 2.906 11.857 2.5 12.45 2.5 Z " stroke-width="1"/>
      <path id="ID0.35307061253115535" fill="#FFFFFF" stroke="none" d="M 13.1 3.1 C 13.321 3.1 13.521 3.279 13.666 3.569 C 13.81 3.859 13.9 4.259 13.9 4.7 C 13.9 5.141 13.81 5.541 13.666 5.831 C 13.521 6.121 13.321 6.3 13.1 6.3 C 12.879 6.3 12.679 6.121 12.534 5.831 C 12.39 5.541 12.3 5.141 12.3 4.7 C 12.3 4.259 12.39 3.859 12.534 3.569 C 12.679 3.279 12.879 3.1 13.1 3.1 Z " stroke-width="1"/>
    </g>
  </g>
</svg>