<svg xmlns="http://www.w3.org/2000/svg" xmlns:xlink="http://www.w3.org/1999/xlink" version="1.1" width="36.028803273407775" height="30.27297823068316" viewBox="-7.770694754703916 -7.736453018768705 36.028803273407775 30.27297823068316">
  <!-- Exported by Scratch - http://scratch.mit.edu/ -->
  <g id="ID0.8960613501258194">
    <path id="ID0.19551143841817975" fill="#DB861B" stroke="none" stroke-width="16.2605060779732" stroke-linecap="round" d="M 5.6122 13.5851 C 5.642 13.2808 5.3522 12.9487 5.0663 12.8408 C 4.3579 12.5732 3.5643 12.5941 2.8028 12.5749 C 2.0783 12.5397 1.3242 12.4134 0.6287 12.5867 C 0.3882 12.7004 0.3563 13.0666 0.3598 13.3287 C 0.3642 13.6398 0.4 14.0009 0.6278 14.1623 C 1.0025 14.4003 1.4915 14.3527 1.918 14.3607 C 2.9316 14.38 3.9602 14.4809 4.9648 14.3008 C 5.2614 14.2084 5.5809 13.8948 5.6122 13.5851 Z "/>
    <g id="ID0.30696602864190936">
      <path id="ID0.637318427208811" fill="#FAA51D" stroke="none" stroke-linecap="round" d="M 3.7003 10.0091 C 4.216 10.4927 5.0772 10.5714 5.5344 11.119 C 5.7511 11.3808 5.7048 11.8641 5.4649 12.0204 C 5.1411 12.2822 4.6521 12.2016 4.2765 12.0494 C 3.6947 11.8351 3.1748 11.5075 2.6852 11.0646 C 2.1455 10.577 1.5917 10.0578 1.2484 9.4185 C 1.0574 9.123 0.8991 8.633 1.1516 8.3876 C 1.442 8.1062 2.0285 8.0907 2.3903 8.312 C 2.9809 8.6809 3.1486 9.5397 3.7003 10.0091 Z " stroke-width="1.0840335797986553"/>
      <path id="ID0.9894068208523095" fill="#FFFFFF" stroke="none" stroke-linecap="round" d="M 2.1927 8.0791 C 2.7263 8.2692 3.214 8.9633 3.27 9.4768 C 3.3325 9.6852 2.6682 9.3711 2.4281 9.5245 C 2.1704 9.6911 2.2096 10.4773 2.0123 10.3158 C 1.5099 9.9995 0.9638 9.2212 1.0304 8.5672 C 1.0728 8.1502 1.7978 7.9387 2.1927 8.0791 Z " stroke-width="1.0840335797986553"/>
    </g>
    <path id="ID0.9358589742332697" fill="#DB861B" stroke="none" stroke-width="16.260503109525835" stroke-linecap="round" d="M 16.3706 13.6293 C 16.3815 13.3136 15.6522 12.939 15.192 12.8161 C 14.383 12.6009 13.563 12.6546 12.7627 12.598 C 12.0649 12.5745 11.2931 12.2854 10.6967 12.5758 C 10.3881 12.7276 10.4414 13.4192 10.7126 13.6112 C 11.2756 14.0078 12.058 13.9485 12.7446 14.0113 C 13.5413 14.0839 14.3415 14.1666 15.1296 14.1165 C 15.5699 14.0374 16.3603 13.9136 16.3706 13.6293 Z "/>
    <g id="ID0.40368221141397953">
      <path id="ID0.6198067106306553" fill="#FAA51D" stroke="none" stroke-linecap="round" d="M 11.5914 11.7776 C 11.586 12.2949 11.7171 13.0394 11.2401 13.275 C 10.3314 13.7865 9.1559 13.6601 8.1031 13.6593 C 7.0525 13.6585 5.8528 13.7462 4.8434 13.287 C 4.434 13.079 4.4084 12.4072 4.3839 11.9133 C 4.362 11.4432 4.4429 10.7878 4.8466 10.5764 C 5.7541 10.0595 6.8702 10.0211 7.8712 9.9773 C 9.0119 9.9288 10.2468 9.7516 11.2914 10.2382 C 11.7628 10.457 11.5979 11.256 11.5914 11.7776 Z " stroke-width="1.0840335608767786"/>
      <path id="ID0.21503017749637365" fill="#FFFFFF" stroke="none" stroke-linecap="round" d="M 9.79 12.4913 C 9.7945 12.7904 9.5499 13.0975 9.2613 13.206 C 8.6384 13.4627 7.9138 13.5035 7.2342 13.5152 C 6.4528 13.5288 5.6464 13.5429 4.8718 13.2886 C 4.6303 13.1891 4.5057 12.8488 4.4239 12.5381 C 4.3485 12.2143 4.318 11.6901 4.6223 11.5586 C 5.4193 11.2161 6.4164 11.3112 7.3289 11.345 C 7.9343 11.3672 8.6239 11.4268 9.2328 11.6886 C 9.499 11.8343 9.7839 12.1672 9.79 12.4913 Z " stroke-width="1.0840335608767786"/>
    </g>
    <g id="ID0.6909988787956536">
      <g id="ID0.847524844110012">
        <path id="ID0.10025785537436604" fill="#FAA51D" stroke="none" d="M 13.9082 2.0692 C 15.5493 2.2935 16.9536 3.0958 17.8982 4.2109 C 18.8418 5.3258 19.3258 6.7536 19.1241 8.2289 C 18.9224 9.7041 18.0729 10.9496 16.8647 11.7704 C 15.6554 12.591 14.0874 12.9869 12.4463 12.7625 C 10.8052 12.5382 9.4009 11.7359 8.4563 10.6208 C 7.5127 9.5059 7.0287 8.0781 7.2304 6.6028 C 7.4321 5.1276 8.2816 3.882 9.4898 3.0613 C 10.6991 2.2407 12.2671 1.8448 13.9082 2.0692 Z " stroke-width="1.1013091003341686"/>
        <path id="ID0.23814574256539345" fill="#FAA51D" stroke="none" stroke-linecap="round" d="M 7.5791 0.3938 L 11.6356 2.838 L 7.5476 5.5026 L 7.5791 0.3938 Z " stroke-width="1.1013091003341686"/>
        <path id="ID0.23814574256539345" fill="#FAA51D" stroke="none" stroke-linecap="round" d="M 18.1495 1.1947 L 13.7568 2.9649 L 17.3706 6.244 L 18.1495 1.1947 Z " stroke-width="1.10130892303595"/>
        <path id="ID0.46886637480929494" fill="#FFFFFF" stroke="none" stroke-linecap="round" d="M 15.6636 8.7994 C 16.6221 8.8293 17.528 7.8216 18.4241 8.1209 C 19.3096 8.4164 20.2246 9.4641 20.1196 10.3535 C 19.9918 11.4186 19.0014 12.3781 18.0083 12.7881 C 16.6571 13.3948 15.0858 13.3023 13.5912 13.1846 C 12.6147 13.1078 11.6007 12.8169 10.8015 12.2474 C 10.1519 11.7874 9.3642 11.045 9.3564 10.2158 C 9.4191 9.3185 10.0611 8.1913 10.9394 7.9868 C 12.4974 7.624 14.0784 8.7839 15.6636 8.7994 Z " stroke-width="1.1013091003341686"/>
        <path id="ID0.2958779144100845" fill="#666666" stroke="none" stroke-linecap="round" d="M 15.384 8.2178 C 15.739 8.2152 16.3145 8.1927 16.3512 8.4612 C 16.4053 8.8054 16.0111 9.4284 15.6093 9.4157 C 15.0772 9.4297 14.4023 8.8372 14.3498 8.4654 C 14.3155 8.204 15.0309 8.1828 15.384 8.2178 Z " stroke-width="1.1013091003341686"/>
      </g>
      <g id="ID0.26280788984149694">
        <g id="ID0.2985607646405697">
          <path id="ID0.6929170889779925" fill="#000000" stroke="none" d="M 17.2997 4.3535 C 17.638 4.3998 17.9186 4.6404 18.0962 4.9915 C 18.2749 5.3428 18.3517 5.8057 18.2849 6.2945 C 18.218 6.7833 18.0198 7.2086 17.7534 7.499 C 17.488 7.7895 17.1532 7.946 16.8149 7.8998 C 16.4767 7.8536 16.1961 7.6129 16.0184 7.2618 C 15.8397 6.9106 15.7629 6.4477 15.8298 5.9588 C 15.8966 5.47 16.0948 5.0447 16.3613 4.7543 C 16.6266 4.4638 16.9615 4.3073 17.2997 4.3535 Z " stroke-width="1.1013091003341686"/>
          <path id="ID0.02252052817493677" fill="#CCCCCC" stroke="none" d="M 17.5996 4.7559 C 17.7273 4.7733 17.8298 4.893 17.8898 5.0723 C 17.9508 5.2519 17.9716 5.4903 17.9365 5.7468 C 17.9015 6.0032 17.8175 6.2274 17.7105 6.3839 C 17.6046 6.5406 17.4737 6.6283 17.346 6.6109 C 17.2183 6.5934 17.1157 6.4738 17.0558 6.2944 C 16.9947 6.1149 16.974 5.8764 17.0091 5.62 C 17.0441 5.3635 17.1281 5.1394 17.2351 4.9828 C 17.341 4.8261 17.4719 4.7384 17.5996 4.7559 Z " stroke-width="1.1013091003341686"/>
        </g>
        <g id="ID0.2985607646405697">
          <path id="ID0.6929170889779925" fill="#000000" stroke="none" d="M 13.0997 4.0035 C 13.438 4.0498 13.7186 4.2904 13.8962 4.6415 C 14.0749 4.9928 14.1517 5.4557 14.0849 5.9445 C 14.018 6.4333 13.8198 6.8586 13.5534 7.149 C 13.288 7.4395 12.9532 7.596 12.6149 7.5498 C 12.2767 7.5036 11.9961 7.2629 11.8184 6.9118 C 11.6397 6.5606 11.5629 6.0977 11.6298 5.6088 C 11.6966 5.12 11.8948 4.6947 12.1613 4.4043 C 12.4266 4.1138 12.7615 3.9573 13.0997 4.0035 Z " stroke-width="1.1013091003341686"/>
          <path id="ID0.02252052817493677" fill="#CCCCCC" stroke="none" d="M 13.4496 4.3059 C 13.5773 4.3233 13.6798 4.443 13.7398 4.6223 C 13.8008 4.8019 13.8216 5.0403 13.7865 5.2968 C 13.7515 5.5532 13.6675 5.7774 13.5605 5.9339 C 13.4546 6.0906 13.3237 6.1783 13.196 6.1609 C 13.0683 6.1434 12.9657 6.0238 12.9058 5.8444 C 12.8447 5.6649 12.824 5.4264 12.8591 5.17 C 12.8941 4.9135 12.9781 4.6894 13.0851 4.5328 C 13.191 4.3761 13.3219 4.2884 13.4496 4.3059 Z " stroke-width="1.1013091003341686"/>
        </g>
      </g>
    </g>
    <path id="ID0.9358589742332697" fill="#F9B341" stroke="none" stroke-width="16.260503117265106" stroke-linecap="round" d="M 4.6116 8.6068 C 4.6496 8.3117 5.0137 8.0506 5.3157 8.0507 C 6.0162 8.0497 6.6896 8.3177 7.3508 8.5881 C 7.993 8.8914 8.7827 9.1499 9.1907 9.7553 C 9.383 10.0412 8.9761 10.6313 8.6314 10.6268 C 7.9067 10.6156 7.3779 10.0454 6.7424 9.7989 C 6.2153 9.5825 5.6137 9.5629 5.1193 9.2866 C 4.8661 9.1435 4.5582 8.8894 4.6116 8.6068 Z "/>
    <path id="ID0.19551143841817975" fill="#FAA51D" stroke="none" stroke-linecap="round" d="M 7.3166 11.6109 C 7.3328 11.327 6.7448 11.2792 6.4366 11.1862 C 5.6705 10.9835 4.812 10.897 4.186 10.8277 C 3.4662 10.7479 2.7142 10.5958 2.0132 10.7504 C 1.766 10.8452 1.7289 11.2195 1.7141 11.4808 C 1.6947 11.8036 1.7125 12.2037 1.9957 12.3845 C 2.3113 12.6365 2.7853 12.5713 3.2287 12.5757 C 4.2505 12.5875 5.3015 12.7389 6.2933 12.4791 C 6.7362 12.3995 7.2918 12.0117 7.3166 11.6109 Z " stroke-width="1.0840336615141206"/>
  </g>
</svg>