<svg xmlns="http://www.w3.org/2000/svg" xmlns:xlink="http://www.w3.org/1999/xlink" version="1.1" width="29.20623608063243" height="36.46234722565196" viewBox="-6.689017989390006 -7.936052941434493 29.20623608063243 36.46234722565196">
  <!-- Exported by Scratch - http://scratch.mit.edu/ -->
  <path id="ID0.9358589742332697" fill="#DB861B" stroke="none" stroke-width="16.260503200351202" stroke-linecap="round" d="M 7.7231 11.6929 C 7.439 11.5435 6.9356 11.6832 6.5896 11.8433 C 6.028 12.1039 5.6253 12.5024 5.2073 12.8923 C 4.8744 13.184 4.334 13.4192 4.2563 13.8712 C 4.237 14.2006 4.6601 14.6544 4.9885 14.6035 C 5.6688 14.4963 6.1676 13.8876 6.7259 13.4762 C 7.1253 13.1823 7.5722 12.9126 7.7952 12.4713 C 7.9423 12.2533 7.942 11.81 7.7231 11.6929 Z "/>
  <path id="ID0.19551143841817975" fill="#DB861B" stroke="none" stroke-width="16.260505871281843" stroke-linecap="round" d="M 9.2126 13.6012 C 8.9222 13.6602 8.4692 13.6627 8.2961 13.9402 C 7.906 14.5728 7.8071 15.3816 7.6636 16.1297 C 7.5105 16.8388 7.2625 17.562 7.3198 18.2765 C 7.3927 18.5323 7.779 18.6132 8.0078 18.6631 C 8.4359 18.7561 9.0806 19.109 9.3762 18.766 C 9.7182 18.3637 9.2331 17.7613 9.2807 17.2946 C 9.4205 16.0331 9.9609 14.8111 9.9357 13.6061 C 9.9294 13.3049 9.4458 13.553 9.2126 13.6012 Z "/>
  <g id="ID0.30696602864190936">
    <path id="ID0.637318427208811" fill="#FAA51D" stroke="none" stroke-linecap="round" d="M 5.0779 14.4558 C 5.696 14.799 6.5505 14.6652 7.1274 15.0847 C 7.4015 15.2857 7.4744 15.7657 7.28 15.9759 C 7.0298 16.3087 6.5359 16.3499 6.1345 16.2939 C 5.518 16.2281 4.9339 16.0372 4.3511 15.7272 C 3.7087 15.3859 3.045 15.0176 2.5561 14.4814 C 2.2987 14.2415 2.0256 13.8048 2.2106 13.5052 C 2.4236 13.1616 2.9886 13.0034 3.3935 13.1297 C 4.0562 13.3433 4.4283 14.1353 5.0779 14.4558 Z " stroke-width="1.0840336296178195"/>
    <path id="ID0.9894068208523095" fill="#FFFFFF" stroke="none" stroke-linecap="round" d="M 3.1431 13.0806 C 3.707 13.1348 4.3493 13.6889 4.5289 14.1733 C 4.6403 14.3601 3.9195 14.2176 3.7241 14.4249 C 3.5148 14.6494 3.7447 15.4023 3.5139 15.2938 C 2.9496 15.1096 2.23 14.4881 2.135 13.8376 C 2.0744 13.4229 2.7259 13.0408 3.1431 13.0806 Z " stroke-width="1.0840336296178195"/>
  </g>
  <g id="ID0.536394951865077">
    <path id="ID0.6198067106306553" fill="#FAA51D" stroke="none" stroke-linecap="round" d="M 6.3055 9.3116 C 6.8095 9.1954 7.5025 8.8931 7.8435 9.3014 C 8.5541 10.0646 8.7073 11.2369 8.9538 12.2605 C 9.1997 13.2819 9.5666 14.4274 9.3574 15.5164 C 9.2513 15.9632 8.6044 16.1459 8.13 16.2857 C 7.6781 16.4174 7.0221 16.4926 6.7218 16.1499 C 6.0062 15.3891 5.7068 14.3133 5.4292 13.3506 C 5.1141 12.2531 4.6518 11.0944 4.8796 9.9648 C 4.9816 9.4551 5.7969 9.4278 6.3055 9.3116 Z " stroke-width="1.0840336259501413"/>
    <path id="ID0.21503017749637365" fill="#FFFFFF" stroke="none" stroke-linecap="round" d="M 7.5368 10.8593 C 7.8265 10.7846 8.1825 10.9503 8.3556 11.2053 C 8.7515 11.7506 8.9613 12.4453 9.1322 13.1031 C 9.329 13.8596 9.5321 14.6401 9.4668 15.4527 C 9.4267 15.7108 9.1252 15.9119 8.8424 16.0643 C 8.5454 16.2137 8.043 16.3664 7.8437 16.1015 C 7.3237 15.4072 7.1819 14.4157 7.0005 13.5208 C 6.8799 12.9271 6.7759 12.2427 6.8874 11.5895 C 6.9665 11.2965 7.2232 10.9413 7.5368 10.8593 Z " stroke-width="1.0840336259501413"/>
  </g>
  <path id="ID0.19551143841817975" fill="#FAA51D" stroke="none" stroke-linecap="round" d="M 6.7229 14.6 C 6.4439 14.5446 6.3151 15.1203 6.1803 15.4126 C 5.8733 16.1432 5.6687 16.9815 5.5133 17.5919 C 5.3345 18.2936 5.0796 19.0173 5.1356 19.733 C 5.1952 19.9909 5.5895 20.0768 5.8174 20.1304 C 6.244 20.2301 6.8831 20.5932 7.1841 20.2548 C 7.5324 19.858 7.0746 19.2705 7.1117 18.7821 C 7.1934 17.7413 7.5607 16.752 7.4409 15.7337 C 7.4234 15.2841 7.1164 14.6801 6.7229 14.6 Z " stroke-width="1.0840336672803417"/>
  <g id="ID0.6909988787956536">
    <g id="ID0.847524844110012">
      <path id="ID0.10025785537436604" fill="#FAA51D" stroke="none" d="M 8.0952 1.8839 C 9.7391 2.0865 11.1539 2.87 12.1132 3.9724 C 13.0715 5.0748 13.5744 6.496 13.3923 7.9738 C 13.2102 9.4516 12.3774 10.7083 11.1802 11.545 C 9.9819 12.3816 8.4192 12.7983 6.7753 12.5957 C 5.1313 12.3932 3.7166 11.6096 2.7572 10.5072 C 1.7989 9.4049 1.296 7.9836 1.4781 6.5058 C 1.6602 5.028 2.4931 3.7713 3.6903 2.9346 C 4.8886 2.098 6.4512 1.6813 8.0952 1.8839 Z " stroke-width="1.1013090546436102"/>
      <path id="ID0.23814574256539345" fill="#FAA51D" stroke="none" stroke-linecap="round" d="M 1.6968 0.1942 L 5.7854 2.5844 L 1.7331 5.303 L 1.6968 0.1942 Z " stroke-width="1.1013090546436102"/>
      <path id="ID0.23814574256539345" fill="#FAA51D" stroke="none" stroke-linecap="round" d="M 12.53 0.9387 L 8.1612 2.7671 L 11.8183 5.9978 L 12.53 0.9387 Z " stroke-width="1.1013089469773067"/>
      <path id="ID0.46886637480929494" fill="#FFFFFF" stroke="none" stroke-linecap="round" d="M 9.9042 8.5238 C 10.863 8.5409 11.7554 7.5213 12.6555 7.8086 C 13.5448 8.0924 14.4736 9.1279 14.3805 10.0185 C 14.2668 11.0853 13.2892 12.0578 12.3017 12.481 C 10.9586 13.1056 9.3862 13.0339 7.8903 12.9361 C 6.9128 12.8722 5.895 12.5948 5.0884 12.036 C 4.4327 11.5846 3.6352 10.8527 3.6164 10.0238 C 3.6671 9.1256 4.2942 7.9901 5.1697 7.7739 C 6.7227 7.3905 8.319 8.5293 9.9042 8.5238 Z " stroke-width="1.1013090546436102"/>
      <path id="ID0.2958779144100845" fill="#666666" stroke="none" stroke-linecap="round" d="M 9.6376 7.8781 C 9.9925 7.8708 10.5676 7.8407 10.6079 8.1086 C 10.6665 8.4521 10.2806 9.0803 9.8787 9.0729 C 9.3468 9.0939 8.6642 8.5105 8.6067 8.1394 C 8.569 7.8785 9.284 7.8478 9.6376 7.8781 Z " stroke-width="1.1013090546436102"/>
    </g>
    <g id="ID0.26280788984149694">
      <g id="ID0.2985607646405697">
        <path id="ID0.6929170889779925" fill="#000000" stroke="none" d="M 11.3908 4.1067 C 11.7297 4.1485 12.0134 4.3854 12.1957 4.7341 C 12.3791 5.0829 12.462 5.5448 12.4017 6.0344 C 12.3413 6.5241 12.1488 6.952 11.8862 7.2459 C 11.6247 7.5399 11.292 7.7009 10.9531 7.6591 C 10.6143 7.6174 10.3306 7.3805 10.1483 7.0318 C 9.9649 6.6829 9.882 6.2211 9.9423 5.7314 C 10.0027 5.2417 10.1952 4.8138 10.4578 4.5199 C 10.7193 4.2259 11.052 4.065 11.3908 4.1067 Z " stroke-width="1.1013090546436102"/>
        <path id="ID0.02252052817493677" fill="#CCCCCC" stroke="none" d="M 11.813 4.5109 C 11.9408 4.5267 12.045 4.6449 12.1073 4.8235 C 12.1708 5.0022 12.1947 5.2404 12.163 5.4973 C 12.1314 5.7541 12.0504 5.9794 11.9454 6.1373 C 11.8416 6.2954 11.7119 6.3849 11.584 6.3691 C 11.4561 6.3533 11.352 6.2351 11.2896 6.0565 C 11.2262 5.8778 11.2023 5.6396 11.2339 5.3828 C 11.2656 5.1259 11.3466 4.9007 11.4515 4.7427 C 11.5553 4.5846 11.6851 4.4952 11.813 4.5109 Z " stroke-width="1.1013090546436102"/>
      </g>
      <g id="ID0.2985607646405697">
        <path id="ID0.6929170889779925" fill="#000000" stroke="none" d="M 7.3053 3.731 C 7.6442 3.7728 7.9279 4.0097 8.1102 4.3584 C 8.2936 4.7072 8.3765 5.169 8.3162 5.6587 C 8.2558 6.1484 8.0633 6.5763 7.8007 6.8702 C 7.5392 7.1642 7.2065 7.3251 6.8676 7.2834 C 6.5288 7.2416 6.2451 7.0047 6.0628 6.656 C 5.8794 6.3072 5.7965 5.8454 5.8568 5.3557 C 5.9171 4.866 6.1097 4.4381 6.3723 4.1442 C 6.6337 3.8502 6.9665 3.6892 7.3053 3.731 Z " stroke-width="1.1013090546436102"/>
        <path id="ID0.02252052817493677" fill="#CCCCCC" stroke="none" d="M 7.6304 4.0798 C 7.7583 4.0955 7.8624 4.2138 7.9247 4.3923 C 7.9882 4.571 8.0121 4.8092 7.9804 5.0661 C 7.9488 5.323 7.8678 5.5482 7.7629 5.7062 C 7.659 5.8643 7.5293 5.9537 7.4014 5.9379 C 7.2735 5.9222 7.1694 5.8039 7.107 5.6254 C 7.0436 5.4467 7.0197 5.2085 7.0513 4.9516 C 7.083 4.6947 7.164 4.4695 7.2689 4.3115 C 7.3727 4.1534 7.5025 4.064 7.6304 4.0798 Z " stroke-width="1.1013090546436102"/>
      </g>
    </g>
  </g>
  <path id="ID0.9358589742332697" fill="#F9B341" stroke="none" stroke-width="16.260503766429995" stroke-linecap="round" d="M 6.3011 12.1792 C 6.3829 12.4896 6.1338 12.9488 5.9001 13.25 C 5.52 13.7388 5.0413 14.0418 4.5675 14.3616 C 4.2085 14.6205 3.858 15.0943 3.4002 15.0685 C 3.0749 15.0134 2.7276 14.4992 2.8509 14.1907 C 3.108 13.5518 3.8132 13.2023 4.3394 12.7507 C 4.7155 12.4275 5.0787 12.0525 5.5588 11.9342 C 5.8042 11.8398 6.2361 11.9396 6.3011 12.1792 Z "/>
</svg>