<svg xmlns="http://www.w3.org/2000/svg" xmlns:xlink="http://www.w3.org/1999/xlink" version="1.1" width="481.16872894763947" height="361.16872894763947" viewBox="49.41563552618027 38.41563552618027 481.16872894763947 361.16872894763947">
  <defs>
    <radialGradient id="grad_1" cx="0.5956" cy="0.3944" r="0.7872800000000001">
      <stop offset="0" stop-color="#434343" stop-opacity="1"/>
      <stop offset="1" stop-color="#343434" stop-opacity="1"/>
    </radialGradient>
    <radialGradient id="grad_2" cx="0.5956" cy="0.3944" r="0.7872800000000001">
      <stop offset="0" stop-color="#434343" stop-opacity="1"/>
      <stop offset="1" stop-color="#343434" stop-opacity="1"/>
    </radialGradient>
    <linearGradient id="grad_3" x2="1">
      <stop offset="0" stop-color="#000000" stop-opacity="0"/>
      <stop offset="1" stop-color="#000000" stop-opacity="1"/>
    </linearGradient>
    <linearGradient id="grad_4" y2="1" x2="0">
      <stop offset="0" stop-color="#000000" stop-opacity="0"/>
      <stop offset="1" stop-color="#000000" stop-opacity="1"/>
    </linearGradient>
    <radialGradient id="grad_5" cx="0.903" cy="0.5378000000000001" r="1.1739">
      <stop offset="0" stop-color="#670000" stop-opacity="1"/>
      <stop offset="1" stop-color="#670000" stop-opacity="0"/>
    </radialGradient>
    <radialGradient id="grad_6" cx="0.49340000000000006" cy="0.5151" r="0.66963">
      <stop offset="0" stop-color="#000000" stop-opacity="1"/>
      <stop offset="1" stop-color="#000000" stop-opacity="0"/>
    </radialGradient>
    <radialGradient id="grad_7" cx="0.3527" cy="0.27899999999999997" r="0.9373">
      <stop offset="0" stop-color="#1C1C1C" stop-opacity="1"/>
      <stop offset="1" stop-color="#1C1C1C" stop-opacity="0"/>
    </radialGradient>
    <radialGradient id="grad_8" cx="0.2126" cy="0.3111" r="1.02362">
      <stop offset="0" stop-color="#1C1C1C" stop-opacity="1"/>
      <stop offset="1" stop-color="#1C1C1C" stop-opacity="0"/>
    </radialGradient>
    <radialGradient id="grad_9" cx="0.1505" cy="0.0889" r="1.1844299999999999">
      <stop offset="0" stop-color="#1C1C1C" stop-opacity="1"/>
      <stop offset="1" stop-color="#1C1C1C" stop-opacity="0"/>
    </radialGradient>
    <radialGradient id="grad_10" cx="0.3675" cy="0.4349" r="0.8222499999999999">
      <stop offset="0" stop-color="#1C1C1C" stop-opacity="1"/>
      <stop offset="1" stop-color="#1C1C1C" stop-opacity="0"/>
    </radialGradient>
    <radialGradient id="grad_11" cx="0.9384999999999999" cy="0.6953" r="1.2200499999999999">
      <stop offset="0" stop-color="#670000" stop-opacity="1"/>
      <stop offset="1" stop-color="#670000" stop-opacity="0"/>
    </radialGradient>
    <radialGradient id="grad_12" cx="0.0436" cy="0.044800000000000006" r="1.24332">
      <stop offset="0" stop-color="#C60101" stop-opacity="1"/>
      <stop offset="1" stop-color="#C60101" stop-opacity="0"/>
    </radialGradient>
    <radialGradient id="grad_13" cx="0.3095" cy="0.4792" r="0.8976500000000001">
      <stop offset="0" stop-color="#1C1C1C" stop-opacity="1"/>
      <stop offset="1" stop-color="#1C1C1C" stop-opacity="0"/>
    </radialGradient>
    <radialGradient id="grad_14" cx="0.17600000000000002" cy="0.1802" r="1.0712000000000002">
      <stop offset="0" stop-color="#C60101" stop-opacity="1"/>
      <stop offset="1" stop-color="#C60101" stop-opacity="0"/>
    </radialGradient>
    <radialGradient id="grad_15" cx="0.4899" cy="0.513" r="0.6668999999999999">
      <stop offset="0" stop-color="#FFFFFF" stop-opacity="1"/>
      <stop offset="1" stop-color="#FFFFFF" stop-opacity="0"/>
    </radialGradient>
    <radialGradient id="grad_16" cx="0.4645" cy="0.527" r="0.6961499999999999">
      <stop offset="0" stop-color="#FFFFFF" stop-opacity="1"/>
      <stop offset="1" stop-color="#FFFFFF" stop-opacity="0"/>
    </radialGradient>
  <radialGradient id="grad_1-.17933147396946403,-0.4132903866727773,0.4132903866727773,0.17933147396946403,299.3978109136224,294.1428792595863" cx="399.0365" cy="234.2519" r="108.7109" gradientUnits="userSpaceOnUse">
      <stop offset="0" stop-color="#434343" stop-opacity="1"/>
      <stop offset="1" stop-color="#343434" stop-opacity="1"/>
    </radialGradient><radialGradient id="grad_2-.9285560250282288,-0.37119221687316895,0.37119221687316895,0.9285560250282288,-35.75,98" cx="214.9023" cy="159.3108" r="241.3006" gradientUnits="userSpaceOnUse">
      <stop offset="0" stop-color="#434343" stop-opacity="1"/>
      <stop offset="1" stop-color="#343434" stop-opacity="1"/>
    </radialGradient><linearGradient id="grad_3-,0,0,1,50,39" x2="530" x1="52" y1="40" y2="40" gradientUnits="userSpaceOnUse">
      <stop offset="0" stop-color="#000000" stop-opacity="0"/>
      <stop offset="1" stop-color="#000000" stop-opacity="1"/>
    </linearGradient><linearGradient id="grad_4-,0,0,1,50,39" y2="399" x2="50" x1="50" y1="39" gradientUnits="userSpaceOnUse">
      <stop offset="0" stop-color="#000000" stop-opacity="0"/>
      <stop offset="1" stop-color="#000000" stop-opacity="1"/>
    </linearGradient><radialGradient id="grad_5-,0,0,1,50,39" cx="275.0046" cy="297.0021" r="40.2556" gradientUnits="userSpaceOnUse">
      <stop offset="0" stop-color="#670000" stop-opacity="1"/>
      <stop offset="1" stop-color="#670000" stop-opacity="0"/>
    </radialGradient><radialGradient id="grad_6-.0536398887634277,0,0,1.0606060028076172,13.75,23.65" cx="272.7109" cy="363.0421" r="131.6838" gradientUnits="userSpaceOnUse">
      <stop offset="0" stop-color="#000000" stop-opacity="1"/>
      <stop offset="1" stop-color="#000000" stop-opacity="0"/>
    </radialGradient><radialGradient id="grad_7-,0,0,1,62.5,22" cx="259.5293" cy="110.0179" r="72.7251" gradientUnits="userSpaceOnUse">
      <stop offset="0" stop-color="#1C1C1C" stop-opacity="1"/>
      <stop offset="1" stop-color="#1C1C1C" stop-opacity="0"/>
    </radialGradient><radialGradient id="grad_8-,0,0,1,50,39" cx="164.9913" cy="200.0043" r="65.196" gradientUnits="userSpaceOnUse">
      <stop offset="0" stop-color="#1C1C1C" stop-opacity="1"/>
      <stop offset="1" stop-color="#1C1C1C" stop-opacity="0"/>
    </radialGradient><radialGradient id="grad_9-,0,0,1,50,41" cx="181.9943" cy="287.9985" r="69.341" gradientUnits="userSpaceOnUse">
      <stop offset="0" stop-color="#1C1C1C" stop-opacity="1"/>
      <stop offset="1" stop-color="#1C1C1C" stop-opacity="0"/>
    </radialGradient><radialGradient id="grad_10-,0,0,1,48,35" cx="280.9958" cy="300.014" r="50.377" gradientUnits="userSpaceOnUse">
      <stop offset="0" stop-color="#1C1C1C" stop-opacity="1"/>
      <stop offset="1" stop-color="#1C1C1C" stop-opacity="0"/>
    </radialGradient><radialGradient id="grad_11-,0,0,1,50,39" cx="347.975" cy="191.9972" r="133.4426" gradientUnits="userSpaceOnUse">
      <stop offset="0" stop-color="#670000" stop-opacity="1"/>
      <stop offset="1" stop-color="#670000" stop-opacity="0"/>
    </radialGradient><radialGradient id="grad_12-,0,0,1,51.25,37.75" cx="220.2468" cy="140.7398" r="118.2705" gradientUnits="userSpaceOnUse">
      <stop offset="0" stop-color="#C60101" stop-opacity="1"/>
      <stop offset="1" stop-color="#C60101" stop-opacity="0"/>
    </radialGradient><radialGradient id="grad_13-,0,0,1,48.5,38.5" cx="236.8822" cy="263.529" r="12.0268" gradientUnits="userSpaceOnUse">
      <stop offset="0" stop-color="#1C1C1C" stop-opacity="1"/>
      <stop offset="1" stop-color="#1C1C1C" stop-opacity="0"/>
    </radialGradient><radialGradient id="grad_14-,0,0,1,50,40.75" cx="235.0086" cy="275.7376" r="18.0382" gradientUnits="userSpaceOnUse">
      <stop offset="0" stop-color="#C60101" stop-opacity="1"/>
      <stop offset="1" stop-color="#C60101" stop-opacity="0"/>
    </radialGradient><radialGradient id="grad_15-.158730149269104,0,0,1.158730149269104,30.1,1.35" cx="262.5856" cy="181.3578" r="42.2818" gradientUnits="userSpaceOnUse">
      <stop offset="0" stop-color="#FFFFFF" stop-opacity="1"/>
      <stop offset="1" stop-color="#FFFFFF" stop-opacity="0"/>
    </radialGradient><radialGradient id="grad_16-1.1687289476394653,0,0,1.1687289476394653,550.2,-1.95" cx="318.647" cy="191.5946" r="35.0216" gradientUnits="userSpaceOnUse">
      <stop offset="0" stop-color="#FFFFFF" stop-opacity="1"/>
      <stop offset="1" stop-color="#FFFFFF" stop-opacity="0"/>
    </radialGradient></defs>
  <!-- Exported by Scratch - http://scratch.mit.edu/ -->
  <path id="ID0.9388453438878059" fill="#666666" stroke="none" d="M 51 40 L 530 40 L 530 399 L 51 399 L 51 40 Z " stroke-width="1"/>
  <g id="ID0.21802398189902306">
    <path id="ID0.9032868365757167" fill="url(#grad_1-.17933147396946403,-0.4132903866727773,0.4132903866727773,0.17933147396946403,299.3978109136224,294.1428792595863)" stroke="none" stroke-linecap="round" d="M 346.2673 224.608 C 363.2701 222.5963 381.7579 230.3384 397.2648 223.6545 C 411.6918 217.5284 417.3513 199.4206 428.8912 189.2493 C 431.7763 186.7064 433.4565 187.52 433.8507 191.4013 C 435.4342 206.9438 427.5091 223.9689 433.5798 238.4298 C 440.1612 254.4614 458.8576 262.5469 469.1393 276.4503 C 471.7062 279.9341 470.6109 281.7749 466.2154 282.057 C 448.6282 283.1836 430.1392 273.5801 413.8141 279.4548 C 399.0066 284.9954 392.616 303.172 380.9479 313.322 C 378.0335 315.8531 377.6835 315.1296 377.4076 311.2947 C 376.3036 295.9553 383.8266 279.411 378.3258 265.0382 C 372.2379 250.0556 354.9061 242.1992 345.1213 229.5129 C 342.6753 226.3422 342.0158 225.1117 346.2673 224.608 Z " stroke-width="0.45052050039059743"/>
    <path id="ID0.3783458601683378" fill="#666666" stroke="none" d="M 390.7876 245.3735 C 392.7173 240.9265 396.2718 237.6806 400.4557 236.0288 C 404.6396 234.3771 409.4529 234.3195 413.8999 236.2491 C 418.3469 238.1787 421.5928 241.7332 423.2446 245.9171 C 424.8963 250.1011 424.9539 254.9143 423.0243 259.3613 C 421.0947 263.8083 417.5401 267.0542 413.3562 268.706 C 409.1723 270.3577 404.3591 270.4153 399.912 268.4857 C 395.465 266.5561 392.2191 263.0015 390.5674 258.8176 C 388.9156 254.6337 388.858 249.8205 390.7876 245.3735 Z " stroke-width="0.45052050039059743"/>
    <path id="ID0.11348846508190036" fill="#464646" stroke="none" stroke-linecap="round" d="M 345.6046 227.2671 C 343.6928 226.1635 353.1953 225.8044 357.0283 225.8396 C 364.2976 225.9043 371.6194 227.9847 378.909 227.4762 C 387.0312 226.7421 396.1435 226.8193 402.8324 222.1415 C 412.4464 215.417 417.7745 203.645 425.554 194.6767 C 427.4966 192.4395 431.2525 188.2589 430.5444 189.9666 C 428.9132 195.3476 425.2401 203.2537 420.8759 208.8533 C 414.6257 216.8788 408.496 226.1862 399.2458 230.4073 C 389.9941 234.6238 379.4233 233.3171 369.7156 232.8181 C 361.3554 232.2594 349.0169 229.2216 345.6046 227.2671 Z " stroke-width="0.45052050039059743"/>
    <path id="ID0.755804228130728" fill="#2B2B2B" stroke="none" stroke-linecap="round" d="M 414.1336 274.1912 C 425.0342 270.6102 437.1773 273.3682 448.2645 274.759 C 455.4528 275.6701 465.167 278.5165 469.1785 280.8872 C 470.9406 281.9352 465.0589 282.3758 461.1858 282.3301 C 445.149 281.9833 428.452 274.974 413.4555 280.2813 C 401.5253 284.1086 396.2312 298.2448 387.4822 307.3174 C 384.8783 309.9852 378.9779 317.1037 379.2247 315.0297 C 379.5666 311.7743 384.1902 300.1013 389.1971 294.3106 C 396.2935 286.1052 404.1203 277.5326 414.1336 274.1912 Z " stroke-width="0.45052050039059743"/>
  </g>
  <g id="ID0.21802398189902306">
    <path id="ID0.9032868365757167" fill="url(#grad_2-.9285560250282288,-0.37119221687316895,0.37119221687316895,0.9285560250282288,-35.75,98)" stroke="none" stroke-linecap="round" d="M 146.7963 61.6427 C 176.7408 85.0434 193.7829 126.1396 228.6712 139.838 C 260.9856 152.728 298.205 133.0302 332.2902 135.032 C 340.8119 135.5326 342.1889 139.4407 336.7446 146.1747 C 314.951 173.1484 275.8525 187.5989 262.8221 219.88 C 248.1421 255.4352 264.9763 297.3986 259.4549 335.3817 C 258.0564 344.8848 253.4531 346.0745 246.0839 339.6499 C 216.6015 313.9407 202.4663 269.9088 167.5531 253.6561 C 135.554 239.2486 97.0747 257.9123 62.8205 255.6764 C 54.271 255.1116 54.85 253.4241 60.4084 246.9482 C 82.6403 221.0442 120.3538 206.7231 134.1447 175.4713 C 147.9632 142.341 132.9218 102.8714 137.3246 67.583 C 138.4241 58.7627 139.3077 55.7925 146.7963 61.6427 Z " stroke-width="0.9999999767417209"/>
    <path id="ID0.3783458601683378" fill="#666666" stroke="none" d="M 184.5195 163.95 C 194.5107 159.956 205.1863 160.3947 214.3625 164.3296 C 223.5387 168.2646 231.2156 175.6959 235.2096 185.6872 C 239.2037 195.6785 238.765 206.354 234.83 215.5302 C 230.895 224.7065 223.4637 232.3834 213.4724 236.3774 C 203.4812 240.3714 192.8057 239.9328 183.6294 235.9978 C 174.4532 232.0628 166.7763 224.6315 162.7823 214.6402 C 158.7882 204.6489 159.2269 193.9734 163.1619 184.7972 C 167.0969 175.621 174.5282 167.9441 184.5195 163.95 Z " stroke-width="0.9999999767417209"/>
    <path id="ID0.11348846508190036" fill="#464646" stroke="none" stroke-linecap="round" d="M 141.5961 64.7984 C 140.3073 60.0711 155.8468 74.3555 161.8336 80.4012 C 173.1907 91.8634 181.4805 106.5851 193.7653 117.1757 C 207.7151 128.7118 221.9578 143.0741 239.8116 146.154 C 265.4747 150.5792 292.2701 140.3502 318.5481 138.3716 C 325.1066 137.8811 337.56 137.161 333.775 138.7463 C 322.7947 144.6789 304.6493 151.4006 289.0193 153.4066 C 266.6253 156.289 242.4177 161.3804 221.2405 153.5778 C 200.068 145.7657 185.4479 127.1862 170.9261 111.2285 C 158.6214 97.2826 143.9202 73.2119 141.5961 64.7984 Z " stroke-width="0.9999999767417209"/>
    <path id="ID0.755804228130728" fill="#2B2B2B" stroke="none" stroke-linecap="round" d="M 176.2825 245.8588 C 199.061 257.2494 213.8914 280.5739 229.1941 300.0932 C 239.1008 312.763 249.9644 332.4307 252.5826 342.4367 C 253.7224 346.8424 243.7628 338.3452 237.7292 332.2203 C 212.9932 306.6115 197.6285 269.4691 165.696 254.3985 C 140.9099 241.7869 110.4733 255.7956 82.5041 256.4234 C 74.2304 256.5592 53.8053 258.5587 57.4354 255.6753 C 63.062 251.0783 88.5923 239.9043 105.5341 238.6016 C 129.543 236.7579 155.2772 235.4771 176.2825 245.8588 Z " stroke-width="0.9999999767417209"/>
  </g>
  <path id="ID0.16236975276842713" fill="url(#grad_3-,0,0,1,50,39)" stroke="none" d="M 52 40 L 530 40 L 530 399 L 52 399 L 52 40 Z " stroke-width="1"/>
  <path id="ID0.2758173574693501" fill="url(#grad_4-,0,0,1,50,39)" stroke="none" d="M 50 39 L 530 39 L 530 399 L 50 399 L 50 39 Z " stroke-width="1"/>
  <path id="ID0.7158824098296463" fill="#660000" stroke="none" d="M 208.5648 161.6327 L 223.2154 164.8514 L 211.7354 217.1052 L 197.0848 213.8865 L 208.5648 161.6327 Z " stroke-width="0.9999999712523571"/>
  <path id="ID0.7993970871903002" fill="#660000" stroke="none" d="M 233 129.5 C 241.277 129.5 248.777 132.862 254.208 138.292 C 259.638 143.723 263 151.223 263 159.5 C 263 167.777 259.638 175.277 254.208 180.708 C 248.777 186.138 241.277 189.5 233 189.5 C 224.723 189.5 217.223 186.138 211.792 180.708 C 206.362 175.277 203 167.777 203 159.5 C 203 151.223 206.362 143.723 211.792 138.292 C 217.223 132.862 224.723 129.5 233 129.5 Z " stroke-width="1"/>
  <path id="ID0.1432295641861856" fill="#000000" stroke="none" stroke-linecap="round" d="M 225.6941 203.8404 C 229.18 205.4546 233.1261 206.5142 235.9632 209.1125 C 240.6578 213.4218 247.2793 217.5353 248.1947 223.8397 C 249.2314 230.9554 247.2326 240.263 241.5953 245.0399 C 237.8378 248.1987 231.7395 243.6011 227.5435 241.1611 C 214.572 233.6174 202.6872 224.6013 190.9765 215.5567 C 187.9177 213.27 202.4155 217.7844 198.7076 219.034 C 183.8769 224.0327 167.762 232.0981 152.6824 228.0416 C 145.056 225.9883 140.6014 209.9216 146.6913 204.526 C 159.4414 193.8284 178.5365 191.9019 195.2937 191.6414 C 206.2001 191.4719 215.8133 199.2632 225.6941 203.8404 Z " stroke-width="1.0000000144518637"/>
  <path id="ID0.07496631611138582" fill="#660000" stroke="none" d="M 235.5 270 C 238.121 270 240.496 271.065 242.216 272.784 C 243.935 274.504 245 276.879 245 279.5 C 245 282.121 243.935 284.496 242.216 286.216 C 240.496 287.935 238.121 289 235.5 289 C 232.879 289 230.504 287.935 228.784 286.216 C 227.065 284.496 226 282.121 226 279.5 C 226 276.879 227.065 274.504 228.784 272.784 C 230.504 271.065 232.879 270 235.5 270 Z " stroke-width="1"/>
  <path id="ID0.051772426813840866" fill="#000000" stroke="none" stroke-linecap="round" d="M 284.5 96 C 303.95 96 321.575 103.9 334.338 116.662 C 347.1 129.425 355 147.05 355 166.5 C 355 185.95 347.1 203.575 334.338 216.338 C 321.575 229.1 303.95 237 284.5 237 C 265.05 237 247.425 229.1 234.662 216.338 C 221.9 203.575 214 185.95 214 166.5 C 214 147.05 221.9 129.425 234.662 116.662 C 247.425 103.9 265.05 96 284.5 96 Z " stroke-width="1"/>
  <path id="ID0.6387762273661792" fill="#990000" stroke="none" stroke-linecap="round" d="M 235 143.25 C 252.485 146.282 270.238 149.579 288 149.5 C 303.972 149.429 319.836 146.047 335.5 143 C 341.105 141.894 349.704 131.593 351.5 137 C 357.197 154.114 357.65 174.014 352 191 C 348.249 201.293 336.069 207.174 326 211 C 313.94 215.579 300.393 216.122 287.5 215.5 C 270.534 214.681 252.767 212.634 236.5 206.5 C 227.965 203.161 218.125 197.19 215.5 188 C 210.883 171.817 210.761 152.921 217.5 137.5 C 219.962 131.868 228.915 142.27 235 143.25 Z " stroke-width="1"/>
  <path id="ID0.8784330952912569" fill="#000000" stroke="none" stroke-linecap="round" d="M 279.5 225.5 C 284.329 226.162 290.192 224.479 294 227.5 C 296.143 229.242 292.962 232.078 292 235 C 288.154 246.687 282.384 258.149 280 270.5 C 277.842 280.35 278.855 290.642 278.5 301 C 278.375 303.82 281.95 309.137 278.5 309.5 C 264.672 310.942 249.559 310.322 237 305 C 232.665 303.148 234.863 295.824 234.5 291 C 233.85 281.7 233.968 272.236 235 263 C 236.122 251.655 238.627 240.333 241.5 229.5 C 242.321 226.404 242.741 221.384 246 221 C 257.178 219.716 268.736 224.025 279.5 225.5 Z " stroke-width="1"/>
  <path id="ID0.529131565708667" fill="#000000" stroke="none" stroke-linecap="round" d="M 231.5 284 C 236.169 285.271 237.527 291.629 241 295 C 250.816 304.529 272.211 316.635 271.5 322 C 270.818 327.548 249.126 319.743 238 318.5 C 227.694 317.35 216.745 316.042 207 315.5 C 204.56 315.364 213.553 314.099 214 316.5 C 215.786 326.081 214.863 336.484 212.75 346.25 C 211.448 352.022 209.814 360.041 204 362 C 192.632 365.824 177.937 367.429 168 360.75 C 162.175 356.776 170.447 346.79 171.25 339.75 C 173.113 324.398 171.947 308.48 176 293.5 C 177.473 288.067 181.629 281.846 187 281 C 201.744 278.403 217.373 280.16 231.5 284 Z " stroke-width="1"/>
  <path id="ID0.22229862539097667" fill="#000000" stroke="none" stroke-linecap="round" d="M 274.6306 292.1553 C 278.9561 290.5092 283.7885 288.3955 288.2715 289.4932 C 296.1192 291.4395 302.1363 297.7343 309.2615 301.4796 C 328.9936 311.8443 349.2705 321.2632 369.2353 331.4933 C 379.7456 337.0963 390.7671 342.2484 400.762 349.0186 C 407.1935 353.3767 423.4321 362.4792 417.786 365.008 C 405.0502 370.6936 380.7486 369.9116 363.2854 364.9726 C 342.886 359.2036 324.7062 345.9217 308.7561 334.0052 C 304.4482 331.0034 327.2225 336.1397 323.2549 335.4912 C 310.8377 333.4614 290.3502 333.3011 274.7578 328.4947 C 261.2659 324.3372 237.3411 317.9322 237.5325 308.4824 C 237.2774 299.7625 261.8452 297.0203 274.6306 292.1553 Z " stroke-width="1.0000000270531686"/>
  <path id="ID0.025293610990047455" fill="#990000" stroke="none" stroke-linecap="round" d="M 243.4456 280.9795 C 247.8727 284.3872 252.1711 288.2952 257.3487 290.4243 C 260.913 291.879 264.4363 291.59 267.9756 291.6051 C 269.6865 291.6054 271.3115 291.1027 272.9788 290.5769 C 274.8399 289.7598 276.8744 286.4005 278.4768 287.6083 C 280.8896 289.434 283.0329 294.3017 280.9964 296.5863 C 276.7701 301.3079 269.5247 303.4078 263.0131 305.0378 C 260.0029 305.3378 256.8506 303.793 253.9789 302.0366 C 249.0965 299.2449 245.6919 294.9892 240.9911 291.0936 C 238.2156 288.8058 233.2566 288.4554 232.0028 285.0919 C 230.5124 281.0919 230.9953 273.5469 233.9723 272.5841 C 236.7167 271.4906 240.0819 278.3921 243.4456 280.9795 Z " stroke-width="1.0000000155211046"/>
  <path id="ID0.072091746609658" fill="url(#grad_5-,0,0,1,50,39)" stroke="none" stroke-linecap="round" d="M 265 292 C 267.405 291.924 269.723 291.401 272 290.75 C 273.348 290.385 274.409 289.626 275.5 289 C 276.58 288.464 277.944 286.437 278.5 287.25 C 279.735 289.062 279.238 292.006 279.25 294.25 C 279.262 295.602 279.679 297.35 278.75 298.25 C 276.383 300.523 273.333 301.879 270.25 303.25 C 267.427 304.5 264.324 305.812 261.25 305.5 C 257.51 305.12 254.063 302.876 251 300.75 C 246.937 297.931 244.307 293.749 240.25 290.5 C 238.633 289.199 233.359 287.375 234.75 287.5 C 237.629 287.781 244.804 290.969 250.03 291.705 C 254.937 292.396 260.016 292.143 265 292 Z " stroke-width="1"/>
  <path id="ID0.32351359305903316" fill="url(#grad_6-.0536398887634277,0,0,1.0606060028076172,13.75,23.65)" stroke="none" d="M 274.5259 345.0136 C 312.4611 345.0136 346.8361 346.9747 371.7273 350.1427 C 396.6185 353.3107 412.0259 357.6857 412.0259 362.5136 C 412.0259 367.3415 396.6185 371.7165 371.7273 374.8845 C 346.8361 378.0526 312.4611 380.0136 274.5259 380.0136 C 236.5906 380.0136 202.2156 378.0526 177.3244 374.8845 C 152.4332 371.7165 137.0259 367.3415 137.0259 362.5136 C 137.0259 357.6857 152.4332 353.3107 177.3244 350.1427 C 202.2156 346.9747 236.5906 345.0136 274.5259 345.0136 Z " stroke-width="1.0571286838377245"/>
  <path id="ID0.2481139455921948" fill="url(#grad_7-,0,0,1,62.5,22)" stroke="none" stroke-linecap="round" d="M 279.75 97.5 C 288.679 96.366 298.857 98.415 307.5 102 C 314.052 104.707 324.503 108.917 324 116 C 323.223 124.613 314.614 130.931 307 134 C 291.274 140.336 273.783 141.569 257 143 C 249.589 143.623 242.63 142.504 236 141 C 231.622 139.794 223.347 138.703 224.5 135 C 227.739 124.858 235.812 115.962 244.5 110 C 254.794 102.965 267.418 99.066 279.75 97.5 Z " stroke-width="1"/>
  <path id="ID0.8773746434599161" fill="url(#grad_8-,0,0,1,50,39)" stroke="none" stroke-linecap="round" d="M 197 193 C 206.292 194.141 214.725 199.588 222.5 204.5 C 227.043 207.229 233.673 215.383 233.5 216 C 233.33 216.623 225.603 211.084 221.5 209 C 213.358 204.977 205.714 199.011 196.5 198 C 183.946 196.655 171.317 201.27 159 203.5 C 154.697 204.294 146.212 208.568 146.5 207.5 C 146.843 206.295 154.752 199.472 160 198 C 172.078 194.685 184.684 191.909 197 193 Z " stroke-width="1"/>
  <path id="ID0.6907478515058756" fill="#000000" stroke="none" stroke-linecap="round" d="M 289 231.5 C 294.337 230.767 300.846 236.191 302 241.5 C 305.733 255.923 301.858 271.324 302.5 286 C 303.565 310.379 311.996 335.059 307.5 359 C 306.271 365.527 293.706 365.49 287.5 362.5 C 281.879 360.095 279.8 352.347 279 346 C 276.544 326.676 277.603 307.236 278.5 287.5 C 279.151 273.135 280.009 258.313 282.5 244.5 C 283.356 239.733 284.398 232.142 289 231.5 Z " stroke-width="1"/>
  <path id="ID0.5312018734402955" fill="url(#grad_9-,0,0,1,50,41)" stroke="none" stroke-linecap="round" d="M 198.75 282.75 C 206.507 282.513 214.356 283.152 222 284.5 C 224.81 284.996 227.512 286.597 229.5 288.75 C 230.392 289.479 231.846 292.206 229.75 292.25 C 221.366 292.425 212.799 289.3 204.25 289.25 C 199.026 289.219 191.563 287.288 189 291.75 C 180.335 306.842 175.748 340.937 174 342.25 C 172.37 343.438 174.052 314.72 176 301.375 C 176.81 295.83 178.008 289.297 182.25 285.75 C 186.652 282.22 193.306 282.916 198.75 282.75 Z " stroke-width="1"/>
  <path id="ID0.9465148472227156" fill="url(#grad_10-,0,0,1,48,35)" stroke="none" stroke-linecap="round" d="M 282 262.5 C 282.77 263.553 284.146 274.752 284.5 281 C 285.049 290.286 284.328 299.91 284 309.5 C 284.179 318.1 284.513 326.737 284 335.5 C 283.862 339.883 284.479 345.487 282.75 348.5 C 282.032 349.728 279.899 347.723 279.5 344.5 C 278.486 330.397 278.931 316.144 279 302.5 C 279.047 293.337 279.446 284.141 280 275 C 280.446 270.803 281.229 261.449 282 262.5 Z " stroke-width="1"/>
  <path id="ID0.2801979649811983" fill="url(#grad_11-,0,0,1,50,39)" stroke="none" stroke-linecap="round" d="M 350.5 136.6 C 355.193 142.161 354.615 150.793 355.5 158.1 C 356.144 163.79 356.399 169.842 355.5 175.6 C 354.313 183.155 354.929 191.88 350 197.6 C 343.183 205.503 332.64 211.226 322 213.6 C 305.42 217.389 287.594 217.132 270.5 215.6 C 257.206 214.376 244.381 209.99 231.75 205.5 C 228.721 204.394 222.446 199.543 224.75 199.25 C 230.396 198.538 240.284 202.793 248 203.5 C 267.551 205.244 287.693 210.007 306.5 206.6 C 316.726 204.743 326.293 197.136 332 188.6 C 338.499 177.922 338.521 164.455 341 152.6 C 341.792 148.592 339.499 143.756 341.5 140.6 C 343.271 137.859 348.3 134.004 350.5 136.6 Z " stroke-width="1"/>
  <path id="ID0.8446035357192159" fill="#FFFFFF" stroke="none" stroke-linecap="round" d="M 335 171 C 329.312 169.638 322.469 170.907 317 173.5 C 313.815 175.04 314.138 180.96 311 183 C 306.292 186.053 298.893 183.191 296 187.5 C 293.054 191.778 295.092 198.98 298 203.5 C 300.952 208.089 306.291 211.953 311.5 212 C 318.761 212.232 327.052 209.703 331.5 204.25 C 337.043 197.453 338.283 187.739 339 179 C 339.27 175.552 337.896 171.691 335 171 Z " stroke-width="1"/>
  <path id="ID0.0021621529012918472" fill="url(#grad_12-,0,0,1,51.25,37.75)" stroke="none" stroke-linecap="round" d="M 221 138.25 C 224.904 138.099 227.736 142.542 231.5 143.75 C 238.135 145.896 245.048 147.146 252 148 C 263.48 149.565 275.139 151.306 286.75 151 C 300.354 150.64 313.964 147.74 327.5 145.75 C 330.885 145.255 338.459 142.759 337.25 143.5 C 335.818 144.375 326.52 148.283 320.75 149.5 C 308.717 152.378 296.35 154.479 284 155.75 C 273.144 156.867 262.172 155.674 251.25 157 C 244.177 157.86 236.885 159.054 230.5 162.25 C 227.358 163.773 224.989 166.999 224 170.5 C 221.9 177.912 224.162 188.105 221.5 193.5 C 220.41 195.706 217.097 188.332 216.5 185.25 C 214.875 178.092 214.766 170.614 215 163.5 C 215.169 157.126 215.963 150.829 217.5 144.5 C 218.063 142.19 218.617 138.343 221 138.25 Z " stroke-width="1"/>
  <path id="ID0.8446035357192159" fill="#FFFFFF" stroke="none" stroke-linecap="round" d="M 245.25 152.5 C 248.067 148.888 255.026 149.534 259.25 151.5 C 263.719 153.663 264.515 160.188 268.25 163.5 C 273.362 168.039 283.31 168.526 285.25 175 C 287.752 183.49 283.352 192.793 279.289 200.695 C 276.816 205.501 272.073 210.392 266.75 211 C 259.358 211.768 250.127 210.42 245.25 205 C 239.401 197.86 238.777 187.203 238.75 178.25 C 238.723 169.411 239.805 159.474 245.25 152.5 Z " stroke-width="1"/>
  <path id="ID0.03189614228904247" fill="url(#grad_13-,0,0,1,48.5,38.5)" stroke="none" stroke-linecap="round" d="M 237.75 254.75 C 238.646 255.731 239.386 259.417 239.5 261.75 C 239.679 265.414 240.44 269.357 239 272.75 C 238.594 273.909 235.942 272.216 235.75 271 C 235.109 266.942 236.137 262.632 236.75 258.5 C 236.936 257.219 237.366 254.219 237.75 254.75 Z " stroke-width="1"/>
  <path id="ID0.31498800311237574" fill="url(#grad_14-,0,0,1,50,40.75)" stroke="none" d="M 234.5 273.1 C 235.557 272.977 236.282 274.171 237 274.9 C 238.473 276.389 239.647 278.148 241.15 279.6 C 243.949 282.325 251.163 287.308 250.4 287.75 C 249.637 288.192 241.121 283.036 236 282.4 C 234.636 282.228 234.351 285.655 233.15 285.6 C 232.181 285.556 232.205 283.424 231.9 282.25 C 231.734 281.246 231.655 280.221 231.75 279.125 C 231.863 277.868 232.203 276.61 232.739 275.502 C 233.172 274.617 233.516 273.217 234.5 273.1 Z " stroke-width="1"/>
  <path id="ID0.8446035357192159" fill="url(#grad_15-.158730149269104,0,0,1.158730149269104,30.1,1.35)" stroke="none" stroke-linecap="round" d="M 243.3063 147.9294 C 246.5705 143.744 254.6341 144.4926 259.5286 146.7706 C 264.7069 149.277 265.6293 156.8377 269.9571 160.6754 C 275.8806 165.9349 287.4076 166.4992 289.6556 174.0008 C 292.5547 183.8384 287.4563 194.6181 282.7484 203.7744 C 279.8828 209.3432 274.387 215.0106 268.219 215.7151 C 259.6537 216.605 248.9575 215.043 243.3063 208.7627 C 236.5289 200.4894 235.8059 188.1408 235.7746 177.7667 C 235.7433 167.5246 236.9971 156.0103 243.3063 147.9294 Z " stroke-width="1.158730149269104"/>
  <path id="ID0.8446035357192159" fill="url(#grad_16-1.1687289476394653,0,0,1.1687289476394653,550.2,-1.95)" stroke="none" stroke-linecap="round" d="M 338.0757 166.6392 C 331.428 165.0473 323.4304 166.5305 317.0386 169.561 C 313.3162 171.3608 313.6937 178.2797 310.0262 180.6639 C 304.5238 184.232 295.8764 180.8871 292.4953 185.9232 C 289.0522 190.923 291.4341 199.3402 294.8327 204.6228 C 298.2828 209.9861 304.5227 214.5021 310.6106 214.557 C 319.0967 214.8282 328.7866 211.8725 333.9851 205.4994 C 340.4634 197.5555 341.9126 186.2025 342.7506 175.989 C 343.0662 171.9592 341.4603 167.4467 338.0757 166.6392 Z " stroke-width="1.1687289476394653"/>
</svg>