<svg xmlns="http://www.w3.org/2000/svg" xmlns:xlink="http://www.w3.org/1999/xlink" version="1.1" width="18.21918700298124" height="11.973041754568154" viewBox="0.14239216764542773 -0.1574032811346321 18.21918700298124 11.973041754568154">
  <!-- Exported by Scratch - http://scratch.mit.edu/ -->
  <g id="ID0.9007245465181768">
    <path id="ID0.6487746122293174" fill="#006622" stroke="none" stroke-linecap="round" d="M 8.7965 0.3656 C 10.5067 0.3184 12.3866 0.5036 13.836 1.2339 C 15.269 1.9556 16.4664 3.1769 17.1226 4.5141 C 17.872 6.0403 17.8676 7.8155 17.8347 9.4826 C 17.849 10.0036 17.7087 10.7474 17.0679 10.8815 C 14.5262 11.4121 11.8465 11.2992 9.2347 11.2674 C 6.8081 11.2375 4.3081 11.2915 1.9494 10.785 C 1.2899 10.6094 0.7344 9.9437 0.6895 9.3379 C 0.5778 7.8222 0.7574 6.2179 1.4016 4.8035 C 1.9888 3.5185 2.9189 2.2759 4.1952 1.5233 C 5.5198 0.7149 7.2299 0.409 8.7965 0.3656 Z " stroke-width="1.0322229679470596"/>
    <path id="ID0.6862273388542235" fill="#009933" stroke="none" stroke-linecap="round" d="M 9.2032 0.5128 C 10.829 0.5407 12.5282 0.8109 13.8866 1.574 C 15.2035 2.2995 16.3242 3.4669 16.8446 4.7577 C 17.3617 6.0379 17.95 7.8478 16.8446 8.7132 C 15.0129 10.2366 12.1568 10.6022 9.6688 10.5945 C 6.9606 10.5858 3.8537 10.2588 1.8357 8.665 C 0.6492 7.7552 1.3701 5.8295 1.8905 4.5165 C 2.3878 3.2614 3.4297 2.095 4.7389 1.3811 C 6.0119 0.6806 7.6793 0.4858 9.2032 0.5128 Z " stroke-width="1.0322229679470596"/>
    <path id="ID0.01353864697739482" fill="#00CC44" stroke="none" stroke-linecap="round" d="M 9.2828 0.7522 C 10.6062 0.7377 12.0107 0.9133 13.172 1.4275 C 14.2577 1.936 15.1878 2.7473 15.7465 3.6947 C 16.2768 4.5929 17.0787 5.9638 16.2395 6.589 C 14.4746 7.9966 11.8683 8.6024 9.5019 8.5667 C 7.0742 8.531 4.4296 7.9049 2.6 6.4925 C 1.7532 5.8384 2.416 4.4028 2.8739 3.4535 C 3.311 2.6383 4.1776 1.9321 5.1198 1.524 C 6.3906 0.9731 7.9057 0.7676 9.2828 0.7522 Z " stroke-width="1.0322229679470596"/>
    <path id="ID0.40726609993726015" fill="#99FFBB" stroke="none" d="M 10.6841 1.1769 C 11.1146 1.1769 11.5047 1.3013 11.7873 1.502 C 12.07 1.7027 12.2452 1.9805 12.2452 2.2863 C 12.2452 2.5922 12.07 2.87 11.7873 3.0707 C 11.5047 3.2714 11.1146 3.3958 10.6841 3.3958 C 10.2535 3.3958 9.8635 3.2714 9.5809 3.0707 C 9.2982 2.87 9.1229 2.5922 9.1229 2.2863 C 9.1229 1.9805 9.2982 1.7027 9.5809 1.502 C 9.8635 1.3013 10.2535 1.1769 10.6841 1.1769 Z " stroke-width="1.0322229679470596"/>
    <path id="ID0.44971933402121067" fill="#99FFBB" stroke="none" d="M 9.2621 3.394 C 9.4966 3.394 9.7091 3.4558 9.8625 3.5571 C 10.0159 3.6574 10.1112 3.7954 10.1112 3.9488 C 10.1112 4.1022 10.0159 4.2401 9.8625 4.3405 C 9.7091 4.4418 9.4966 4.5035 9.2621 4.5035 C 9.0277 4.5035 8.8151 4.4418 8.6618 4.3405 C 8.5084 4.2401 8.4131 4.1022 8.4131 3.9488 C 8.4131 3.7954 8.5084 3.6574 8.6618 3.5571 C 8.8151 3.4558 9.0277 3.394 9.2621 3.394 Z " stroke-width="1.0322229679470596"/>
  </g>
  <g id="ID0.41927978210151196">
    <g id="ID0.20715344790369272">
      <path id="ID0.19440001714974642" fill="#000000" stroke="none" d="M 5.6 1.55 C 6.193 1.55 6.731 1.956 7.12 2.612 C 7.509 3.269 7.75 4.175 7.75 5.175 C 7.75 6.175 7.509 7.081 7.12 7.738 C 6.731 8.394 6.193 8.8 5.6 8.8 C 5.007 8.8 4.469 8.394 4.08 7.738 C 3.691 7.081 3.45 6.175 3.45 5.175 C 3.45 4.175 3.691 3.269 4.08 2.612 C 4.469 1.956 5.007 1.55 5.6 1.55 Z " stroke-width="1"/>
      <path id="ID0.35307061253115535" fill="#FFFFFF" stroke="none" d="M 6.25 2.15 C 6.471 2.15 6.671 2.329 6.816 2.619 C 6.96 2.909 7.05 3.309 7.05 3.75 C 7.05 4.191 6.96 4.591 6.816 4.881 C 6.671 5.171 6.471 5.35 6.25 5.35 C 6.029 5.35 5.829 5.171 5.684 4.881 C 5.54 4.591 5.45 4.191 5.45 3.75 C 5.45 3.309 5.54 2.909 5.684 2.619 C 5.829 2.329 6.029 2.15 6.25 2.15 Z " stroke-width="1"/>
    </g>
    <g id="ID0.20715344790369272">
      <path id="ID0.19440001714974642" fill="#000000" stroke="none" d="M 12.45 1.7 C 13.043 1.7 13.581 2.106 13.97 2.762 C 14.359 3.419 14.6 4.325 14.6 5.325 C 14.6 6.325 14.359 7.231 13.97 7.888 C 13.581 8.544 13.043 8.95 12.45 8.95 C 11.857 8.95 11.319 8.544 10.93 7.888 C 10.541 7.231 10.3 6.325 10.3 5.325 C 10.3 4.325 10.541 3.419 10.93 2.762 C 11.319 2.106 11.857 1.7 12.45 1.7 Z " stroke-width="1"/>
      <path id="ID0.35307061253115535" fill="#FFFFFF" stroke="none" d="M 13.1 2.3 C 13.321 2.3 13.521 2.479 13.666 2.769 C 13.81 3.059 13.9 3.459 13.9 3.9 C 13.9 4.341 13.81 4.741 13.666 5.031 C 13.521 5.321 13.321 5.5 13.1 5.5 C 12.879 5.5 12.679 5.321 12.534 5.031 C 12.39 4.741 12.3 4.341 12.3 3.9 C 12.3 3.459 12.39 3.059 12.534 2.769 C 12.679 2.479 12.879 2.3 13.1 2.3 Z " stroke-width="1"/>
    </g>
  </g>
</svg>