<svg xmlns="http://www.w3.org/2000/svg" xmlns:xlink="http://www.w3.org/1999/xlink" version="1.1" width="21.695956415020415" height="17.966355508648345" viewBox="-0.011927577894424335 -0.5856275886709441 21.695956415020415 17.966355508648345">
  <!-- Exported by Scratch - http://scratch.mit.edu/ -->
  <path id="ID0.1019937596283853" fill="#CC0000" stroke="none" d="M 20.9141 9.81 L 15.8118 8.8067 L 14.8085 13.909 L 19.9108 14.9123 L 20.9141 9.81 Z " stroke-width="1.283950629227388"/>
  <g id="ID0.38220522552728653">
    <path id="ID0.9160578120499849" fill="#B40101" stroke="none" d="M 9.643 12.3064 L 4.8848 11.674 L 4.3315 15.8374 L 8.9905 16.4566 L 9.643 12.3064 Z " stroke-width="1.0000000436541283"/>
    <path id="ID0.5961301568895578" fill="#CC0000" stroke="none" d="M 5.7876 12.7747 L 4.3007 12.5771 L 3.8593 15.8979 L 5.3463 16.0955 L 5.7876 12.7747 Z " stroke-width="1.1268180573424542"/>
  </g>
  <g id="ID0.6226657046936452">
    <path id="ID0.9160578120499849" fill="#B40101" stroke="none" d="M 15.5418 12.4005 L 11.0659 11.9328 L 10.583 16.1049 L 14.9538 16.6108 L 15.5418 12.4005 Z " stroke-width="1.0000000031217913"/>
    <path id="ID0.5961301568895578" fill="#CC0000" stroke="none" d="M 12.2254 13.6852 L 10.7354 13.5127 L 10.425 16.1948 L 11.915 16.3673 L 12.2254 13.6852 Z " stroke-width="1.0000000031217913"/>
  </g>
  <g id="ID0.8784058634191751">
    <path id="ID0.20379002764821053" fill="#CC0000" stroke="none" d="M 19.0862 1.4966 L 3.9862 0.2675 L 2.9599 12.8758 L 18.06 14.1049 L 19.0862 1.4966 Z " stroke-width="1.0134497281962016"/>
    <path id="ID0.8935396964661777" fill="#FF0000" stroke="none" d="M 4.7647 0.3263 L 3.0205 0.1843 L 2.0024 12.693 L 3.7466 12.8349 L 4.7647 0.3263 Z " stroke-width="0.7545089566127471"/>
  </g>
  <path id="ID0.1019937596283853" fill="#CC0000" stroke="none" d="M 5.958 7.958 L 0.758 7.958 L 0.758 13.158 L 5.958 13.158 L 5.958 7.958 Z " stroke-width="1.283950686454773"/>
  <g id="ID0.48247802583500743">
    <path id="ID0.8655728464946151" fill="#000000" stroke="none" stroke-linecap="round" d="M 18.6237 3.5789 L 13.0394 4.1035 L 12.6718 7.6344 L 18.1422 8.2039 L 18.6237 3.5789 Z " stroke-width="1.0952181414574131"/>
    <path id="ID0.006696532014757395" fill="#990000" stroke="none" d="M 18.6922 3.4132 L 12.9781 4.0549 L 13.0395 4.6014 L 18.7536 3.9597 L 18.6922 3.4132 Z " stroke-width="0.9999999832322087"/>
    <path id="ID0.8491002093069255" fill="#E5E5E5" stroke="none" d="M 18.1166 4.1579 L 17.2742 4.0702 L 17.1786 4.9892 L 18.0209 5.0769 L 18.1166 4.1579 Z " stroke-width="1.5398551882137754"/>
  </g>
  <g id="ID0.3748739790171385">
    <path id="ID0.8617808222770691" fill="#CC0000" stroke="none" d="M 3.4979 6.0336 L 3.4482 6.0284 L 3.4482 6.0284 L 3.4979 6.0336 L 3.4979 6.0336 Z " stroke-width="1.0000000230971555"/>
    <path id="ID0.8655728464946151" fill="#000000" stroke="none" stroke-linecap="round" d="M 5.2401 2.4372 L 10.5966 4.1008 L 10.229 7.6317 L 4.7585 7.0622 L 5.2401 2.4372 Z " stroke-width="1.0952181414574131"/>
    <path id="ID0.006696532014757395" fill="#990000" stroke="none" d="M 5.3291 1.803 L 10.7884 3.608 L 10.6158 4.1302 L 5.1565 2.3252 L 5.3291 1.803 Z " stroke-width="0.9999999931065204"/>
    <path id="ID0.8491002093069255" fill="#E5E5E5" stroke="none" d="M 9.8666 3.6079 L 9.0242 3.5202 L 8.9286 4.4392 L 9.7709 4.5269 L 9.8666 3.6079 Z " stroke-width="1.5398551882137754"/>
  </g>
  <g id="ID0.1409649746492505">
    <path id="ID0.09020493365824223" fill="#000000" stroke="none" d="M 15.8002 8.8945 L 6.9978 7.978 L 6.8373 9.5197 L 15.6397 10.4362 L 15.8002 8.8945 Z " stroke-width="0.9385947283982173"/>
    <path id="ID0.18048822786659002" fill="#FFFFFF" stroke="none" d="M 14.6897 8.7724 L 7.9262 8.0682 L 7.8693 8.6152 L 14.6327 9.3194 L 14.6897 8.7724 Z " stroke-width="0.934412472010982"/>
  </g>
</svg>