<svg xmlns="http://www.w3.org/2000/svg" xmlns:xlink="http://www.w3.org/1999/xlink" version="1.1" width="30.052209305391266" height="37.15092127285953" viewBox="-7.122218215279556 -7.263352119736648 30.052209305391266 37.15092127285953">
  <!-- Exported by Scratch - http://scratch.mit.edu/ -->
  <path id="ID0.9358589742332697" fill="#DB861B" stroke="none" stroke-width="16.260503779653842" stroke-linecap="round" d="M 11.0765 13.7756 C 10.9831 13.4685 10.53 13.2086 10.1729 13.075 C 9.5928 12.8587 9.0263 12.8522 8.4552 12.8289 C 8.0137 12.7971 7.4666 12.578 7.0905 12.8404 C 6.8426 13.0581 6.8171 13.6781 7.0841 13.8759 C 7.6384 14.2845 8.4221 14.2116 9.107 14.3195 C 9.5969 14.3971 10.1029 14.5255 10.5735 14.374 C 10.832 14.3253 11.147 14.0136 11.0765 13.7756 Z "/>
  <path id="ID0.19551143841817975" fill="#DB861B" stroke="none" stroke-width="16.26050388118439" stroke-linecap="round" d="M 8.9037 16.2362 C 8.6169 16.3108 8.1647 16.3377 8.0069 16.6241 C 7.6514 17.2768 7.5963 18.0898 7.4933 18.8445 C 7.3786 19.5608 7.17 20.2963 7.2657 21.0067 C 7.3522 21.2582 7.7424 21.3181 7.9735 21.3557 C 8.406 21.4255 9.0688 21.7431 9.3455 21.3846 C 9.6653 20.9646 9.1485 20.3892 9.1708 19.9206 C 9.2424 18.6533 9.7162 17.4041 9.6261 16.2022 C 9.6035 15.9017 9.134 16.1756 8.9037 16.2362 Z "/>
  <g id="ID0.30696602864190936">
    <path id="ID0.637318427208811" fill="#FAA51D" stroke="none" stroke-linecap="round" d="M 4.1028 16.996 C 4.7907 17.1594 5.5772 16.7995 6.246 17.0475 C 6.5642 17.167 6.7642 17.6093 6.6338 17.8643 C 6.4829 18.2523 6.0185 18.4254 5.6169 18.48 C 5.0056 18.5833 4.3916 18.5575 3.7467 18.4165 C 3.036 18.2616 2.2974 18.0864 1.6818 17.7023 C 1.3691 17.5408 0.9882 17.1942 1.0853 16.8558 C 1.1975 16.4673 1.6987 16.1623 2.1227 16.1745 C 2.8185 16.2011 3.3908 16.863 4.1028 16.996 Z " stroke-width="1.0840336296105393"/>
    <path id="ID0.9894068208523095" fill="#FFFFFF" stroke="none" stroke-linecap="round" d="M 1.8071 16.1073 C 2.3646 16.007 3.1328 16.3669 3.4366 16.7847 C 3.5944 16.9345 2.8619 16.9921 2.7298 17.2445 C 2.589 17.5172 3.0138 18.18 2.7623 18.1378 C 2.1692 18.1131 1.3084 17.7092 1.0411 17.1086 C 0.8706 16.7257 1.3947 16.1817 1.8071 16.1073 Z " stroke-width="1.0840336296105393"/>
  </g>
  <g id="ID0.536394951865077">
    <path id="ID0.6198067106306553" fill="#FAA51D" stroke="none" stroke-linecap="round" d="M 7.3065 11.3366 C 7.8223 11.3759 8.5738 11.2939 8.7777 11.7852 C 9.2286 12.7255 9.0254 13.8902 8.9557 14.9407 C 8.886 15.989 8.8949 17.1918 8.3706 18.169 C 8.1362 18.5639 7.4642 18.5455 6.9697 18.5375 C 6.4991 18.5286 5.8505 18.4049 5.666 17.9882 C 5.2097 17.0488 5.2445 15.9326 5.2664 14.9309 C 5.2926 13.7894 5.1967 12.5456 5.7508 11.5351 C 6 11.0791 6.7864 11.296 7.3065 11.3366 Z " stroke-width="1.0840335154707468"/>
    <path id="ID0.21503017749637365" fill="#FFFFFF" stroke="none" stroke-linecap="round" d="M 7.9957 13.2079 C 8.2945 13.223 8.5849 13.4873 8.6742 13.7823 C 8.8896 14.4207 8.8828 15.1464 8.8499 15.8253 C 8.8123 16.606 8.7736 17.4116 8.4691 18.1678 C 8.3539 18.4023 8.0062 18.5043 7.6908 18.5655 C 7.3627 18.6196 6.8377 18.6157 6.7264 18.3034 C 6.4369 17.4857 6.5971 16.4969 6.6906 15.5886 C 6.7524 14.986 6.8571 14.3018 7.1582 13.7114 C 7.321 13.4553 7.6719 13.1928 7.9957 13.2079 Z " stroke-width="1.0840335154707468"/>
  </g>
  <path id="ID0.19551143841817975" fill="#FAA51D" stroke="none" stroke-linecap="round" d="M 7.1968 15.9653 C 6.9221 15.8916 6.7556 16.4576 6.6017 16.7403 C 6.2472 17.4491 5.9876 18.272 5.7922 18.8708 C 5.5675 19.5592 5.2654 20.2645 5.274 20.9823 C 5.3164 21.2436 5.7041 21.3553 5.928 21.4238 C 6.3471 21.5515 6.9608 21.956 7.2835 21.6382 C 7.6572 21.2653 7.2393 20.6488 7.3086 20.164 C 7.4588 19.1309 7.8906 18.168 7.8383 17.144 C 7.8506 16.6942 7.5841 16.0712 7.1968 15.9653 Z " stroke-width="1.0840336260333718"/>
  <g id="ID0.6909988787956536">
    <g id="ID0.847524844110012">
      <path id="ID0.10025785537436604" fill="#FAA51D" stroke="none" d="M 7.5219 2.3713 C 9.1783 2.379 10.6754 2.9906 11.7579 3.9724 C 12.8392 4.9543 13.5059 6.3065 13.499 7.7955 C 13.4921 9.2845 12.8129 10.6304 11.7225 11.6022 C 10.631 12.574 9.1282 13.1717 7.4719 13.164 C 5.8155 13.1563 4.3183 12.5448 3.2359 11.5629 C 2.1545 10.581 1.4879 9.2288 1.4948 7.7398 C 1.5017 6.2509 2.1809 4.9049 3.2713 3.9331 C 4.3628 2.9613 5.8656 2.3636 7.5219 2.3713 Z " stroke-width="1.1013089904214357"/>
      <path id="ID0.23814574256539345" fill="#FAA51D" stroke="none" stroke-linecap="round" d="M 1.048 1.4707 L 5.3894 3.363 L 1.6852 6.5397 L 1.048 1.4707 Z " stroke-width="1.1013089904214357"/>
      <path id="ID0.23814574256539345" fill="#FAA51D" stroke="none" stroke-linecap="round" d="M 11.7745 0.8669 L 7.6512 3.1967 L 11.6631 5.9746 L 11.7745 0.8669 Z " stroke-width="1.1013089360030854"/>
      <path id="ID0.46886637480929494" fill="#FFFFFF" stroke="none" stroke-linecap="round" d="M 10.1785 8.7405 C 11.1327 8.6447 11.8989 7.5271 12.8265 7.7065 C 13.7431 7.8837 14.7872 8.8026 14.7996 9.6981 C 14.8123 10.7708 13.9559 11.8516 13.025 12.3881 C 11.7648 13.1664 10.1949 13.2802 8.6978 13.3592 C 7.7196 13.4108 6.6763 13.2551 5.8095 12.7951 C 5.1053 12.424 4.2271 11.7911 4.1109 10.9701 C 4.0556 10.0722 4.5446 8.8707 5.3886 8.5531 C 6.8857 7.9895 8.6049 8.9325 10.1785 8.7405 Z " stroke-width="1.1013089904214357"/>
      <path id="ID0.2958779144100845" fill="#666666" stroke="none" stroke-linecap="round" d="M 9.8196 8.1538 C 10.1712 8.1048 10.7388 8.0072 10.8103 8.2685 C 10.9089 8.6027 10.5997 9.2719 10.1997 9.3119 C 9.674 9.3954 8.9274 8.8963 8.8267 8.5346 C 8.7585 8.2799 9.4649 8.1654 9.8196 8.1538 Z " stroke-width="1.1013089904214357"/>
    </g>
    <g id="ID0.26280788984149694">
      <g id="ID0.2985607646405697">
        <path id="ID0.6929170889779925" fill="#000000" stroke="none" d="M 11.1714 4.1472 C 11.5128 4.1488 11.8224 4.3507 12.0445 4.6755 C 12.2677 5.0003 12.4043 5.4492 12.4021 5.9426 C 12.3998 6.436 12.2589 6.8836 12.0328 7.2063 C 11.8077 7.5291 11.4962 7.728 11.1548 7.7265 C 10.8134 7.7249 10.5038 7.523 10.2817 7.1982 C 10.0585 6.8734 9.9219 6.4245 9.9241 5.9311 C 9.9264 5.4377 10.0673 4.9901 10.2934 4.6674 C 10.5185 4.3447 10.83 4.1457 11.1714 4.1472 Z " stroke-width="1.1013089904214357"/>
        <path id="ID0.02252052817493677" fill="#CCCCCC" stroke="none" d="M 11.504 4.4547 C 11.6329 4.4553 11.7503 4.5605 11.8332 4.7305 C 11.9172 4.9005 11.969 5.1342 11.9678 5.393 C 11.9666 5.6518 11.9126 5.8851 11.827 6.0543 C 11.7425 6.2235 11.6242 6.3276 11.4954 6.327 C 11.3665 6.3264 11.2492 6.2212 11.1662 6.0512 C 11.0822 5.8812 11.0305 5.6475 11.0317 5.3887 C 11.0329 5.1299 11.0868 4.8966 11.1724 4.7274 C 11.2569 4.5582 11.3752 4.4542 11.504 4.4547 Z " stroke-width="1.1013089904214357"/>
      </g>
      <g id="ID0.2985607646405697">
        <path id="ID0.6929170889779925" fill="#000000" stroke="none" d="M 7.0214 4.2972 C 7.3628 4.2988 7.6724 4.5007 7.8945 4.8255 C 8.1177 5.1503 8.2543 5.5992 8.2521 6.0926 C 8.2498 6.586 8.1089 7.0336 7.8828 7.3563 C 7.6577 7.6791 7.3462 7.878 7.0048 7.8765 C 6.6634 7.8749 6.3538 7.673 6.1317 7.3482 C 5.9085 7.0234 5.7719 6.5745 5.7741 6.0811 C 5.7764 5.5877 5.9173 5.1401 6.1434 4.8174 C 6.3685 4.4947 6.68 4.2957 7.0214 4.2972 Z " stroke-width="1.1013089904214357"/>
        <path id="ID0.02252052817493677" fill="#CCCCCC" stroke="none" d="M 7.304 4.6047 C 7.4329 4.6053 7.5503 4.7105 7.6332 4.8805 C 7.7172 5.0505 7.769 5.2842 7.7678 5.543 C 7.7666 5.8018 7.7126 6.0351 7.627 6.2043 C 7.5425 6.3735 7.4242 6.4776 7.2954 6.477 C 7.1665 6.4764 7.0492 6.3712 6.9662 6.2012 C 6.8822 6.0312 6.8305 5.7975 6.8317 5.5387 C 6.8329 5.2799 6.8868 5.0466 6.9724 4.8774 C 7.0569 4.7082 7.1752 4.6042 7.304 4.6047 Z " stroke-width="1.1013089904214357"/>
      </g>
    </g>
  </g>
  <path id="ID0.9358589742332697" fill="#F9B341" stroke="none" stroke-width="16.260504173860504" stroke-linecap="round" d="M 8.9544 14.0355 C 8.7785 14.304 8.2706 14.4261 7.8904 14.454 C 7.2728 14.4986 6.7274 14.3456 6.1727 14.2075 C 5.7401 14.1139 5.1534 14.1705 4.8662 13.813 C 4.6895 13.5344 4.8392 12.9322 5.151 12.8174 C 5.7979 12.581 6.5295 12.8713 7.2172 12.9601 C 7.7091 13.0233 8.2307 13.0423 8.6398 13.3199 C 8.8742 13.4392 9.089 13.8269 8.9544 14.0355 Z "/>
</svg>