<svg xmlns="http://www.w3.org/2000/svg" xmlns:xlink="http://www.w3.org/1999/xlink" version="1.1" width="19.885347097694094" height="18.245347708045657" viewBox="-0.3170735684927384 -0.9103735795017163 19.885347097694094 18.245347708045657">
  <!-- Exported by Scratch - http://scratch.mit.edu/ -->
  <path id="ID0.09066551923751831" fill="#B40101" stroke="none" d="M 9.1943 12.0978 L 5.5162 11.2931 L 4.6614 15.2007 L 8.3395 16.0054 L 9.1943 12.0978 Z " stroke-width="0.9954203295543458"/>
  <path id="ID0.09066551923751831" fill="#B40101" stroke="none" d="M 11.8763 12.4 L 8.1763 12.4 L 8.1763 16.4 L 11.8763 16.4 L 11.8763 12.4 Z " stroke-width="0.9869298113781636"/>
  <g id="ID0.08273157011717558">
    <path id="ID0.20379002764821053" fill="#CC0000" stroke="none" d="M 18.6333 3.5101 L 9.2619 1.4128 L 6.4846 13.5849 L 15.856 15.6822 L 18.6333 3.5101 Z " stroke-width="0.8049622171761834"/>
    <path id="ID0.8935396964661777" fill="#FF0000" stroke="none" d="M 10.7874 1.6839 L 3.3732 0.0246 L 0.6179 12.1005 L 8.032 13.7598 L 10.7874 1.6839 Z " stroke-width="1.8699471648327668"/>
  </g>
  <path id="ID0.1019937596283853" fill="#CC0000" stroke="none" d="M 10.1294 8.3847 L 5.1672 6.8301 L 3.6127 11.7923 L 8.5749 13.3469 L 10.1294 8.3847 Z " stroke-width="1.2839505405501344"/>
  <path id="ID0.8617808222770691" fill="#CC0000" stroke="none" d="M 7.2032 7.0745 L 7.1538 7.0667 L 7.1538 7.0667 L 7.2032 7.0745 L 7.2032 7.0745 Z " stroke-width="0.9999999766464479"/>
  <g id="ID0.2303205570206046">
    <path id="ID0.8655728464946151" fill="#000000" stroke="none" stroke-linecap="round" d="M 11.5281 5.3799 L 16.6227 7.5756 L 15.9852 9.8286 L 10.693 8.3311 L 11.5281 5.3799 Z " stroke-width="0.9576126607458331"/>
    <path id="ID0.006696532014757395" fill="#990000" stroke="none" d="M 11.7831 4.8352 L 16.8529 7.5481 L 16.5934 8.033 L 11.5236 5.3201 L 11.7831 4.8352 Z " stroke-width="1.0000000056083604"/>
    <path id="ID0.8491002093069255" fill="#E5E5E5" stroke="none" d="M 15.6471 7.5454 L 14.8322 7.3148 L 14.5806 8.2038 L 15.3955 8.4344 L 15.6471 7.5454 Z " stroke-width="1.5398553623520483"/>
  </g>
  <g id="ID0.6190438214689493">
    <path id="ID0.09020493365824223" fill="#000000" stroke="none" d="M 16.7843 11.197 L 12.9773 10.2777 L 12.6134 11.7844 L 16.4205 12.7037 L 16.7843 11.197 Z " stroke-width="0.6027815092944765"/>
    <path id="ID0.18048822786659002" fill="#FFFFFF" stroke="none" d="M 16.6068 11.3485 L 14.0309 10.7264 L 13.9017 11.261 L 16.4777 11.8831 L 16.6068 11.3485 Z " stroke-width="0.6280106552795404"/>
    <path id="ID0.5967760691419244" fill="#E5E5E5" stroke="none" d="M 16.3182 12.0764 L 14.0339 11.5248 L 13.893 12.108 L 16.1774 12.6596 L 16.3182 12.0764 Z " stroke-width="0.6224253643304102"/>
  </g>
</svg>