<svg xmlns="http://www.w3.org/2000/svg" xmlns:xlink="http://www.w3.org/1999/xlink" version="1.1" width="29.734602847512843" height="35.73252383750308" viewBox="-6.937952954975904 -7.165252287594617 29.734602847512843 35.73252383750308">
  <!-- Exported by Scratch - http://scratch.mit.edu/ -->
  <path id="ID0.9358589742332697" fill="#DB861B" stroke="none" stroke-width="16.260503967887495" stroke-linecap="round" d="M 7.8674 12.2629 C 7.5983 12.0879 7.0842 12.1805 6.7249 12.3079 C 6.1416 12.5156 5.7038 12.8751 5.2516 13.2248 C 4.8932 13.4845 4.3333 13.6687 4.2142 14.1116 C 4.1646 14.4378 4.544 14.9288 4.8756 14.9084 C 5.5629 14.8646 6.1159 14.3045 6.7097 13.9465 C 7.1345 13.6907 7.6045 13.4634 7.8673 13.0446 C 8.0339 12.8411 8.0745 12.3998 7.8674 12.2629 Z "/>
  <path id="ID0.19551143841817975" fill="#DB861B" stroke="none" stroke-width="16.260504641946437" stroke-linecap="round" d="M 7.0382 15.2085 C 6.777 15.3484 6.3437 15.4808 6.2576 15.7963 C 6.0654 16.5142 6.2027 17.3174 6.2799 18.0752 C 6.3366 18.7984 6.3067 19.5623 6.5665 20.2304 C 6.7097 20.4545 7.103 20.4211 7.3366 20.4033 C 7.7733 20.3696 8.4922 20.5226 8.6769 20.1092 C 8.8891 19.6258 8.2516 19.1879 8.1632 18.7271 C 7.9352 17.4785 8.1023 16.1529 7.7323 15.0058 C 7.6399 14.719 7.2478 15.0955 7.0382 15.2085 Z "/>
  <g id="ID0.30696602864190936">
    <path id="ID0.637318427208811" fill="#FAA51D" stroke="none" stroke-linecap="round" d="M 4.2339 15.2971 C 4.9087 15.5078 5.7183 15.2035 6.3683 15.4973 C 6.6774 15.6385 6.8462 16.0937 6.6984 16.339 C 6.521 16.7156 6.0457 16.8561 5.6413 16.8827 C 5.0243 16.9432 4.4136 16.8748 3.78 16.6894 C 3.0817 16.4856 2.3571 16.2595 1.7696 15.8336 C 1.469 15.6508 1.113 15.2786 1.2334 14.9478 C 1.3723 14.568 1.8934 14.2986 2.3155 14.3402 C 3.0078 14.4149 3.5328 15.115 4.2339 15.2971 Z " stroke-width="1.0840336279443306"/>
    <path id="ID0.9894068208523095" fill="#FFFFFF" stroke="none" stroke-linecap="round" d="M 2.0489 14.2842 C 2.6121 14.2229 3.3534 14.6352 3.6274 15.0731 C 3.7744 15.2334 3.0397 15.2401 2.8904 15.4827 C 2.731 15.7449 3.1088 16.4356 2.8608 16.3761 C 2.2709 16.3103 1.4402 15.8476 1.2152 15.2299 C 1.0718 14.836 1.6323 14.3298 2.0489 14.2842 Z " stroke-width="1.0840336279443306"/>
  </g>
  <g id="ID0.536394951865077">
    <path id="ID0.6198067106306553" fill="#FAA51D" stroke="none" stroke-linecap="round" d="M 6.6747 9.3649 C 7.1914 9.39 7.9404 9.2871 8.1577 9.7727 C 8.6344 10.7001 8.4636 11.87 8.4229 12.922 C 8.3823 13.9718 8.4245 15.174 7.9274 16.1653 C 7.704 16.5665 7.0318 16.5667 6.5373 16.5724 C 6.0666 16.5765 5.4149 16.4708 5.2189 16.0594 C 4.7367 15.133 4.7406 14.0163 4.7348 13.0143 C 4.7295 11.8725 4.5991 10.6319 5.125 9.6065 C 5.3615 9.1437 6.1536 9.3387 6.6747 9.3649 Z " stroke-width="1.084033554718858"/>
    <path id="ID0.21503017749637365" fill="#FFFFFF" stroke="none" stroke-linecap="round" d="M 7.4588 11.1822 C 7.758 11.189 8.0556 11.4451 8.153 11.7375 C 8.386 12.3697 8.3993 13.0953 8.3852 13.7749 C 8.3692 14.5563 8.3528 15.3627 8.0693 16.1271 C 7.9607 16.3646 7.616 16.4762 7.3024 16.5461 C 6.9759 16.6093 6.4509 16.6199 6.3311 16.3108 C 6.019 15.5014 6.1518 14.5086 6.2201 13.5981 C 6.2653 12.994 6.351 12.3071 6.6356 11.7086 C 6.7913 11.4481 7.1348 11.176 7.4588 11.1822 Z " stroke-width="1.084033554718858"/>
  </g>
  <path id="ID0.19551143841817975" fill="#FAA51D" stroke="none" stroke-linecap="round" d="M 5.3198 14.9382 C 5.0244 14.9833 4.9547 15.459 4.8968 15.7568 C 4.7547 16.5002 4.7745 17.274 4.818 18.0345 C 4.8426 18.7595 4.7788 19.5213 5.0088 20.2003 C 5.1419 20.4305 5.5363 20.4146 5.7704 20.4072 C 6.2082 20.3928 6.9196 20.5776 7.1225 20.1728 C 7.3559 19.6992 6.7505 19.2507 6.6706 18.7693 C 6.4951 17.6994 6.7006 16.6635 6.3601 15.7378 C 6.2166 15.2886 5.717 14.8886 5.3198 14.9382 Z " stroke-width="1.0840336569065727"/>
  <g id="ID0.6909988787956536">
    <g id="ID0.847524844110012">
      <path id="ID0.10025785537436604" fill="#FAA51D" stroke="none" d="M 7.7837 2.285 C 9.4373 2.3802 10.9001 3.07 11.9291 4.1077 C 12.9571 5.1454 13.5513 6.5309 13.4658 8.0174 C 13.3802 9.5039 12.6309 10.8121 11.4906 11.725 C 10.3493 12.6378 8.817 13.1552 7.1634 13.06 C 5.5098 12.9648 4.047 12.275 3.018 11.2372 C 1.99 10.1996 1.3958 8.8141 1.4813 7.3275 C 1.5669 5.841 2.3162 4.5328 3.4565 3.62 C 4.5978 2.7072 6.13 2.1898 7.7837 2.285 Z " stroke-width="1.10130910174853"/>
      <path id="ID0.23814574256539345" fill="#FAA51D" stroke="none" stroke-linecap="round" d="M 1.3342 1.0164 L 5.5696 3.1355 L 1.7028 6.112 L 1.3342 1.0164 Z " stroke-width="1.10130910174853"/>
      <path id="ID0.23814574256539345" fill="#FAA51D" stroke="none" stroke-linecap="round" d="M 12.3618 0.965 L 8.1212 3.0737 L 11.9807 6.0597 L 12.3618 0.965 Z " stroke-width="1.101309043136568"/>
      <path id="ID0.46886637480929494" fill="#FFFFFF" stroke="none" stroke-linecap="round" d="M 10.1014 8.7487 C 11.0594 8.7034 11.8835 7.6279 12.8003 7.8561 C 13.7063 8.0814 14.7005 9.0542 14.6655 9.9491 C 14.6214 11.021 13.7092 12.0551 12.7512 12.5416 C 11.4517 13.2522 9.8779 13.2829 8.3788 13.2827 C 7.3992 13.2825 6.3656 13.0719 5.5243 12.5668 C 4.8406 12.159 3.9972 11.4805 3.9245 10.6545 C 3.9167 9.755 4.4686 8.5811 5.3282 8.3084 C 6.853 7.8248 8.5199 8.8573 10.1014 8.7487 Z " stroke-width="1.10130910174853"/>
      <path id="ID0.2958779144100845" fill="#666666" stroke="none" stroke-linecap="round" d="M 9.79 8.1912 C 10.1436 8.1608 10.7156 8.0933 10.7732 8.3581 C 10.8541 8.697 10.5099 9.349 10.1083 9.3678 C 9.579 9.4233 8.8598 8.8855 8.7783 8.519 C 8.7236 8.261 9.4352 8.184 9.79 8.1912 Z " stroke-width="1.10130910174853"/>
    </g>
    <g id="ID0.26280788984149694">
      <g id="ID0.2985607646405697">
        <path id="ID0.6929170889779925" fill="#000000" stroke="none" d="M 11.2939 4.2526 C 11.6347 4.2722 11.9333 4.4901 12.1379 4.8262 C 12.3435 5.1624 12.4563 5.6179 12.428 6.1104 C 12.3996 6.603 12.2353 7.0425 11.9924 7.3529 C 11.7506 7.6633 11.429 7.8455 11.0882 7.8259 C 10.7474 7.8063 10.4488 7.5883 10.2442 7.2522 C 10.0385 6.9161 9.9258 6.4606 9.9541 5.968 C 9.9825 5.4755 10.1468 5.0359 10.3897 4.7256 C 10.6315 4.4152 10.9531 4.2329 11.2939 4.2526 Z " stroke-width="1.10130910174853"/>
        <path id="ID0.02252052817493677" fill="#CCCCCC" stroke="none" d="M 11.6439 4.6294 C 11.7725 4.6368 11.8842 4.7481 11.958 4.9222 C 12.0329 5.0964 12.0723 5.3325 12.0574 5.5909 C 12.0425 5.8493 11.9763 6.0793 11.8819 6.2438 C 11.7886 6.4083 11.6649 6.506 11.5363 6.4986 C 11.4077 6.4912 11.296 6.3799 11.2222 6.2058 C 11.1473 6.0316 11.1079 5.7955 11.1228 5.5371 C 11.1377 5.2787 11.2039 5.0487 11.2983 4.8842 C 11.3916 4.7197 11.5153 4.622 11.6439 4.6294 Z " stroke-width="1.10130910174853"/>
      </g>
      <g id="ID0.2985607646405697">
        <path id="ID0.6929170889779925" fill="#000000" stroke="none" d="M 7.1439 4.1026 C 7.4847 4.1222 7.7833 4.3401 7.9879 4.6762 C 8.1935 5.0124 8.3063 5.4679 8.278 5.9604 C 8.2496 6.453 8.0853 6.8925 7.8424 7.2029 C 7.6006 7.5133 7.279 7.6955 6.9382 7.6759 C 6.5974 7.6563 6.2988 7.4383 6.0942 7.1022 C 5.8885 6.7661 5.7758 6.3106 5.8041 5.818 C 5.8325 5.3255 5.9968 4.8859 6.2397 4.5756 C 6.4815 4.2652 6.8031 4.0829 7.1439 4.1026 Z " stroke-width="1.10130910174853"/>
        <path id="ID0.02252052817493677" fill="#CCCCCC" stroke="none" d="M 7.4939 4.4294 C 7.6225 4.4368 7.7342 4.5481 7.808 4.7222 C 7.8829 4.8964 7.9223 5.1325 7.9074 5.3909 C 7.8925 5.6493 7.8263 5.8793 7.7319 6.0438 C 7.6386 6.2083 7.5149 6.306 7.3863 6.2986 C 7.2577 6.2912 7.146 6.1799 7.0722 6.0058 C 6.9973 5.8316 6.9579 5.5955 6.9728 5.3371 C 6.9877 5.0787 7.0539 4.8487 7.1483 4.6842 C 7.2416 4.5197 7.3653 4.422 7.4939 4.4294 Z " stroke-width="1.10130910174853"/>
      </g>
    </g>
  </g>
  <path id="ID0.9358589742332697" fill="#F9B341" stroke="none" stroke-width="16.260503674593707" stroke-linecap="round" d="M 5.732 12.5155 C 5.774 12.8337 5.469 13.2578 5.1992 13.5271 C 4.7604 13.964 4.2473 14.2042 3.737 14.4616 C 3.3482 14.6731 2.9407 15.099 2.4897 15.0156 C 2.174 14.9199 1.8943 14.366 2.0557 14.0755 C 2.3913 13.4741 3.135 13.2164 3.714 12.8348 C 4.1279 12.5616 4.5354 12.2355 5.0266 12.1787 C 5.282 12.1161 5.6978 12.2696 5.732 12.5155 Z "/>
</svg>