<svg xmlns="http://www.w3.org/2000/svg" xmlns:xlink="http://www.w3.org/1999/xlink" version="1.1" width="18.66108145778278" height="22.596082831073797" viewBox="-0.7016410652046388 -0.05184103282739572 18.66108145778278 22.596082831073797">
  <!-- Exported by Scratch - http://scratch.mit.edu/ -->
  <path id="ID0.1019937596283853" fill="#CC0000" stroke="none" d="M 1.792 12.708 L 7.0562 11.8093 L 6.992 17.908 L 1.792 17.908 L 1.792 12.708 Z " stroke-width="1.2839505672454834"/>
  <g id="ID0.23551573138684034">
    <path id="ID0.20379002764821053" fill="#CC0000" stroke="none" d="M 0.2078 6.0061 L 10.7017 3.2492 L 13.9159 15.484 L 3.422 18.2409 L 0.2078 6.0061 Z " stroke-width="0.8526798319830565"/>
    <path id="ID0.8935396964661777" fill="#FF0000" stroke="none" d="M 9.0838 3.5734 L 16.1926 1.7059 L 16.9472 6.9491 L 16.9821 14.1953 L 12.2727 15.7115 L 9.0838 3.5734 Z " stroke-width="1.8188821322212587"/>
  </g>
  <path id="ID0.9160578120499849" fill="#B40101" stroke="none" d="M 11.7815 15.7129 L 14.6806 14.0277 L 17.0174 17.0939 L 16.9657 21.6348 L 11.7815 15.7129 Z " stroke-width="1.0000000156726812"/>
  <path id="ID0.8617808222770691" fill="#CC0000" stroke="none" d="M 11.1061 8.6493 L 11.1543 8.636 L 11.1543 8.636 L 11.1061 8.6493 L 11.1061 8.6493 Z " stroke-width="0.9999999997048143"/>
  <path id="ID0.1019937596283853" fill="#CC0000" stroke="none" d="M 12.3825 1.4851 L 16.8976 0.8576 L 16.9049 5.9874 L 13.1708 6.625 L 12.3825 1.4851 Z " stroke-width="1.2839505794976296"/>
  <path id="ID0.09020493365824223" fill="#000000" stroke="none" d="M 2.5175 13.8852 L 6.3074 12.0221 L 6.9515 13.5616 L 2.7919 14.9171 L 2.5175 13.8852 Z " stroke-width="0.9385947185933927"/>
  <path id="ID0.8655728464946151" fill="#000000" stroke="none" stroke-linecap="round" d="M 7.3051 6.3541 L 2.2557 8.7315 L 3.0697 11.6802 L 8.3714 10.2165 L 7.3051 6.3541 Z " stroke-width="1.034779245535961"/>
  <path id="ID0.18048822786659002" fill="#FFFFFF" stroke="none" d="M 2.7064 13.888 L 5.5412 12.656 L 5.7405 13.1146 L 2.9057 14.3465 L 2.7064 13.888 Z " stroke-width="0.6096921944416258"/>
  <path id="ID0.5967760691419244" fill="#E5E5E5" stroke="none" d="M 2.9632 14.3247 L 5.0653 13.5224 L 5.2792 14.0829 L 3.1771 14.8853 L 2.9632 14.3247 Z " stroke-width="0.6178981354362244"/>
  <path id="ID0.5961301568895578" fill="#CC0000" stroke="none" d="M 14.5 14.2 L 17.05 13.25 L 17.05 17.55 L 14.5 14.2 Z " stroke-width="1"/>
  <path id="ID0.006696532014757395" fill="#990000" stroke="none" d="M 6.8865 5.7292 L 1.7995 8.4096 L 2.0559 8.8962 L 7.1429 6.2158 L 6.8865 5.7292 Z " stroke-width="0.9999999813725895"/>
  <path id="ID0.8491002093069255" fill="#E5E5E5" stroke="none" d="M 3.0596 8.3351 L 3.876 8.1097 L 4.1218 9.0003 L 3.3054 9.2257 L 3.0596 8.3351 Z " stroke-width="1.539855192592219"/>
</svg>