<svg xmlns="http://www.w3.org/2000/svg" xmlns:xlink="http://www.w3.org/1999/xlink" version="1.1" width="15.45196736406245" height="13.391072397936961" viewBox="-0.5012333942003954 -0.2303518084235895 15.45196736406245 13.391072397936961">
  <!-- Exported by Scratch - http://scratch.mit.edu/ -->
  <g id="ID0.9007245465181768">
    <path id="ID0.6487746122293174" fill="#006622" stroke="none" stroke-linecap="round" d="M 6.6944 0.2782 C 8.1013 0.2247 9.6479 0.4344 10.8403 1.2615 C 12.0191 2.0787 13.0042 3.4618 13.5441 4.976 C 14.1606 6.7044 14.157 8.7146 14.1299 10.6024 C 14.1416 11.1924 14.0263 12.0347 13.499 12.1866 C 11.4081 12.7875 9.2036 12.6596 7.0549 12.6236 C 5.0586 12.5897 3.0019 12.6509 1.0614 12.0773 C 0.5189 11.8785 0.0619 11.1247 0.025 10.4386 C -0.0669 8.7222 0.0809 6.9054 0.6108 5.3038 C 1.0939 3.8485 1.8591 2.4414 2.9091 1.5892 C 3.9987 0.6737 5.4056 0.3274 6.6944 0.2782 Z " stroke-width="1.0014678294555164"/>
    <path id="ID0.6862273388542235" fill="#009933" stroke="none" stroke-linecap="round" d="M 6.9933 0.55 C 8.3308 0.5817 9.7287 0.8876 10.8463 1.7518 C 11.9296 2.5734 12.8516 3.8953 13.2797 5.3571 C 13.7051 6.8069 14.1891 8.8564 13.2797 9.8364 C 11.7728 11.5615 9.4232 11.9755 7.3764 11.9668 C 5.1484 11.957 2.5924 11.5866 0.9323 9.7818 C -0.0438 8.7515 0.5492 6.5709 0.9773 5.084 C 1.3865 3.6626 2.2436 2.3418 3.3206 1.5333 C 4.3679 0.7401 5.7397 0.5195 6.9933 0.55 Z " stroke-width="1.0014678294555164"/>
    <path id="ID0.01353864697739482" fill="#00CC44" stroke="none" stroke-linecap="round" d="M 7.1417 0.7802 C 8.2305 0.7638 9.3859 0.9626 10.3412 1.5449 C 11.2344 2.1207 11.9996 3.0395 12.4592 4.1123 C 12.8954 5.1295 13.5552 6.6819 12.8648 7.3899 C 11.4128 8.9838 9.2687 9.6699 7.322 9.6295 C 5.3247 9.5891 3.1491 8.88 1.6439 7.2806 C 0.9473 6.5399 1.4925 4.9142 1.8693 3.8392 C 2.2289 2.916 2.9418 2.1163 3.7169 1.6542 C 4.7623 1.0304 6.0088 0.7976 7.1417 0.7802 Z " stroke-width="1.0014678294555164"/>
    <path id="ID0.40726609993726015" fill="#99FFBB" stroke="none" d="M 8.2805 1.1871 C 8.6347 1.1871 8.9555 1.328 9.1881 1.5552 C 9.4206 1.7825 9.5648 2.0971 9.5648 2.4434 C 9.5648 2.7898 9.4206 3.1044 9.1881 3.3317 C 8.9555 3.5589 8.6347 3.6998 8.2805 3.6998 C 7.9263 3.6998 7.6054 3.5589 7.3729 3.3317 C 7.1404 3.1044 6.9962 2.7898 6.9962 2.4434 C 6.9962 2.0971 7.1404 1.7825 7.3729 1.5552 C 7.6054 1.328 7.9263 1.1871 8.2805 1.1871 Z " stroke-width="1.0014678294555164"/>
    <path id="ID0.44971933402121067" fill="#99FFBB" stroke="none" d="M 7.0775 3.7056 C 7.2703 3.7056 7.4452 3.7756 7.5714 3.8903 C 7.6975 4.0039 7.7759 4.1601 7.7759 4.3338 C 7.7759 4.5075 7.6975 4.6638 7.5714 4.7774 C 7.4452 4.8921 7.2703 4.962 7.0775 4.962 C 6.8846 4.962 6.7097 4.8921 6.5836 4.7774 C 6.4574 4.6638 6.379 4.5075 6.379 4.3338 C 6.379 4.1601 6.4574 4.0039 6.5836 3.8903 C 6.7097 3.7756 6.8846 3.7056 7.0775 3.7056 Z " stroke-width="1.0014678294555164"/>
  </g>
  <g id="ID0.8220732379704714">
    <g id="ID0.20715344790369272">
      <path id="ID0.19440001714974642" fill="#000000" stroke="none" d="M 6.45 1.5 C 7.043 1.5 7.581 1.906 7.97 2.562 C 8.359 3.219 8.6 4.125 8.6 5.125 C 8.6 6.125 8.359 7.031 7.97 7.688 C 7.581 8.344 7.043 8.75 6.45 8.75 C 5.857 8.75 5.319 8.344 4.93 7.688 C 4.541 7.031 4.3 6.125 4.3 5.125 C 4.3 4.125 4.541 3.219 4.93 2.562 C 5.319 1.906 5.857 1.5 6.45 1.5 Z " stroke-width="1"/>
      <path id="ID0.35307061253115535" fill="#FFFFFF" stroke="none" d="M 7.1 2.1 C 7.321 2.1 7.521 2.279 7.666 2.569 C 7.81 2.859 7.9 3.259 7.9 3.7 C 7.9 4.141 7.81 4.541 7.666 4.831 C 7.521 5.121 7.321 5.3 7.1 5.3 C 6.879 5.3 6.679 5.121 6.534 4.831 C 6.39 4.541 6.3 4.141 6.3 3.7 C 6.3 3.259 6.39 2.859 6.534 2.569 C 6.679 2.279 6.879 2.1 7.1 2.1 Z " stroke-width="1"/>
    </g>
    <g id="ID0.20715344790369272">
      <path id="ID0.19440001714974642" fill="#000000" stroke="none" d="M 12.3 1.65 C 12.893 1.65 13.431 2.056 13.82 2.712 C 14.209 3.369 14.45 4.275 14.45 5.275 C 14.45 6.275 14.209 7.181 13.82 7.838 C 13.431 8.494 12.893 8.9 12.3 8.9 C 11.707 8.9 11.169 8.494 10.78 7.838 C 10.391 7.181 10.15 6.275 10.15 5.275 C 10.15 4.275 10.391 3.369 10.78 2.712 C 11.169 2.056 11.707 1.65 12.3 1.65 Z " stroke-width="1"/>
      <path id="ID0.35307061253115535" fill="#FFFFFF" stroke="none" d="M 12.95 2.25 C 13.171 2.25 13.371 2.429 13.516 2.719 C 13.66 3.009 13.75 3.409 13.75 3.85 C 13.75 4.291 13.66 4.691 13.516 4.981 C 13.371 5.271 13.171 5.45 12.95 5.45 C 12.729 5.45 12.529 5.271 12.384 4.981 C 12.24 4.691 12.15 4.291 12.15 3.85 C 12.15 3.409 12.24 3.009 12.384 2.719 C 12.529 2.429 12.729 2.25 12.95 2.25 Z " stroke-width="1"/>
    </g>
  </g>
</svg>