<svg xmlns="http://www.w3.org/2000/svg" xmlns:xlink="http://www.w3.org/1999/xlink" version="1.1" width="18.151626586914062" height="10.371589660644531" viewBox="-0.1008138656616211 -0.25556349754333496 18.151626586914062 10.371589660644531">
  <!-- Exported by Scratch - http://scratch.mit.edu/ -->
  <g id="ID0.5668268920853734">
    <path id="ID0.6798444245941937" fill="#000000" stroke="none" stroke-linecap="round" d="M 10.55 0.55 C 10.286 0.544 10.062 0.817 10 1.05 C 9.838 1.594 9.846 2.173 9.85 2.75 C 9.853 3.264 9.845 3.773 10 4.25 C 10.084 4.512 10.296 4.768 10.55 4.75 C 10.818 4.789 11.086 4.57 11.2 4.3 C 11.394 3.835 11.407 3.308 11.4 2.8 C 11.391 2.199 11.412 1.591 11.2 1.05 C 11.085 0.776 10.81 0.544 10.55 0.55 Z " stroke-width="1"/>
    <path id="ID0.1390668787062168" fill="#000000" stroke="none" stroke-linecap="round" d="M 14.95 0.25 C 14.761 0.326 15.588 1.346 15.75 1.95 C 16.003 2.894 16.273 3.869 16.25 4.85 C 16.223 5.903 15.859 6.928 15.6 7.95 C 15.465 8.483 14.808 9.468 15.05 9.6 C 15.301 9.73 16.307 9.044 16.6 8.45 C 17.187 7.391 17.53 6.125 17.55 4.9 C 17.568 3.75 17.287 2.553 16.75 1.55 C 16.368 0.91 15.142 0.173 14.95 0.25 Z " stroke-width="1"/>
    <path id="ID0.1390668787062168" fill="#000000" stroke="none" stroke-linecap="round" d="M 3 0.25 C 3.189 0.326 2.362 1.346 2.2 1.95 C 1.947 2.894 1.677 3.869 1.7 4.85 C 1.727 5.903 2.091 6.928 2.35 7.95 C 2.485 8.483 3.142 9.468 2.9 9.6 C 2.649 9.73 1.643 9.044 1.35 8.45 C 0.763 7.391 0.42 6.125 0.4 4.9 C 0.382 3.75 0.663 2.553 1.2 1.55 C 1.582 0.91 2.808 0.173 3 0.25 Z " stroke-width="1"/>
    <path id="ID0.6798444245941937" fill="#000000" stroke="none" stroke-linecap="round" d="M 3.8 0.6 C 3.536 0.594 3.312 0.867 3.25 1.1 C 3.088 1.644 3.096 2.223 3.1 2.8 C 3.103 3.314 3.095 3.823 3.25 4.3 C 3.334 4.562 3.546 4.818 3.8 4.8 C 4.068 4.839 4.336 4.62 4.45 4.35 C 4.644 3.885 4.657 3.358 4.65 2.85 C 4.641 2.249 4.662 1.641 4.45 1.1 C 4.335 0.826 4.06 0.594 3.8 0.6 Z " stroke-width="1"/>
    <path id="ID0.9753554817289114" fill="#000000" stroke="none" stroke-linecap="round" d="M 7.75 3.15 C 7.099 3.24 6.564 3.7 6.05 4.1 C 5.813 4.279 5.54 4.506 5.5 4.8 C 5.463 5.08 5.659 5.297 5.85 5.45 C 6.371 5.872 6.932 6.324 7.6 6.45 C 7.805 6.511 8.05 6.093 7.95 5.9 C 7.7 5.419 6.739 5.324 6.8 4.8 C 6.814 4.249 7.804 4.238 8.1 3.75 C 8.22 3.552 7.974 3.091 7.75 3.15 Z " stroke-width="1"/>
  </g>
</svg>