<svg xmlns="http://www.w3.org/2000/svg" xmlns:xlink="http://www.w3.org/1999/xlink" version="1.1" width="16.838061332702637" height="12.040761947631836" viewBox="-0.3900486156344414 0.2091275453567505 16.838061332702637 12.040761947631836">
  <!-- Exported by Scratch - http://scratch.mit.edu/ -->
  <g id="ID0.9007245465181768">
    <path id="ID0.6487746122293174" fill="#006622" stroke="none" stroke-linecap="round" d="M 7.6092 0.7161 C 9.1852 0.6684 10.9176 0.8553 12.2532 1.5923 C 13.5737 2.3206 14.6771 3.5531 15.2819 4.9025 C 15.9724 6.4426 15.9684 8.234 15.9381 9.9163 C 15.9512 10.4421 15.822 11.1927 15.2314 11.328 C 12.8892 11.8635 10.4198 11.7496 8.0131 11.7174 C 5.7769 11.6873 3.4731 11.7418 1.2995 11.2306 C 0.6918 11.0535 0.1799 10.3817 0.1385 9.7703 C 0.0356 8.2408 0.2011 6.6218 0.7948 5.1945 C 1.3359 3.8977 2.193 2.6438 3.3691 1.8844 C 4.5897 1.0685 6.1656 0.7599 7.6092 0.7161 Z " stroke-width="0.9917244003746856"/>
    <path id="ID0.6862273388542235" fill="#009933" stroke="none" stroke-linecap="round" d="M 8.0226 0.9164 C 9.5208 0.9446 11.0866 1.2172 12.3385 1.9873 C 13.5519 2.7194 14.5847 3.8974 15.0643 5.2001 C 15.5408 6.492 16.0829 8.3184 15.0643 9.1917 C 13.3763 10.729 10.7444 11.098 8.4517 11.0902 C 5.9561 11.0814 3.093 10.7514 1.2334 9.143 C 0.14 8.225 0.8043 6.2817 1.2838 4.9567 C 1.7422 3.6901 2.7023 2.513 3.9087 1.7926 C 5.0818 1.0858 6.6183 0.8891 8.0226 0.9164 Z " stroke-width="0.9917244003746856"/>
    <path id="ID0.01353864697739482" fill="#00CC44" stroke="none" stroke-linecap="round" d="M 8.0786 1.1115 C 9.2981 1.0969 10.5923 1.2741 11.6625 1.793 C 12.6629 2.3061 13.52 3.1249 14.0349 4.0809 C 14.5235 4.9873 15.2625 6.3707 14.4892 7.0016 C 12.8628 8.422 10.4611 9.0334 8.2805 8.9974 C 6.0433 8.9614 3.6062 8.3296 1.9203 6.9042 C 1.1399 6.2442 1.7507 4.7955 2.1727 3.8375 C 2.5755 3.0148 3.374 2.3022 4.2422 1.8904 C 5.4133 1.3345 6.8095 1.1271 8.0786 1.1115 Z " stroke-width="0.9917244003746856"/>
    <path id="ID0.40726609993726015" fill="#99FFBB" stroke="none" d="M 9.3736 1.5447 C 9.7703 1.5447 10.1297 1.6703 10.3902 1.8728 C 10.6507 2.0753 10.8122 2.3557 10.8122 2.6643 C 10.8122 2.9729 10.6507 3.2533 10.3902 3.4558 C 10.1297 3.6583 9.7703 3.7839 9.3736 3.7839 C 8.9768 3.7839 8.6174 3.6583 8.357 3.4558 C 8.0965 3.2533 7.935 2.9729 7.935 2.6643 C 7.935 2.3557 8.0965 2.0753 8.357 1.8728 C 8.6174 1.6703 8.9768 1.5447 9.3736 1.5447 Z " stroke-width="0.9917244003746856"/>
    <path id="ID0.44971933402121067" fill="#99FFBB" stroke="none" d="M 8.0383 3.7841 C 8.2544 3.7841 8.4502 3.8464 8.5915 3.9487 C 8.7329 4.0499 8.8207 4.1891 8.8207 4.3439 C 8.8207 4.4987 8.7329 4.638 8.5915 4.7392 C 8.4502 4.8414 8.2544 4.9037 8.0383 4.9037 C 7.8223 4.9037 7.6264 4.8414 7.4851 4.7392 C 7.3437 4.638 7.2559 4.4987 7.2559 4.3439 C 7.2559 4.1891 7.3437 4.0499 7.4851 3.9487 C 7.6264 3.8464 7.8223 3.7841 8.0383 3.7841 Z " stroke-width="0.9917244003746856"/>
  </g>
  <g id="ID0.8220732379704714">
    <g id="ID0.20715344790369272">
      <path id="ID0.19440001714974642" fill="#000000" stroke="none" d="M 7.6 1.7 C 8.193 1.7 8.731 2.106 9.12 2.762 C 9.509 3.419 9.75 4.325 9.75 5.325 C 9.75 6.325 9.509 7.231 9.12 7.888 C 8.731 8.544 8.193 8.95 7.6 8.95 C 7.007 8.95 6.469 8.544 6.08 7.888 C 5.691 7.231 5.45 6.325 5.45 5.325 C 5.45 4.325 5.691 3.419 6.08 2.762 C 6.469 2.106 7.007 1.7 7.6 1.7 Z " stroke-width="1"/>
      <path id="ID0.35307061253115535" fill="#FFFFFF" stroke="none" d="M 8.25 2.3 C 8.471 2.3 8.671 2.479 8.816 2.769 C 8.96 3.059 9.05 3.459 9.05 3.9 C 9.05 4.341 8.96 4.741 8.816 5.031 C 8.671 5.321 8.471 5.5 8.25 5.5 C 8.029 5.5 7.829 5.321 7.684 5.031 C 7.54 4.741 7.45 4.341 7.45 3.9 C 7.45 3.459 7.54 3.059 7.684 2.769 C 7.829 2.479 8.029 2.3 8.25 2.3 Z " stroke-width="1"/>
    </g>
    <g id="ID0.20715344790369272">
      <path id="ID0.19440001714974642" fill="#000000" stroke="none" d="M 13.45 1.85 C 14.043 1.85 14.581 2.256 14.97 2.912 C 15.359 3.569 15.6 4.475 15.6 5.475 C 15.6 6.475 15.359 7.381 14.97 8.038 C 14.581 8.694 14.043 9.1 13.45 9.1 C 12.857 9.1 12.319 8.694 11.93 8.038 C 11.541 7.381 11.3 6.475 11.3 5.475 C 11.3 4.475 11.541 3.569 11.93 2.912 C 12.319 2.256 12.857 1.85 13.45 1.85 Z " stroke-width="1"/>
      <path id="ID0.35307061253115535" fill="#FFFFFF" stroke="none" d="M 14.1 2.45 C 14.321 2.45 14.521 2.629 14.666 2.919 C 14.81 3.209 14.9 3.609 14.9 4.05 C 14.9 4.491 14.81 4.891 14.666 5.181 C 14.521 5.471 14.321 5.65 14.1 5.65 C 13.879 5.65 13.679 5.471 13.534 5.181 C 13.39 4.891 13.3 4.491 13.3 4.05 C 13.3 3.609 13.39 3.209 13.534 2.919 C 13.679 2.629 13.879 2.45 14.1 2.45 Z " stroke-width="1"/>
    </g>
  </g>
</svg>