<svg xmlns="http://www.w3.org/2000/svg" xmlns:xlink="http://www.w3.org/1999/xlink" version="1.1" width="486.5781899938532" height="366.5781899938532" viewBox="-3.2890949969265963 -3.2890949969265963 486.5781899938532 366.5781899938532">
  <defs>
    <radialGradient id="grad_1" cx="0.47909999999999997" cy="0.5611" r="0.72943">
      <stop offset="0" stop-color="#FFFFFF" stop-opacity="1"/>
      <stop offset="1" stop-color="#CCCCCC" stop-opacity="1"/>
    </radialGradient>
    <radialGradient id="grad_2" cx="0.5" cy="0.46149999999999997" r="0.70005">
      <stop offset="0" stop-color="#CCCCCC" stop-opacity="1"/>
      <stop offset="1" stop-color="#CCCCCC" stop-opacity="0"/>
    </radialGradient>
  <radialGradient id="grad_2-,0,0,0.5769230723381042,-10,97.9" cx="229" cy="232.8994" r="68.6969" gradientUnits="userSpaceOnUse">
      <stop offset="0" stop-color="#CCCCCC" stop-opacity="1"/>
      <stop offset="1" stop-color="#CCCCCC" stop-opacity="0"/>
    </radialGradient></defs>
  <!-- Exported by Scratch - http://scratch.mit.edu/ -->
  <path id="ID0.6921172253787518" fill="url(#grad_1)" stroke="none" d="M 0 0 L 480 0 L 480 360 L 0 360 L 0 0 Z " stroke-width="1"/>
  <path id="ID0.2455673455260694" fill="url(#grad_2-,0,0,0.5769230723381042,-10,97.9)" stroke="none" d="M 229 225.9769 C 252.175 225.9769 273.175 226.8175 288.381 228.175 C 303.587 229.5325 313 231.4075 313 233.4769 C 313 235.5463 303.587 237.4213 288.381 238.7788 C 273.175 240.1363 252.175 240.9769 229 240.9769 C 205.825 240.9769 184.825 240.1363 169.619 238.7788 C 154.413 237.4213 145 235.5463 145 233.4769 C 145 231.4075 154.413 229.5325 169.619 228.175 C 184.825 226.8175 205.825 225.9769 229 225.9769 Z " stroke-width="0.8163455859487566"/>
  <g id="ID0.5668268920853734">
    <path id="ID0.6798444245941937" fill="#000000" stroke="none" stroke-linecap="round" d="M 215.0015 171.1538 C 216.7385 171.1394 218.1859 172.9564 218.5715 174.4949 C 219.5853 178.0885 219.4775 181.8961 219.3963 185.6909 C 219.3276 189.0715 219.3318 192.4202 218.2668 195.5429 C 217.6894 197.2582 216.2706 198.9219 214.6016 198.7793 C 212.8351 199.0103 211.0932 197.5443 210.3691 195.7575 C 209.1373 192.6805 209.102 189.2129 209.1964 185.8722 C 209.3128 181.92 209.2326 177.9189 210.6785 174.3806 C 211.461 172.5893 213.2919 171.0896 215.0015 171.1538 Z " stroke-width="6.578189993853193"/>
    <path id="ID0.1390668787062168" fill="#000000" stroke="none" stroke-linecap="round" d="M 186.0675 168.8007 C 187.3034 169.3185 181.7667 175.9488 180.6436 179.9062 C 178.8896 186.0913 177.0209 192.4787 177.0788 198.9334 C 177.1561 205.862 179.4527 212.6386 181.059 219.3855 C 181.8962 222.9042 186.1238 229.4456 184.5195 230.2908 C 182.8561 231.1219 176.3045 226.514 174.4338 222.579 C 170.6737 215.5576 168.5381 207.1978 168.5232 199.1385 C 168.5143 191.5726 170.4766 183.7261 174.1042 177.18 C 176.6778 173.0068 184.812 168.2759 186.0675 168.8007 Z " stroke-width="6.578189993853193"/>
    <path id="ID0.1390668787062168" fill="#000000" stroke="none" stroke-linecap="round" d="M 264.5394 169.9289 C 263.289 170.4108 268.6315 177.1986 269.6395 181.1868 C 271.2137 187.4201 272.8968 193.8588 272.6521 200.3092 C 272.3743 207.2327 269.8825 213.94 268.0816 220.6375 C 267.1429 224.1305 262.7276 230.5468 264.3068 231.438 C 265.9454 232.317 272.6277 227.9006 274.6115 224.0215 C 278.5733 217.1118 280.9499 208.8174 281.1981 200.7618 C 281.426 193.1994 279.6917 185.2994 276.2551 178.651 C 273.8034 174.4051 265.8096 169.4407 264.5394 169.9289 Z " stroke-width="6.578189993853193"/>
    <path id="ID0.6798444245941937" fill="#000000" stroke="none" stroke-linecap="round" d="M 259.4015 172.1038 C 261.1385 172.0894 262.5859 173.9064 262.9715 175.4449 C 263.9853 179.0385 263.8775 182.8461 263.7963 186.6409 C 263.7276 190.0215 263.7318 193.3702 262.6668 196.4929 C 262.0894 198.2082 260.6706 199.8719 259.0016 199.7293 C 257.2351 199.9603 255.4932 198.4943 254.7691 196.7075 C 253.5373 193.6305 253.502 190.1629 253.5964 186.8222 C 253.7128 182.87 253.6326 178.8689 255.0785 175.3306 C 255.861 173.5393 257.6919 172.0396 259.4015 172.1038 Z " stroke-width="6.578189993853193"/>
    <path id="ID0.9753554817289114" fill="#000000" stroke="none" stroke-linecap="round" d="M 233.1663 188.5185 C 237.4397 189.1725 240.9149 192.2491 244.2576 194.929 C 245.7994 196.129 247.5735 197.648 247.8086 199.5856 C 248.0253 201.4309 246.7154 202.8395 245.4446 203.8277 C 241.9775 206.5538 238.2445 209.4734 233.8387 210.2386 C 232.4845 210.6203 230.9128 207.8475 231.589 206.5876 C 233.2791 203.4476 239.6092 202.9143 239.2578 199.4619 C 239.2182 195.8363 232.7075 195.6697 230.8071 192.4317 C 230.0366 191.1179 231.6986 188.1091 233.1663 188.5185 Z " stroke-width="6.578189993853193"/>
  </g>
  <text id="ID0.36364303389564157" fill="#000000" text-anchor="start" font-family="Marker" font-size="22" transform="matrix(0.547383 0 0 0.547383 181.095 143.366)" stroke-width="1" alignment-baseline="text-before-edge" xml:space="preserve"><tspan x="0" style="white-space: pre" dy="1.45em">I'ma penguino.</tspan></text>
</svg>