<svg xmlns="http://www.w3.org/2000/svg" xmlns:xlink="http://www.w3.org/1999/xlink" version="1.1" width="31.069986651676526" height="37.04583008124196" viewBox="-7.882183765539343 -7.748952989944632 31.069986651676526 37.04583008124196">
  <!-- Exported by Scratch - http://scratch.mit.edu/ -->
  <path id="ID0.9358589742332697" fill="#DB861B" stroke="none" stroke-width="16.260503542267816" stroke-linecap="round" d="M 10.0538 10.281 C 9.7342 10.2513 9.3222 10.5724 9.0635 10.8524 C 8.6438 11.3077 8.4236 11.8297 8.186 12.3496 C 7.9896 12.7462 7.5798 13.1698 7.6805 13.6172 C 7.7883 13.9291 8.3526 14.1872 8.6367 14.0148 C 9.2246 13.6562 9.4535 12.9031 9.8125 12.3099 C 10.0695 11.8858 10.3797 11.4659 10.4175 10.9729 C 10.4702 10.7153 10.3008 10.3057 10.0538 10.281 Z "/>
  <path id="ID0.19551143841817975" fill="#DB861B" stroke="none" stroke-width="16.26050598456227" stroke-linecap="round" d="M 6.5956 17.6474 C 6.5577 17.9413 6.4139 18.3709 6.6207 18.6242 C 7.0935 19.1976 7.8272 19.5523 8.4889 19.9295 C 9.1106 20.3033 9.7151 20.7714 10.4099 20.9478 C 10.6755 20.9614 10.8767 20.6218 10.9978 20.4214 C 11.224 20.0462 11.7661 19.5499 11.5368 19.1594 C 11.2665 18.7059 10.5398 18.9706 10.1134 18.7749 C 8.9644 18.2355 7.9823 17.3296 6.8336 16.9646 C 6.5465 16.8733 6.6253 17.4111 6.5956 17.6474 Z "/>
  <g id="ID0.30696602864190936">
    <path id="ID0.637318427208811" fill="#FAA51D" stroke="none" stroke-linecap="round" d="M 3.0561 17.053 C 3.7386 16.8685 4.2582 16.1771 4.9644 16.0761 C 5.301 16.0293 5.6878 16.3227 5.6947 16.609 C 5.7472 17.022 5.4216 17.3957 5.0947 17.6352 C 4.6066 18.0175 4.0547 18.2876 3.4205 18.4713 C 2.722 18.6741 1.9893 18.8724 1.265 18.8284 C 0.9132 18.8356 0.4131 18.7127 0.337 18.3689 C 0.2503 17.9739 0.5454 17.4669 0.9239 17.2754 C 1.5481 16.9668 2.3668 17.2756 3.0561 17.053 Z " stroke-width="1.0840336330834464"/>
    <path id="ID0.9894068208523095" fill="#FFFFFF" stroke="none" stroke-linecap="round" d="M 0.6144 17.3668 C 1.0566 17.0127 1.9034 16.9627 2.3697 17.185 C 2.5798 17.2414 1.9635 17.6414 1.9678 17.9262 C 1.9741 18.2331 2.6635 18.613 2.4224 18.6959 C 1.8893 18.957 0.9401 19.0126 0.4187 18.6122 C 0.0862 18.3569 0.2874 17.6289 0.6144 17.3668 Z " stroke-width="1.0840336330834464"/>
  </g>
  <g id="ID0.536394951865077">
    <path id="ID0.6198067106306553" fill="#FAA51D" stroke="none" stroke-linecap="round" d="M 7.1469 11.4276 C 7.6522 11.5388 8.4078 11.5628 8.5408 12.0779 C 8.8554 13.0721 8.4911 14.1969 8.2748 15.2272 C 8.0589 16.2554 7.8991 17.4476 7.2431 18.3416 C 6.9556 18.6998 6.2929 18.5874 5.8044 18.5103 C 5.3397 18.4354 4.7148 18.2221 4.5905 17.7837 C 4.2703 16.7895 4.4612 15.6893 4.6233 14.7005 C 4.8092 13.574 4.8886 12.329 5.5788 11.4061 C 5.8894 10.9895 6.6377 11.3145 7.1469 11.4276 Z " stroke-width="1.0840335312115439"/>
    <path id="ID0.21503017749637365" fill="#FFFFFF" stroke="none" stroke-linecap="round" d="M 7.5817 13.3892 C 7.8755 13.4459 8.126 13.7483 8.1731 14.0529 C 8.2969 14.7152 8.1884 15.4328 8.0608 16.1004 C 7.9142 16.8681 7.7629 17.6603 7.3554 18.3664 C 7.2085 18.5824 6.85 18.6347 6.5291 18.6511 C 6.1967 18.6587 5.6773 18.5813 5.6109 18.2564 C 5.4389 17.4062 5.736 16.4497 5.9559 15.5635 C 6.1016 14.9754 6.3011 14.3126 6.682 13.7703 C 6.8791 13.5395 7.2632 13.3288 7.5817 13.3892 Z " stroke-width="1.0840335312115439"/>
  </g>
  <path id="ID0.19551143841817975" fill="#FAA51D" stroke="none" stroke-linecap="round" d="M 5.5793 17.0216 C 5.4327 16.7779 4.92 17.0699 4.613 17.1667 C 3.8659 17.4311 3.108 17.8436 2.5518 18.1391 C 1.9123 18.4788 1.2054 18.7771 0.7135 19.2999 C 0.5627 19.5175 0.7643 19.867 0.878 20.0717 C 1.0912 20.4544 1.2524 21.1715 1.7052 21.1666 C 2.2331 21.1575 2.36 20.4235 2.7463 20.1225 C 3.5714 19.4829 4.5505 19.0891 5.2233 18.3155 C 5.5443 18.0001 5.7847 17.3667 5.5793 17.0216 Z " stroke-width="1.0840336515588391"/>
  <g id="ID0.6909988787956536">
    <g id="ID0.847524844110012">
      <path id="ID0.10025785537436604" fill="#FAA51D" stroke="none" d="M 6.9308 2.403 C 8.575 2.2027 10.1371 2.6214 11.3342 3.4596 C 12.5303 4.298 13.3615 5.5558 13.5416 7.0338 C 13.7217 8.5118 13.2169 9.9324 12.2571 11.0335 C 11.2963 12.1346 9.8804 12.9162 8.2362 13.1166 C 6.592 13.3169 5.0299 12.8982 3.8327 12.06 C 2.6367 11.2217 1.8055 9.9638 1.6254 8.4858 C 1.4453 7.0078 1.9501 5.5872 2.9099 4.4861 C 3.8707 3.385 5.2865 2.6034 6.9308 2.403 Z " stroke-width="1.1013089777213054"/>
      <path id="ID0.23814574256539345" fill="#FAA51D" stroke="none" stroke-linecap="round" d="M 0.3614 2.3332 L 4.9061 3.6654 L 1.6301 7.2821 L 0.3614 2.3332 Z " stroke-width="1.1013089777213054"/>
      <path id="ID0.23814574256539345" fill="#FAA51D" stroke="none" stroke-linecap="round" d="M 10.9965 0.3813 L 7.1984 3.2103 L 11.5273 5.4625 L 10.9965 0.3813 Z " stroke-width="1.1013088628796008"/>
      <path id="ID0.46886637480929494" fill="#FFFFFF" stroke="none" stroke-linecap="round" d="M 10.3334 8.3974 C 11.268 8.1826 11.8878 6.9777 12.8306 7.0392 C 13.7622 7.0998 14.9135 7.8804 15.0382 8.7672 C 15.1854 9.8299 14.4716 11.0097 13.6154 11.6587 C 12.4629 12.5891 10.9197 12.8992 9.4444 13.1655 C 8.4804 13.3395 7.4258 13.316 6.508 12.9686 C 5.7628 12.6888 4.8122 12.1711 4.5938 11.3712 C 4.4262 10.4874 4.7605 9.2341 5.5579 8.8129 C 6.9724 8.0659 8.7964 8.7855 10.3334 8.3974 Z " stroke-width="1.1013089777213054"/>
      <path id="ID0.2958779144100845" fill="#666666" stroke="none" stroke-linecap="round" d="M 9.9377 7.8573 C 10.2803 7.7645 10.8312 7.5964 10.9349 7.8467 C 11.0748 8.1658 10.852 8.8686 10.4602 8.9585 C 9.9491 9.1073 9.1458 8.706 9.0004 8.3598 C 8.9008 8.1156 9.5873 7.9133 9.9377 7.8573 Z " stroke-width="1.1013089777213054"/>
    </g>
    <g id="ID0.26280788984149694">
      <g id="ID0.2985607646405697">
        <path id="ID0.6929170889779925" fill="#000000" stroke="none" d="M 10.7384 3.7067 C 11.0773 3.6654 11.4098 3.8268 11.6709 4.1212 C 11.9331 4.4154 12.1251 4.8436 12.1847 5.3333 C 12.2444 5.8231 12.1609 6.2848 11.977 6.6334 C 11.7943 6.9818 11.5102 7.2184 11.1713 7.2597 C 10.8324 7.301 10.4999 7.1396 10.2388 6.8452 C 9.9766 6.551 9.7847 6.1228 9.725 5.633 C 9.6653 5.1433 9.7488 4.6816 9.9327 4.333 C 10.1155 3.9845 10.3995 3.748 10.7384 3.7067 Z " stroke-width="1.1013089777213054"/>
        <path id="ID0.02252052817493677" fill="#CCCCCC" stroke="none" d="M 11.1443 4.0113 C 11.2722 3.9958 11.4018 4.0854 11.5054 4.2436 C 11.6101 4.4017 11.6908 4.6271 11.7221 4.884 C 11.7534 5.1409 11.7292 5.379 11.6655 5.5576 C 11.603 5.7361 11.4987 5.8542 11.3708 5.8698 C 11.2428 5.8854 11.1132 5.7958 11.0096 5.6376 C 10.9049 5.4795 10.8242 5.2541 10.7929 4.9972 C 10.7616 4.7403 10.7858 4.5021 10.8495 4.3235 C 10.9121 4.145 11.0164 4.0269 11.1443 4.0113 Z " stroke-width="1.1013089777213054"/>
      </g>
      <g id="ID0.2985607646405697">
        <path id="ID0.6929170889779925" fill="#000000" stroke="none" d="M 6.6384 4.4067 C 6.9773 4.3654 7.3098 4.5268 7.5709 4.8212 C 7.8331 5.1154 8.0251 5.5436 8.0847 6.0333 C 8.1444 6.5231 8.0609 6.9848 7.877 7.3334 C 7.6943 7.6818 7.4102 7.9184 7.0713 7.9597 C 6.7324 8.001 6.3999 7.8396 6.1388 7.5452 C 5.8766 7.251 5.6847 6.8228 5.625 6.333 C 5.5653 5.8433 5.6488 5.3816 5.8327 5.033 C 6.0155 4.6845 6.2995 4.448 6.6384 4.4067 Z " stroke-width="1.1013089777213054"/>
        <path id="ID0.02252052817493677" fill="#CCCCCC" stroke="none" d="M 6.9943 4.6613 C 7.1222 4.6458 7.2518 4.7354 7.3554 4.8936 C 7.4601 5.0517 7.5408 5.2771 7.5721 5.534 C 7.6034 5.7909 7.5792 6.029 7.5155 6.2076 C 7.453 6.3861 7.3487 6.5042 7.2208 6.5198 C 7.0928 6.5354 6.9632 6.4458 6.8596 6.2876 C 6.7549 6.1295 6.6742 5.9041 6.6429 5.6472 C 6.6116 5.3903 6.6358 5.1521 6.6995 4.9735 C 6.7621 4.795 6.8664 4.6769 6.9943 4.6613 Z " stroke-width="1.1013089777213054"/>
      </g>
    </g>
  </g>
  <path id="ID0.9358589742332697" fill="#F9B341" stroke="none" stroke-width="16.26050345254028" stroke-linecap="round" d="M 2.8885 15.9465 C 2.7164 15.6756 2.8145 15.1625 2.9458 14.8046 C 3.1598 14.2235 3.5241 13.7897 3.8786 13.3413 C 4.1422 12.9857 4.3325 12.4279 4.7766 12.3136 C 5.1033 12.2675 5.5902 12.6522 5.5662 12.9835 C 5.5149 13.6703 4.9489 14.2172 4.5845 14.8071 C 4.3241 15.2292 4.0917 15.6966 3.6701 15.9549 C 3.4648 16.1193 3.023 16.1551 2.8885 15.9465 Z "/>
</svg>