<svg xmlns="http://www.w3.org/2000/svg" xmlns:xlink="http://www.w3.org/1999/xlink" version="1.1" width="16.757083681446467" height="17.007083681446467" viewBox="-0.3610418425113734 -0.48074183847613894 16.757083681446467 17.007083681446467">
  <!-- Exported by Scratch - http://scratch.mit.edu/ -->
  <g id="ID0.6759743960574269">
    <path id="ID0.4261480770073831" fill="#006622" stroke="none" d="M 8.0175 0.0228 C 10.19 0.0228 12.1588 0.919 13.5844 2.3673 C 15.01 3.8155 15.8925 5.816 15.8925 8.0228 C 15.8925 10.2296 15.01 12.2301 13.5844 13.6783 C 12.1588 15.1266 10.19 16.0228 8.0175 16.0228 C 5.8449 16.0228 3.8761 15.1266 2.4505 13.6783 C 1.0249 12.2301 0.1425 10.2296 0.1425 8.0228 C 0.1425 5.816 1.0249 3.8155 2.4505 2.3673 C 3.8761 0.919 5.8449 0.0228 8.0175 0.0228 Z " stroke-width="1.007083681446468"/>
    <path id="ID0.861708318348974" fill="#009933" stroke="none" stroke-linecap="round" d="M 7.8727 0.4373 C 9.6156 0.4456 11.4697 1.1892 12.5919 2.1782 C 14.036 3.5204 14.9764 5.2804 15.0818 6.9865 C 15.193 8.778 14.688 10.7627 13.1709 12.1679 C 12.0418 13.258 9.8391 13.7853 7.9596 13.7016 C 5.8426 13.607 3.5206 12.9331 2.227 11.7119 C 0.8802 10.3805 0.6497 8.5161 0.8373 6.8207 C 1.0249 5.1453 2.0047 3.4143 3.4314 2.126 C 4.4725 1.1859 6.1877 0.429 7.8727 0.4373 Z " stroke-width="1.007083681446468"/>
    <path id="ID0.36423635948449373" fill="#00CC44" stroke="none" stroke-linecap="round" d="M 7.8437 0.686 C 9.2844 0.7407 10.7749 1.2191 11.8391 1.9295 C 12.9752 2.7072 13.7315 3.8081 14.0974 4.914 C 14.4958 6.1227 15.0667 7.6439 14.0395 8.6446 C 12.7066 9.9436 10.2514 10.7353 8.0175 10.7586 C 5.8032 10.7942 3.2461 10.0771 1.8796 8.8104 C 0.7713 7.7824 1.3179 6.2263 1.7638 4.9969 C 2.2154 3.7492 3.2334 2.5505 4.5432 1.6394 C 5.3678 1.0367 6.659 0.6412 7.8437 0.686 Z " stroke-width="1.007083681446468"/>
    <path id="ID0.21407686965540051" fill="#99FFBB" stroke="none" d="M 8.9586 1.1005 C 9.4222 1.1005 9.8413 1.2075 10.1459 1.3799 C 10.4496 1.5523 10.6378 1.7911 10.6378 2.0539 C 10.6378 2.3167 10.4496 2.5554 10.1459 2.7279 C 9.8413 2.9003 9.4222 3.0073 8.9586 3.0073 C 8.495 3.0073 8.0759 2.9003 7.7713 2.7279 C 7.4676 2.5554 7.2794 2.3167 7.2794 2.0539 C 7.2794 1.7911 7.4676 1.5523 7.7713 1.3799 C 8.0759 1.2075 8.495 1.1005 8.9586 1.1005 Z " stroke-width="0.8894565123507224"/>
    <path id="ID0.5379764609970152" fill="#99FFBB" stroke="none" d="M 7.636 3.0073 C 7.8281 3.0073 8.0014 3.0562 8.1273 3.1349 C 8.2532 3.2137 8.3308 3.3223 8.3308 3.4425 C 8.3308 3.5627 8.2532 3.6713 8.1273 3.7501 C 8.0014 3.8288 7.8281 3.8777 7.636 3.8777 C 7.4439 3.8777 7.2706 3.8288 7.1447 3.7501 C 7.0188 3.6713 6.9411 3.5627 6.9411 3.4425 C 6.9411 3.3223 7.0188 3.2137 7.1447 3.1349 C 7.2706 3.0562 7.4439 3.0073 7.636 3.0073 Z " stroke-width="0.8232650265289592"/>
  </g>
  <g id="ID0.8220732379704714">
    <g id="ID0.20715344790369272">
      <path id="ID0.19440001714974642" fill="#000000" stroke="none" d="M 5.2 3.5 C 5.793 3.5 6.331 3.906 6.72 4.562 C 7.109 5.219 7.35 6.125 7.35 7.125 C 7.35 8.125 7.109 9.031 6.72 9.688 C 6.331 10.344 5.793 10.75 5.2 10.75 C 4.607 10.75 4.069 10.344 3.68 9.688 C 3.291 9.031 3.05 8.125 3.05 7.125 C 3.05 6.125 3.291 5.219 3.68 4.562 C 4.069 3.906 4.607 3.5 5.2 3.5 Z " stroke-width="1"/>
      <path id="ID0.35307061253115535" fill="#FFFFFF" stroke="none" d="M 5.85 4.1 C 6.071 4.1 6.271 4.279 6.416 4.569 C 6.56 4.859 6.65 5.259 6.65 5.7 C 6.65 6.141 6.56 6.541 6.416 6.831 C 6.271 7.121 6.071 7.3 5.85 7.3 C 5.629 7.3 5.429 7.121 5.284 6.831 C 5.14 6.541 5.05 6.141 5.05 5.7 C 5.05 5.259 5.14 4.859 5.284 4.569 C 5.429 4.279 5.629 4.1 5.85 4.1 Z " stroke-width="1"/>
    </g>
    <g id="ID0.20715344790369272">
      <path id="ID0.19440001714974642" fill="#000000" stroke="none" d="M 11.05 3.7 C 11.643 3.7 12.181 4.106 12.57 4.762 C 12.959 5.419 13.2 6.325 13.2 7.325 C 13.2 8.325 12.959 9.231 12.57 9.888 C 12.181 10.544 11.643 10.95 11.05 10.95 C 10.457 10.95 9.919 10.544 9.53 9.888 C 9.141 9.231 8.9 8.325 8.9 7.325 C 8.9 6.325 9.141 5.419 9.53 4.762 C 9.919 4.106 10.457 3.7 11.05 3.7 Z " stroke-width="1"/>
      <path id="ID0.35307061253115535" fill="#FFFFFF" stroke="none" d="M 11.7 4.3 C 11.921 4.3 12.121 4.479 12.266 4.769 C 12.41 5.059 12.5 5.459 12.5 5.9 C 12.5 6.341 12.41 6.741 12.266 7.031 C 12.121 7.321 11.921 7.5 11.7 7.5 C 11.479 7.5 11.279 7.321 11.134 7.031 C 10.99 6.741 10.9 6.341 10.9 5.9 C 10.9 5.459 10.99 5.059 11.134 4.769 C 11.279 4.479 11.479 4.3 11.7 4.3 Z " stroke-width="1"/>
    </g>
  </g>
</svg>