<svg xmlns="http://www.w3.org/2000/svg" xmlns:xlink="http://www.w3.org/1999/xlink" version="1.1" width="19.681190636719332" height="17.982690957153903" viewBox="-0.31514556555204964 -0.46054555324965096 19.681190636719332 17.982690957153903">
  <!-- Exported by Scratch - http://scratch.mit.edu/ -->
  <path id="ID0.09066551923751831" fill="#B40101" stroke="none" d="M 5.5018 12.5274 L 2.2606 11.0713 L 0.6215 14.7201 L 3.8627 16.1761 L 5.5018 12.5274 Z " stroke-width="0.9680770770526806"/>
  <path id="ID0.09066551923751831" fill="#B40101" stroke="none" d="M 14.8732 11.8895 L 11.362 12.6842 L 12.245 16.5855 L 15.7562 15.7908 L 14.8732 11.8895 Z " stroke-width="0.9740397387570529"/>
  <g id="ID0.08273157011717558">
    <path id="ID0.20379002764821053" fill="#CC0000" stroke="none" d="M 18.4294 2.975 L 8.9413 1.4725 L 6.9627 13.9668 L 16.4508 15.4693 L 18.4294 2.975 Z " stroke-width="0.8116599898218106"/>
    <path id="ID0.8935396964661777" fill="#FF0000" stroke="none" d="M 10.4922 1.6648 L 2.9858 0.4761 L 1.0228 12.8716 L 8.5293 14.0604 L 10.4922 1.6648 Z " stroke-width="1.8732911616216774"/>
  </g>
  <path id="ID0.1019937596283853" fill="#CC0000" stroke="none" d="M 7.714 6.7248 L 2.578 5.9114 L 1.7647 11.0474 L 6.9007 11.8608 L 7.714 6.7248 Z " stroke-width="1.283950533415529"/>
  <path id="ID0.8617808222770691" fill="#CC0000" stroke="none" d="M 7.2032 7.0745 L 7.1538 7.0667 L 7.1538 7.0667 L 7.2032 7.0745 L 7.2032 7.0745 Z " stroke-width="0.9999999766464479"/>
  <g id="ID0.2303205570206046">
    <path id="ID0.8655728464946151" fill="#000000" stroke="none" stroke-linecap="round" d="M 11.3355 5.4778 L 16.6543 7.0547 L 16.2881 9.3673 L 10.8558 8.5071 L 11.3355 5.4778 Z " stroke-width="0.9576126255372588"/>
    <path id="ID0.006696532014757395" fill="#990000" stroke="none" d="M 11.5311 4.9776 L 16.8865 7.071 L 16.6862 7.5833 L 11.3308 5.4899 L 11.5311 4.9776 Z " stroke-width="0.9999999827005385"/>
    <path id="ID0.8491002093069255" fill="#E5E5E5" stroke="none" d="M 15.7951 7.1706 L 14.9586 7.0381 L 14.8141 7.9507 L 15.6506 8.0831 L 15.7951 7.1706 Z " stroke-width="1.5398552928868916"/>
  </g>
  <g id="ID0.6190438214689493">
    <path id="ID0.09020493365824223" fill="#000000" stroke="none" d="M 17.1834 11.0335 L 13.3151 10.4209 L 13.0726 11.9519 L 16.9409 12.5645 L 17.1834 11.0335 Z " stroke-width="0.6027815101061395"/>
    <path id="ID0.18048822786659002" fill="#FFFFFF" stroke="none" d="M 17.015 11.1939 L 14.3976 10.7794 L 14.3116 11.3226 L 16.929 11.7371 L 17.015 11.1939 Z " stroke-width="0.6280106367731634"/>
    <path id="ID0.5967760691419244" fill="#E5E5E5" stroke="none" d="M 16.7973 11.9467 L 14.4762 11.5791 L 14.3824 12.1717 L 16.7034 12.5393 L 16.7973 11.9467 Z " stroke-width="0.6224253804800055"/>
  </g>
</svg>