<svg xmlns="http://www.w3.org/2000/svg" xmlns:xlink="http://www.w3.org/1999/xlink" version="1.1" width="16.688121795654297" height="11.990849494934082" viewBox="-0.2783065438270569 -0.2620437890291214 16.688121795654297 11.990849494934082">
  <!-- Exported by Scratch - http://scratch.mit.edu/ -->
  <g id="ID0.9007245465181768">
    <path id="ID0.6487746122293174" fill="#006622" stroke="none" stroke-linecap="round" d="M 7.65 0.2449 C 9.211 0.1974 10.927 0.3835 12.25 1.1172 C 13.558 1.8421 14.651 3.0691 15.25 4.4123 C 15.934 5.9456 15.93 7.7288 15.9 9.4035 C 15.913 9.9269 15.785 10.6741 15.2 10.8088 C 12.88 11.3419 10.434 11.2285 8.05 11.1965 C 5.835 11.1664 3.553 11.2207 1.4 10.7119 C 0.798 10.5355 0.291 9.8668 0.25 9.2582 C 0.148 7.7356 0.312 6.1239 0.9 4.7031 C 1.436 3.4122 2.285 2.1639 3.45 1.4079 C 4.659 0.5958 6.22 0.2885 7.65 0.2449 Z " stroke-width="0.984702219379113"/>
    <path id="ID0.6862273388542235" fill="#009933" stroke="none" stroke-linecap="round" d="M 8.025 0.4487 C 9.509 0.4768 11.06 0.7482 12.3 1.5148 C 13.502 2.2436 14.525 3.4163 15 4.713 C 15.472 5.9991 16.009 7.8172 15 8.6866 C 13.328 10.2169 10.721 10.5842 8.45 10.5764 C 5.978 10.5677 3.142 10.2392 1.3 8.6381 C 0.217 7.7242 0.875 5.7897 1.35 4.4707 C 1.804 3.2098 2.755 2.0381 3.95 1.3209 C 5.112 0.6173 6.634 0.4215 8.025 0.4487 Z " stroke-width="0.984702219379113"/>
    <path id="ID0.01353864697739482" fill="#00CC44" stroke="none" stroke-linecap="round" d="M 8.1 0.6394 C 9.308 0.6249 10.59 0.8013 11.65 1.3178 C 12.641 1.8286 13.49 2.6437 14 3.5954 C 14.484 4.4977 15.216 5.8748 14.45 6.5029 C 12.839 7.9169 10.46 8.5255 8.3 8.4896 C 6.084 8.4538 3.67 7.8248 2 6.4059 C 1.227 5.7489 1.832 4.3067 2.25 3.3531 C 2.649 2.5341 3.44 1.8247 4.3 1.4148 C 5.46 0.8614 6.843 0.6549 8.1 0.6394 Z " stroke-width="0.984702219379113"/>
    <path id="ID0.40726609993726015" fill="#99FFBB" stroke="none" d="M 9.375 1.061 C 9.768 1.061 10.124 1.186 10.382 1.3876 C 10.64 1.5892 10.8 1.8683 10.8 2.1756 C 10.8 2.4828 10.64 2.7619 10.382 2.9635 C 10.124 3.1651 9.768 3.2901 9.375 3.2901 C 8.982 3.2901 8.626 3.1651 8.368 2.9635 C 8.11 2.7619 7.95 2.4828 7.95 2.1756 C 7.95 1.8683 8.11 1.5892 8.368 1.3876 C 8.626 1.186 8.982 1.061 9.375 1.061 Z " stroke-width="0.984702219379113"/>
    <path id="ID0.44971933402121067" fill="#99FFBB" stroke="none" d="M 8.075 3.2885 C 8.289 3.2885 8.483 3.3506 8.623 3.4523 C 8.763 3.5531 8.85 3.6917 8.85 3.8458 C 8.85 3.9999 8.763 4.1385 8.623 4.2393 C 8.483 4.3411 8.289 4.4031 8.075 4.4031 C 7.861 4.4031 7.667 4.3411 7.527 4.2393 C 7.387 4.1385 7.3 3.9999 7.3 3.8458 C 7.3 3.6917 7.387 3.5531 7.527 3.4523 C 7.667 3.3506 7.861 3.2885 8.075 3.2885 Z " stroke-width="0.984702219379113"/>
  </g>
  <g id="ID0.8220732379704714">
    <g id="ID0.20715344790369272">
      <path id="ID0.19440001714974642" fill="#000000" stroke="none" d="M 7.65 1.2 C 8.243 1.2 8.781 1.606 9.17 2.262 C 9.559 2.919 9.8 3.825 9.8 4.825 C 9.8 5.825 9.559 6.731 9.17 7.388 C 8.781 8.044 8.243 8.45 7.65 8.45 C 7.057 8.45 6.519 8.044 6.13 7.388 C 5.741 6.731 5.5 5.825 5.5 4.825 C 5.5 3.825 5.741 2.919 6.13 2.262 C 6.519 1.606 7.057 1.2 7.65 1.2 Z " stroke-width="1"/>
      <path id="ID0.35307061253115535" fill="#FFFFFF" stroke="none" d="M 8.3 1.8 C 8.521 1.8 8.721 1.979 8.866 2.269 C 9.01 2.559 9.1 2.959 9.1 3.4 C 9.1 3.841 9.01 4.241 8.866 4.531 C 8.721 4.821 8.521 5 8.3 5 C 8.079 5 7.879 4.821 7.734 4.531 C 7.59 4.241 7.5 3.841 7.5 3.4 C 7.5 2.959 7.59 2.559 7.734 2.269 C 7.879 1.979 8.079 1.8 8.3 1.8 Z " stroke-width="1"/>
    </g>
    <g id="ID0.20715344790369272">
      <path id="ID0.19440001714974642" fill="#000000" stroke="none" d="M 13.5 1.35 C 14.093 1.35 14.631 1.756 15.02 2.412 C 15.409 3.069 15.65 3.975 15.65 4.975 C 15.65 5.975 15.409 6.881 15.02 7.538 C 14.631 8.194 14.093 8.6 13.5 8.6 C 12.907 8.6 12.369 8.194 11.98 7.538 C 11.591 6.881 11.35 5.975 11.35 4.975 C 11.35 3.975 11.591 3.069 11.98 2.412 C 12.369 1.756 12.907 1.35 13.5 1.35 Z " stroke-width="1"/>
      <path id="ID0.35307061253115535" fill="#FFFFFF" stroke="none" d="M 14.15 1.95 C 14.371 1.95 14.571 2.129 14.716 2.419 C 14.86 2.709 14.95 3.109 14.95 3.55 C 14.95 3.991 14.86 4.391 14.716 4.681 C 14.571 4.971 14.371 5.15 14.15 5.15 C 13.929 5.15 13.729 4.971 13.584 4.681 C 13.44 4.391 13.35 3.991 13.35 3.55 C 13.35 3.109 13.44 2.709 13.584 2.419 C 13.729 2.129 13.929 1.95 14.15 1.95 Z " stroke-width="1"/>
    </g>
  </g>
</svg>