<svg xmlns="http://www.w3.org/2000/svg" xmlns:xlink="http://www.w3.org/1999/xlink" version="1.1" width="20.816803822779402" height="17.133603940272078" viewBox="-0.4615521479962984 -0.21145219100701007 20.816803822779402 17.133603940272078">
  <!-- Exported by Scratch - http://scratch.mit.edu/ -->
  <g id="ID0.6226657046936452">
    <path id="ID0.9160578120499849" fill="#B40101" stroke="none" d="M 14.6554 10.6251 L 10.2248 11.4142 L 10.9153 15.5571 L 15.2555 14.8337 L 14.6554 10.6251 Z " stroke-width="0.999999996596229"/>
    <path id="ID0.5961301568895578" fill="#CC0000" stroke="none" d="M 11.8545 12.789 L 10.3749 13.0356 L 10.8188 15.6989 L 12.2984 15.4523 L 11.8545 12.789 Z " stroke-width="0.999999996596229"/>
  </g>
  <path id="ID0.1019937596283853" fill="#B40101" stroke="none" d="M 19.4584 4.7545 L 14.2591 4.8372 L 14.3418 10.0366 L 19.5411 9.9538 L 19.4584 4.7545 Z " stroke-width="1.2839506015759214"/>
  <g id="ID0.38220522552728653">
    <path id="ID0.9160578120499849" fill="#B40101" stroke="none" d="M 10.4574 11.256 L 5.6844 11.7649 L 6.1297 15.9412 L 10.8032 15.4429 L 10.4574 11.256 Z " stroke-width="1.000000092996043"/>
    <path id="ID0.5961301568895578" fill="#CC0000" stroke="none" d="M 6.7679 12.6178 L 5.2763 12.7768 L 5.6315 16.108 L 7.1231 15.9489 L 6.7679 12.6178 Z " stroke-width="1.126817983695454"/>
  </g>
  <g id="ID0.4915104955434799">
    <path id="ID0.20379002764821053" fill="#CC0000" stroke="none" d="M 17.4604 0.6027 L 2.3126 0.8578 L 2.5256 13.506 L 17.6734 13.2509 L 17.4604 0.6027 Z " stroke-width="1.013449679975364"/>
    <path id="ID0.8935396964661777" fill="#FF0000" stroke="none" d="M 7.7432 0.8096 L 1.2789 0.9185 L 1.4902 13.4667 L 7.9546 13.3579 L 7.7432 0.8096 Z " stroke-width="1.6283043720958073"/>
  </g>
  <path id="ID0.1019937596283853" fill="#CC0000" stroke="none" d="M 5.9027 5.518 L 0.7153 5.1552 L 0.3526 10.3426 L 5.5399 10.7053 L 5.9027 5.518 Z " stroke-width="1.2839506837377772"/>
  <g id="ID0.3748739790171385">
    <path id="ID0.8617808222770691" fill="#CC0000" stroke="none" d="M 9.352 6.9211 L 9.302 6.9222 L 9.302 6.9222 L 9.352 6.9211 L 9.352 6.9211 Z " stroke-width="1.000000001537541"/>
    <path id="ID0.8655728464946151" fill="#000000" stroke="none" stroke-linecap="round" d="M 10.675 3.0988 L 16.1974 4.0804 L 16.2736 7.6296 L 10.7749 7.7477 L 10.675 3.0988 Z " stroke-width="1.0952181053472323"/>
    <path id="ID0.006696532014757395" fill="#990000" stroke="none" d="M 10.7332 2.4866 L 16.3752 3.5956 L 16.2691 4.1353 L 10.6271 3.0263 L 10.7332 2.4866 Z " stroke-width="0.9999999794077643"/>
    <path id="ID0.8491002093069255" fill="#E5E5E5" stroke="none" d="M 15.3737 3.7015 L 14.527 3.7197 L 14.5468 4.6434 L 15.3935 4.6252 L 15.3737 3.7015 Z " stroke-width="1.5398552353172894"/>
  </g>
  <g id="ID0.2829335597343743">
    <path id="ID0.09020493365824223" fill="#000000" stroke="none" d="M 17.5154 8.3127 L 12.6711 8.5469 L 12.7459 10.0951 L 17.5902 9.8609 L 17.5154 8.3127 Z " stroke-width="0.6561999949201969"/>
    <path id="ID0.18048822786659002" fill="#FFFFFF" stroke="none" d="M 17.3576 8.2545 L 13.2124 8.4549 L 13.2389 9.0042 L 17.3841 8.8038 L 17.3576 8.2545 Z " stroke-width="0.7203534720309841"/>
  </g>
</svg>