<svg xmlns="http://www.w3.org/2000/svg" xmlns:xlink="http://www.w3.org/1999/xlink" version="1.1" width="15.118875503540039" height="13.689370155334473" viewBox="-0.11887508630752563 0.013492166996002197 15.118875503540039 13.689370155334473">
  <!-- Exported by Scratch - http://scratch.mit.edu/ -->
  <g id="ID0.9007245465181768">
    <path id="ID0.6487746122293174" fill="#006622" stroke="none" stroke-linecap="round" d="M 6.7685 0.5215 C 8.1108 0.4667 9.5863 0.6815 10.7239 1.5286 C 11.8486 2.3655 12.7885 3.7821 13.3035 5.333 C 13.8917 7.1032 13.8883 9.162 13.8625 11.0955 C 13.8736 11.6998 13.7636 12.5625 13.2606 12.718 C 11.2656 13.3334 9.1624 13.2025 7.1125 13.1656 C 5.2078 13.1309 3.2456 13.1936 1.3943 12.6061 C 0.8767 12.4025 0.4407 11.6304 0.4055 10.9277 C 0.3177 9.1698 0.4588 7.309 0.9644 5.6687 C 1.4253 4.1782 2.1553 2.737 3.157 1.8643 C 4.1966 0.9266 5.5389 0.5719 6.7685 0.5215 Z " stroke-width="0.9978513229001265"/>
    <path id="ID0.6862273388542235" fill="#009933" stroke="none" stroke-linecap="round" d="M 7.0537 0.7942 C 8.3298 0.8267 9.6634 1.14 10.7297 2.0251 C 11.7632 2.8665 12.6429 4.2204 13.0513 5.7176 C 13.4572 7.2024 13.9189 9.3015 13.0513 10.3052 C 11.6136 12.072 9.3719 12.4961 7.4192 12.4872 C 5.2935 12.4771 2.8549 12.0978 1.2711 10.2493 C 0.3398 9.1941 0.9056 6.9607 1.3141 5.4378 C 1.7044 3.9821 2.5222 2.6293 3.5497 1.8013 C 4.5489 0.9889 5.8576 0.7629 7.0537 0.7942 Z " stroke-width="0.9978513229001265"/>
    <path id="ID0.01353864697739482" fill="#00CC44" stroke="none" stroke-linecap="round" d="M 7.1747 1.033 C 8.2134 1.0162 9.3158 1.2198 10.2272 1.8162 C 11.0794 2.4059 11.8094 3.3469 12.2479 4.4457 C 12.6641 5.4875 13.2935 7.0775 12.6349 7.8026 C 11.2496 9.4351 9.204 10.1378 7.3467 10.0964 C 5.4412 10.055 3.3654 9.3288 1.9295 7.6907 C 1.2648 6.932 1.785 5.267 2.1444 4.166 C 2.4875 3.2205 3.1677 2.4014 3.9072 1.9281 C 4.9046 1.2892 6.0938 1.0509 7.1747 1.033 Z " stroke-width="0.9978513229001265"/>
    <path id="ID0.40726609993726015" fill="#99FFBB" stroke="none" d="M 8.2582 1.4615 C 8.5961 1.4615 8.9022 1.6059 9.1241 1.8386 C 9.3459 2.0714 9.4835 2.3936 9.4835 2.7483 C 9.4835 3.103 9.3459 3.4253 9.1241 3.658 C 8.9022 3.8908 8.5961 4.0351 8.2582 4.0351 C 7.9203 4.0351 7.6142 3.8908 7.3923 3.658 C 7.1705 3.4253 7.0329 3.103 7.0329 2.7483 C 7.0329 2.3936 7.1705 2.0714 7.3923 1.8386 C 7.6142 1.6059 7.9203 1.4615 8.2582 1.4615 Z " stroke-width="0.9978513229001265"/>
    <path id="ID0.44971933402121067" fill="#99FFBB" stroke="none" d="M 7.134 4.0426 C 7.318 4.0426 7.4848 4.1142 7.6052 4.2317 C 7.7256 4.348 7.8004 4.5081 7.8004 4.686 C 7.8004 4.8639 7.7256 5.0239 7.6052 5.1403 C 7.4848 5.2577 7.318 5.3294 7.134 5.3294 C 6.9499 5.3294 6.7831 5.2577 6.6628 5.1403 C 6.5424 5.0239 6.4676 4.8639 6.4676 4.686 C 6.4676 4.5081 6.5424 4.348 6.6628 4.2317 C 6.7831 4.1142 6.9499 4.0426 7.134 4.0426 Z " stroke-width="0.9978513229001265"/>
  </g>
  <g id="ID0.8220732379704714">
    <g id="ID0.20715344790369272">
      <path id="ID0.19440001714974642" fill="#000000" stroke="none" d="M 6.5 2 C 7.093 2 7.631 2.406 8.02 3.062 C 8.409 3.719 8.65 4.625 8.65 5.625 C 8.65 6.625 8.409 7.531 8.02 8.188 C 7.631 8.844 7.093 9.25 6.5 9.25 C 5.907 9.25 5.369 8.844 4.98 8.188 C 4.591 7.531 4.35 6.625 4.35 5.625 C 4.35 4.625 4.591 3.719 4.98 3.062 C 5.369 2.406 5.907 2 6.5 2 Z " stroke-width="1"/>
      <path id="ID0.35307061253115535" fill="#FFFFFF" stroke="none" d="M 7.15 2.6 C 7.371 2.6 7.571 2.779 7.716 3.069 C 7.86 3.359 7.95 3.759 7.95 4.2 C 7.95 4.641 7.86 5.041 7.716 5.331 C 7.571 5.621 7.371 5.8 7.15 5.8 C 6.929 5.8 6.729 5.621 6.584 5.331 C 6.44 5.041 6.35 4.641 6.35 4.2 C 6.35 3.759 6.44 3.359 6.584 3.069 C 6.729 2.779 6.929 2.6 7.15 2.6 Z " stroke-width="1"/>
    </g>
    <g id="ID0.20715344790369272">
      <path id="ID0.19440001714974642" fill="#000000" stroke="none" d="M 12.35 2.15 C 12.943 2.15 13.481 2.556 13.87 3.212 C 14.259 3.869 14.5 4.775 14.5 5.775 C 14.5 6.775 14.259 7.681 13.87 8.338 C 13.481 8.994 12.943 9.4 12.35 9.4 C 11.757 9.4 11.219 8.994 10.83 8.338 C 10.441 7.681 10.2 6.775 10.2 5.775 C 10.2 4.775 10.441 3.869 10.83 3.212 C 11.219 2.556 11.757 2.15 12.35 2.15 Z " stroke-width="1"/>
      <path id="ID0.35307061253115535" fill="#FFFFFF" stroke="none" d="M 13 2.75 C 13.221 2.75 13.421 2.929 13.566 3.219 C 13.71 3.509 13.8 3.909 13.8 4.35 C 13.8 4.791 13.71 5.191 13.566 5.481 C 13.421 5.771 13.221 5.95 13 5.95 C 12.779 5.95 12.579 5.771 12.434 5.481 C 12.29 5.191 12.2 4.791 12.2 4.35 C 12.2 3.909 12.29 3.509 12.434 3.219 C 12.579 2.929 12.779 2.75 13 2.75 Z " stroke-width="1"/>
    </g>
  </g>
</svg>