<svg xmlns="http://www.w3.org/2000/svg" xmlns:xlink="http://www.w3.org/1999/xlink" version="1.1" width="33.29762017698556" height="36.323569655134975" viewBox="-7.092016994811445 -7.552653491355329 33.29762017698556 36.323569655134975">
  <!-- Exported by Scratch - http://scratch.mit.edu/ -->
  <g id="ID0.42775970324873924">
    <g id="ID0.30696602864190936">
      <path id="ID0.637318427208811" fill="#FAA51D" stroke="none" stroke-linecap="round" d="M 4.1518 15.6622 C 4.8462 15.7953 5.6161 15.4013 6.2952 15.6198 C 6.6183 15.7251 6.8375 16.1583 6.7184 16.4187 C 6.5847 16.813 6.1283 17.0063 5.7295 17.0785 C 5.1233 17.2084 4.5088 17.2096 3.8583 17.097 C 3.1415 16.9734 2.3959 16.8307 1.764 16.474 C 1.4446 16.3264 1.0489 15.9968 1.1311 15.6544 C 1.2261 15.2615 1.7134 14.9348 2.1375 14.9284 C 2.8338 14.9244 3.4346 15.5606 4.1518 15.6622 Z " stroke-width="1.0840335996976231"/>
      <path id="ID0.9894068208523095" fill="#FFFFFF" stroke="none" stroke-linecap="round" d="M 1.8001 14.8429 C 2.3527 14.7183 3.1359 15.0441 3.4577 15.4482 C 3.6219 15.5909 2.8927 15.6806 2.7718 15.9386 C 2.643 16.2171 3.0965 16.8607 2.8434 16.8296 C 2.2497 16.8309 1.3721 16.4652 1.0787 15.8768 C 0.8916 15.5017 1.3913 14.9354 1.8001 14.8429 Z " stroke-width="1.0840335996976231"/>
    </g>
    <path id="ID0.19551143841817975" fill="#DB861B" stroke="none" stroke-width="16.260506987288295" stroke-linecap="round" d="M 5.9385 16.7617 C 5.7488 16.5218 5.3097 16.4838 5.0289 16.6045 C 4.3331 16.9033 3.7761 17.469 3.2144 17.9835 C 2.6683 18.4609 2.0377 18.8932 1.6571 19.5006 C 1.5628 19.7493 1.7939 20.0352 1.9783 20.2215 C 2.1974 20.4424 2.4736 20.6776 2.7497 20.6358 C 3.1846 20.5472 3.5038 20.1737 3.8164 19.8834 C 4.5598 19.1941 5.3704 18.553 5.9689 17.7262 C 6.1183 17.4539 6.1308 17.0064 5.9385 16.7617 Z "/>
    <path id="ID0.9358589742332697" fill="#DB861B" stroke="none" stroke-width="16.260503510984815" stroke-linecap="round" d="M 14.6163 12.3327 C 14.3851 12.11 13.8628 12.1038 13.4859 12.1611 C 12.8739 12.2549 12.376 12.5252 11.8659 12.7831 C 11.4649 12.9705 10.8803 13.0457 10.6797 13.4581 C 10.5694 13.769 10.8492 14.3229 11.1787 14.3655 C 11.8619 14.4522 12.5107 14.0067 13.1615 13.7673 C 13.627 13.5963 14.1314 13.4619 14.4686 13.1003 C 14.6706 12.9319 14.7939 12.5062 14.6163 12.3327 Z "/>
    <g id="ID0.40368221141397953">
      <path id="ID0.6198067106306553" fill="#FAA51D" stroke="none" stroke-linecap="round" d="M 10.6618 12.5593 C 11.0164 12.9359 11.627 13.3817 11.4465 13.8821 C 11.1461 14.8807 10.2111 15.6044 9.4517 16.3336 C 8.6939 17.0612 7.8899 17.9559 6.8441 18.3246 C 6.4048 18.4584 5.9207 17.992 5.5606 17.653 C 5.219 17.3292 4.8231 16.8008 4.9675 16.3686 C 5.2634 15.367 6.0412 14.5657 6.7324 13.8403 C 7.521 13.0146 8.2882 12.0309 9.3785 11.6577 C 9.87 11.4886 10.3049 12.1788 10.6618 12.5593 Z " stroke-width="1.0840335051176662"/>
      <path id="ID0.21503017749637365" fill="#FFFFFF" stroke="none" stroke-linecap="round" d="M 9.8007 14.2431 C 10.0114 14.4556 10.0479 14.8465 9.915 15.1247 C 9.644 15.7416 9.15 16.2732 8.6682 16.7527 C 8.1144 17.3041 7.5429 17.8733 6.8083 18.2268 C 6.5653 18.3225 6.2396 18.1636 5.9653 17.9963 C 5.6864 17.8152 5.3011 17.4584 5.4294 17.1527 C 5.7665 16.3535 6.5511 15.7308 7.2322 15.1227 C 7.684 14.7191 8.2224 14.2841 8.8427 14.0508 C 9.1356 13.9713 9.5717 14.0137 9.8007 14.2431 Z " stroke-width="1.0840335051176662"/>
    </g>
    <g id="ID0.6909988787956536">
      <g id="ID0.847524844110012">
        <path id="ID0.10025785537436604" fill="#FAA51D" stroke="none" d="M 9.4564 2.9163 C 11.0814 2.5955 12.6701 2.8981 13.9257 3.646 C 15.1802 4.3941 16.1016 5.5873 16.39 7.0481 C 16.6783 8.5089 16.2795 9.9627 15.4033 11.1314 C 14.5261 12.3003 13.1716 13.184 11.5466 13.5047 C 9.9216 13.8255 8.3329 13.5229 7.0773 12.775 C 5.8228 12.0269 4.9014 10.8337 4.613 9.3729 C 4.3246 7.9121 4.7235 6.4583 5.5996 5.2896 C 6.4769 4.1207 7.8314 3.237 9.4564 2.9163 Z " stroke-width="1.101308976288581"/>
        <path id="ID0.23814574256539345" fill="#FAA51D" stroke="none" stroke-linecap="round" d="M 2.8875 3.3386 L 7.5179 4.3329 L 4.5169 8.1808 L 2.8875 3.3386 Z " stroke-width="1.101308976288581"/>
        <path id="ID0.23814574256539345" fill="#FAA51D" stroke="none" stroke-linecap="round" d="M 13.175 0.5776 L 9.5953 3.6785 L 14.0782 5.606 L 13.175 0.5776 Z " stroke-width="1.1013088889238356"/>
        <path id="ID0.46886637480929494" fill="#FFFFFF" stroke="none" stroke-linecap="round" d="M 13.3098 8.6582 C 14.2261 8.3751 14.7555 7.1278 15.7003 7.1198 C 16.6338 7.1118 17.8394 7.8055 18.029 8.6807 C 18.254 9.7297 17.6289 10.9588 16.8228 11.6691 C 15.7419 12.6818 14.2257 13.1045 12.774 13.4787 C 11.8254 13.7232 10.7719 13.7774 9.8311 13.4983 C 9.0673 13.2742 8.0812 12.8279 7.8045 12.0462 C 7.5723 11.1771 7.8135 9.9025 8.5778 9.4239 C 9.9335 8.5748 11.8055 9.1583 13.3098 8.6582 Z " stroke-width="1.101308976288581"/>
        <path id="ID0.2958779144100845" fill="#666666" stroke="none" stroke-linecap="round" d="M 12.8797 8.1742 C 13.2145 8.0565 13.7515 7.8483 13.8734 8.0903 C 14.0364 8.3983 13.8659 9.1156 13.4818 9.2341 C 12.983 9.4201 12.1523 9.0789 11.9819 8.7444 C 11.8646 8.5082 12.5343 8.2559 12.8797 8.1742 Z " stroke-width="1.101308976288581"/>
      </g>
      <g id="ID0.26280788984149694">
        <g id="ID0.2985607646405697">
          <path id="ID0.6929170889779925" fill="#000000" stroke="none" d="M 13.3431 3.9361 C 13.678 3.8699 14.0215 4.0064 14.3036 4.2808 C 14.5867 4.5549 14.8096 4.9678 14.9052 5.4519 C 15.0007 5.9359 14.9514 6.4025 14.7937 6.7637 C 14.6371 7.1246 14.3712 7.3814 14.0363 7.4475 C 13.7013 7.5137 13.3578 7.3772 13.0758 7.1028 C 12.7926 6.8287 12.5697 6.4158 12.4741 5.9318 C 12.3786 5.4477 12.4279 4.9811 12.5856 4.6199 C 12.7423 4.259 13.0081 4.0022 13.3431 3.9361 Z " stroke-width="1.101308976288581"/>
          <path id="ID0.02252052817493677" fill="#CCCCCC" stroke="none" d="M 13.7612 4.2127 C 13.8876 4.1878 14.0235 4.2676 14.1385 4.4178 C 14.2545 4.5677 14.3516 4.7865 14.4017 5.0405 C 14.4518 5.2944 14.4452 5.5337 14.3949 5.7165 C 14.3456 5.8991 14.2502 6.0245 14.1238 6.0495 C 13.9974 6.0744 13.8615 5.9946 13.7466 5.8444 C 13.6305 5.6945 13.5335 5.4757 13.4833 5.2217 C 13.4332 4.9678 13.4399 4.7285 13.4902 4.5457 C 13.5395 4.3631 13.6348 4.2377 13.7612 4.2127 Z " stroke-width="1.101308976288581"/>
        </g>
        <g id="ID0.2985607646405697">
          <path id="ID0.6929170889779925" fill="#000000" stroke="none" d="M 9.3289 4.9355 C 9.6638 4.8693 10.0073 5.0058 10.2894 5.2802 C 10.5725 5.5543 10.7954 5.9672 10.891 6.4513 C 10.9865 6.9353 10.9372 7.4019 10.7795 7.7631 C 10.6229 8.124 10.357 8.3808 10.0221 8.447 C 9.6871 8.5131 9.3436 8.3766 9.0616 8.1022 C 8.7785 7.8281 8.5555 7.4152 8.46 6.9312 C 8.3644 6.4471 8.4137 5.9805 8.5714 5.6193 C 8.7281 5.2584 8.9939 5.0016 9.3289 4.9355 Z " stroke-width="1.101308976288581"/>
          <path id="ID0.02252052817493677" fill="#CCCCCC" stroke="none" d="M 9.6918 5.1679 C 9.8182 5.143 9.9541 5.2228 10.0691 5.373 C 10.1851 5.523 10.2822 5.7418 10.3323 5.9957 C 10.3824 6.2496 10.3758 6.4889 10.3255 6.6717 C 10.2762 6.8543 10.1808 6.9798 10.0544 7.0047 C 9.928 7.0297 9.7921 6.9499 9.6772 6.7997 C 9.5611 6.6497 9.4641 6.4309 9.4139 6.177 C 9.3638 5.9231 9.3705 5.6838 9.4208 5.501 C 9.4701 5.3184 9.5654 5.1929 9.6918 5.1679 Z " stroke-width="1.101308976288581"/>
        </g>
      </g>
    </g>
    <path id="ID0.9358589742332697" fill="#F9B341" stroke="none" stroke-width="16.260503245403438" stroke-linecap="round" d="M 3.6498 14.6114 C 3.6262 14.2495 4.0541 13.8963 4.3751 13.668 C 4.8944 13.3006 5.4414 13.066 5.9878 12.8868 C 6.5717 12.6991 7.2184 12.3906 7.736 12.5772 C 8.0583 12.6966 8.23 13.307 8.0279 13.5708 C 7.6078 14.1165 6.8485 14.3026 6.2059 14.5554 C 5.6625 14.7675 5.0096 14.9015 4.3574 14.9062 C 4.1278 14.921 3.6896 14.8846 3.6498 14.6114 Z "/>
    <path id="ID0.19551143841817975" fill="#FAA51D" stroke="none" stroke-linecap="round" d="M 9.0254 16.4219 C 8.7586 16.1909 8.2474 16.2221 7.8743 16.3678 C 7.3065 16.6048 6.8497 17.0997 6.3559 17.5063 C 5.7965 17.9663 5.1485 18.3793 4.7602 18.9831 C 4.6517 19.2245 4.8892 19.5162 5.0629 19.7119 C 5.2767 19.9546 5.5713 20.2258 5.8996 20.1545 C 6.3012 20.1108 6.5914 19.7303 6.9091 19.4209 C 7.6421 18.7091 8.4401 18.037 9.0147 17.1922 C 9.1917 16.9393 9.224 16.5811 9.0254 16.4219 Z " stroke-width="1.0840336625903493"/>
  </g>
</svg>