<svg xmlns="http://www.w3.org/2000/svg" xmlns:xlink="http://www.w3.org/1999/xlink" version="1.1" width="22.856158610094166" height="9.915170069444752" viewBox="-0.30289721285729443 -0.11084279214768444 22.856158610094166 9.915170069444752">
  <!-- Exported by Scratch - http://scratch.mit.edu/ -->
  <g id="ID0.9007245465181768">
    <path id="ID0.6487746122293174" fill="#006622" stroke="none" stroke-linecap="round" d="M 10.5492 0.456 C 12.7117 0.418 15.089 0.5668 16.9218 1.1537 C 18.7339 1.7337 20.248 2.7153 21.0779 3.7899 C 22.0255 5.0164 22.0199 6.4431 21.9784 7.7828 C 21.9964 8.2015 21.819 8.7993 21.0086 8.9071 C 17.7946 9.3335 14.406 9.2428 11.1034 9.2172 C 8.0348 9.1932 4.8734 9.2366 1.8908 8.8295 C 1.0568 8.6884 0.3544 8.1534 0.2976 7.6665 C 0.1563 6.4485 0.3835 5.1591 1.1981 4.0225 C 1.9406 2.9897 3.1168 1.9911 4.7307 1.3863 C 6.4056 0.7366 8.5682 0.4908 10.5492 0.456 Z " stroke-width="1.122571345079518"/>
    <path id="ID0.6862273388542235" fill="#009933" stroke="none" stroke-linecap="round" d="M 11.1087 0.5689 C 13.1645 0.5914 15.3132 0.8085 17.0311 1.4218 C 18.6962 2.0049 20.1135 2.943 20.7715 3.9804 C 21.4254 5.0093 22.1693 6.4638 20.7715 7.1593 C 18.4552 8.3835 14.8436 8.6774 11.6975 8.6712 C 8.2729 8.6642 4.344 8.4013 1.7922 7.1205 C 0.2919 6.3894 1.2034 4.8418 1.8615 3.7866 C 2.4904 2.7779 3.8079 1.8405 5.4634 1.2667 C 7.0732 0.7039 9.1817 0.5472 11.1087 0.5689 Z " stroke-width="1.122571345079518"/>
    <path id="ID0.01353864697739482" fill="#00CC44" stroke="none" stroke-linecap="round" d="M 11.1506 0.7515 C 12.8241 0.7399 14.6002 0.881 16.0686 1.2943 C 17.4415 1.7029 18.6177 2.3549 19.3242 3.1163 C 19.9947 3.8381 21.0088 4.9399 19.9476 5.4423 C 17.7158 6.5735 14.4201 7.0604 11.4277 7.0317 C 8.3578 7.003 5.0135 6.4998 2.7 5.3648 C 1.6291 4.8391 2.4673 3.6854 3.0463 2.9225 C 3.5991 2.2673 4.6949 1.6998 5.8863 1.3718 C 7.4933 0.9291 9.4093 0.764 11.1506 0.7515 Z " stroke-width="1.122571345079518"/>
    <path id="ID0.40726609993726015" fill="#99FFBB" stroke="none" d="M 12.9316 1.1088 C 13.4761 1.1088 13.9692 1.2088 14.3267 1.3701 C 14.6841 1.5314 14.9057 1.7547 14.9057 2.0004 C 14.9057 2.2462 14.6841 2.4695 14.3267 2.6308 C 13.9692 2.7921 13.4761 2.8921 12.9316 2.8921 C 12.3872 2.8921 11.894 2.7921 11.5366 2.6308 C 11.1791 2.4695 10.9575 2.2462 10.9575 2.0004 C 10.9575 1.7547 11.1791 1.5314 11.5366 1.3701 C 11.894 1.2088 12.3872 1.1088 12.9316 1.1088 Z " stroke-width="1.122571345079518"/>
    <path id="ID0.44971933402121067" fill="#99FFBB" stroke="none" d="M 11.138 2.8808 C 11.4344 2.8808 11.7032 2.9305 11.8972 3.0119 C 12.0911 3.0925 12.2116 3.2034 12.2116 3.3267 C 12.2116 3.4499 12.0911 3.5608 11.8972 3.6414 C 11.7032 3.7229 11.4344 3.7725 11.138 3.7725 C 10.8415 3.7725 10.5728 3.7229 10.3788 3.6414 C 10.1849 3.5608 10.0643 3.4499 10.0643 3.3267 C 10.0643 3.2034 10.1849 3.0925 10.3788 3.0119 C 10.5728 2.9305 10.8415 2.8808 11.138 2.8808 Z " stroke-width="1.122571345079518"/>
  </g>
  <g id="ID0.41927978210151196">
    <g id="ID0.20715344790369272">
      <path id="ID0.19440001714974642" fill="#000000" stroke="none" d="M 7.6 0.9 C 8.193 0.9 8.731 1.306 9.12 1.962 C 9.509 2.619 9.75 3.525 9.75 4.525 C 9.75 5.525 9.509 6.431 9.12 7.088 C 8.731 7.744 8.193 8.15 7.6 8.15 C 7.007 8.15 6.469 7.744 6.08 7.088 C 5.691 6.431 5.45 5.525 5.45 4.525 C 5.45 3.525 5.691 2.619 6.08 1.962 C 6.469 1.306 7.007 0.9 7.6 0.9 Z " stroke-width="1"/>
      <path id="ID0.35307061253115535" fill="#FFFFFF" stroke="none" d="M 8.25 1.5 C 8.471 1.5 8.671 1.679 8.816 1.969 C 8.96 2.259 9.05 2.659 9.05 3.1 C 9.05 3.541 8.96 3.941 8.816 4.231 C 8.671 4.521 8.471 4.7 8.25 4.7 C 8.029 4.7 7.829 4.521 7.684 4.231 C 7.54 3.941 7.45 3.541 7.45 3.1 C 7.45 2.659 7.54 2.259 7.684 1.969 C 7.829 1.679 8.029 1.5 8.25 1.5 Z " stroke-width="1"/>
    </g>
    <g id="ID0.20715344790369272">
      <path id="ID0.19440001714974642" fill="#000000" stroke="none" d="M 14.45 1.1 C 15.043 1.1 15.581 1.506 15.97 2.162 C 16.359 2.819 16.6 3.725 16.6 4.725 C 16.6 5.725 16.359 6.631 15.97 7.288 C 15.581 7.944 15.043 8.35 14.45 8.35 C 13.857 8.35 13.319 7.944 12.93 7.288 C 12.541 6.631 12.3 5.725 12.3 4.725 C 12.3 3.725 12.541 2.819 12.93 2.162 C 13.319 1.506 13.857 1.1 14.45 1.1 Z " stroke-width="1"/>
      <path id="ID0.35307061253115535" fill="#FFFFFF" stroke="none" d="M 15.1 1.7 C 15.321 1.7 15.521 1.879 15.666 2.169 C 15.81 2.459 15.9 2.859 15.9 3.3 C 15.9 3.741 15.81 4.141 15.666 4.431 C 15.521 4.721 15.321 4.9 15.1 4.9 C 14.879 4.9 14.679 4.721 14.534 4.431 C 14.39 4.141 14.3 3.741 14.3 3.3 C 14.3 2.859 14.39 2.459 14.534 2.169 C 14.679 1.879 14.879 1.7 15.1 1.7 Z " stroke-width="1"/>
    </g>
  </g>
</svg>