<svg xmlns="http://www.w3.org/2000/svg" xmlns:xlink="http://www.w3.org/1999/xlink" version="1.1" width="10.529508597838584" height="18.151268012511434" viewBox="0.0988643133701369 -0.2157225346504167 10.529508597838584 18.151268012511434">
  <!-- Exported by Scratch - http://scratch.mit.edu/ -->
  <g id="ID0.5668268920853734">
    <path id="ID0.6798444245941937" fill="#000000" stroke="none" stroke-linecap="round" d="M 1.0034 10.4902 C 0.9939 10.2263 1.264 9.9987 1.4962 9.9337 C 2.038 9.7646 2.6171 9.7651 3.1941 9.7615 C 3.7081 9.7578 4.2169 9.7432 4.6959 9.892 C 4.959 9.9725 5.2177 10.1812 5.203 10.4354 C 5.2455 10.7029 5.03 10.9737 4.7615 11.0912 C 4.2991 11.2913 3.7723 11.3111 3.2643 11.3108 C 2.6632 11.3096 2.0555 11.3385 1.5118 11.1336 C 1.2363 11.0222 1.0008 10.7502 1.0034 10.4902 Z " stroke-width="1.0000000071403414"/>
    <path id="ID0.1390668787062168" fill="#000000" stroke="none" stroke-linecap="round" d="M 0.7608 14.8937 C 0.8343 14.7038 1.865 15.5174 2.4711 15.6715 C 3.4183 15.9121 4.3968 16.1694 5.3774 16.1336 C 6.4299 16.0929 7.4501 15.7155 8.4686 15.4432 C 8.9998 15.3013 9.9762 14.6315 10.1113 14.8717 C 10.2446 15.121 9.5718 16.1359 8.9816 16.4366 C 7.9304 17.0374 6.669 17.3969 5.4443 17.4328 C 4.2947 17.4658 3.0941 17.2005 2.0842 16.6766 C 1.4393 16.303 0.6863 15.0867 0.7608 14.8937 Z " stroke-width="1.0000000071403414"/>
    <path id="ID0.1390668787062168" fill="#000000" stroke="none" stroke-linecap="round" d="M 0.6049 2.9447 C 0.6834 3.1327 1.6925 2.2925 2.2943 2.1226 C 3.2349 1.8573 4.2063 1.5746 5.1875 1.5848 C 6.2408 1.5981 7.2705 1.9487 8.2958 2.1943 C 8.8305 2.3224 9.824 2.9665 9.9528 2.7228 C 10.0795 2.4701 9.3804 1.4731 8.7827 1.1879 C 7.7161 0.6148 6.4457 0.2883 5.2206 0.2843 C 4.0704 0.2813 2.8772 0.5779 1.8813 1.1279 C 1.2463 1.5183 0.5254 2.7538 0.6049 2.9447 Z " stroke-width="1.0000000071403414"/>
    <path id="ID0.6798444245941937" fill="#000000" stroke="none" stroke-linecap="round" d="M 0.9653 3.7401 C 0.9559 3.4762 1.2259 3.2487 1.4581 3.1836 C 1.9999 3.0146 2.579 3.015 3.156 3.0115 C 3.67 3.0078 4.1788 2.9931 4.6578 3.1419 C 4.9209 3.2225 5.1796 3.4311 5.1649 3.6853 C 5.2074 3.9528 4.992 4.2236 4.7235 4.3411 C 4.261 4.5412 3.7343 4.5611 3.2262 4.5607 C 2.6251 4.5595 2.0175 4.5885 1.4737 4.3835 C 1.1983 4.2721 0.9627 4.0002 0.9653 3.7401 Z " stroke-width="1.0000000071403414"/>
    <path id="ID0.9753554817289114" fill="#000000" stroke="none" stroke-linecap="round" d="M 3.5666 7.6565 C 3.6481 7.0044 4.1011 6.4634 4.4944 5.9443 C 4.6703 5.7049 4.8937 5.429 5.1871 5.3852 C 5.4666 5.3445 5.6862 5.5377 5.8416 5.7267 C 6.2704 6.2421 6.7297 6.7972 6.8644 7.4635 C 6.9281 7.6676 6.5133 7.9181 6.319 7.8206 C 5.8348 7.5769 5.7272 6.6172 5.2041 6.6851 C 4.6533 6.7062 4.6552 7.6963 4.1711 7.9986 C 3.9747 8.1212 3.5106 7.8813 3.5666 7.6565 Z " stroke-width="1.0000000071403414"/>
  </g>
</svg>