<svg xmlns="http://www.w3.org/2000/svg" xmlns:xlink="http://www.w3.org/1999/xlink" version="1.1" width="124.56149406342232" height="81.02318687348091" viewBox="-0.40649584486347123 -0.7031959052310555 124.56149406342232 81.02318687348091">
  <!-- Exported by Scratch - http://scratch.mit.edu/ -->
  <g id="ID0.376399417873472">
    <path id="ID0.02123413048684597" fill="#000000" stroke="none" stroke-linecap="round" d="M 0.9131 1.2762 L 9.7544 0.6164 L 46.1753 47.8579 L 39.8412 51.0249 L 0.9131 1.2762 Z " stroke-width="2.639191817328566"/>
    <path id="ID0.6659014704637229" fill="#000000" stroke="none" stroke-linecap="round" d="M 118.0848 2.5958 L 122.8354 2.9917 L 104.8888 54.4559 L 94.0682 53.4002 L 118.0848 2.5958 Z " stroke-width="2.639191817328566"/>
    <path id="ID0.7279596473090351" fill="#000000" stroke="none" stroke-linecap="round" d="M 79.5526 53.4002 L 106.6043 2.5958 L 110.5631 2.9917 L 88.5259 53.1363 L 79.5526 53.4002 Z " stroke-width="2.639191817328566"/>
    <path id="ID0.7814334505237639" fill="#000000" stroke="none" stroke-linecap="round" d="M 37.8618 45.2187 L 108.1963 45.2187 L 108.1963 75.8333 L 93.0209 77.2849 L 91.7013 78.7365 L 70.5878 79.0004 L 70.06 77.1529 L 57.6558 76.889 L 57.1279 75.4375 L 52.3774 75.8333 L 50.266 78.0767 L 44.3278 78.0767 L 43.932 75.8333 L 37.8618 75.8333 L 37.8618 45.2187 Z " stroke-width="2.639191817328566"/>
    <path id="ID0.5189053383655846" fill="#E5E5E5" stroke="none" d="M 42.3733 49.1521 L 103.4706 49.1521 L 103.4706 71.5852 L 42.3733 71.5852 L 42.3733 49.1521 Z " stroke-width="2.639191817328566"/>
    <path id="ID0.5335552911274135" fill="#FFFFFF" stroke="none" d="M 42.5649 49.118 L 102.8705 49.118 L 102.8705 53.4726 L 42.5649 53.4726 L 42.5649 49.118 Z " stroke-width="2.639191817328566"/>
    <path id="ID0.01750966627150774" fill="#CCCCCC" stroke="none" d="M 42.1691 68.9119 L 103.2664 68.9119 L 103.2664 71.1552 L 42.1691 71.1552 L 42.1691 68.9119 Z " stroke-width="2.639191817328566"/>
  </g>
</svg>