<svg xmlns="http://www.w3.org/2000/svg" xmlns:xlink="http://www.w3.org/1999/xlink" version="1.1" width="17.81539086247132" height="17.330091752058724" viewBox="-0.5379456467660567 -0.10824562979065389 17.81539086247132 17.330091752058724">
  <!-- Exported by Scratch - http://scratch.mit.edu/ -->
  <path id="ID0.09066551923751831" fill="#B40101" stroke="none" d="M 4.6647 12.2177 L 1.2238 11.774 L 0.7123 15.7412 L 4.1533 16.1848 L 4.6647 12.2177 Z " stroke-width="0.9574941352997981"/>
  <path id="ID0.09066551923751831" fill="#B40101" stroke="none" d="M 14.506 11.8029 L 10.8938 12.3266 L 11.4677 16.2852 L 15.0799 15.7615 L 14.506 11.8029 Z " stroke-width="0.9804618141117454"/>
  <g id="ID0.08273157011717558">
    <path id="ID0.20379002764821053" fill="#CC0000" stroke="none" d="M 16.3408 1.2876 L 6.7372 1.0604 L 6.4379 13.7069 L 16.0416 13.9341 L 16.3408 1.2876 Z " stroke-width="0.8116599949351925"/>
    <path id="ID0.8935396964661777" fill="#FF0000" stroke="none" d="M 8.2934 1.0081 L 0.6956 0.8284 L 0.3987 13.3748 L 7.9966 13.5546 L 8.2934 1.0081 Z " stroke-width="1.873291291243295"/>
  </g>
  <path id="ID0.1019937596283853" fill="#CC0000" stroke="none" d="M 9.0871 8.8117 L 3.8934 8.5559 L 3.6376 13.7496 L 8.8313 14.0054 L 9.0871 8.8117 Z " stroke-width="1.2839504978325567"/>
  <path id="ID0.8617808222770691" fill="#CC0000" stroke="none" d="M 6.2032 7.0745 L 6.1538 7.0667 L 6.1538 7.0667 L 6.2032 7.0745 L 6.2032 7.0745 Z " stroke-width="0.9999999766464479"/>
  <g id="ID0.6190438214689493">
    <path id="ID0.09020493365824223" fill="#000000" stroke="none" d="M 16.1418 8.3808 L 12.2265 8.2835 L 12.1879 9.833 L 16.1033 9.9303 L 16.1418 8.3808 Z " stroke-width="0.602781508934987"/>
    <path id="ID0.18048822786659002" fill="#FFFFFF" stroke="none" d="M 15.9995 8.5862 L 13.3503 8.5204 L 13.3367 9.0702 L 15.9858 9.1361 L 15.9995 8.5862 Z " stroke-width="0.6280106351641983"/>
    <path id="ID0.5967760691419244" fill="#E5E5E5" stroke="none" d="M 15.8796 9.3584 L 13.5303 9.3 L 13.5154 9.8998 L 15.8647 9.9582 L 15.8796 9.3584 Z " stroke-width="0.6224253821581038"/>
  </g>
  <g id="ID0.6651764921844006">
    <path id="ID0.8655728464946151" fill="#000000" stroke="none" stroke-linecap="round" d="M 10.1521 3.3026 L 15.5721 4.5768 L 15.3635 7.3637 L 9.8788 6.953 L 10.1521 3.3026 Z " stroke-width="1.0046748347561354"/>
    <path id="ID0.006696532014757395" fill="#990000" stroke="none" d="M 10.1956 2.8344 L 15.8145 4.0548 L 15.6978 4.5923 L 10.0788 3.3718 L 10.1956 2.8344 Z " stroke-width="0.9999999870441129"/>
    <path id="ID0.8491002093069255" fill="#E5E5E5" stroke="none" d="M 14.685 4.4271 L 13.8404 4.3639 L 13.7714 5.2852 L 14.616 5.3484 L 14.685 4.4271 Z " stroke-width="1.539855374892966"/>
  </g>
</svg>