<svg xmlns="http://www.w3.org/2000/svg" xmlns:xlink="http://www.w3.org/1999/xlink" version="1.1" width="44.35124007222324" height="44.35124007222324" viewBox="-0.3981709647043028 -0.3323708939416685 44.35124007222324 44.35124007222324">
  <!-- Exported by Scratch - http://scratch.mit.edu/ -->
  <g id="ID0.49222202645614743">
    <g id="ID0.25541364355012774">
      <path id="ID0.48833495704457164" fill="#E10101" stroke="none" d="M 13.2608 2.3057 L 41.239 13.2382 L 30.3065 41.2163 L 2.3283 30.2838 L 13.2608 2.3057 Z " stroke-width="1.8715418042845302"/>
      <path id="ID0.48833495704457164" fill="#E10101" stroke="none" d="M 29.2943 2.1869 L 41.3041 29.7198 L 13.7713 41.7297 L 1.7614 14.1968 L 29.2943 2.1869 Z " stroke-width="1.8715418271420825"/>
    </g>
    <g id="ID0.25541364355012774">
      <path id="ID0.48833495704457164" fill="#E05252" stroke="none" d="M 21.6484 0.6034 L 43.0173 21.7143 L 21.9064 43.0831 L 0.5376 21.9723 L 21.6484 0.6034 Z " stroke-width="1.871541891070898"/>
      <path id="ID0.48833495704457164" fill="#E05252" stroke="none" d="M 36.5535 6.843 L 36.6887 36.881 L 6.6508 37.0162 L 6.5155 6.9783 L 36.5535 6.843 Z " stroke-width="1.871541882245776"/>
    </g>
    <g id="ID0.25541364355012774">
      <path id="ID0.48833495704457164" fill="#909090" stroke="none" d="M 21.738 6.2897 L 37.7966 21.9279 L 22.1585 37.9866 L 6.0998 22.3484 L 21.738 6.2897 Z " stroke-width="1.3965734112507435"/>
      <path id="ID0.48833495704457164" fill="#909090" stroke="none" d="M 32.8947 10.8919 L 33.1568 33.3053 L 10.7433 33.5675 L 10.4812 11.154 L 32.8947 10.8919 Z " stroke-width="1.3965734287981557"/>
    </g>
    <g id="ID0.25541364355012774">
      <path id="ID0.48833495704457164" fill="#7F7F7F" stroke="none" d="M 15.2695 7.4999 L 36.3341 15.1625 L 28.6716 36.2271 L 7.607 28.5645 L 15.2695 7.4999 Z " stroke-width="1.3965734352874484"/>
      <path id="ID0.48833495704457164" fill="#7F7F7F" stroke="none" d="M 27.3774 7.1032 L 36.8221 27.4312 L 16.4941 36.876 L 7.0493 16.548 L 27.3774 7.1032 Z " stroke-width="1.3965734524732976"/>
    </g>
    <g id="ID0.25541364355012774">
      <path id="ID0.48833495704457164" fill="#B2B2B2" stroke="none" d="M 11.4806 17.1523 L 26.4608 11.3907 L 32.2224 26.3709 L 17.2422 32.1325 L 11.4806 17.1523 Z " stroke-width="1.0000000078817934"/>
      <path id="ID0.48833495704457164" fill="#B2B2B2" stroke="none" d="M 17.8036 11.2226 L 32.4601 17.7641 L 25.9185 32.4205 L 11.2621 25.879 L 17.8036 11.2226 Z " stroke-width="0.9999999934167718"/>
    </g>
    <g id="ID0.25541364355012774">
      <path id="ID0.48833495704457164" fill="#C6C6C6" stroke="none" d="M 13.85 13.95 L 29.9 13.95 L 29.9 30 L 13.85 30 L 13.85 13.95 Z " stroke-width="1"/>
      <path id="ID0.48833495704457164" fill="#C6C6C6" stroke="none" d="M 21.9779 10.6874 L 33.3091 22.0543 L 21.9423 33.3855 L 10.611 22.0186 L 21.9779 10.6874 Z " stroke-width="0.9999999928324588"/>
    </g>
    <path id="ID0.6092350943945348" fill="#666666" stroke="none" d="M 22 19.05 C 22.828 19.05 23.578 19.386 24.121 19.929 C 24.664 20.472 25 21.222 25 22.05 C 25 22.878 24.664 23.628 24.121 24.171 C 23.578 24.714 22.828 25.05 22 25.05 C 21.172 25.05 20.422 24.714 19.879 24.171 C 19.336 23.628 19 22.878 19 22.05 C 19 21.222 19.336 20.472 19.879 19.929 C 20.422 19.386 21.172 19.05 22 19.05 Z " stroke-width="1"/>
  </g>
  <path id="ID0.7252319068647921" fill="#E05252" stroke="none" d="M 17.2342 33.2619 L 19.4435 33.688 L 19.0174 35.8973 L 16.8081 35.4712 L 17.2342 33.2619 Z " stroke-width="0.9999999783587618"/>
  <path id="ID0.7252319068647921" fill="#E05252" stroke="none" d="M 25.66 33.4343 L 27.906 33.3012 L 28.0391 35.5473 L 25.7931 35.6804 L 25.66 33.4343 Z " stroke-width="0.9999999749323275"/>
  <path id="ID0.7252319068647921" fill="#E05252" stroke="none" d="M 32.0517 25.9057 L 33.9882 24.7601 L 35.1338 26.6967 L 33.1972 27.8422 L 32.0517 25.9057 Z " stroke-width="1.0000000230907078"/>
  <path id="ID0.7252319068647921" fill="#E05252" stroke="none" d="M 32.6215 16.2756 L 34.7227 15.4708 L 35.5274 17.572 L 33.4262 18.3767 L 32.6215 16.2756 Z " stroke-width="0.9999999769172201"/>
  <path id="ID0.7252319068647921" fill="#E05252" stroke="none" d="M 30.463 11.3146 L 32.6699 11.7528 L 32.2318 13.9597 L 30.0249 13.5216 L 30.463 11.3146 Z " stroke-width="0.9999999889467084"/>
  <path id="ID0.7252319068647921" fill="#E05252" stroke="none" d="M 23.951 7.9689 L 26.1046 8.6206 L 25.4528 10.7741 L 23.2993 10.1224 L 23.951 7.9689 Z " stroke-width="0.9999999904908226"/>
  <path id="ID0.7252319068647921" fill="#E05252" stroke="none" d="M 14.3312 8.979 L 16.4457 9.7479 L 15.6768 11.8625 L 13.5622 11.0935 L 14.3312 8.979 Z " stroke-width="0.999999981579254"/>
  <path id="ID0.7252319068647921" fill="#E05252" stroke="none" d="M 9.7417 14.8891 L 11.7794 15.8433 L 10.8252 17.8809 L 8.7876 16.9268 L 9.7417 14.8891 Z " stroke-width="0.9999999781335622"/>
  <path id="ID0.7252319068647921" fill="#E05252" stroke="none" d="M 7.2187 23.6762 L 9.413 23.1788 L 9.9104 25.3731 L 7.7161 25.8705 L 7.2187 23.6762 Z " stroke-width="1.0000000070862343"/>
  <path id="ID0.7252319068647921" fill="#E05252" stroke="none" d="M 12.2505 29.2338 L 13.9341 30.7265 L 12.4414 32.41 L 10.7578 30.9174 L 12.2505 29.2338 Z " stroke-width="1.0000000127596937"/>
  <path id="ID0.7252319068647921" fill="#E05252" stroke="none" d="M 15.2671 31.131 L 16.3717 31.344 L 16.1587 32.4486 L 15.0541 32.2356 L 15.2671 31.131 Z " stroke-width="0.4999999891793809"/>
  <path id="ID0.7252319068647921" fill="#E05252" stroke="none" d="M 10.0868 19.6881 L 11.0757 20.2245 L 10.5393 21.2134 L 9.5504 20.677 L 10.0868 19.6881 Z " stroke-width="0.49999998619203173"/>
  <path id="ID0.7252319068647921" fill="#E05252" stroke="none" d="M 19.6171 11.681 L 20.7217 11.894 L 20.5087 12.9986 L 19.4041 12.7856 L 19.6171 11.681 Z " stroke-width="0.4999999891793809"/>
  <path id="ID0.7252319068647921" fill="#E05252" stroke="none" d="M 32.7744 20.2532 L 33.8993 20.2675 L 33.885 21.3925 L 32.7601 21.3782 L 32.7744 20.2532 Z " stroke-width="0.4999999853888528"/>
  <path id="ID0.7252319068647921" fill="#E05252" stroke="none" d="M 28.2575 30.1056 L 29.3404 29.8007 L 29.6453 30.8836 L 28.5624 31.1885 L 28.2575 30.1056 Z " stroke-width="0.49999998892570663"/>
</svg>