<svg xmlns="http://www.w3.org/2000/svg" xmlns:xlink="http://www.w3.org/1999/xlink" version="1.1" width="487" height="367" viewBox="-3.5 -3.5 487 367">
  <defs>
    <linearGradient id="grad_1" y2="1" x2="0">
      <stop offset="0" stop-color="#F9A41E" stop-opacity="1"/>
      <stop offset="1" stop-color="#F9A41E" stop-opacity="1"/>
    </linearGradient>
    <linearGradient id="grad_2" y2="1" x2="0">
      <stop offset="0" stop-color="#F9A41E" stop-opacity="1"/>
      <stop offset="1" stop-color="#F9A41E" stop-opacity="1"/>
    </linearGradient>
  </defs>
  <!-- Exported by Scratch - http://scratch.mit.edu/ -->
  <path id="ID0.007977408356964588" fill="#99B2FF" stroke="none" d="M 0 0 L 480 0 L 480 360 L 0 360 L 0 0 Z " stroke-width="1"/>
  <path id="ID0.4316235803999007" fill="#F9A41E" stroke="none" stroke-linecap="round" d="M 198 197 C 210.302 187.002 234.108 186.985 247 197 C 259.774 206.987 257.258 227.937 259 244 C 260.946 261.99 260.706 279.021 258 296 C 257.158 301.497 254.886 307.795 250 309 C 235.033 312.662 217.726 311.976 202 309 C 197.139 308.076 193.043 301.757 192 296 C 188.557 278.996 187.994 261.344 189 243 C 189.94 227.421 185.896 206.852 198 197 Z " stroke-width="1"/>
  <path id="ID0.9227625355124474" fill="#F9A41E" stroke="url(#grad_1)" stroke-width="7" stroke-linecap="round" d="M 301 33 L 266 51 L 232 71 L 288 125 L 292 80 L 301 33 Z "/>
  <g id="ID0.728828398976475">
    <path id="ID0.3072393317706883" fill="#F9A41E" d="M 85.2642 284.1475 C 85.2642 284.1475 99.975 276.386 103.7655 267.9927 C 107.6462 259.5092 97.9895 254.365 95.5527 260.7727 C 94.0185 264.6535 88.3327 274.581 83.1885 278.3715 C 78.2247 282.162 81.6542 286.3135 85.2642 284.1475 Z " stroke-width="0.9024999737739563"/>
    <path id="ID0.33640219923108816" fill="#F9A41E" d="M 27.053 320.9695 C 34.995 310.2297 45.2835 304.8147 45.2835 304.8147 L 63.2432 313.4787 C 63.2432 313.4787 54.7597 326.926 50.879 328.5505 C 50.879 328.5505 41.2222 327.5577 37.161 325.3015 " stroke-width="0.9024999737739563"/>
    <path id="ID0.8955257972702384" fill="#F9A41E" d="M 27.053 320.9695 C 27.053 320.9695 21.638 327.1065 19.9232 332.2507 C 17.7573 339.2 27.053 343.4417 31.1142 335.6802 C 33.19 331.619 35.356 327.1967 38.1537 324.1282 " stroke-width="0.9024999737739563"/>
    <path id="ID0.2634306978434324" fill="none" stroke="#231F20" stroke-linecap="round" stroke-linejoin="round" d="M 27.053 320.9695 C 36.1682 310.2297 45.2835 304.8147 45.2835 304.8147 L 63.2432 313.4787 C 63.2432 313.4787 54.7597 326.926 50.879 328.5505 C 50.879 328.5505 41.2222 327.5577 37.161 325.3015 " stroke-width="0.9024999737739563"/>
    <path id="ID0.3834887407720089" fill="#FFFFFF" d="M 48.5325 307.793 C 44.9225 309.4175 38.244 315.2837 40.1392 319.4352 C 42.0345 323.5867 53.1352 325.7527 58.1892 315.2837 C 61.8895 307.793 52.1425 306.2587 48.5325 307.793 Z " stroke-width="0.9024999737739563"/>
    <path id="ID0.0825743293389678" fill="none" stroke="#231F20" stroke-linecap="round" stroke-linejoin="round" d="M 27.053 320.9695 C 27.053 320.9695 21.638 327.1065 19.9232 332.2507 C 17.7573 339.2 27.053 343.4417 31.1142 335.6802 C 33.19 331.619 35.356 327.1967 38.1537 324.1282 " stroke-width="0.9024999737739563"/>
    <path id="ID0.4248275365680456" fill="#F9A41E" d="M 56.0232 331.8897 C 53.8572 337.3047 49.074 340.1025 45.2835 338.5682 C 42.0345 337.3047 41.4027 332.6117 43.659 328.5505 C 46.186 324.038 50.6082 321.4207 53.9475 322.4135 C 57.1062 323.4965 57.8282 327.287 56.0232 331.8897 Z " stroke-width="0.9024999737739563"/>
    <path id="ID0.4170016339048743" fill="none" stroke="#231F20" stroke-linecap="round" stroke-linejoin="round" d="M 56.0232 331.8897 C 53.8572 337.3047 49.074 340.1025 45.2835 338.5682 C 42.0345 337.3047 41.4027 332.6117 43.659 328.5505 C 46.186 324.038 50.6082 321.4207 53.9475 322.4135 C 57.1062 323.4965 57.8282 327.287 56.0232 331.8897 Z " stroke-width="0.9024999737739563"/>
    <path id="ID0.4534302558749914" fill="#F9A41E" d="M 36.2585 301.4755 C 36.2585 301.4755 25.6992 299.6705 21.5477 307.1612 C 16.8548 315.5545 26.8725 317.9912 29.58 312.125 C 32.829 305.5367 40.1392 306.4392 40.1392 306.4392 L 36.2585 301.4755 Z " stroke-width="0.9024999737739563"/>
    <path id="ID0.8974373424425721" fill="none" stroke="#231F20" stroke-linecap="round" stroke-linejoin="round" d="M 85.2642 284.1475 C 85.2642 284.1475 99.975 276.386 103.7655 267.9927 C 107.6462 259.5092 97.9895 254.365 95.5527 260.7727 C 94.0185 264.6535 88.3327 274.581 83.1885 278.3715 C 78.2247 282.162 81.6542 286.3135 85.2642 284.1475 Z " stroke-width="0.9024999737739563"/>
    <path id="ID0.1449340949766338" fill="none" stroke="#231F20" stroke-linecap="round" stroke-linejoin="round" d="M 36.2585 301.4755 C 36.2585 301.4755 25.1577 299.6705 21.5477 307.1612 C 17.306 315.8252 26.8725 317.9912 29.58 312.125 C 32.829 305.5367 40.1392 306.4392 40.1392 306.4392 L 36.2585 301.4755 Z " stroke-width="0.9024999737739563"/>
    <path id="ID0.8441412895917892" fill="#F9A41E" d="M 59.4527 258.9677 C 54.3987 259.2385 49.9765 261.4947 49.9765 261.4947 L 35.356 251.2965 L 37.3415 272.054 C 37.3415 272.054 31.4752 276.386 30.7532 288.66 C 30.0312 302.2877 43.2077 313.3885 60.4455 314.8325 C 83.2787 316.9082 100.9677 306.9807 99.3432 291.9992 C 98.4407 284.1475 92.394 283.3352 92.394 283.3352 C 92.394 283.3352 92.9355 278.191 89.506 271.9637 C 86.0765 265.6462 80.6615 262.9387 80.6615 262.9387 L 77.7735 250.3037 L 68.7485 259.419 C 68.7485 259.419 64.5067 258.8775 59.4527 258.9677 Z " stroke-width="0.9024999737739563"/>
    <path id="ID0.7266229740343988" fill="#FFFFFF" d="M 73.261 288.5697 C 65.319 290.104 45.2835 281.5302 41.854 294.7067 C 37.9732 308.9662 49.6155 313.93 60.3552 314.8325 C 92.9355 317.8107 101.058 300.3925 99.253 291.9992 C 97.9895 285.772 95.9137 284.0572 92.3037 283.3352 C 84.2715 281.8912 81.2932 287.1257 73.261 288.5697 Z " stroke-width="0.9024999737739563"/>
    <path id="ID0.07941257441416383" fill="none" stroke="#231F20" stroke-width="0.6317499816417693" stroke-linecap="round" stroke-linejoin="round" d="M 48.1715 260.2312 L 52.323 263.2095 "/>
    <path id="ID0.3073604479432106" fill="none" stroke="#231F20" stroke-linecap="round" stroke-linejoin="round" d="M 59.4527 258.9677 C 54.3987 259.2385 49.9765 261.4947 49.9765 261.4947 L 35.356 251.2965 L 37.3415 272.054 C 37.3415 272.054 31.4752 276.386 30.7532 288.66 C 30.0312 302.2877 43.2077 313.3885 60.4455 314.8325 C 83.2787 316.9082 100.9677 306.9807 99.3432 291.9992 C 98.4407 284.1475 92.394 283.3352 92.394 283.3352 C 92.394 283.3352 92.9355 278.191 89.506 271.9637 C 86.0765 265.6462 80.6615 262.9387 80.6615 262.9387 L 77.7735 250.3037 L 68.7485 259.419 C 68.7485 259.419 64.5067 258.8775 59.4527 258.9677 Z " stroke-width="0.9024999737739563"/>
    <path id="ID0.1148456297814846" fill="none" stroke="#231F20" stroke-linecap="round" stroke-linejoin="round" d="M 20.8257 293.4432 C 20.8257 293.4432 25.3382 293.8945 27.414 293.8945 C 29.4897 293.8042 33.3705 293.4432 33.3705 293.4432 " stroke-width="0.9024999737739563"/>
    <path id="ID0.3569164266809821" fill="none" stroke="#231F20" stroke-linecap="round" stroke-linejoin="round" d="M 33.6412 289.2015 C 33.6412 289.2015 31.1142 287.216 27.053 285.3207 C 22.5405 283.245 20.1037 282.7035 20.1037 282.7035 " stroke-width="0.9024999737739563"/>
    <path id="ID0.399786364287138" fill="#FFFFFF" stroke="#231F20" stroke-linecap="round" stroke-linejoin="round" d="M 87.1595 272.1442 C 90.228 277.108 90.228 282.6132 87.1595 284.5987 C 84.091 286.5842 79.1272 284.0572 75.9685 279.0935 C 72.9 274.1297 72.9 268.6245 75.9685 266.639 C 79.037 264.7437 84.091 267.1805 87.1595 272.1442 Z " stroke-width="0.9024999737739563"/>
    <path id="ID0.012973028235137463" fill="#231F20" d="M 85.613 275.376 C 85.974 276.5492 85.252 277.7225 84.2592 277.903 C 83.2665 278.1737 82.0932 277.4517 81.8225 276.2785 C 81.4615 275.1052 82.1835 273.932 83.1762 273.7515 C 84.169 273.571 85.252 274.293 85.613 275.376 " stroke-width="0.9024999737739563"/>
    <path id="ID0.4833636190742254" fill="#FFFFFF" stroke="#231F20" stroke-linecap="round" stroke-linejoin="round" d="M 60.8967 275.1225 C 63.9652 280.0862 63.514 285.9525 59.904 288.2087 C 56.294 290.465 50.7887 288.299 47.7202 283.3352 C 44.6517 278.3715 45.103 272.5052 48.713 270.249 C 52.323 267.9927 57.8282 270.1587 60.8967 275.1225 Z " stroke-width="0.9024999737739563"/>
    <path id="ID0.2379798092879355" fill="#231F20" d="M 59.0795 278.625 C 59.0795 279.7982 58.177 280.7007 57.094 280.7007 C 56.1012 280.7007 55.1085 279.708 55.1085 278.5347 C 55.1085 277.3615 56.011 276.459 57.094 276.459 C 58.2672 276.5492 59.0795 277.4517 59.0795 278.625 " stroke-width="0.9024999737739563"/>
    <path id="ID0.00844710785895586" fill="#231F20" stroke="#231F20" stroke-width="0.6317499816417693" stroke-linecap="round" stroke-linejoin="round" d="M 72.4487 286.0427 C 74.2537 285.772 77.5027 284.8695 77.8637 287.0355 C 77.8637 287.938 76.0587 291.6382 73.8025 291.7285 C 71.6365 291.8187 67.6655 289.2917 67.9362 287.577 C 68.207 285.9525 70.8242 286.3135 72.4487 286.0427 Z "/>
    <path id="ID0.7077047214843333" fill="none" stroke="#231F20" stroke-linecap="round" stroke-linejoin="round" d="M 79.9395 295.0677 C 80.0297 297.2337 65.8605 298.8582 66.041 296.0605 " stroke-width="0.9024999737739563"/>
    <path id="ID0.41016054805368185" fill="#231F20" stroke="#231F20" stroke-width="0.6317499816417693" stroke-linecap="round" stroke-linejoin="round" opacity="0.1" d="M 40.8612 307.9735 C 40.1392 308.515 39.327 309.1467 38.4245 309.7785 "/>
    <path id="ID0.8669978589750826" fill="#231F20" stroke="#231F20" stroke-width="0.6317499816417693" stroke-linecap="round" stroke-linejoin="round" opacity="0.1" d="M 62.1602 315.1032 C 61.7992 315.6447 61.2577 316.457 60.626 317.2692 "/>
    <path id="ID0.8964151539839804" fill="none" stroke="#231F20" stroke-linecap="round" stroke-linejoin="round" d="M 94.0185 288.9307 C 94.0185 288.9307 98.9822 288.2087 101.5092 287.3965 C 104.4875 286.494 106.5632 284.7792 106.5632 284.7792 " stroke-width="0.9024999737739563"/>
    <path id="ID0.0632392056286335" fill="none" stroke="#231F20" stroke-linecap="round" stroke-linejoin="round" d="M 94.3795 295.4287 C 94.3795 295.4287 97.3577 296.6922 100.336 297.0532 C 103.3142 297.4142 105.39 297.324 105.39 297.324 " stroke-width="0.9024999737739563"/>
  </g>
  <path id="ID0.011483768466860056" fill="#F9A41E" stroke="none" d="M 220 65.05 C 243.727 65.05 265.227 73.902 280.795 88.203 C 296.363 102.505 306 122.255 306 144.05 C 306 165.845 296.363 185.595 280.795 199.897 C 265.227 214.198 243.727 223.05 220 223.05 C 196.273 223.05 174.773 214.198 159.205 199.897 C 143.637 185.595 134 165.845 134 144.05 C 134 122.255 143.637 102.505 159.205 88.203 C 174.773 73.902 196.273 65.05 220 65.05 Z " stroke-width="1"/>
  <path id="ID0.7333863978274167" fill="#FFFFFF" stroke="none" stroke-linecap="round" d="M 251 156 C 269.363 155.334 287.202 138.055 304 144 C 316.772 148.523 322.426 167.23 321 181 C 319.35 194.912 308.367 208.022 296 216 C 280.989 225.673 261.597 229.128 244 229 C 222.216 228.444 198.859 224.985 181 214 C 170.539 207.644 164.225 193.185 165 181 C 165.82 168.254 172.077 152.355 184 149 C 205.934 142.836 228.858 157.021 251 156 Z " stroke-width="1"/>
  <path id="ID0.44969853665679693" fill="#666666" stroke="none" stroke-linecap="round" d="M 256 151 C 261.966 150.376 271.113 149.86 273 155 C 275.126 160.767 271.367 172.184 265 173 C 254.881 173.155 241.477 163.687 239 157 C 237.462 152.772 250.157 151.157 256 151 Z " stroke-width="1"/>
  <path id="ID0.18614215217530727" fill="#000000" stroke="none" stroke-linecap="round" d="M 207.5 91 C 213.156 91 218.281 94.306 221.992 99.646 C 225.703 104.986 228 112.361 228 120.5 C 228 128.639 225.703 136.014 221.992 141.354 C 218.281 146.694 213.156 150 207.5 150 C 201.844 150 196.719 146.694 193.008 141.354 C 189.297 136.014 187 128.639 187 120.5 C 187 112.361 189.297 104.986 193.008 99.646 C 196.719 94.306 201.844 91 207.5 91 Z " stroke-width="1"/>
  <path id="ID0.18614215217530727" fill="#000000" stroke="none" d="M 289 92.5 C 294.656 92.5 299.781 95.806 303.492 101.146 C 307.203 106.486 309.5 113.861 309.5 122 C 309.5 130.139 307.203 137.514 303.492 142.854 C 299.781 148.194 294.656 151.5 289 151.5 C 283.344 151.5 278.219 148.194 274.508 142.854 C 270.797 137.514 268.5 130.139 268.5 122 C 268.5 113.861 270.797 106.486 274.508 101.146 C 278.219 95.806 283.344 92.5 289 92.5 Z " stroke-width="1"/>
  <path id="ID0.7350974571891129" fill="#FFFFFF" stroke="none" d="M 214 96 C 216.483 96 218.733 97.905 220.362 100.982 C 221.992 104.06 223 108.31 223 113 C 223 117.69 221.992 121.94 220.362 125.018 C 218.733 128.095 216.483 130 214 130 C 211.517 130 209.267 128.095 207.638 125.018 C 206.008 121.94 205 117.69 205 113 C 205 108.31 206.008 104.06 207.638 100.982 C 209.267 97.905 211.517 96 214 96 Z " stroke-width="1"/>
  <path id="ID0.7350974571891129" fill="#FFFFFF" stroke="none" d="M 297 97 C 299.483 97 301.733 98.905 303.362 101.982 C 304.992 105.06 306 109.31 306 114 C 306 118.69 304.992 122.94 303.362 126.018 C 301.733 129.095 299.483 131 297 131 C 294.517 131 292.267 129.095 290.638 126.018 C 289.008 122.94 288 118.69 288 114 C 288 109.31 289.008 105.06 290.638 101.982 C 292.267 98.905 294.517 97 297 97 Z " stroke-width="1"/>
  <path id="ID0.8651520288549364" fill="none" stroke="#000000" stroke-width="2" stroke-linecap="round" d="M 180 169 C 180 169 167.495 168.097 161 167 C 155.482 166.097 144 163 144 163 "/>
  <path id="ID0.8651520288549364" fill="none" stroke="#000000" stroke-width="2.000000031489346" stroke-linecap="round" d="M 177.1593 182.5808 C 177.1593 182.5808 164.4963 183.5518 158.0945 183.8188 C 152.6052 184.0392 141.0142 182.9844 141.0142 182.9844 "/>
  <path id="ID0.8651520288549364" fill="none" stroke="#000000" stroke-width="2.0000000317875593" stroke-linecap="round" d="M 317.8407 182.2808 C 317.8407 182.2808 330.5037 183.2518 336.9055 183.5188 C 342.3948 183.7392 353.9858 182.6844 353.9858 182.6844 "/>
  <path id="ID0.8651520288549364" fill="none" stroke="#000000" stroke-width="2" stroke-linecap="round" d="M 317.9 166 C 317.9 166 330.405 165.097 336.9 164 C 342.418 163.097 353.9 160 353.9 160 "/>
  <path id="ID0.9227625355124474" fill="#F9A41E" stroke="url(#grad_2)" stroke-width="7" stroke-linecap="round" d="M 132 44 L 167 62 L 201 82 L 145 136 L 141 91 L 132 44 Z "/>
  <path id="ID0.4824117855168879" fill="#FFFFFF" stroke="none" stroke-linecap="round" d="M 219 232 C 226.744 230.852 234.859 231.735 242 234 C 245.497 235.273 248.548 238.1 249 242 C 250.769 257.581 249.664 274.162 247 290 C 246.538 293.953 244.168 297.767 241 299 C 233.431 301.116 224.913 301.417 218 299 C 213.805 297.507 210.678 292.867 210 289 C 207.578 272.549 206.456 255.553 209 240 C 209.688 235.782 214.827 232.641 219 232 Z " stroke-width="1"/>
  <path id="ID0.24050412978976965" fill="#F9A41E" stroke="none" stroke-linecap="round" d="M 195.5597 215.1031 C 200.0369 215.5978 204.9632 218.5512 206.3018 222.4927 C 209.3741 235.7703 208.4936 249.5846 207.8488 263.0742 C 207.1897 276.8544 206.78 291.4081 202.3645 304.4042 C 201.1349 308.3057 196.001 310.3891 192.156 310.0421 C 187.546 309.5676 182.0782 307.6775 181.378 303.6518 C 177.5839 290.1332 179.2468 275.4864 179.8668 262.071 C 180.4933 248.5878 179.96 234.9379 184.316 221.7045 C 185.6061 218.0393 191.2296 214.6647 195.5597 215.1031 Z " stroke-width="1.000000001245517"/>
</svg>