<svg xmlns="http://www.w3.org/2000/svg" xmlns:xlink="http://www.w3.org/1999/xlink" version="1.1" width="335" height="215" viewBox="-1 -1 335 215">
  <!-- Exported by Scratch - http://scratch.mit.edu/ -->
  <g id="ID0.3980544973164797">
    <g id="ID0.8569423300214112">
      <path id="ID0.6840166333131492" fill="#000000" stroke="none" d="M 0 0 L 333 0 L 333 205 L 0 205 L 0 0 Z " stroke-width="1"/>
      <path id="ID0.6681141299195588" fill="#B2B2B2" stroke="none" d="M 0 0 L 333 0 L 333 34 L 0 34 L 0 0 Z " stroke-width="1"/>
      <path id="ID0.8379231723956764" fill="#7F7F7F" stroke="none" d="M 0 30 L 333 30 L 333 34 L 0 34 L 0 30 Z " stroke-width="1"/>
      <path id="ID0.3363009551540017" fill="#CCCCCC" stroke="none" d="M 0 0 L 333 0 L 333 8 L 0 8 L 0 0 Z " stroke-width="1"/>
      <path id="ID0.522358394227922" fill="#B2B2B2" stroke="none" d="M 0 186 L 333 186 L 333 211 L 0 211 L 0 186 Z " stroke-width="1"/>
      <path id="ID0.9136968106031418" fill="#7F7F7F" stroke="none" d="M 0 208 L 333 208 L 333 213 L 0 213 L 0 208 Z " stroke-width="1"/>
      <path id="ID0.8766923774965107" fill="#CCCCCC" stroke="none" d="M 0 185 L 333 185 L 333 192 L 0 192 L 0 185 Z " stroke-width="1"/>
    </g>
    <path id="ID0.9777058050967753" fill="none" stroke="#000000" stroke-width="2" d="M 1 1 L 331 1 L 331 34 L 1 34 L 1 1 Z "/>
    <path id="ID0.07853147713467479" fill="none" stroke="#000000" stroke-width="2" d="M 1 183 L 332 183 L 332 213 L 1 213 L 1 183 Z "/>
  </g>
</svg>