<svg xmlns="http://www.w3.org/2000/svg" xmlns:xlink="http://www.w3.org/1999/xlink" version="1.1" width="30.890119778211808" height="36.15594218879531" viewBox="-7.636752479819405 -7.450552457121956 30.890119778211808 36.15594218879531">
  <!-- Exported by Scratch - http://scratch.mit.edu/ -->
  <path id="ID0.9358589742332697" fill="#DB861B" stroke="none" stroke-width="16.26050341379438" stroke-linecap="round" d="M 9.094 13.9741 C 8.9485 13.688 8.4569 13.5111 8.0821 13.4418 C 7.4731 13.3301 6.9142 13.4226 6.3477 13.4992 C 5.9075 13.545 5.3305 13.4246 5.0059 13.7486 C 4.7998 14.0063 4.8829 14.6212 5.1803 14.7693 C 5.7974 15.075 6.5563 14.8665 7.2496 14.8533 C 7.7455 14.8442 8.2661 14.8823 8.7031 14.6511 C 8.9491 14.5581 9.205 14.1962 9.094 13.9741 Z "/>
  <path id="ID0.19551143841817975" fill="#DB861B" stroke="none" stroke-width="16.26050494819472" stroke-linecap="round" d="M 9.4152 16.48 C 9.4116 16.7764 9.3184 17.2197 9.5531 17.4474 C 10.0891 17.9623 10.8588 18.2297 11.5598 18.5279 C 12.2205 18.8273 12.8751 19.2223 13.5856 19.3171 C 13.851 19.2999 14.0116 18.9393 14.1087 18.7263 C 14.29 18.3275 14.7711 17.7717 14.4981 17.4104 C 14.1772 16.9912 13.4859 17.3382 13.0398 17.1932 C 11.8362 16.7902 10.7559 16.004 9.5727 15.7743 C 9.2769 15.7168 9.4174 16.2419 9.4152 16.48 Z "/>
  <g id="ID0.30696602864190936">
    <path id="ID0.637318427208811" fill="#FAA51D" stroke="none" stroke-linecap="round" d="M 6.0779 15.7058 C 6.696 16.049 7.5505 15.9152 8.1274 16.3347 C 8.4015 16.5357 8.4744 17.0157 8.28 17.2259 C 8.0298 17.5587 7.5359 17.5999 7.1345 17.5439 C 6.518 17.4781 5.9339 17.2872 5.3511 16.9772 C 4.7087 16.6359 4.045 16.2676 3.5561 15.7314 C 3.2987 15.4915 3.0256 15.0548 3.2106 14.7552 C 3.4236 14.4116 3.9886 14.2534 4.3935 14.3797 C 5.0562 14.5933 5.4283 15.3853 6.0779 15.7058 Z " stroke-width="1.0840336296178195"/>
    <path id="ID0.9894068208523095" fill="#FFFFFF" stroke="none" stroke-linecap="round" d="M 4.1431 14.3306 C 4.707 14.3848 5.3493 14.9389 5.5289 15.4233 C 5.6403 15.6101 4.9195 15.4676 4.7241 15.6749 C 4.5148 15.8994 4.7447 16.6523 4.5139 16.5438 C 3.9496 16.3596 3.23 15.7381 3.135 15.0876 C 3.0744 14.6729 3.7259 14.2908 4.1431 14.3306 Z " stroke-width="1.0840336296178195"/>
  </g>
  <g id="ID0.536394951865077">
    <path id="ID0.6198067106306553" fill="#FAA51D" stroke="none" stroke-linecap="round" d="M 7.3055 10.5616 C 7.8095 10.4454 8.5025 10.1431 8.8435 10.5514 C 9.5541 11.3146 9.7073 12.4869 9.9538 13.5105 C 10.1997 14.5319 10.5666 15.6774 10.3574 16.7664 C 10.2513 17.2132 9.6044 17.3959 9.13 17.5357 C 8.6781 17.6674 8.0221 17.7426 7.7218 17.3999 C 7.0062 16.6391 6.7068 15.5633 6.4292 14.6006 C 6.1141 13.5031 5.6518 12.3444 5.8796 11.2148 C 5.9816 10.7051 6.7969 10.6778 7.3055 10.5616 Z " stroke-width="1.0840336259501413"/>
    <path id="ID0.21503017749637365" fill="#FFFFFF" stroke="none" stroke-linecap="round" d="M 8.5368 12.1093 C 8.8265 12.0346 9.1825 12.2003 9.3556 12.4553 C 9.7515 13.0006 9.9613 13.6953 10.1322 14.3531 C 10.329 15.1096 10.5321 15.8901 10.4668 16.7027 C 10.4267 16.9608 10.1252 17.1619 9.8424 17.3143 C 9.5454 17.4637 9.043 17.6164 8.8437 17.3515 C 8.3237 16.6572 8.1819 15.6657 8.0005 14.7708 C 7.8799 14.1771 7.7759 13.4927 7.8874 12.8395 C 7.9665 12.5465 8.2232 12.1913 8.5368 12.1093 Z " stroke-width="1.0840336259501413"/>
  </g>
  <path id="ID0.19551143841817975" fill="#FAA51D" stroke="none" stroke-linecap="round" d="M 8.8689 16.3737 C 8.7187 16.1322 8.2104 16.4316 7.9049 16.5329 C 7.1617 16.8082 6.4099 17.2317 5.8581 17.5354 C 5.2237 17.8844 4.5211 18.193 4.037 18.723 C 3.8894 18.9427 4.0961 19.2892 4.2128 19.4923 C 4.4315 19.8718 4.6033 20.5865 5.056 20.575 C 5.5837 20.5581 5.6997 19.8224 6.0816 19.5157 C 6.8973 18.8641 7.8704 18.456 8.5319 17.6726 C 8.8483 17.3526 9.0794 16.7157 8.8689 16.3737 Z " stroke-width="1.0840336269141668"/>
  <g id="ID0.6909988787956536">
    <g id="ID0.847524844110012">
      <path id="ID0.10025785537436604" fill="#FAA51D" stroke="none" d="M 7.1092 2.6256 C 8.7554 2.4422 10.3131 2.877 11.5016 3.7275 C 12.689 4.5781 13.5071 5.8444 13.672 7.3243 C 13.8368 8.8041 13.3174 10.2194 12.3464 11.3105 C 11.3742 12.4017 9.9504 13.1687 8.3042 13.3521 C 6.6581 13.5355 5.1003 13.1006 3.9119 12.2501 C 2.7245 11.3995 1.9064 10.1332 1.7415 8.6534 C 1.5766 7.1736 2.096 5.7583 3.0671 4.6672 C 4.0392 3.576 5.463 2.809 7.1092 2.6256 Z " stroke-width="1.1013090598704554"/>
      <path id="ID0.23814574256539345" fill="#FAA51D" stroke="none" stroke-linecap="round" d="M 0.4935 2.4626 L 5.0243 3.8416 L 1.7112 7.4243 L 0.4935 2.4626 Z " stroke-width="1.1013090598704554"/>
      <path id="ID0.23814574256539345" fill="#FAA51D" stroke="none" stroke-linecap="round" d="M 11.2049 0.6797 L 7.3779 3.4695 L 11.6833 5.7662 L 11.2049 0.6797 Z " stroke-width="1.1013089522041517"/>
      <path id="ID0.46886637480929494" fill="#FFFFFF" stroke="none" stroke-linecap="round" d="M 10.4059 8.6665 C 11.3426 8.4613 11.9748 7.2628 12.9169 7.3341 C 13.8478 7.4043 14.991 8.1967 15.1066 9.0847 C 15.2428 10.1489 14.5169 11.3212 13.6541 11.9615 C 12.492 12.8799 10.9457 13.1741 9.4677 13.4252 C 8.502 13.5893 7.4477 13.5549 6.5336 13.198 C 5.7913 12.9106 4.846 12.3831 4.6359 11.581 C 4.4774 10.6955 4.8246 9.4457 5.6263 9.0328 C 7.0484 8.3003 8.8649 9.0388 10.4059 8.6665 Z " stroke-width="1.1013090598704554"/>
      <path id="ID0.2958779144100845" fill="#666666" stroke="none" stroke-linecap="round" d="M 9.997 8.1001 C 10.3406 8.0108 10.8932 7.8484 10.9943 8.0998 C 11.1309 8.4203 10.9008 9.1208 10.5082 9.2067 C 9.9956 9.3502 9.1964 8.9406 9.0546 8.5929 C 8.9575 8.3478 9.6461 8.1525 9.997 8.1001 Z " stroke-width="1.1013090598704554"/>
    </g>
    <g id="ID0.26280788984149694">
      <g id="ID0.2985607646405697">
        <path id="ID0.6929170889779925" fill="#000000" stroke="none" d="M 10.8299 4.0254 C 11.1692 3.9876 11.5 4.1524 11.7581 4.4494 C 12.0172 4.7463 12.2048 5.1764 12.2594 5.6668 C 12.314 6.1571 12.2257 6.618 12.0383 6.9647 C 11.852 7.3112 11.5655 7.5448 11.2262 7.5826 C 10.8869 7.6204 10.556 7.4556 10.298 7.1585 C 10.0388 6.8616 9.8513 6.4315 9.7967 5.9412 C 9.742 5.4508 9.8303 4.99 10.0178 4.6433 C 10.2041 4.2967 10.4906 4.0632 10.8299 4.0254 Z " stroke-width="1.1013090598704554"/>
        <path id="ID0.02252052817493677" fill="#CCCCCC" stroke="none" d="M 11.3341 4.3209 C 11.4621 4.3066 11.5908 4.3976 11.6928 4.5568 C 11.7959 4.716 11.8742 4.9422 11.9029 5.1994 C 11.9316 5.4566 11.9049 5.6945 11.8394 5.8725 C 11.775 6.0503 11.6694 6.1673 11.5414 6.1816 C 11.4133 6.1959 11.2846 6.1049 11.1827 5.9456 C 11.0796 5.7865 11.0012 5.5603 10.9725 5.3031 C 10.9439 5.0459 10.9706 4.808 11.0361 4.63 C 11.1005 4.4522 11.206 4.3352 11.3341 4.3209 Z " stroke-width="1.1013090598704554"/>
      </g>
      <g id="ID0.2985607646405697">
        <path id="ID0.6929170889779925" fill="#000000" stroke="none" d="M 6.7683 4.6053 C 7.1076 4.5675 7.4385 4.7324 7.6965 5.0294 C 7.9557 5.3263 8.1432 5.7564 8.1978 6.2468 C 8.2525 6.7371 8.1642 7.198 7.9768 7.5446 C 7.7904 7.8912 7.5039 8.1248 7.1646 8.1626 C 6.8253 8.2004 6.4945 8.0356 6.2364 7.7385 C 5.9773 7.4416 5.7898 7.0115 5.7351 6.5211 C 5.6805 6.0308 5.7688 5.57 5.9562 5.2233 C 6.1426 4.8767 6.429 4.6431 6.7683 4.6053 Z " stroke-width="1.1013090598704554"/>
        <path id="ID0.02252052817493677" fill="#CCCCCC" stroke="none" d="M 7.1653 4.8694 C 7.2933 4.8552 7.422 4.9461 7.524 5.1054 C 7.627 5.2645 7.7054 5.4907 7.7341 5.748 C 7.7627 6.0052 7.736 6.2431 7.6705 6.421 C 7.6061 6.5988 7.5006 6.7159 7.3725 6.7301 C 7.2445 6.7444 7.1158 6.6535 7.0138 6.4942 C 6.9108 6.335 6.8324 6.1088 6.8037 5.8516 C 6.7751 5.5944 6.8018 5.3565 6.8673 5.1785 C 6.9317 5.0007 7.0372 4.8837 7.1653 4.8694 Z " stroke-width="1.1013090598704554"/>
      </g>
    </g>
  </g>
  <path id="ID0.9358589742332697" fill="#F9B341" stroke="none" stroke-width="16.260504489229263" stroke-linecap="round" d="M 7.4652 14.0777 C 7.3228 14.3654 6.8332 14.5476 6.4591 14.621 C 5.8513 14.7394 5.2915 14.653 4.7242 14.5825 C 4.2835 14.5415 3.7079 14.6681 3.3798 14.3477 C 3.1709 14.0923 3.2473 13.4765 3.543 13.3252 C 4.1568 13.0128 4.918 13.213 5.6113 13.2186 C 6.1073 13.2224 6.6274 13.1785 7.0669 13.405 C 7.3139 13.4953 7.5737 13.8544 7.4652 14.0777 Z "/>
</svg>