<svg xmlns="http://www.w3.org/2000/svg" xmlns:xlink="http://www.w3.org/1999/xlink" version="1.1" width="14.145400306322994" height="19.688987037280025" viewBox="-0.29635209875247026 0.04196702403882002 14.145400306322994 19.688987037280025">
  <!-- Exported by Scratch - http://scratch.mit.edu/ -->
  <g id="ID0.07487727236002684">
    <g id="ID0.9993906710296869">
      <path id="ID0.6487746122293174" fill="#006622" stroke="none" stroke-linecap="round" d="M 2.0391 10.5223 C 1.9612 8.7192 2.1214 6.7331 2.8538 5.1921 C 3.5775 3.6685 4.7969 2.3151 6.1978 1.6708 C 8.243 0.7294 10.5558 0.5733 12.7812 0.5827 C 13.3195 0.5972 13.2147 1.0485 13.2497 1.7311 C 13.3894 4.4603 13.2381 7.2485 13.2312 9.9384 C 13.2252 12.4988 13.3405 15.0724 13.2044 17.6256 C 13.1676 18.2643 13.2568 19.087 12.7785 19.1352 C 10.7533 19.3294 8.6559 19.0082 6.7635 18.249 C 5.4247 17.711 4.1182 16.6905 3.3167 15.3567 C 2.4564 13.973 2.1106 12.1741 2.0391 10.5223 Z " stroke-width="1.0806915966061978"/>
      <path id="ID0.6862273388542235" fill="#009933" stroke="none" stroke-linecap="round" d="M 3.199 13.5195 C 2.2391 11.1028 2.4654 8.125 3.173 5.6597 C 3.6627 3.9526 5.1199 2.6416 6.5143 1.965 C 8.2688 1.1139 10.3009 0.9126 12.2024 1.1803 C 12.7005 1.2463 12.8784 1.7983 12.8292 2.8463 C 12.6323 7.0374 12.8699 11.4434 11.4785 15.294 C 10.9661 16.7125 9.0641 17.2874 7.7558 17.0298 C 5.9621 16.6227 3.9587 15.4319 3.199 13.5195 Z " stroke-width="1.0806915966061978"/>
      <path id="ID0.4945870223455131" fill="#00CC44" stroke="none" stroke-linecap="round" d="M 8.05 1.6 C 9.337 1.325 10.88 1.106 12.05 1.7 C 12.708 2.103 12.478 3.182 12.4 3.95 C 12.091 7.009 12.283 10.402 10.9 13.2 C 10.35 14.312 8.549 14.469 7.3 14.35 C 5.96 14.162 4.397 13.527 3.75 12.35 C 2.889 10.784 3.127 8.71 3.35 7 C 3.521 5.691 4.032 4.345 4.9 3.35 C 5.668 2.471 6.877 1.855 8.05 1.6 Z " stroke-width="1"/>
      <path id="ID0.4818211728706956" fill="#99FFBB" stroke="none" d="M 9.625 1.95 C 10.142 1.95 10.611 2.087 10.95 2.309 C 11.29 2.531 11.5 2.837 11.5 3.175 C 11.5 3.513 11.29 3.819 10.95 4.041 C 10.611 4.263 10.142 4.4 9.625 4.4 C 9.108 4.4 8.639 4.263 8.3 4.041 C 7.96 3.819 7.75 3.513 7.75 3.175 C 7.75 2.837 7.96 2.531 8.3 2.309 C 8.639 2.087 9.108 1.95 9.625 1.95 Z " stroke-width="1"/>
      <path id="ID0.5986227467656136" fill="#99FFBB" stroke="none" d="M 8.025 4.7 C 8.308 4.7 8.564 4.762 8.75 4.861 C 8.935 4.961 9.05 5.098 9.05 5.25 C 9.05 5.402 8.935 5.539 8.75 5.639 C 8.564 5.738 8.308 5.8 8.025 5.8 C 7.742 5.8 7.486 5.738 7.3 5.639 C 7.115 5.539 7 5.402 7 5.25 C 7 5.098 7.115 4.961 7.3 4.861 C 7.486 4.762 7.742 4.7 8.025 4.7 Z " stroke-width="1"/>
    </g>
    <g id="ID0.5477985390461981">
      <g id="ID0.20715344790369272">
        <path id="ID0.19440001714974642" fill="#000000" stroke="none" d="M 2.3293 5.5577 C 2.9222 5.547 3.4674 5.9432 3.8682 6.5921 C 4.269 7.242 4.5263 8.1435 4.5443 9.1433 C 4.5624 10.1432 4.3377 11.0534 3.9607 11.7173 C 3.5836 12.3802 3.053 12.7958 2.4601 12.8065 C 1.8672 12.8172 1.3219 12.421 0.9212 11.7721 C 0.5204 11.1223 0.2631 10.2208 0.245 9.2209 C 0.227 8.2211 0.4516 7.3109 0.8287 6.647 C 1.2058 5.9841 1.7364 5.5684 2.3293 5.5577 Z " stroke-width="0.9999999842002875"/>
        <path id="ID0.35307061253115535" fill="#FFFFFF" stroke="none" d="M 2.9533 6.1169 C 3.1742 6.1129 3.3774 6.2883 3.5276 6.5756 C 3.6768 6.863 3.774 7.2613 3.782 7.7022 C 3.79 8.1431 3.7072 8.5447 3.5684 8.8372 C 3.4287 9.1298 3.232 9.3124 3.011 9.3164 C 2.79 9.3204 2.5868 9.145 2.4366 8.8577 C 2.2874 8.5703 2.1902 8.172 2.1823 7.7311 C 2.1743 7.2901 2.2571 6.8886 2.3958 6.596 C 2.5356 6.3035 2.7323 6.1209 2.9533 6.1169 Z " stroke-width="0.9999999842002875"/>
      </g>
      <g id="ID0.20715344790369272">
        <path id="ID0.19440001714974642" fill="#000000" stroke="none" d="M 8.1793 5.6577 C 8.7722 5.647 9.3174 6.0432 9.7182 6.6921 C 10.119 7.342 10.3763 8.2435 10.3943 9.2433 C 10.4124 10.2432 10.1877 11.1534 9.8107 11.8173 C 9.4336 12.4802 8.903 12.8958 8.3101 12.9065 C 7.7172 12.9172 7.1719 12.521 6.7712 11.8721 C 6.3704 11.2223 6.1131 10.3208 6.095 9.3209 C 6.077 8.3211 6.3016 7.4109 6.6787 6.747 C 7.0558 6.0841 7.5864 5.6684 8.1793 5.6577 Z " stroke-width="0.9999999842002875"/>
        <path id="ID0.35307061253115535" fill="#FFFFFF" stroke="none" d="M 8.8033 6.2169 C 9.0242 6.2129 9.2274 6.3883 9.3776 6.6756 C 9.5268 6.963 9.624 7.3613 9.632 7.8022 C 9.64 8.2431 9.5572 8.6447 9.4184 8.9372 C 9.2787 9.2298 9.082 9.4124 8.861 9.4164 C 8.64 9.4204 8.4368 9.245 8.2866 8.9577 C 8.1374 8.6703 8.0402 8.272 8.0323 7.8311 C 8.0243 7.3901 8.1071 6.9886 8.2458 6.696 C 8.3856 6.4035 8.5823 6.2209 8.8033 6.2169 Z " stroke-width="0.9999999842002875"/>
      </g>
    </g>
  </g>
</svg>