<svg xmlns="http://www.w3.org/2000/svg" xmlns:xlink="http://www.w3.org/1999/xlink" version="1.1" width="30.956654878339513" height="38.692075105390295" viewBox="-7.768852517943255 -7.748952523808352 30.956654878339513 38.692075105390295">
  <!-- Exported by Scratch - http://scratch.mit.edu/ -->
  <path id="ID0.9358589742332697" fill="#DB861B" stroke="none" stroke-width="16.260503542267816" stroke-linecap="round" d="M 10.1538 9.931 C 9.8342 9.9013 9.4222 10.2224 9.1635 10.5024 C 8.7438 10.9577 8.5236 11.4797 8.286 11.9996 C 8.0896 12.3962 7.6798 12.8198 7.7805 13.2672 C 7.8883 13.5791 8.4526 13.8372 8.7367 13.6648 C 9.3246 13.3062 9.5535 12.5531 9.9125 11.9599 C 10.1695 11.5358 10.4797 11.1159 10.5175 10.6229 C 10.5702 10.3653 10.4008 9.9557 10.1538 9.931 Z "/>
  <path id="ID0.19551143841817975" fill="#DB861B" stroke="none" stroke-width="16.26050505228971" stroke-linecap="round" d="M 6.9878 17.6375 C 6.6914 17.6365 6.2473 17.5473 6.0217 17.7841 C 5.5117 18.3247 5.2512 19.0968 4.9593 19.8004 C 4.6659 20.4638 4.2769 21.122 4.1884 21.8333 C 4.208 22.0985 4.57 22.2558 4.784 22.3511 C 5.1844 22.5287 5.7444 23.0048 6.1033 22.7286 C 6.5196 22.4039 6.1664 21.7158 6.3074 21.2683 C 6.6995 20.0611 7.4759 18.9738 7.6949 17.7886 C 7.7497 17.4923 7.2259 17.6375 6.9878 17.6375 Z "/>
  <g id="ID0.30696602864190936">
    <path id="ID0.637318427208811" fill="#FAA51D" stroke="none" stroke-linecap="round" d="M 3.2561 17.303 C 3.9386 17.1185 4.4582 16.4271 5.1644 16.3261 C 5.501 16.2793 5.8878 16.5727 5.8947 16.859 C 5.9472 17.272 5.6216 17.6457 5.2947 17.8852 C 4.8066 18.2675 4.2547 18.5376 3.6205 18.7213 C 2.922 18.9241 2.1893 19.1224 1.465 19.0784 C 1.1132 19.0856 0.6131 18.9627 0.537 18.6189 C 0.4503 18.2239 0.7454 17.7169 1.1239 17.5254 C 1.7481 17.2168 2.5668 17.5256 3.2561 17.303 Z " stroke-width="1.0840336330834464"/>
    <path id="ID0.9894068208523095" fill="#FFFFFF" stroke="none" stroke-linecap="round" d="M 0.8144 17.6168 C 1.2566 17.2627 2.1034 17.2127 2.5697 17.435 C 2.7798 17.4914 2.1635 17.8914 2.1678 18.1762 C 2.1741 18.4831 2.8635 18.863 2.6224 18.9459 C 2.0893 19.207 1.1401 19.2626 0.6187 18.8622 C 0.2862 18.6069 0.4874 17.8789 0.8144 17.6168 Z " stroke-width="1.0840336330834464"/>
  </g>
  <g id="ID0.536394951865077">
    <path id="ID0.6198067106306553" fill="#FAA51D" stroke="none" stroke-linecap="round" d="M 7.0606 11.1335 C 7.5719 11.2122 8.3275 11.188 8.4931 11.6935 C 8.8707 12.6655 8.579 13.8113 8.429 14.8533 C 8.2793 15.8932 8.196 17.0932 7.5984 18.0273 C 7.3345 18.4031 6.6659 18.3333 6.1734 18.2876 C 5.7049 18.2426 5.0677 18.0696 4.9156 17.64 C 4.5325 16.6684 4.6527 15.5582 4.7513 14.5611 C 4.8649 13.425 4.8645 12.1775 5.4943 11.2124 C 5.7777 10.7767 6.5452 11.0532 7.0606 11.1335 Z " stroke-width="1.0840335061332869"/>
    <path id="ID0.21503017749637365" fill="#FFFFFF" stroke="none" stroke-linecap="round" d="M 7.6198 13.0633 C 7.9166 13.1012 8.186 13.387 8.2524 13.688 C 8.4183 14.341 8.3559 15.064 8.2712 15.7384 C 8.1739 16.5139 8.0736 17.3142 7.7121 18.0449 C 7.5793 18.2699 7.2248 18.345 6.9057 18.3818 C 6.5744 18.4107 6.0512 18.3665 5.9641 18.0466 C 5.7381 17.2092 5.9735 16.2356 6.1363 15.3371 C 6.2441 14.741 6.4009 14.0668 6.7463 13.5012 C 6.9282 13.2583 7.2982 13.0235 7.6198 13.0633 Z " stroke-width="1.0840335061332869"/>
  </g>
  <path id="ID0.19551143841817975" fill="#FAA51D" stroke="none" stroke-linecap="round" d="M 7.1932 14.9523 C 6.9364 14.83 6.67 15.3564 6.4675 15.6065 C 5.9903 16.2393 5.5859 17.0015 5.2851 17.5549 C 4.9393 18.1911 4.5143 18.83 4.3926 19.5374 C 4.387 19.8021 4.748 19.9823 4.9558 20.0903 C 5.3447 20.2918 5.875 20.8009 6.2499 20.5469 C 6.6851 20.2479 6.3858 19.5659 6.5419 19.1017 C 6.877 18.1129 7.4762 17.2443 7.6104 16.2278 C 7.704 15.7876 7.5549 15.1267 7.1932 14.9523 Z " stroke-width="1.0840336712195"/>
  <g id="ID0.6909988787956536">
    <g id="ID0.847524844110012">
      <path id="ID0.10025785537436604" fill="#FAA51D" stroke="none" d="M 6.9308 2.403 C 8.575 2.2027 10.1371 2.6214 11.3342 3.4596 C 12.5303 4.298 13.3615 5.5558 13.5416 7.0338 C 13.7217 8.5118 13.2169 9.9324 12.2571 11.0335 C 11.2963 12.1346 9.8804 12.9162 8.2362 13.1166 C 6.592 13.3169 5.0299 12.8982 3.8327 12.06 C 2.6367 11.2217 1.8055 9.9638 1.6254 8.4858 C 1.4453 7.0078 1.9501 5.5872 2.9099 4.4861 C 3.8707 3.385 5.2865 2.6034 6.9308 2.403 Z " stroke-width="1.1013089777213054"/>
      <path id="ID0.23814574256539345" fill="#FAA51D" stroke="none" stroke-linecap="round" d="M 0.3614 2.3332 L 4.9061 3.6654 L 1.6301 7.2821 L 0.3614 2.3332 Z " stroke-width="1.1013089777213054"/>
      <path id="ID0.23814574256539345" fill="#FAA51D" stroke="none" stroke-linecap="round" d="M 10.9965 0.3813 L 7.1984 3.2103 L 11.5273 5.4625 L 10.9965 0.3813 Z " stroke-width="1.1013088628796008"/>
      <path id="ID0.46886637480929494" fill="#FFFFFF" stroke="none" stroke-linecap="round" d="M 10.3334 8.3974 C 11.268 8.1826 11.8878 6.9777 12.8306 7.0392 C 13.7622 7.0998 14.9135 7.8804 15.0382 8.7672 C 15.1854 9.8299 14.4716 11.0097 13.6154 11.6587 C 12.4629 12.5891 10.9197 12.8992 9.4444 13.1655 C 8.4804 13.3395 7.4258 13.316 6.508 12.9686 C 5.7628 12.6888 4.8122 12.1711 4.5938 11.3712 C 4.4262 10.4874 4.7605 9.2341 5.5579 8.8129 C 6.9724 8.0659 8.7964 8.7855 10.3334 8.3974 Z " stroke-width="1.1013089777213054"/>
      <path id="ID0.2958779144100845" fill="#666666" stroke="none" stroke-linecap="round" d="M 9.9377 7.8573 C 10.2803 7.7645 10.8312 7.5964 10.9349 7.8467 C 11.0748 8.1658 10.852 8.8686 10.4602 8.9585 C 9.9491 9.1073 9.1458 8.706 9.0004 8.3598 C 8.9008 8.1156 9.5873 7.9133 9.9377 7.8573 Z " stroke-width="1.1013089777213054"/>
    </g>
    <g id="ID0.26280788984149694">
      <g id="ID0.2985607646405697">
        <path id="ID0.6929170889779925" fill="#000000" stroke="none" d="M 10.7384 3.7067 C 11.0773 3.6654 11.4098 3.8268 11.6709 4.1212 C 11.9331 4.4154 12.1251 4.8436 12.1847 5.3333 C 12.2444 5.8231 12.1609 6.2848 11.977 6.6334 C 11.7943 6.9818 11.5102 7.2184 11.1713 7.2597 C 10.8324 7.301 10.4999 7.1396 10.2388 6.8452 C 9.9766 6.551 9.7847 6.1228 9.725 5.633 C 9.6653 5.1433 9.7488 4.6816 9.9327 4.333 C 10.1155 3.9845 10.3995 3.748 10.7384 3.7067 Z " stroke-width="1.1013089777213054"/>
        <path id="ID0.02252052817493677" fill="#CCCCCC" stroke="none" d="M 11.1443 4.0113 C 11.2722 3.9958 11.4018 4.0854 11.5054 4.2436 C 11.6101 4.4017 11.6908 4.6271 11.7221 4.884 C 11.7534 5.1409 11.7292 5.379 11.6655 5.5576 C 11.603 5.7361 11.4987 5.8542 11.3708 5.8698 C 11.2428 5.8854 11.1132 5.7958 11.0096 5.6376 C 10.9049 5.4795 10.8242 5.2541 10.7929 4.9972 C 10.7616 4.7403 10.7858 4.5021 10.8495 4.3235 C 10.9121 4.145 11.0164 4.0269 11.1443 4.0113 Z " stroke-width="1.1013089777213054"/>
      </g>
      <g id="ID0.2985607646405697">
        <path id="ID0.6929170889779925" fill="#000000" stroke="none" d="M 6.6384 4.4067 C 6.9773 4.3654 7.3098 4.5268 7.5709 4.8212 C 7.8331 5.1154 8.0251 5.5436 8.0847 6.0333 C 8.1444 6.5231 8.0609 6.9848 7.877 7.3334 C 7.6943 7.6818 7.4102 7.9184 7.0713 7.9597 C 6.7324 8.001 6.3999 7.8396 6.1388 7.5452 C 5.8766 7.251 5.6847 6.8228 5.625 6.333 C 5.5653 5.8433 5.6488 5.3816 5.8327 5.033 C 6.0155 4.6845 6.2995 4.448 6.6384 4.4067 Z " stroke-width="1.1013089777213054"/>
        <path id="ID0.02252052817493677" fill="#CCCCCC" stroke="none" d="M 6.9943 4.6613 C 7.1222 4.6458 7.2518 4.7354 7.3554 4.8936 C 7.4601 5.0517 7.5408 5.2771 7.5721 5.534 C 7.6034 5.7909 7.5792 6.029 7.5155 6.2076 C 7.453 6.3861 7.3487 6.5042 7.2208 6.5198 C 7.0928 6.5354 6.9632 6.4458 6.8596 6.2876 C 6.7549 6.1295 6.6742 5.9041 6.6429 5.6472 C 6.6116 5.3903 6.6358 5.1521 6.6995 4.9735 C 6.7621 4.795 6.8664 4.6769 6.9943 4.6613 Z " stroke-width="1.1013089777213054"/>
      </g>
    </g>
  </g>
  <path id="ID0.9358589742332697" fill="#F9B341" stroke="none" stroke-width="16.260503150607516" stroke-linecap="round" d="M 2.6537 15.5295 C 2.5451 15.2275 2.7532 14.7483 2.9597 14.4279 C 3.2958 13.9079 3.7463 13.5643 4.1904 13.2044 C 4.5254 12.9152 4.8333 12.4126 5.2917 12.3984 C 5.6206 12.425 6.0114 12.9069 5.9154 13.225 C 5.7149 13.8839 5.0428 14.2935 4.558 14.7893 C 4.2115 15.1441 3.8825 15.5493 3.4145 15.7089 C 3.1782 15.8243 2.7393 15.7626 2.6537 15.5295 Z "/>
</svg>