<svg xmlns="http://www.w3.org/2000/svg" xmlns:xlink="http://www.w3.org/1999/xlink" version="1.1" width="22.54305579600642" height="17.424855493882397" viewBox="-0.142027628113379 -0.398627650429358 22.54305579600642 17.424855493882397">
  <!-- Exported by Scratch - http://scratch.mit.edu/ -->
  <path id="ID0.1019937596283853" fill="#CC0000" stroke="none" d="M 21.3328 1.6625 L 16.1414 1.9608 L 16.4396 7.1522 L 21.6311 6.8539 L 21.3328 1.6625 Z " stroke-width="1.2839506650377328"/>
  <g id="ID0.38220522552728653">
    <path id="ID0.9160578120499849" fill="#B40101" stroke="none" d="M 10.5736 11.6298 L 5.7805 11.8867 L 6.0053 16.0807 L 10.6986 15.8291 L 10.5736 11.6298 Z " stroke-width="1.000000089544059"/>
    <path id="ID0.5961301568895578" fill="#CC0000" stroke="none" d="M 6.8488 12.8308 L 5.351 12.9111 L 5.5303 16.2563 L 7.0281 16.176 L 6.8488 12.8308 Z " stroke-width="1.126818140134026"/>
  </g>
  <g id="ID0.6226657046936452">
    <path id="ID0.9160578120499849" fill="#B40101" stroke="none" d="M 17.3839 11.1428 L 12.9036 11.5667 L 13.2527 15.7522 L 17.6375 15.3864 L 17.3839 11.1428 Z " stroke-width="1.0000000132632347"/>
    <path id="ID0.5961301568895578" fill="#CC0000" stroke="none" d="M 14.426 13.0076 L 12.9312 13.1322 L 13.1556 15.8229 L 14.6505 15.6982 L 14.426 13.0076 Z " stroke-width="1.0000000132632347"/>
  </g>
  <g id="ID0.8784058634191751">
    <path id="ID0.20379002764821053" fill="#CC0000" stroke="none" d="M 19.163 0.3713 L 4.0346 1.1803 L 4.7102 13.8123 L 19.8386 13.0032 L 19.163 0.3713 Z " stroke-width="1.013449748589165"/>
    <path id="ID0.8935396964661777" fill="#FF0000" stroke="none" d="M 4.819 1.1231 L 3.0715 1.2165 L 3.7417 13.7486 L 5.4892 13.6552 L 4.819 1.1231 Z " stroke-width="0.7545089550117171"/>
  </g>
  <path id="ID0.1019937596283853" fill="#CC0000" stroke="none" d="M 5.8149 2.9866 L 0.6279 3.3535 L 0.9948 8.5405 L 6.1819 8.1736 L 5.8149 2.9866 Z " stroke-width="1.283950647462343"/>
  <g id="ID0.48247802583500743">
    <path id="ID0.8655728464946151" fill="#000000" stroke="none" stroke-linecap="round" d="M 18.9017 2.1774 L 13.5079 3.7158 L 13.7932 7.2544 L 19.2754 6.8124 L 18.9017 2.1774 Z " stroke-width="1.0952181745814102"/>
    <path id="ID0.006696532014757395" fill="#990000" stroke="none" d="M 18.9332 2.0211 L 13.4333 3.6985 L 13.5937 4.2246 L 19.0936 2.5472 L 18.9332 2.0211 Z " stroke-width="0.9999999910350557"/>
    <path id="ID0.8491002093069255" fill="#E5E5E5" stroke="none" d="M 18.5039 2.8273 L 17.6598 2.8954 L 17.734 3.8163 L 18.5782 3.7482 L 18.5039 2.8273 Z " stroke-width="1.5398552650005617"/>
  </g>
  <g id="ID0.3748739790171385">
    <path id="ID0.8617808222770691" fill="#CC0000" stroke="none" d="M 4.7302 7.2404 L 4.6803 7.2444 L 4.6803 7.2444 L 4.7302 7.2404 L 4.7302 7.2404 Z " stroke-width="1.0000000547665642"/>
    <path id="ID0.8655728464946151" fill="#000000" stroke="none" stroke-linecap="round" d="M 5.8067 3.3394 L 11.3773 3.9938 L 11.6626 7.5323 L 6.1803 7.9743 L 5.8067 3.3394 Z " stroke-width="1.0952181745814102"/>
    <path id="ID0.006696532014757395" fill="#990000" stroke="none" d="M 5.7922 2.7327 L 11.4898 3.5073 L 11.4157 4.0523 L 5.7181 3.2777 L 5.7922 2.7327 Z " stroke-width="0.9999999772373018"/>
    <path id="ID0.8491002093069255" fill="#E5E5E5" stroke="none" d="M 10.5539 3.6773 L 9.7098 3.7454 L 9.784 4.6663 L 10.6282 4.5982 L 10.5539 3.6773 Z " stroke-width="1.5398552650005617"/>
  </g>
  <g id="ID0.1409649746492505">
    <path id="ID0.09020493365824223" fill="#000000" stroke="none" d="M 17.3453 7.5389 L 8.5405 8.4325 L 8.697 9.9745 L 17.5018 9.081 L 17.3453 7.5389 Z " stroke-width="0.9385946802753826"/>
    <path id="ID0.18048822786659002" fill="#FFFFFF" stroke="none" d="M 16.2588 7.6138 L 9.4935 8.3004 L 9.5491 8.8476 L 16.3143 8.161 L 16.2588 7.6138 Z " stroke-width="0.9344124411889707"/>
  </g>
</svg>