<svg xmlns="http://www.w3.org/2000/svg" xmlns:xlink="http://www.w3.org/1999/xlink" version="1.1" width="20.011032829471485" height="18.231932411380665" viewBox="-0.42406619081301333 -0.916866173241564 20.011032829471485 18.231932411380665">
  <!-- Exported by Scratch - http://scratch.mit.edu/ -->
  <path id="ID0.09066551923751831" fill="#B40101" stroke="none" d="M 9.2518 11.8774 L 6.0106 10.4213 L 4.3715 14.0701 L 7.6127 15.5261 L 9.2518 11.8774 Z " stroke-width="0.9680770770526806"/>
  <path id="ID0.09066551923751831" fill="#B40101" stroke="none" d="M 11.5829 12.2705 L 7.9846 12.3815 L 8.1079 16.3796 L 11.7062 16.2686 L 11.5829 12.2705 Z " stroke-width="0.9740397295137644"/>
  <g id="ID0.08273157011717558">
    <path id="ID0.20379002764821053" fill="#CC0000" stroke="none" d="M 18.6515 3.6272 L 9.3093 1.3918 L 6.3745 13.5579 L 15.7167 15.7933 L 18.6515 3.6272 Z " stroke-width="0.8062573415959435"/>
    <path id="ID0.8935396964661777" fill="#FF0000" stroke="none" d="M 10.814 1.7871 L 3.423 0.0186 L 0.5114 12.0886 L 7.9024 13.8571 L 10.814 1.7871 Z " stroke-width="1.870932350345509"/>
  </g>
  <path id="ID0.1019937596283853" fill="#CC0000" stroke="none" d="M 10.114 8.0248 L 4.978 7.2114 L 4.1647 12.3474 L 9.3007 13.1608 L 10.114 8.0248 Z " stroke-width="1.283950533415529"/>
  <path id="ID0.8617808222770691" fill="#CC0000" stroke="none" d="M 7.2032 7.0745 L 7.1538 7.0667 L 7.1538 7.0667 L 7.2032 7.0745 L 7.2032 7.0745 Z " stroke-width="0.9999999766464479"/>
  <g id="ID0.2303205570206046">
    <path id="ID0.8655728464946151" fill="#000000" stroke="none" stroke-linecap="round" d="M 11.59 5.6298 L 16.6818 7.832 L 16.0414 10.0842 L 10.7511 8.5799 L 11.59 5.6298 Z " stroke-width="0.9576126567695468"/>
    <path id="ID0.006696532014757395" fill="#990000" stroke="none" d="M 11.8481 5.0943 L 16.9145 7.8137 L 16.6543 8.2983 L 11.588 5.5789 L 11.8481 5.0943 Z " stroke-width="1.0000000471977752"/>
    <path id="ID0.8491002093069255" fill="#E5E5E5" stroke="none" d="M 15.6915 7.8093 L 14.8769 7.5777 L 14.6242 8.4663 L 15.4388 8.698 L 15.6915 7.8093 Z " stroke-width="1.5398553030061095"/>
  </g>
  <g id="ID0.6190438214689493">
    <path id="ID0.09020493365824223" fill="#000000" stroke="none" d="M 16.5653 12.0802 L 12.7981 11.009 L 12.3741 12.4999 L 16.1413 13.5711 L 16.5653 12.0802 Z " stroke-width="0.6027815261929979"/>
    <path id="ID0.18048822786659002" fill="#FFFFFF" stroke="none" d="M 16.3912 12.2521 L 13.8422 11.5273 L 13.6918 12.0563 L 16.2407 12.7811 L 16.3912 12.2521 Z " stroke-width="0.6280106592750274"/>
    <path id="ID0.5967760691419244" fill="#E5E5E5" stroke="none" d="M 16.1169 12.9307 L 13.8565 12.2879 L 13.6924 12.8651 L 15.9528 13.5078 L 16.1169 12.9307 Z " stroke-width="0.622425369288643"/>
  </g>
</svg>