<svg xmlns="http://www.w3.org/2000/svg" xmlns:xlink="http://www.w3.org/1999/xlink" version="1.1" width="29.950813989476995" height="36.88191197379096" viewBox="-7.455152680792727 -7.369652738490023 29.950813989476995 36.88191197379096">
  <!-- Exported by Scratch - http://scratch.mit.edu/ -->
  <path id="ID0.9358589742332697" fill="#DB861B" stroke="none" stroke-width="16.26050331153063" stroke-linecap="round" d="M 7.8466 12.6428 C 7.5386 12.5525 7.0728 12.7888 6.7652 13.0141 C 6.2662 13.3806 5.9501 13.8508 5.6174 14.3156 C 5.3487 14.6673 4.8654 15.0046 4.8786 15.463 C 4.9247 15.7898 5.4292 16.1511 5.741 16.0363 C 6.3867 15.7968 6.7555 15.1015 7.2214 14.588 C 7.5549 14.2209 7.9397 13.8682 8.0711 13.3916 C 8.1722 13.1488 8.0843 12.7143 7.8466 12.6428 Z "/>
  <path id="ID0.19551143841817975" fill="#DB861B" stroke="none" stroke-width="16.26050541861518" stroke-linecap="round" d="M 8.1308 16.217 C 7.8345 16.2134 7.3912 16.1203 7.1635 16.355 C 6.6487 16.8911 6.3814 17.6609 6.0833 18.3619 C 5.7841 19.0226 5.3892 19.6773 5.2944 20.3878 C 5.3117 20.6532 5.6723 20.8137 5.8854 20.9109 C 6.2842 21.092 6.84 21.573 7.2013 21.3 C 7.6205 20.979 7.2734 20.2878 7.4183 19.8417 C 7.8211 18.638 8.6071 17.5575 8.8366 16.3743 C 8.894 16.0785 8.369 16.2191 8.1308 16.217 Z "/>
  <g id="ID0.30696602864190936">
    <path id="ID0.637318427208811" fill="#FAA51D" stroke="none" stroke-linecap="round" d="M 4.8162 16.8107 C 5.5104 16.6769 6.0794 16.0256 6.7911 15.9767 C 7.1302 15.9548 7.4944 16.2758 7.4803 16.5618 C 7.5023 16.9776 7.1501 17.3263 6.8065 17.5412 C 6.2916 17.8866 5.7213 18.1154 5.0754 18.252 C 4.3638 18.403 3.6186 18.5469 2.8994 18.4498 C 2.5481 18.4311 2.0583 18.2717 2.0078 17.9233 C 1.9503 17.5231 2.2818 17.039 2.6734 16.8759 C 3.3186 16.614 4.1124 16.9822 4.8162 16.8107 Z " stroke-width="1.0840335895628028"/>
    <path id="ID0.9894068208523095" fill="#FFFFFF" stroke="none" stroke-linecap="round" d="M 2.4283 16.9529 C 2.8953 16.6323 3.7435 16.6446 4.1922 16.9006 C 4.3976 16.9722 3.7536 17.3259 3.7369 17.6103 C 3.7206 17.9167 4.3803 18.3463 4.1337 18.4113 C 3.5829 18.6325 2.6322 18.6182 2.1416 18.1805 C 1.8288 17.9015 2.0829 17.1903 2.4283 16.9529 Z " stroke-width="1.0840335895628028"/>
  </g>
  <g id="ID0.536394951865077">
    <path id="ID0.6198067106306553" fill="#FAA51D" stroke="none" stroke-linecap="round" d="M 6.3055 10.5616 C 6.8095 10.4454 7.5025 10.1431 7.8435 10.5514 C 8.5541 11.3146 8.7073 12.4869 8.9538 13.5105 C 9.1997 14.5319 9.5666 15.6774 9.3574 16.7664 C 9.2513 17.2132 8.6044 17.3959 8.13 17.5357 C 7.6781 17.6674 7.0221 17.7426 6.7218 17.3999 C 6.0062 16.6391 5.7068 15.5633 5.4292 14.6006 C 5.1141 13.5031 4.6518 12.3444 4.8796 11.2148 C 4.9816 10.7051 5.7969 10.6778 6.3055 10.5616 Z " stroke-width="1.0840336259501413"/>
    <path id="ID0.21503017749637365" fill="#FFFFFF" stroke="none" stroke-linecap="round" d="M 7.5368 12.1093 C 7.8265 12.0346 8.1825 12.2003 8.3556 12.4553 C 8.7515 13.0006 8.9613 13.6953 9.1322 14.3531 C 9.329 15.1096 9.5321 15.8901 9.4668 16.7027 C 9.4267 16.9608 9.1252 17.1619 8.8424 17.3143 C 8.5454 17.4637 8.043 17.6164 7.8437 17.3515 C 7.3237 16.6572 7.1819 15.6657 7.0005 14.7708 C 6.8799 14.1771 6.7759 13.4927 6.8874 12.8395 C 6.9665 12.5465 7.2232 12.1913 7.5368 12.1093 Z " stroke-width="1.0840336259501413"/>
  </g>
  <path id="ID0.19551143841817975" fill="#FAA51D" stroke="none" stroke-linecap="round" d="M 7.2734 15.5633 C 7.0298 15.7101 7.3222 16.2226 7.4192 16.5295 C 7.6841 17.2764 8.0971 18.0341 8.393 18.5901 C 8.7332 19.2293 9.0319 19.9361 9.555 20.4276 C 9.7727 20.5782 10.1221 20.3763 10.3268 20.2625 C 10.7093 20.0491 11.4263 19.8874 11.4211 19.4346 C 11.4116 18.9067 10.6776 18.7803 10.3763 18.3942 C 9.7361 17.5696 9.3417 16.5908 8.5676 15.9184 C 8.252 15.5976 7.6184 15.3577 7.2734 15.5633 Z " stroke-width="1.0840336561743527"/>
  <g id="ID0.6909988787956536">
    <g id="ID0.847524844110012">
      <path id="ID0.10025785537436604" fill="#FAA51D" stroke="none" d="M 7.2296 2.1738 C 8.8858 2.1961 10.3775 2.8208 11.4513 3.8121 C 12.524 4.8035 13.1787 6.1615 13.1587 7.6503 C 13.1387 9.1392 12.4478 10.4791 11.3489 11.4413 C 10.2489 12.4035 8.7409 12.9879 7.0847 12.9657 C 5.4285 12.9435 3.9367 12.3188 2.863 11.3274 C 1.7903 10.3361 1.1355 8.978 1.1555 7.4892 C 1.1755 6.0004 1.8665 4.6604 2.9654 3.6982 C 4.0654 2.736 5.5733 2.1516 7.2296 2.1738 Z " stroke-width="1.1013089849387"/>
      <path id="ID0.23814574256539345" fill="#FAA51D" stroke="none" stroke-linecap="round" d="M 0.6751 1.2213 L 4.9998 3.1518 L 1.2679 6.2958 L 0.6751 1.2213 Z " stroke-width="1.1013089849387"/>
      <path id="ID0.23814574256539345" fill="#FAA51D" stroke="none" stroke-linecap="round" d="M 11.4911 0.7606 L 7.3475 3.0541 L 11.3348 5.8672 L 11.4911 0.7606 Z " stroke-width="1.101308870376209"/>
      <path id="ID0.46886637480929494" fill="#FFFFFF" stroke="none" stroke-linecap="round" d="M 9.7529 8.5915 C 10.7079 8.5041 11.4839 7.3933 12.4098 7.5808 C 13.3248 7.766 14.3609 8.6941 14.3654 9.5896 C 14.3686 10.6624 13.5028 11.7357 12.5672 12.2639 C 11.3002 13.0311 9.7294 13.1312 8.2317 13.197 C 7.2531 13.24 6.2111 13.0751 5.3484 12.6076 C 4.6475 12.2303 3.7749 11.5897 3.6659 10.7676 C 3.6185 9.8694 4.1181 8.6722 4.9648 8.362 C 6.4668 7.8116 8.1777 8.7697 9.7529 8.5915 Z " stroke-width="1.1013089849387"/>
      <path id="ID0.2958779144100845" fill="#666666" stroke="none" stroke-linecap="round" d="M 9.4093 7.9781 C 9.7612 7.9321 10.3297 7.8395 10.3989 8.1015 C 10.4946 8.4365 10.1795 9.103 9.7792 9.1395 C 9.2527 9.2184 8.5106 8.7128 8.413 8.3502 C 8.3471 8.0949 9.0545 7.9865 9.4093 7.9781 Z " stroke-width="1.1013089849387"/>
    </g>
    <g id="ID0.26280788984149694">
      <g id="ID0.2985607646405697">
        <path id="ID0.6929170889779925" fill="#000000" stroke="none" d="M 10.7411 4.0362 C 11.0825 4.0408 11.3903 4.2454 11.6095 4.5722 C 11.8298 4.8989 11.9626 5.349 11.9559 5.8423 C 11.9493 6.3357 11.8045 6.782 11.5755 7.1028 C 11.3477 7.4235 11.0344 7.6198 10.693 7.6152 C 10.3517 7.6106 10.0438 7.406 9.8246 7.0792 C 9.6043 6.7525 9.4716 6.3024 9.4782 5.8091 C 9.4848 5.3157 9.6296 4.8694 9.8586 4.5487 C 10.0865 4.2279 10.3997 4.0317 10.7411 4.0362 Z " stroke-width="1.1013089849387"/>
        <path id="ID0.02252052817493677" fill="#CCCCCC" stroke="none" d="M 11.2111 4.3943 C 11.34 4.396 11.4564 4.5022 11.5378 4.6729 C 11.6203 4.8437 11.67 5.0778 11.6666 5.3366 C 11.6631 5.5954 11.6071 5.8281 11.52 5.9966 C 11.4341 6.1651 11.3148 6.2681 11.186 6.2664 C 11.0572 6.2646 10.9407 6.1584 10.8593 5.9877 C 10.7768 5.817 10.7271 5.5828 10.7305 5.324 C 10.734 5.0653 10.79 4.8325 10.8771 4.6641 C 10.9631 4.4956 11.0823 4.3926 11.2111 4.3943 Z " stroke-width="1.1013089849387"/>
      </g>
      <g id="ID0.2985607646405697">
        <path id="ID0.6929170889779925" fill="#000000" stroke="none" d="M 6.6414 4.1047 C 6.9827 4.1093 7.2906 4.3138 7.5098 4.6406 C 7.7301 4.9674 7.8628 5.4174 7.8562 5.9108 C 7.8496 6.4041 7.7048 6.8504 7.4758 7.1712 C 7.2479 7.4919 6.9347 7.6882 6.5933 7.6836 C 6.2519 7.679 5.9441 7.4744 5.7249 7.1477 C 5.5046 6.8209 5.3719 6.3708 5.3785 5.8775 C 5.3851 5.3842 5.5299 4.9378 5.7589 4.6171 C 5.9868 4.2963 6.3 4.1001 6.6414 4.1047 Z " stroke-width="1.1013089849387"/>
        <path id="ID0.02252052817493677" fill="#CCCCCC" stroke="none" d="M 7.01 4.4156 C 7.1388 4.4174 7.2553 4.5236 7.3367 4.6943 C 7.4192 4.865 7.4689 5.0992 7.4654 5.3579 C 7.462 5.6167 7.406 5.8495 7.3189 6.0179 C 7.2329 6.1864 7.1137 6.2894 6.9849 6.2877 C 6.856 6.286 6.7396 6.1798 6.6582 6.0091 C 6.5757 5.8383 6.5259 5.6042 6.5294 5.3454 C 6.5329 5.0866 6.5889 4.8539 6.6759 4.6854 C 6.7619 4.5169 6.8811 4.4139 7.01 4.4156 Z " stroke-width="1.1013089849387"/>
      </g>
    </g>
  </g>
  <path id="ID0.9358589742332697" fill="#F9B341" stroke="none" stroke-width="16.26050346059342" stroke-linecap="round" d="M 6.0614 12.9525 C 6.1921 13.2457 6.0202 13.739 5.8381 14.0739 C 5.5417 14.6175 5.118 14.9936 4.7019 15.3855 C 4.3893 15.6988 4.1196 16.2229 3.6636 16.2712 C 3.3336 16.2691 2.9081 15.8176 2.9802 15.4932 C 3.1311 14.8213 3.7708 14.3628 4.2174 13.8323 C 4.5365 13.4528 4.8346 13.0242 5.2893 12.8302 C 5.5164 12.6975 5.9587 12.7265 6.0614 12.9525 Z "/>
</svg>