<svg xmlns="http://www.w3.org/2000/svg" xmlns:xlink="http://www.w3.org/1999/xlink" version="1.1" width="19.19109912130371" height="18.068597748012696" viewBox="-0.016899562940674295 -0.6270995508290105 19.19109912130371 18.068597748012696">
  <!-- Exported by Scratch - http://scratch.mit.edu/ -->
  <path id="ID0.09066551923751831" fill="#B40101" stroke="none" d="M 5.6638 12.3799 L 1.9208 11.4467 L 0.9531 15.3279 L 4.6962 16.2611 L 5.6638 12.3799 Z " stroke-width="1.0076042013792965"/>
  <path id="ID0.09066551923751831" fill="#B40101" stroke="none" d="M 15.6481 12.072 L 11.6241 12.5304 L 12.0737 16.505 L 16.0977 16.0467 L 15.6481 12.072 Z " stroke-width="1.0334183539642903"/>
  <g id="ID0.08273157011717558">
    <path id="ID0.20379002764821053" fill="#CC0000" stroke="none" d="M 18.2377 2.6368 L 8.726 1.2119 L 6.9075 13.5948 L 16.4192 15.0197 L 18.2377 2.6368 Z " stroke-width="0.8066602209190077"/>
    <path id="ID0.8935396964661777" fill="#FF0000" stroke="none" d="M 10.2489 1.4366 L 2.7238 0.3094 L 0.9196 12.5944 L 8.4448 13.7217 L 10.2489 1.4366 Z " stroke-width="1.8729991457177744"/>
  </g>
  <path id="ID0.8617808222770691" fill="#CC0000" stroke="none" d="M 7.2032 7.0745 L 7.1538 7.0667 L 7.1538 7.0667 L 7.2032 7.0745 L 7.2032 7.0745 Z " stroke-width="0.9999999766464479"/>
  <g id="ID0.2303205570206046">
    <path id="ID0.8655728464946151" fill="#000000" stroke="none" stroke-linecap="round" d="M 11.314 5.1449 L 16.6118 6.7909 L 16.2155 9.0986 L 10.7949 8.1677 L 11.314 5.1449 Z " stroke-width="0.9576126986170258"/>
    <path id="ID0.006696532014757395" fill="#990000" stroke="none" d="M 11.4644 4.6274 L 16.7921 6.7903 L 16.5852 7.2999 L 11.2575 5.137 L 11.4644 4.6274 Z " stroke-width="1.000000034270559"/>
    <path id="ID0.8491002093069255" fill="#E5E5E5" stroke="none" d="M 15.5426 6.8671 L 14.7079 6.7237 L 14.5516 7.6343 L 15.3863 7.7777 L 15.5426 6.8671 Z " stroke-width="1.539855262394328"/>
  </g>
  <g id="ID0.6190438214689493">
    <path id="ID0.09020493365824223" fill="#000000" stroke="none" d="M 16.9821 10.611 L 13.0844 10.2277 L 12.9327 11.7703 L 16.8304 12.1536 L 16.9821 10.611 Z " stroke-width="0.6027814915438496"/>
    <path id="ID0.18048822786659002" fill="#FFFFFF" stroke="none" d="M 16.8548 10.7952 L 14.2175 10.5358 L 14.1637 11.0832 L 16.8009 11.3425 L 16.8548 10.7952 Z " stroke-width="0.6280106543799527"/>
    <path id="ID0.5967760691419244" fill="#E5E5E5" stroke="none" d="M 16.605 11.5682 L 14.2663 11.3382 L 14.2076 11.9353 L 16.5463 12.1653 L 16.605 11.5682 Z " stroke-width="0.6224253471424558"/>
  </g>
  <path id="ID0.1019937596283853" fill="#CC0000" stroke="none" d="M 13.3161 8.5223 L 8.3168 7.0916 L 6.8861 12.0909 L 11.8854 13.5216 L 13.3161 8.5223 Z " stroke-width="1.2839504890075084"/>
</svg>