<svg xmlns="http://www.w3.org/2000/svg" xmlns:xlink="http://www.w3.org/1999/xlink" version="1.1" width="16.210304260253906" height="9.877593994140625" viewBox="0.48017269372940063 -0.10538795590400696 16.210304260253906 9.877593994140625">
  <!-- Exported by Scratch - http://scratch.mit.edu/ -->
  <g id="ID0.9589049257338047">
    <path id="ID0.13847442343831062" fill="#FF99E5" stroke="#FF0000" stroke-linecap="round" d="M 13.55 1.15 C 15.1 1.596 15.785 3.692 16.1 5.25 C 16.326 6.368 16.182 8.245 15.05 8.5 C 11.162 9.433 6.908 9.335 3 8.35 C 1.74 8.033 1.03 6.366 1 5 C 0.971 3.645 1.602 1.79 2.9 1.4 C 6.311 0.376 10.149 0.152 13.55 1.15 Z " stroke-width="1"/>
    <path id="ID0.49281814275309443" fill="#EDBFE3" stroke="none" stroke-linecap="round" d="M 5.15 0.75 C 6.404 0.55 7.98 0.011 8.9 0.85 C 9.975 1.833 9.914 3.711 9.9 5.2 C 9.898 6.404 9.821 8.071 8.8 8.8 C 7.666 9.605 5.932 9.188 4.5 8.95 C 3.487 8.795 2.347 8.477 1.65 7.65 C 0.996 6.868 0.936 5.67 1 4.65 C 1.086 3.759 1.284 2.739 1.95 2.15 C 2.849 1.361 4.036 0.991 5.15 0.75 Z " stroke-width="1"/>
    <path id="ID0.7134017609059811" fill="#FF9CE6" stroke="none" d="M 3.35 2.35 C 3.488 2.35 3.613 2.406 3.703 2.497 C 3.794 2.587 3.85 2.712 3.85 2.85 C 3.85 2.988 3.794 3.113 3.703 3.203 C 3.613 3.294 3.488 3.35 3.35 3.35 C 3.212 3.35 3.087 3.294 2.997 3.203 C 2.906 3.113 2.85 2.988 2.85 2.85 C 2.85 2.712 2.906 2.587 2.997 2.497 C 3.087 2.406 3.212 2.35 3.35 2.35 Z " stroke-width="1"/>
    <path id="ID0.7134017609059811" fill="#FF9CE6" stroke="none" d="M 6.95 2.4 C 7.088 2.4 7.213 2.456 7.303 2.547 C 7.394 2.637 7.45 2.762 7.45 2.9 C 7.45 3.038 7.394 3.163 7.303 3.253 C 7.213 3.344 7.088 3.4 6.95 3.4 C 6.812 3.4 6.687 3.344 6.597 3.253 C 6.506 3.163 6.45 3.038 6.45 2.9 C 6.45 2.762 6.506 2.637 6.597 2.547 C 6.687 2.456 6.812 2.4 6.95 2.4 Z " stroke-width="1"/>
    <path id="ID0.7134017609059811" fill="#FF9CE6" stroke="none" d="M 4.45 4.3 C 4.588 4.3 4.713 4.356 4.803 4.447 C 4.894 4.537 4.95 4.662 4.95 4.8 C 4.95 4.938 4.894 5.063 4.803 5.153 C 4.713 5.244 4.588 5.3 4.45 5.3 C 4.312 5.3 4.187 5.244 4.097 5.153 C 4.006 5.063 3.95 4.938 3.95 4.8 C 3.95 4.662 4.006 4.537 4.097 4.447 C 4.187 4.356 4.312 4.3 4.45 4.3 Z " stroke-width="1"/>
    <path id="ID0.7134017609059811" fill="#FF9CE6" stroke="none" d="M 3.6 6.3 C 3.738 6.3 3.863 6.356 3.953 6.447 C 4.044 6.537 4.1 6.662 4.1 6.8 C 4.1 6.938 4.044 7.063 3.953 7.153 C 3.863 7.244 3.738 7.3 3.6 7.3 C 3.462 7.3 3.337 7.244 3.247 7.153 C 3.156 7.063 3.1 6.938 3.1 6.8 C 3.1 6.662 3.156 6.537 3.247 6.447 C 3.337 6.356 3.462 6.3 3.6 6.3 Z " stroke-width="1"/>
    <path id="ID0.7134017609059811" fill="#FF9CE6" stroke="none" d="M 7.45 6.3 C 7.588 6.3 7.713 6.356 7.803 6.447 C 7.894 6.537 7.95 6.662 7.95 6.8 C 7.95 6.938 7.894 7.063 7.803 7.153 C 7.713 7.244 7.588 7.3 7.45 7.3 C 7.312 7.3 7.187 7.244 7.097 7.153 C 7.006 7.063 6.95 6.938 6.95 6.8 C 6.95 6.662 7.006 6.537 7.097 6.447 C 7.187 6.356 7.312 6.3 7.45 6.3 Z " stroke-width="1"/>
    <path id="ID0.21114904107525945" fill="none" stroke="#000000" stroke-width="1" stroke-linecap="round" d="M 8.65 9.05 C 8.65 9.05 9.41 7.836 9.55 7.15 C 9.713 6.345 9.65 4.75 9.65 4.75 "/>
    <path id="ID0.6735191270709038" fill="none" stroke="#000000" stroke-width="1" stroke-linecap="round" d="M 9.3 2.95 C 9.3 2.95 9.142 2.123 9 1.7 C 8.925 1.372 8.65 0.7 8.65 0.7 "/>
    <path id="ID0.7134017609059811" fill="#FF9CE6" stroke="none" d="M 2.35 4.4 C 2.488 4.4 2.613 4.456 2.703 4.547 C 2.794 4.637 2.85 4.762 2.85 4.9 C 2.85 5.038 2.794 5.163 2.703 5.253 C 2.613 5.344 2.488 5.4 2.35 5.4 C 2.212 5.4 2.087 5.344 1.997 5.253 C 1.906 5.163 1.85 5.038 1.85 4.9 C 1.85 4.762 1.906 4.637 1.997 4.547 C 2.087 4.456 2.212 4.4 2.35 4.4 Z " stroke-width="1"/>
    <path id="ID0.7134017609059811" fill="#FF9CE6" stroke="none" d="M 5.35 1.25 C 5.488 1.25 5.613 1.306 5.703 1.397 C 5.794 1.487 5.85 1.612 5.85 1.75 C 5.85 1.888 5.794 2.013 5.703 2.103 C 5.613 2.194 5.488 2.25 5.35 2.25 C 5.212 2.25 5.087 2.194 4.997 2.103 C 4.906 2.013 4.85 1.888 4.85 1.75 C 4.85 1.612 4.906 1.487 4.997 1.397 C 5.087 1.306 5.212 1.25 5.35 1.25 Z " stroke-width="1"/>
    <path id="ID0.7134017609059811" fill="#FF9CE6" stroke="none" d="M 5.35 7.65 C 5.488 7.65 5.613 7.706 5.703 7.797 C 5.794 7.887 5.85 8.012 5.85 8.15 C 5.85 8.288 5.794 8.413 5.703 8.503 C 5.613 8.594 5.488 8.65 5.35 8.65 C 5.212 8.65 5.087 8.594 4.997 8.503 C 4.906 8.413 4.85 8.288 4.85 8.15 C 4.85 8.012 4.906 7.887 4.997 7.797 C 5.087 7.706 5.212 7.65 5.35 7.65 Z " stroke-width="1"/>
    <path id="ID0.7134017609059811" fill="#FF9CE6" stroke="none" d="M 8.35 4.3 C 8.488 4.3 8.613 4.356 8.703 4.447 C 8.794 4.537 8.85 4.662 8.85 4.8 C 8.85 4.938 8.794 5.063 8.703 5.153 C 8.613 5.244 8.488 5.3 8.35 5.3 C 8.212 5.3 8.087 5.244 7.997 5.153 C 7.906 5.063 7.85 4.938 7.85 4.8 C 7.85 4.662 7.906 4.537 7.997 4.447 C 8.087 4.356 8.212 4.3 8.35 4.3 Z " stroke-width="1"/>
    <path id="ID0.7134017609059811" fill="#FF9CE6" stroke="none" d="M 5.45 2.9 C 5.588 2.9 5.713 2.956 5.803 3.047 C 5.894 3.137 5.95 3.262 5.95 3.4 C 5.95 3.538 5.894 3.663 5.803 3.753 C 5.713 3.844 5.588 3.9 5.45 3.9 C 5.312 3.9 5.187 3.844 5.097 3.753 C 5.006 3.663 4.95 3.538 4.95 3.4 C 4.95 3.262 5.006 3.137 5.097 3.047 C 5.187 2.956 5.312 2.9 5.45 2.9 Z " stroke-width="1"/>
    <path id="ID0.7134017609059811" fill="#FF9CE6" stroke="none" d="M 6.7 4.15 C 6.838 4.15 6.963 4.206 7.053 4.297 C 7.144 4.387 7.2 4.512 7.2 4.65 C 7.2 4.788 7.144 4.913 7.053 5.003 C 6.963 5.094 6.838 5.15 6.7 5.15 C 6.562 5.15 6.437 5.094 6.347 5.003 C 6.256 4.913 6.2 4.788 6.2 4.65 C 6.2 4.512 6.256 4.387 6.347 4.297 C 6.437 4.206 6.562 4.15 6.7 4.15 Z " stroke-width="1"/>
    <path id="ID0.7134017609059811" fill="#FF9CE6" stroke="none" d="M 5.7 5.4 C 5.838 5.4 5.963 5.456 6.053 5.547 C 6.144 5.637 6.2 5.762 6.2 5.9 C 6.2 6.038 6.144 6.163 6.053 6.253 C 5.963 6.344 5.838 6.4 5.7 6.4 C 5.562 6.4 5.437 6.344 5.347 6.253 C 5.256 6.163 5.2 6.038 5.2 5.9 C 5.2 5.762 5.256 5.637 5.347 5.547 C 5.437 5.456 5.562 5.4 5.7 5.4 Z " stroke-width="1"/>
    <path id="ID0.13847442343831062" fill="none" stroke="#000000" stroke-width="1" stroke-linecap="round" d="M 13.55 1.15 C 15.1 1.596 15.785 3.692 16.1 5.25 C 16.326 6.368 16.182 8.245 15.05 8.5 C 11.162 9.433 6.908 9.335 3 8.35 C 1.74 8.033 1.03 6.366 1 5 C 0.971 3.645 1.602 1.79 2.9 1.4 C 6.311 0.376 10.149 0.152 13.55 1.15 Z "/>
  </g>
</svg>