<svg xmlns="http://www.w3.org/2000/svg" xmlns:xlink="http://www.w3.org/1999/xlink" version="1.1" width="20.966803393584865" height="17.33930476687588" viewBox="-0.6115521598966804 -0.3302521515997139 20.966803393584865 17.33930476687588">
  <!-- Exported by Scratch - http://scratch.mit.edu/ -->
  <path id="ID0.1019937596283853" fill="#B40101" stroke="none" d="M 19.4584 1.4545 L 14.2591 1.5372 L 14.3418 6.7366 L 19.5411 6.6538 L 19.4584 1.4545 Z " stroke-width="1.2839506015759214"/>
  <g id="ID0.38220522552728653">
    <path id="ID0.9160578120499849" fill="#B40101" stroke="none" d="M 9.7661 12.1568 L 5.1223 10.9424 L 4.0597 15.0058 L 8.6068 16.1949 L 9.7661 12.1568 Z " stroke-width="1.0000000870985966"/>
    <path id="ID0.5961301568895578" fill="#CC0000" stroke="none" d="M 5.8343 12.1681 L 4.3831 11.7886 L 3.5356 15.0296 L 4.9868 15.4091 L 5.8343 12.1681 Z " stroke-width="1.126817998837075"/>
  </g>
  <g id="ID0.6226657046936452">
    <path id="ID0.9160578120499849" fill="#B40101" stroke="none" d="M 15.5892 10.4523 L 11.3147 11.8601 L 12.5842 15.8636 L 16.7784 14.5338 L 15.5892 10.4523 Z " stroke-width="0.9999999840136303"/>
    <path id="ID0.5961301568895578" fill="#CC0000" stroke="none" d="M 13.0967 12.9784 L 11.6669 13.4318 L 12.4829 16.0055 L 13.9128 15.5521 L 13.0967 12.9784 Z " stroke-width="0.9999999840136303"/>
  </g>
  <g id="ID0.4915104955434799">
    <path id="ID0.20379002764821053" fill="#CC0000" stroke="none" d="M 17.3996 0.4839 L 2.2588 1.0142 L 2.7017 13.6564 L 17.8424 13.1261 L 17.3996 0.4839 Z " stroke-width="1.0134496243127937"/>
    <path id="ID0.8935396964661777" fill="#FF0000" stroke="none" d="M 7.6991 0.8199 L 1.2378 1.0463 L 1.6771 13.5886 L 8.1384 13.3622 L 7.6991 0.8199 Z " stroke-width="1.6283043243709976"/>
  </g>
  <path id="ID0.1019937596283853" fill="#CC0000" stroke="none" d="M 5.7527 7.418 L 0.5653 7.0552 L 0.2026 12.2426 L 5.3899 12.6053 L 5.7527 7.418 Z " stroke-width="1.2839506837377772"/>
  <g id="ID0.3748739790171385">
    <path id="ID0.8617808222770691" fill="#CC0000" stroke="none" d="M 9.152 6.7211 L 9.102 6.7222 L 9.102 6.7222 L 9.152 6.7211 L 9.152 6.7211 Z " stroke-width="1.000000001537541"/>
    <path id="ID0.8655728464946151" fill="#000000" stroke="none" stroke-linecap="round" d="M 10.475 2.8988 L 15.9974 3.8804 L 16.0736 7.4296 L 10.5749 7.5477 L 10.475 2.8988 Z " stroke-width="1.0952181053472323"/>
    <path id="ID0.006696532014757395" fill="#990000" stroke="none" d="M 10.5332 2.2866 L 16.1752 3.3956 L 16.0691 3.9353 L 10.4271 2.8263 L 10.5332 2.2866 Z " stroke-width="0.9999999794077643"/>
    <path id="ID0.8491002093069255" fill="#E5E5E5" stroke="none" d="M 15.1737 3.5015 L 14.327 3.5197 L 14.3468 4.4434 L 15.1935 4.4252 L 15.1737 3.5015 Z " stroke-width="1.5398552353172894"/>
  </g>
  <g id="ID0.2829335597343743">
    <path id="ID0.09020493365824223" fill="#000000" stroke="none" d="M 17.6154 8.0627 L 12.7711 8.2969 L 12.8459 9.8451 L 17.6902 9.6109 L 17.6154 8.0627 Z " stroke-width="0.6561999949201969"/>
    <path id="ID0.18048822786659002" fill="#FFFFFF" stroke="none" d="M 17.4576 8.0045 L 13.3124 8.2049 L 13.3389 8.7542 L 17.4841 8.5538 L 17.4576 8.0045 Z " stroke-width="0.7203534720309841"/>
  </g>
</svg>