<svg xmlns="http://www.w3.org/2000/svg" xmlns:xlink="http://www.w3.org/1999/xlink" version="1.1" width="16.83800506591797" height="12.040761947631836" viewBox="0.3903142809867859 0.0920109748840332 16.83800506591797 12.040761947631836">
  <!-- Exported by Scratch - http://scratch.mit.edu/ -->
  <g id="ID0.0003134477883577347">
    <path id="ID0.6487746122293174" fill="#006622" stroke="none" stroke-linecap="round" d="M 8.3896 11.6258 C 9.9655 11.6735 11.6979 11.4866 13.0336 10.7496 C 14.3541 10.0213 15.4575 8.7888 16.0622 7.4394 C 16.7528 5.8992 16.7487 4.1079 16.7184 2.4256 C 16.7316 1.8998 16.6023 1.1492 16.0118 1.0139 C 13.6696 0.4784 11.2002 0.5923 8.7934 0.6245 C 6.5573 0.6546 4.2535 0.6001 2.0799 1.1112 C 1.4722 1.2884 0.9603 1.9602 0.9189 2.5716 C 0.8159 4.1011 0.9815 5.7201 1.5751 7.1474 C 2.1163 8.4442 2.9734 9.6981 4.1495 10.4575 C 5.37 11.2733 6.946 11.582 8.3896 11.6258 Z " stroke-width="0.9917243807294257"/>
    <path id="ID0.6862273388542235" fill="#009933" stroke="none" stroke-linecap="round" d="M 8.8626 0.7491 C 11.1401 0.7569 13.4661 0.6975 15.6266 1.3333 C 16.2575 1.5299 16.5887 2.4022 16.5352 3.037 C 16.3847 4.8001 16.2969 6.9245 14.9704 8.1969 C 13.555 9.5862 11.2764 10.1032 9.2159 10.144 C 7.0615 10.1869 4.5639 9.8286 3.0071 8.3916 C 1.516 7.0364 1.3272 4.694 1.1395 2.7449 C 1.0819 2.1472 1.7018 1.4871 2.3005 1.3333 C 4.4276 0.7861 6.6688 0.7384 8.8626 0.7491 Z " stroke-width="0.9917243807294257"/>
    <path id="ID0.01353864697739482" fill="#00CC44" stroke="none" stroke-linecap="round" d="M 8.7054 1.0319 C 10.7447 1.0047 12.9586 0.9813 14.8132 1.8108 C 15.5794 2.1895 15.6743 3.3714 15.5704 4.196 C 15.4371 5.2485 15.0323 6.5336 14.056 7.1167 C 12.5578 8.0465 10.6387 8.3259 8.8063 8.3337 C 7.0225 8.3415 5.1134 8.0085 3.6071 7.1167 C 2.7086 6.6095 2.3341 5.4441 2.1938 4.4881 C 2.0716 3.6508 1.9696 2.4271 2.749 2.0055 C 4.5046 1.0592 6.6944 1.0592 8.7054 1.0319 Z " stroke-width="0.9917243807294257"/>
    <path id="ID0.40726609993726015" fill="#99FFBB" stroke="none" d="M 11.8859 1.5452 C 12.2826 1.5452 12.642 1.6707 12.9025 1.8732 C 13.163 2.0757 13.3245 2.3561 13.3245 2.6648 C 13.3245 2.9734 13.163 3.2538 12.9025 3.4563 C 12.642 3.6588 12.2826 3.7844 11.8859 3.7844 C 11.4891 3.7844 11.1297 3.6588 10.8693 3.4563 C 10.6088 3.2538 10.4473 2.9734 10.4473 2.6648 C 10.4473 2.3561 10.6088 2.0757 10.8693 1.8732 C 11.1297 1.6707 11.4891 1.5452 11.8859 1.5452 Z " stroke-width="0.9917243807294257"/>
    <path id="ID0.44971933402121067" fill="#99FFBB" stroke="none" d="M 9.0687 4.433 C 9.2847 4.433 9.4806 4.4953 9.6219 4.5976 C 9.7633 4.6988 9.8511 4.838 9.8511 4.9928 C 9.8511 5.1476 9.7633 5.2869 9.6219 5.3881 C 9.4806 5.4903 9.2847 5.5526 9.0687 5.5526 C 8.8526 5.5526 8.6568 5.4903 8.5154 5.3881 C 8.3741 5.2869 8.2863 5.1476 8.2863 4.9928 C 8.2863 4.838 8.3741 4.6988 8.5154 4.5976 C 8.6568 4.4953 8.8526 4.433 9.0687 4.433 Z " stroke-width="0.9917243807294257"/>
  </g>
  <g id="ID0.8220732379704714">
    <g id="ID0.20715344790369272">
      <path id="ID0.19440001714974642" fill="#000000" stroke="none" d="M 6.05 1.75 C 6.643 1.75 7.181 2.156 7.57 2.812 C 7.959 3.469 8.2 4.375 8.2 5.375 C 8.2 6.375 7.959 7.281 7.57 7.938 C 7.181 8.594 6.643 9 6.05 9 C 5.457 9 4.919 8.594 4.53 7.938 C 4.141 7.281 3.9 6.375 3.9 5.375 C 3.9 4.375 4.141 3.469 4.53 2.812 C 4.919 2.156 5.457 1.75 6.05 1.75 Z " stroke-width="1"/>
      <path id="ID0.35307061253115535" fill="#FFFFFF" stroke="none" d="M 6.7 2.35 C 6.921 2.35 7.121 2.529 7.266 2.819 C 7.41 3.109 7.5 3.509 7.5 3.95 C 7.5 4.391 7.41 4.791 7.266 5.081 C 7.121 5.371 6.921 5.55 6.7 5.55 C 6.479 5.55 6.279 5.371 6.134 5.081 C 5.99 4.791 5.9 4.391 5.9 3.95 C 5.9 3.509 5.99 3.109 6.134 2.819 C 6.279 2.529 6.479 2.35 6.7 2.35 Z " stroke-width="1"/>
    </g>
    <g id="ID0.20715344790369272">
      <path id="ID0.19440001714974642" fill="#000000" stroke="none" d="M 11.9 1.9 C 12.493 1.9 13.031 2.306 13.42 2.962 C 13.809 3.619 14.05 4.525 14.05 5.525 C 14.05 6.525 13.809 7.431 13.42 8.088 C 13.031 8.744 12.493 9.15 11.9 9.15 C 11.307 9.15 10.769 8.744 10.38 8.088 C 9.991 7.431 9.75 6.525 9.75 5.525 C 9.75 4.525 9.991 3.619 10.38 2.962 C 10.769 2.306 11.307 1.9 11.9 1.9 Z " stroke-width="1"/>
      <path id="ID0.35307061253115535" fill="#FFFFFF" stroke="none" d="M 12.55 2.5 C 12.771 2.5 12.971 2.679 13.116 2.969 C 13.26 3.259 13.35 3.659 13.35 4.1 C 13.35 4.541 13.26 4.941 13.116 5.231 C 12.971 5.521 12.771 5.7 12.55 5.7 C 12.329 5.7 12.129 5.521 11.984 5.231 C 11.84 4.941 11.75 4.541 11.75 4.1 C 11.75 3.659 11.84 3.259 11.984 2.969 C 12.129 2.679 12.329 2.5 12.55 2.5 Z " stroke-width="1"/>
    </g>
  </g>
</svg>