<svg xmlns="http://www.w3.org/2000/svg" xmlns:xlink="http://www.w3.org/1999/xlink" version="1.1" width="18.151628494262695" height="10.371589660644531" viewBox="-0.05081385374069214 -0.25556349754333496 18.151628494262695 10.371589660644531">
  <!-- Exported by Scratch - http://scratch.mit.edu/ -->
  <g id="ID0.5668268920853734">
    <path id="ID0.6798444245941937" fill="#000000" stroke="none" stroke-linecap="round" d="M 7.45 0.55 C 7.714 0.544 7.938 0.817 8 1.05 C 8.162 1.594 8.154 2.173 8.15 2.75 C 8.147 3.264 8.155 3.773 8 4.25 C 7.916 4.512 7.704 4.768 7.45 4.75 C 7.182 4.789 6.914 4.57 6.8 4.3 C 6.606 3.835 6.593 3.308 6.6 2.8 C 6.609 2.199 6.588 1.591 6.8 1.05 C 6.915 0.776 7.19 0.544 7.45 0.55 Z " stroke-width="1"/>
    <path id="ID0.1390668787062168" fill="#000000" stroke="none" stroke-linecap="round" d="M 3.05 0.25 C 3.239 0.326 2.412 1.346 2.25 1.95 C 1.997 2.894 1.727 3.869 1.75 4.85 C 1.777 5.903 2.141 6.928 2.4 7.95 C 2.535 8.483 3.192 9.468 2.95 9.6 C 2.699 9.73 1.693 9.044 1.4 8.45 C 0.813 7.391 0.47 6.125 0.45 4.9 C 0.432 3.75 0.713 2.553 1.25 1.55 C 1.632 0.91 2.858 0.173 3.05 0.25 Z " stroke-width="1"/>
    <path id="ID0.1390668787062168" fill="#000000" stroke="none" stroke-linecap="round" d="M 15 0.25 C 14.811 0.326 15.638 1.346 15.8 1.95 C 16.053 2.894 16.323 3.869 16.3 4.85 C 16.273 5.903 15.909 6.928 15.65 7.95 C 15.515 8.483 14.858 9.468 15.1 9.6 C 15.351 9.73 16.357 9.044 16.65 8.45 C 17.237 7.391 17.58 6.125 17.6 4.9 C 17.618 3.75 17.337 2.553 16.8 1.55 C 16.418 0.91 15.192 0.173 15 0.25 Z " stroke-width="1"/>
    <path id="ID0.6798444245941937" fill="#000000" stroke="none" stroke-linecap="round" d="M 14.2 0.6 C 14.464 0.594 14.688 0.867 14.75 1.1 C 14.912 1.644 14.904 2.223 14.9 2.8 C 14.897 3.314 14.905 3.823 14.75 4.3 C 14.666 4.562 14.454 4.818 14.2 4.8 C 13.932 4.839 13.664 4.62 13.55 4.35 C 13.356 3.885 13.343 3.358 13.35 2.85 C 13.359 2.249 13.338 1.641 13.55 1.1 C 13.665 0.826 13.94 0.594 14.2 0.6 Z " stroke-width="1"/>
    <path id="ID0.9753554817289114" fill="#000000" stroke="none" stroke-linecap="round" d="M 10.25 3.15 C 10.901 3.24 11.436 3.7 11.95 4.1 C 12.187 4.279 12.46 4.506 12.5 4.8 C 12.537 5.08 12.341 5.297 12.15 5.45 C 11.629 5.872 11.068 6.324 10.4 6.45 C 10.195 6.511 9.95 6.093 10.05 5.9 C 10.3 5.419 11.261 5.324 11.2 4.8 C 11.186 4.249 10.196 4.238 9.9 3.75 C 9.78 3.552 10.026 3.091 10.25 3.15 Z " stroke-width="1"/>
  </g>
</svg>