<svg xmlns="http://www.w3.org/2000/svg" xmlns:xlink="http://www.w3.org/1999/xlink" version="1.1" width="14.59999942779541" height="20.299999237060547" viewBox="-0.44999999552965164 -0.1499999761581421 14.59999942779541 20.299999237060547">
  <!-- Exported by Scratch - http://scratch.mit.edu/ -->
  <path id="ID0.4261480770073831" fill="#006622" stroke="none" d="M 6.85 0.35 C 8.726 0.35 10.426 1.431 11.657 3.178 C 12.888 4.925 13.65 7.338 13.65 10 C 13.65 12.662 12.888 15.075 11.657 16.822 C 10.426 18.569 8.726 19.65 6.85 19.65 C 4.974 19.65 3.274 18.569 2.043 16.822 C 0.812 15.075 0.05 12.662 0.05 10 C 0.05 7.338 0.812 4.925 2.043 3.178 C 3.274 1.431 4.974 0.35 6.85 0.35 Z " stroke-width="1"/>
  <path id="ID0.861708318348974" fill="#009933" stroke="none" stroke-linecap="round" d="M 6.725 0.85 C 8.23 0.86 9.831 1.757 10.8 2.95 C 12.047 4.569 12.859 6.692 12.95 8.75 C 13.046 10.911 12.61 13.305 11.3 15 C 10.325 16.315 8.423 16.951 6.8 16.85 C 4.972 16.736 2.967 15.923 1.85 14.45 C 0.687 12.844 0.488 10.595 0.65 8.55 C 0.812 6.529 1.658 4.441 2.89 2.887 C 3.789 1.753 5.27 0.84 6.725 0.85 Z " stroke-width="1"/>
  <path id="ID0.36423635948449373" fill="#00CC44" stroke="none" stroke-linecap="round" d="M 6.7 1.15 C 7.944 1.216 9.231 1.793 10.15 2.65 C 11.131 3.588 11.784 4.916 12.1 6.25 C 12.444 7.708 12.937 9.543 12.05 10.75 C 10.899 12.317 8.779 13.272 6.85 13.3 C 4.938 13.343 2.73 12.478 1.55 10.95 C 0.593 9.71 1.065 7.833 1.45 6.35 C 1.84 4.845 2.719 3.399 3.85 2.3 C 4.562 1.573 5.677 1.096 6.7 1.15 Z " stroke-width="1"/>
  <path id="ID0.21407686965540051" fill="#99FFBB" stroke="none" d="M 7.6627 1.65 C 8.063 1.65 8.4248 1.779 8.6879 1.987 C 8.9501 2.195 9.1127 2.483 9.1127 2.8 C 9.1127 3.117 8.9501 3.405 8.6879 3.613 C 8.4248 3.821 8.063 3.95 7.6627 3.95 C 7.2624 3.95 6.9005 3.821 6.6375 3.613 C 6.3752 3.405 6.2127 3.117 6.2127 2.8 C 6.2127 2.483 6.3752 2.195 6.6375 1.987 C 6.9005 1.779 7.2624 1.65 7.6627 1.65 Z " stroke-width="0.9130519903313457"/>
  <path id="ID0.5379764609970152" fill="#99FFBB" stroke="none" d="M 6.5206 3.95 C 6.6865 3.95 6.8361 4.009 6.9448 4.104 C 7.0535 4.199 7.1206 4.33 7.1206 4.475 C 7.1206 4.62 7.0535 4.751 6.9448 4.846 C 6.8361 4.941 6.6865 5 6.5206 5 C 6.3547 5 6.2051 4.941 6.0964 4.846 C 5.9877 4.751 5.9206 4.62 5.9206 4.475 C 5.9206 4.33 5.9877 4.199 6.0964 4.104 C 6.2051 4.009 6.3547 3.95 6.5206 3.95 Z " stroke-width="0.8655258288875918"/>
  <g id="ID0.8220732379704714">
    <g id="ID0.20715344790369272">
      <path id="ID0.19440001714974642" fill="#000000" stroke="none" d="M 3.95 8.55 C 4.543 8.55 5.081 8.956 5.47 9.612 C 5.859 10.269 6.1 11.175 6.1 12.175 C 6.1 13.175 5.859 14.081 5.47 14.738 C 5.081 15.394 4.543 15.8 3.95 15.8 C 3.357 15.8 2.819 15.394 2.43 14.738 C 2.041 14.081 1.8 13.175 1.8 12.175 C 1.8 11.175 2.041 10.269 2.43 9.612 C 2.819 8.956 3.357 8.55 3.95 8.55 Z " stroke-width="1"/>
      <path id="ID0.35307061253115535" fill="#FFFFFF" stroke="none" d="M 4.6 9.15 C 4.821 9.15 5.021 9.329 5.166 9.619 C 5.31 9.909 5.4 10.309 5.4 10.75 C 5.4 11.191 5.31 11.591 5.166 11.881 C 5.021 12.171 4.821 12.35 4.6 12.35 C 4.379 12.35 4.179 12.171 4.034 11.881 C 3.89 11.591 3.8 11.191 3.8 10.75 C 3.8 10.309 3.89 9.909 4.034 9.619 C 4.179 9.329 4.379 9.15 4.6 9.15 Z " stroke-width="1"/>
    </g>
    <g id="ID0.20715344790369272">
      <path id="ID0.19440001714974642" fill="#000000" stroke="none" d="M 9.8 8.75 C 10.393 8.75 10.931 9.156 11.32 9.812 C 11.709 10.469 11.95 11.375 11.95 12.375 C 11.95 13.375 11.709 14.281 11.32 14.938 C 10.931 15.594 10.393 16 9.8 16 C 9.207 16 8.669 15.594 8.28 14.938 C 7.891 14.281 7.65 13.375 7.65 12.375 C 7.65 11.375 7.891 10.469 8.28 9.812 C 8.669 9.156 9.207 8.75 9.8 8.75 Z " stroke-width="1"/>
      <path id="ID0.35307061253115535" fill="#FFFFFF" stroke="none" d="M 10.45 9.35 C 10.671 9.35 10.871 9.529 11.016 9.819 C 11.16 10.109 11.25 10.509 11.25 10.95 C 11.25 11.391 11.16 11.791 11.016 12.081 C 10.871 12.371 10.671 12.55 10.45 12.55 C 10.229 12.55 10.029 12.371 9.884 12.081 C 9.74 11.791 9.65 11.391 9.65 10.95 C 9.65 10.509 9.74 10.109 9.884 9.819 C 10.029 9.529 10.229 9.35 10.45 9.35 Z " stroke-width="1"/>
    </g>
  </g>
</svg>