<svg xmlns="http://www.w3.org/2000/svg" xmlns:xlink="http://www.w3.org/1999/xlink" version="1.1" width="108.42630899033873" height="54.12631356797545" viewBox="-2.713154495169366 -2.463154495169366 108.42630899033873 54.12631356797545">
  <defs>
    <linearGradient id="grad_1" y2="1" x2="0">
      <stop offset="0" stop-color="#CC0000" stop-opacity="1"/>
      <stop offset="1" stop-color="#CC0000" stop-opacity="1"/>
    </linearGradient>
    <linearGradient id="grad_2" y2="1" x2="0">
      <stop offset="0" stop-color="#CC0000" stop-opacity="1"/>
      <stop offset="1" stop-color="#CC0000" stop-opacity="1"/>
    </linearGradient>
  <linearGradient id="grad_1-,0,0,0.7973856329917908,-188.5,-116.7" y2="31.8131" x2="15.75" x1="15.75" y1="21.6464" gradientUnits="userSpaceOnUse">
      <stop offset="0" stop-color="#CC0000" stop-opacity="1"/>
      <stop offset="1" stop-color="#CC0000" stop-opacity="1"/>
    </linearGradient></defs>
  <!-- Exported by Scratch - http://scratch.mit.edu/ -->
  <path id="ID0.5977142141200602" fill="url(#grad_1-,0,0,0.7973856329917908,-188.5,-116.7)" stroke="url(#grad_2)" stroke-width="5.426308990338732" d="M 15.75 21.6464 L 62.5 21.6464 L 62.5 31.8131 L 15.75 31.8131 L 15.75 21.6464 Z "/>
  <path id="ID0.3931966032832861" fill="#CC0000" stroke="none" d="M 73.8 12.9 C 78.214 12.9 82.214 14.693 85.111 17.589 C 88.007 20.486 89.8 24.486 89.8 28.9 C 89.8 33.314 88.007 37.314 85.111 40.211 C 82.214 43.107 78.214 44.9 73.8 44.9 C 69.386 44.9 65.386 43.107 62.489 40.211 C 59.593 37.314 57.8 33.314 57.8 28.9 C 57.8 24.486 59.593 20.486 62.489 17.589 C 65.386 14.693 69.386 12.9 73.8 12.9 Z " stroke-width="1"/>
  <path id="ID0.16405341355130076" fill="#CC0000" stroke="none" d="M 13.6944 25.7528 C 14.1429 25.7528 14.5488 25.9348 14.8435 26.2287 C 15.1374 26.5234 15.3194 26.9293 15.3194 27.3778 C 15.3194 27.8263 15.1374 28.2322 14.8435 28.5268 C 14.5488 28.8208 14.1429 29.0028 13.6944 29.0028 C 13.2459 29.0028 12.8401 28.8208 12.5454 28.5268 C 12.2514 28.2322 12.0694 27.8263 12.0694 27.3778 C 12.0694 26.9293 12.2514 26.5234 12.5454 26.2287 C 12.8401 25.9348 13.2459 25.7528 13.6944 25.7528 Z " stroke-width="0.7222222089767456"/>
  <path id="ID0.41293808072805405" fill="#CC0000" stroke="none" d="M 59.5 34.6 C 60.19 34.6 60.815 34.88 61.267 35.333 C 61.72 35.785 62 36.41 62 37.1 C 62 37.79 61.72 38.415 61.267 38.867 C 60.815 39.32 60.19 39.6 59.5 39.6 C 58.81 39.6 58.185 39.32 57.733 38.867 C 57.28 38.415 57 37.79 57 37.1 C 57 36.41 57.28 35.785 57.733 35.333 C 58.185 34.88 58.81 34.6 59.5 34.6 Z " stroke-width="1"/>
  <path id="ID0.02874877769500017" fill="#CC0000" stroke="none" d="M 57.675 45.05 C 58.11 45.05 58.503 45.226 58.788 45.512 C 59.074 45.797 59.25 46.19 59.25 46.625 C 59.25 47.06 59.074 47.453 58.788 47.738 C 58.503 48.024 58.11 48.2 57.675 48.2 C 57.24 48.2 56.847 48.024 56.562 47.738 C 56.276 47.453 56.1 47.06 56.1 46.625 C 56.1 46.19 56.276 45.797 56.562 45.512 C 56.847 45.226 57.24 45.05 57.675 45.05 Z " stroke-width="1"/>
  <path id="ID0.5191513583995402" fill="#CC0000" stroke="none" d="M 71.775 42.6 C 72.651 42.6 73.445 42.956 74.019 43.531 C 74.594 44.105 74.95 44.899 74.95 45.775 C 74.95 46.651 74.594 47.445 74.019 48.019 C 73.445 48.594 72.651 48.95 71.775 48.95 C 70.899 48.95 70.105 48.594 69.531 48.019 C 68.956 47.445 68.6 46.651 68.6 45.775 C 68.6 44.899 68.956 44.105 69.531 43.531 C 70.105 42.956 70.899 42.6 71.775 42.6 Z " stroke-width="1"/>
  <path id="ID0.9023732645437121" fill="#CC0000" stroke="none" d="M 84.675 39.45 C 85.041 39.45 85.372 39.598 85.612 39.838 C 85.852 40.078 86 40.409 86 40.775 C 86 41.141 85.852 41.472 85.612 41.712 C 85.372 41.952 85.041 42.1 84.675 42.1 C 84.309 42.1 83.978 41.952 83.738 41.712 C 83.498 41.472 83.35 41.141 83.35 40.775 C 83.35 40.409 83.498 40.078 83.738 39.838 C 83.978 39.598 84.309 39.45 84.675 39.45 Z " stroke-width="1"/>
  <path id="ID0.25161455664783716" fill="#CC0000" stroke="none" d="M 101.25 15.5 C 101.733 15.5 102.17 15.696 102.487 16.013 C 102.804 16.33 103 16.767 103 17.25 C 103 17.733 102.804 18.17 102.487 18.487 C 102.17 18.804 101.733 19 101.25 19 C 100.767 19 100.33 18.804 100.013 18.487 C 99.696 18.17 99.5 17.733 99.5 17.25 C 99.5 16.767 99.696 16.33 100.013 16.013 C 100.33 15.696 100.767 15.5 101.25 15.5 Z " stroke-width="1"/>
  <path id="ID0.25161455664783716" fill="#CC0000" stroke="none" d="M 86.25 0.25 C 86.733 0.25 87.17 0.446 87.487 0.763 C 87.804 1.08 88 1.517 88 2 C 88 2.483 87.804 2.92 87.487 3.237 C 87.17 3.554 86.733 3.75 86.25 3.75 C 85.767 3.75 85.33 3.554 85.013 3.237 C 84.696 2.92 84.5 2.483 84.5 2 C 84.5 1.517 84.696 1.08 85.013 0.763 C 85.33 0.446 85.767 0.25 86.25 0.25 Z " stroke-width="1"/>
  <path id="ID0.6902042659930885" fill="#CC0000" stroke="none" d="M 64.25 2.75 C 65.354 2.75 66.354 3.198 67.078 3.922 C 67.802 4.646 68.25 5.646 68.25 6.75 C 68.25 7.854 67.802 8.854 67.078 9.578 C 66.354 10.302 65.354 10.75 64.25 10.75 C 63.146 10.75 62.146 10.302 61.422 9.578 C 60.698 8.854 60.25 7.854 60.25 6.75 C 60.25 5.646 60.698 4.646 61.422 3.922 C 62.146 3.198 63.146 2.75 64.25 2.75 Z " stroke-width="1"/>
  <path id="ID0.29816159326583147" fill="#CC0000" stroke="none" d="M 10.75 10.25 C 11.578 10.25 12.328 10.586 12.871 11.129 C 13.414 11.672 13.75 12.422 13.75 13.25 C 13.75 14.078 13.414 14.828 12.871 15.371 C 12.328 15.914 11.578 16.25 10.75 16.25 C 9.922 16.25 9.172 15.914 8.629 15.371 C 8.086 14.828 7.75 14.078 7.75 13.25 C 7.75 12.422 8.086 11.672 8.629 11.129 C 9.172 10.586 9.922 10.25 10.75 10.25 Z " stroke-width="1"/>
  <path id="ID0.4874770026654005" fill="#CC0000" stroke="none" d="M 1.625 28.75 C 2.073 28.75 2.48 28.932 2.774 29.226 C 3.068 29.52 3.25 29.927 3.25 30.375 C 3.25 30.823 3.068 31.23 2.774 31.524 C 2.48 31.818 2.073 32 1.625 32 C 1.177 32 0.77 31.818 0.476 31.524 C 0.182 31.23 0 30.823 0 30.375 C 0 29.927 0.182 29.52 0.476 29.226 C 0.77 28.932 1.177 28.75 1.625 28.75 Z " stroke-width="1"/>
  <g id="ID0.6023043445311487">
    <text id="ID0.32901171408593655" fill="#000000" text-anchor="start" font-family="Sans Serif" font-size="22" transform="matrix(0.843915 -0.234642 0.22832 0.867281 58.2529 15.1789)" stroke-width="1" alignment-baseline="text-before-edge" xml:space="preserve"><tspan x="0" style="white-space: pre" dy="1.13em">A+</tspan></text>
    <text id="ID0.32901171408593655" fill="#000000" text-anchor="start" font-family="Sans Serif" font-size="22" transform="matrix(0.843915 -0.234642 0.22832 0.867281 59.2029 15.0289)" stroke-width="1" alignment-baseline="text-before-edge" xml:space="preserve"><tspan x="0" style="white-space: pre" dy="1.13em">A+</tspan></text>
  </g>
  <g id="ID0.8828654973767698">
    <text id="ID0.9744727602228522" fill="#000000" text-anchor="start" font-family="Sans Serif" font-size="22" transform="matrix(0.688042 0 0 0.688042 14.2761 16.3359)" stroke-width="1" alignment-baseline="text-before-edge" xml:space="preserve"><tspan x="0" style="white-space: pre" dy="1.13em">Grade</tspan></text>
    <text id="ID0.9744727602228522" fill="#000000" text-anchor="start" font-family="Sans Serif" font-size="22" transform="matrix(0.688042 0 0 0.688042 15.0261 16.3359)" stroke-width="1" alignment-baseline="text-before-edge" xml:space="preserve"><tspan x="0" style="white-space: pre" dy="1.13em">Grade</tspan></text>
  </g>
  <path id="ID0.7369820000603795" fill="#CC0000" stroke="none" d="M 15.25 32 C 15.871 32 16.433 32.252 16.841 32.659 C 17.248 33.067 17.5 33.629 17.5 34.25 C 17.5 34.871 17.248 35.433 16.841 35.841 C 16.433 36.248 15.871 36.5 15.25 36.5 C 14.629 36.5 14.067 36.248 13.659 35.841 C 13.252 35.433 13 34.871 13 34.25 C 13 33.629 13.252 33.067 13.659 32.659 C 14.067 32.252 14.629 32 15.25 32 Z " stroke-width="1"/>
</svg>