<svg xmlns="http://www.w3.org/2000/svg" xmlns:xlink="http://www.w3.org/1999/xlink" version="1.1" width="44.779903411865234" height="33.90800094604492" viewBox="1.184999942779541 0.7771000862121582 44.779903411865234 33.90800094604492">
  <defs>
    <linearGradient id="grad_1" y2="1" x2="0">
      <stop offset="0" stop-color="#000000" stop-opacity="1"/>
      <stop offset="1" stop-color="#000000" stop-opacity="1"/>
    </linearGradient>
    <linearGradient id="grad_2" y2="1" x2="0">
      <stop offset="0" stop-color="#000000" stop-opacity="1"/>
      <stop offset="1" stop-color="#000000" stop-opacity="1"/>
    </linearGradient>
    <linearGradient id="grad_3" y2="1" x2="0">
      <stop offset="0" stop-color="#000000" stop-opacity="1"/>
      <stop offset="1" stop-color="#000000" stop-opacity="1"/>
    </linearGradient>
    <linearGradient id="grad_4" y2="1" x2="0">
      <stop offset="0" stop-color="#000000" stop-opacity="1"/>
      <stop offset="1" stop-color="#000000" stop-opacity="1"/>
    </linearGradient>
    <linearGradient id="grad_5" y2="1" x2="0">
      <stop offset="0" stop-color="#000000" stop-opacity="1"/>
      <stop offset="1" stop-color="#000000" stop-opacity="1"/>
    </linearGradient>
  </defs>
  <!-- Exported by Scratch - http://scratch.mit.edu/ -->
  <g id="ID0.959074392914772">
    <path id="ID0.32629525614902377" fill="#CC0000" stroke="url(#grad_1)" stroke-width="1.9999999853084462" d="M 39.473 12.9589 L 33.3659 16.1703 L 38.8578 26.6144 L 44.9649 23.403 L 39.473 12.9589 Z "/>
    <path id="ID0.6198502015322447" fill="#CC0000" stroke="none" d="M 37.82 11.9639 L 31.7128 15.1753 L 35.4362 22.256 L 41.5433 19.0447 L 37.82 11.9639 Z " stroke-width="0.9999999926542231"/>
  </g>
  <path id="ID0.9132125782780349" fill="#CC0000" stroke="url(#grad_2)" stroke-width="1.9999999456342474" stroke-linecap="round" d="M 9.6261 1.7771 L 40.5864 3.3447 L 39.2716 29.3115 L 8.3113 27.7438 L 9.6261 1.7771 Z "/>
  <g id="ID0.6760139726102352">
    <path id="ID0.5874646469019353" fill="#CC0000" stroke="url(#grad_3)" stroke-width="1.9999999430687723" d="M 8.2006 25.9236 L 18.0485 28.2518 L 17.6218 33.6851 L 7.6525 32.9021 L 8.2006 25.9236 Z "/>
    <path id="ID0.6252873428165913" fill="#CC0000" stroke="none" d="M 9.8739 17.0764 L 17.8493 17.7028 L 16.8315 30.6629 L 8.856 30.0365 L 9.8739 17.0764 Z " stroke-width="0.9999999715343861"/>
  </g>
  <g id="ID0.7504373663105071">
    <path id="ID0.5874646469019353" fill="#CC0000" stroke="url(#grad_4)" stroke-width="2" d="M 29.55 28.6 L 39.5 26.65 L 39.5 33.65 L 29.5 33.65 L 29.55 28.6 Z "/>
    <path id="ID0.6252873428165913" fill="#CC0000" stroke="none" d="M 30.5 18.15 L 38.5 18.15 L 38.5 31.15 L 30.5 31.15 L 30.5 18.15 Z " stroke-width="1"/>
  </g>
  <g id="ID0.959074392914772">
    <path id="ID0.32629525614902377" fill="#CC0000" stroke="url(#grad_5)" stroke-width="1.9999999696034114" d="M 8.8068 12.1967 L 14.518 16.0688 L 7.8962 25.8357 L 2.185 21.9636 L 8.8068 12.1967 Z "/>
    <path id="ID0.6198502015322447" fill="#CC0000" stroke="none" d="M 10.5605 11.3922 L 16.2716 15.2643 L 11.7822 21.8859 L 6.0711 18.0138 L 10.5605 11.3922 Z " stroke-width="0.9999999848017057"/>
  </g>
  <g id="ID0.9563203109428287">
    <g id="ID0.22831150377169251">
      <path id="ID0.6924605225212872" fill="#000000" stroke="none" d="M 17.0821 8.3704 C 17.7366 8.3943 18.3205 8.6818 18.7346 9.1272 C 19.1486 9.5726 19.3928 10.1759 19.3689 10.8304 C 19.345 11.485 19.0576 12.0689 18.6122 12.4829 C 18.1668 12.897 17.5635 13.1411 16.9089 13.1173 C 16.2543 13.0934 15.6704 12.8059 15.2564 12.3605 C 14.8424 11.9151 14.5982 11.3118 14.6221 10.6573 C 14.6459 10.0027 14.9334 9.4188 15.3788 9.0048 C 15.8242 8.5907 16.4275 8.3465 17.0821 8.3704 Z " stroke-width="0.9999999862167485"/>
      <path id="ID0.14667206862941384" fill="#E5E5E5" stroke="none" d="M 16.4842 9.4164 C 16.6771 9.4234 16.8491 9.5077 16.9714 9.6393 C 17.0937 9.7708 17.1653 9.9485 17.1582 10.1414 C 17.1512 10.3343 17.0669 10.5063 16.9353 10.6286 C 16.8038 10.7509 16.626 10.8225 16.4332 10.8154 C 16.2403 10.8084 16.0683 10.7241 15.946 10.5925 C 15.8237 10.461 15.7521 10.2833 15.7592 10.0904 C 15.7662 9.8975 15.8505 9.7255 15.9821 9.6032 C 16.1136 9.4809 16.2913 9.4093 16.4842 9.4164 Z " stroke-width="0.9999999862167485"/>
    </g>
    <g id="ID0.670490013435483">
      <path id="ID0.6924605225212872" fill="#000000" stroke="none" d="M 34.6321 9.3704 C 35.2866 9.3943 35.8705 9.6818 36.2846 10.1272 C 36.6986 10.5726 36.9428 11.1759 36.9189 11.8304 C 36.895 12.485 36.6076 13.0689 36.1622 13.4829 C 35.7168 13.897 35.1135 14.1411 34.4589 14.1173 C 33.8043 14.0934 33.2204 13.8059 32.8064 13.3605 C 32.3924 12.9151 32.1482 12.3118 32.1721 11.6573 C 32.1959 11.0027 32.4834 10.4188 32.9288 10.0048 C 33.3742 9.5907 33.9775 9.3465 34.6321 9.3704 Z " stroke-width="0.9999999862167485"/>
      <path id="ID0.14667206862941384" fill="#E5E5E5" stroke="none" d="M 34.1842 9.9164 C 34.3771 9.9234 34.5491 10.0077 34.6714 10.1393 C 34.7937 10.2708 34.8653 10.4485 34.8582 10.6414 C 34.8512 10.8343 34.7669 11.0063 34.6353 11.1286 C 34.5038 11.2509 34.326 11.3225 34.1332 11.3154 C 33.9403 11.3084 33.7683 11.2241 33.646 11.0925 C 33.5237 10.961 33.4521 10.7833 33.4592 10.5904 C 33.4662 10.3975 33.5505 10.2255 33.6821 10.1032 C 33.8136 9.9809 33.9913 9.9093 34.1842 9.9164 Z " stroke-width="0.9999999862167485"/>
    </g>
    <path id="ID0.7759160823188722" fill="none" stroke="#000000" stroke-width="0.9999999862167485" stroke-linecap="round" d="M 23.094 20.9563 C 23.094 20.9563 24.5303 20.6735 25.2554 20.6849 C 25.9874 20.6966 27.4929 21.0668 27.4929 21.0668 "/>
    <g id="ID0.6114393346942961">
      <path id="ID0.6860643606632948" fill="#000000" stroke="#000000" stroke-width="0.9999999862167485" stroke-linecap="round" d="M 16.0218 14.7079 L 30.0125 15.2183 L 34.4096 15.3787 C 35.9343 15.4674 31.7629 18.1461 29.8922 18.5161 C 26.7241 19.1451 23.3134 19.1037 20.195 18.2624 C 18.3737 17.7717 14.6408 15.1479 16.0218 14.7079 Z "/>
      <path id="ID0.5892902314662933" fill="#FFFFFF" stroke="none" d="M 18.2931 14.9968 L 31.4344 15.4762 L 31.387 16.7753 L 18.2457 16.2959 L 18.2931 14.9968 Z " stroke-width="0.9999999862167485"/>
    </g>
  </g>
</svg>