<svg xmlns="http://www.w3.org/2000/svg" xmlns:xlink="http://www.w3.org/1999/xlink" version="1.1" width="17.808859549110743" height="17.050759993141504" viewBox="-0.5346799900857675 -0.7321799805490243 17.808859549110743 17.050759993141504">
  <!-- Exported by Scratch - http://scratch.mit.edu/ -->
  <path id="ID0.09066551923751831" fill="#B40101" stroke="none" d="M 7.1647 10.2677 L 3.7238 9.824 L 3.2123 13.7912 L 6.6533 14.2348 L 7.1647 10.2677 Z " stroke-width="0.9574941352997981"/>
  <path id="ID0.09066551923751831" fill="#B40101" stroke="none" d="M 13.156 10.9029 L 9.5438 11.4266 L 10.1177 15.3852 L 13.7299 14.8615 L 13.156 10.9029 Z " stroke-width="0.9804618141117454"/>
  <g id="ID0.08273157011717558">
    <path id="ID0.20379002764821053" fill="#CC0000" stroke="none" d="M 16.3408 0.6227 L 6.7372 0.4025 L 6.4379 12.6628 L 16.0416 12.8831 L 16.3408 0.6227 Z " stroke-width="0.7962860140239204"/>
    <path id="ID0.8935396964661777" fill="#FF0000" stroke="none" d="M 8.2934 0.3754 L 0.6956 0.2012 L 0.3987 12.3645 L 7.9966 12.5388 L 8.2934 0.3754 Z " stroke-width="1.8667599778827166"/>
  </g>
  <path id="ID0.1019937596283853" fill="#CC0000" stroke="none" d="M 9.0871 7.8117 L 3.8934 7.5559 L 3.6376 12.7496 L 8.8313 13.0054 L 9.0871 7.8117 Z " stroke-width="1.2839504978325567"/>
  <path id="ID0.8617808222770691" fill="#CC0000" stroke="none" d="M 6.2032 6.0745 L 6.1538 6.0667 L 6.1538 6.0667 L 6.2032 6.0745 L 6.2032 6.0745 Z " stroke-width="0.9999999766464479"/>
  <g id="ID0.6190438214689493">
    <path id="ID0.09020493365824223" fill="#000000" stroke="none" d="M 16.1418 7.4308 L 12.2265 7.3335 L 12.1879 8.883 L 16.1033 8.9803 L 16.1418 7.4308 Z " stroke-width="0.602781508934987"/>
    <path id="ID0.18048822786659002" fill="#FFFFFF" stroke="none" d="M 15.9995 7.6362 L 13.3503 7.5704 L 13.3367 8.1202 L 15.9858 8.1861 L 15.9995 7.6362 Z " stroke-width="0.6280106351641983"/>
    <path id="ID0.5967760691419244" fill="#E5E5E5" stroke="none" d="M 15.8796 8.4084 L 13.5303 8.35 L 13.5154 8.9498 L 15.8647 9.0082 L 15.8796 8.4084 Z " stroke-width="0.6224253821581038"/>
  </g>
  <g id="ID0.6651764921844006">
    <path id="ID0.8655728464946151" fill="#000000" stroke="none" stroke-linecap="round" d="M 10.1521 2.7026 L 15.5721 3.9768 L 15.3635 6.7637 L 9.8788 6.353 L 10.1521 2.7026 Z " stroke-width="1.0046748347561354"/>
    <path id="ID0.006696532014757395" fill="#990000" stroke="none" d="M 10.1956 2.2344 L 15.8145 3.4548 L 15.6978 3.9923 L 10.0788 2.7718 L 10.1956 2.2344 Z " stroke-width="0.9999999870441129"/>
    <path id="ID0.8491002093069255" fill="#E5E5E5" stroke="none" d="M 14.685 3.8271 L 13.8404 3.7639 L 13.7714 4.6852 L 14.616 4.7484 L 14.685 3.8271 Z " stroke-width="1.539855374892966"/>
  </g>
</svg>