<svg xmlns="http://www.w3.org/2000/svg" xmlns:xlink="http://www.w3.org/1999/xlink" version="1.1" width="14.7622709274292" height="14.088990211486816" viewBox="0.237729012966156 -0.38287848234176636 14.7622709274292 14.088990211486816">
  <!-- Exported by Scratch - http://scratch.mit.edu/ -->
  <g id="ID0.9007245465181768">
    <path id="ID0.6487746122293174" fill="#006622" stroke="none" stroke-linecap="round" d="M 6.7703 0.1254 C 8.038 0.0688 9.4315 0.2904 10.5059 1.1641 C 11.5682 2.0275 12.4558 3.4887 12.9422 5.0884 C 13.4977 6.9143 13.4945 9.038 13.4701 11.0324 C 13.4807 11.6557 13.3767 12.5455 12.9016 12.706 C 11.0176 13.3408 9.0312 13.2057 7.0951 13.1677 C 5.2963 13.1319 3.4431 13.1965 1.6946 12.5906 C 1.2057 12.3805 0.794 11.5841 0.7607 10.8593 C 0.6779 9.0461 0.8111 7.1266 1.2886 5.4346 C 1.7239 3.8972 2.4133 2.4106 3.3594 1.5104 C 4.3413 0.5432 5.609 0.1773 6.7703 0.1254 Z " stroke-width="0.9979111201929087"/>
    <path id="ID0.6862273388542235" fill="#009933" stroke="none" stroke-linecap="round" d="M 7.0396 0.4066 C 8.2448 0.4401 9.5043 0.7633 10.5113 1.6762 C 11.4875 2.5442 12.3183 3.9408 12.704 5.4851 C 13.0873 7.0167 13.5234 9.1819 12.704 10.2172 C 11.3462 12.0397 9.229 12.4771 7.3848 12.4679 C 5.3772 12.4575 3.0741 12.0662 1.5782 10.1595 C 0.6987 9.0711 1.2331 6.7673 1.6188 5.1965 C 1.9875 3.6949 2.7598 2.2995 3.7303 1.4454 C 4.674 0.6075 5.91 0.3743 7.0396 0.4066 Z " stroke-width="0.9979111201929087"/>
    <path id="ID0.01353864697739482" fill="#00CC44" stroke="none" stroke-linecap="round" d="M 7.1539 0.6529 C 8.1349 0.6356 9.176 0.8456 10.0368 1.4608 C 10.8416 2.0691 11.5311 3.0397 11.9453 4.1732 C 12.3383 5.2477 12.9328 6.8878 12.3107 7.6357 C 11.0024 9.3197 9.0704 10.0445 7.3163 10.0018 C 5.5167 9.9591 3.5563 9.21 2.2 7.5203 C 1.5723 6.7378 2.0636 5.0203 2.4031 3.8846 C 2.7271 2.9093 3.3695 2.0645 4.0679 1.5762 C 5.0099 0.9172 6.1331 0.6714 7.1539 0.6529 Z " stroke-width="0.9979111201929087"/>
    <path id="ID0.40726609993726015" fill="#99FFBB" stroke="none" d="M 8.1772 1.095 C 8.4963 1.095 8.7855 1.2439 8.995 1.4839 C 9.2045 1.724 9.3344 2.0564 9.3344 2.4223 C 9.3344 2.7882 9.2045 3.1206 8.995 3.3606 C 8.7855 3.6007 8.4963 3.7496 8.1772 3.7496 C 7.858 3.7496 7.5689 3.6007 7.3594 3.3606 C 7.1499 3.1206 7.0199 2.7882 7.0199 2.4223 C 7.0199 2.0564 7.1499 1.724 7.3594 1.4839 C 7.5689 1.2439 7.858 1.095 8.1772 1.095 Z " stroke-width="0.9979111201929087"/>
    <path id="ID0.44971933402121067" fill="#99FFBB" stroke="none" d="M 7.1154 3.7573 C 7.2892 3.7573 7.4467 3.8312 7.5604 3.9524 C 7.6741 4.0724 7.7448 4.2374 7.7448 4.421 C 7.7448 4.6045 7.6741 4.7695 7.5604 4.8896 C 7.4467 5.0107 7.2892 5.0846 7.1154 5.0846 C 6.9416 5.0846 6.7841 5.0107 6.6704 4.8896 C 6.5567 4.7695 6.486 4.6045 6.486 4.421 C 6.486 4.2374 6.5567 4.0724 6.6704 3.9524 C 6.7841 3.8312 6.9416 3.7573 7.1154 3.7573 Z " stroke-width="0.9979111201929087"/>
  </g>
  <g id="ID0.8220732379704714">
    <g id="ID0.20715344790369272">
      <path id="ID0.19440001714974642" fill="#000000" stroke="none" d="M 6.5 2.15 C 7.093 2.15 7.631 2.556 8.02 3.212 C 8.409 3.869 8.65 4.775 8.65 5.775 C 8.65 6.775 8.409 7.681 8.02 8.338 C 7.631 8.994 7.093 9.4 6.5 9.4 C 5.907 9.4 5.369 8.994 4.98 8.338 C 4.591 7.681 4.35 6.775 4.35 5.775 C 4.35 4.775 4.591 3.869 4.98 3.212 C 5.369 2.556 5.907 2.15 6.5 2.15 Z " stroke-width="1"/>
      <path id="ID0.35307061253115535" fill="#FFFFFF" stroke="none" d="M 7.15 2.75 C 7.371 2.75 7.571 2.929 7.716 3.219 C 7.86 3.509 7.95 3.909 7.95 4.35 C 7.95 4.791 7.86 5.191 7.716 5.481 C 7.571 5.771 7.371 5.95 7.15 5.95 C 6.929 5.95 6.729 5.771 6.584 5.481 C 6.44 5.191 6.35 4.791 6.35 4.35 C 6.35 3.909 6.44 3.509 6.584 3.219 C 6.729 2.929 6.929 2.75 7.15 2.75 Z " stroke-width="1"/>
    </g>
    <g id="ID0.20715344790369272">
      <path id="ID0.19440001714974642" fill="#000000" stroke="none" d="M 12.35 2.3 C 12.943 2.3 13.481 2.706 13.87 3.362 C 14.259 4.019 14.5 4.925 14.5 5.925 C 14.5 6.925 14.259 7.831 13.87 8.488 C 13.481 9.144 12.943 9.55 12.35 9.55 C 11.757 9.55 11.219 9.144 10.83 8.488 C 10.441 7.831 10.2 6.925 10.2 5.925 C 10.2 4.925 10.441 4.019 10.83 3.362 C 11.219 2.706 11.757 2.3 12.35 2.3 Z " stroke-width="1"/>
      <path id="ID0.35307061253115535" fill="#FFFFFF" stroke="none" d="M 13 2.9 C 13.221 2.9 13.421 3.079 13.566 3.369 C 13.71 3.659 13.8 4.059 13.8 4.5 C 13.8 4.941 13.71 5.341 13.566 5.631 C 13.421 5.921 13.221 6.1 13 6.1 C 12.779 6.1 12.579 5.921 12.434 5.631 C 12.29 5.341 12.2 4.941 12.2 4.5 C 12.2 4.059 12.29 3.659 12.434 3.369 C 12.579 3.079 12.779 2.9 13 2.9 Z " stroke-width="1"/>
    </g>
  </g>
</svg>