<svg xmlns="http://www.w3.org/2000/svg" xmlns:xlink="http://www.w3.org/1999/xlink" version="1.1" width="29.77770235305045" height="36.36979582076285" viewBox="-7.04279388072597 -7.919952358628382 29.77770235305045 36.36979582076285">
  <!-- Exported by Scratch - http://scratch.mit.edu/ -->
  <path id="ID0.9358589742332697" fill="#DB861B" stroke="none" stroke-width="16.260503511000152" stroke-linecap="round" d="M 7.4446 12.9483 C 7.3317 12.6478 6.8629 12.4173 6.4981 12.3068 C 5.9053 12.128 5.3396 12.1578 4.7681 12.171 C 4.3255 12.1675 3.7655 11.9838 3.4069 12.2697 C 3.1734 12.5028 3.1876 13.1232 3.4667 13.3035 C 4.046 13.6759 4.8234 13.553 5.5139 13.617 C 6.0077 13.663 6.5208 13.7589 6.9808 13.5776 C 7.2356 13.5126 7.5302 13.1813 7.4446 12.9483 Z "/>
  <path id="ID0.19551143841817975" fill="#DB861B" stroke="none" stroke-width="16.260504744102697" stroke-linecap="round" d="M 6.6154 15.0669 C 6.3776 15.2437 5.9685 15.4384 5.9298 15.7631 C 5.8453 16.5015 6.0993 17.2757 6.2872 18.0139 C 6.4498 18.7209 6.5326 19.4809 6.8879 20.1034 C 7.0625 20.3041 7.4466 20.2131 7.675 20.1612 C 8.102 20.0635 8.8356 20.1091 8.9575 19.673 C 9.0962 19.1636 8.4012 18.8243 8.246 18.3816 C 7.8366 17.1801 7.8068 15.8443 7.2721 14.7642 C 7.1384 14.4941 6.806 14.9242 6.6154 15.0669 Z "/>
  <g id="ID0.30696602864190936">
    <path id="ID0.637318427208811" fill="#FAA51D" stroke="none" stroke-linecap="round" d="M 4.1435 15.065 C 4.809 15.3038 5.6305 15.0335 6.2677 15.3542 C 6.5707 15.5083 6.7203 15.9701 6.5623 16.209 C 6.3693 16.5778 5.8886 16.6984 5.4834 16.708 C 4.8644 16.7428 4.2571 16.6489 3.6318 16.4372 C 2.9427 16.2043 2.2282 15.9482 1.659 15.4981 C 1.3662 15.3029 1.0261 14.9162 1.1602 14.5906 C 1.3148 14.217 1.8467 13.9696 2.2668 14.0288 C 2.9553 14.1324 3.4506 14.8538 4.1435 15.065 Z " stroke-width="1.084033608638252"/>
    <path id="ID0.9894068208523095" fill="#FFFFFF" stroke="none" stroke-linecap="round" d="M 1.9777 13.9521 C 2.5429 13.9144 3.2664 14.3573 3.5219 14.8063 C 3.6621 14.9726 2.9277 14.9486 2.7684 15.1847 C 2.5982 15.4401 2.9467 16.146 2.7015 16.0761 C 2.1148 15.9857 1.3042 15.4887 1.1052 14.8621 C 0.9783 14.4627 1.5595 13.9803 1.9777 13.9521 Z " stroke-width="1.084033608638252"/>
  </g>
  <g id="ID0.536394951865077">
    <path id="ID0.6198067106306553" fill="#FAA51D" stroke="none" stroke-linecap="round" d="M 6.6715 9.3383 C 7.1859 9.3936 7.9396 9.335 8.1281 9.8324 C 8.5495 10.7863 8.3102 11.9441 8.2079 12.9919 C 8.1057 14.0376 8.0771 15.2401 7.5227 16.2005 C 7.2761 16.5879 6.605 16.5486 6.111 16.5253 C 5.641 16.5017 4.9965 16.3579 4.825 15.9357 C 4.3981 14.9825 4.4676 13.868 4.5207 12.8675 C 4.5824 11.7273 4.5252 10.4811 5.1104 9.4884 C 5.3737 9.0403 6.1529 9.2815 6.6715 9.3383 Z " stroke-width="1.0840335289106615"/>
    <path id="ID0.21503017749637365" fill="#FFFFFF" stroke="none" stroke-linecap="round" d="M 7.3563 11.2013 C 7.6545 11.2257 7.9365 11.4988 8.0166 11.7965 C 8.2121 12.4413 8.1827 13.1664 8.1288 13.844 C 8.0669 14.6231 8.0031 15.4271 7.6753 16.1735 C 7.5529 16.4043 7.2022 16.4954 6.885 16.5468 C 6.5554 16.5907 6.0307 16.5704 5.9292 16.2548 C 5.6653 15.4285 5.8561 14.4452 5.9778 13.5403 C 6.0583 12.9398 6.1843 12.2592 6.5036 11.6785 C 6.6743 11.4276 7.0331 11.1761 7.3563 11.2013 Z " stroke-width="1.0840335289106615"/>
  </g>
  <path id="ID0.19551143841817975" fill="#FAA51D" stroke="none" stroke-linecap="round" d="M 4.9256 14.7792 C 4.6441 14.8195 4.7137 15.4053 4.6834 15.7258 C 4.6364 16.5168 4.7215 17.3756 4.7774 18.0029 C 4.8416 18.7242 4.8414 19.4915 5.1317 20.148 C 5.2735 20.3715 5.6739 20.3217 5.9067 20.2967 C 6.3422 20.2492 7.0656 20.3796 7.2372 19.9605 C 7.4341 19.4706 6.8073 19.0683 6.6803 18.5953 C 6.412 17.5864 6.4301 16.5312 5.9792 15.6104 C 5.8135 15.192 5.3234 14.7241 4.9256 14.7792 Z " stroke-width="1.0840336427894555"/>
  <g id="ID0.6909988787956536">
    <g id="ID0.847524844110012">
      <path id="ID0.10025785537436604" fill="#FAA51D" stroke="none" d="M 8.5837 2.1126 C 10.2188 2.3766 11.6033 3.2125 12.5207 4.3502 C 13.437 5.4876 13.8863 6.9267 13.649 8.3966 C 13.4117 9.8666 12.5323 11.0912 11.3046 11.8825 C 10.0758 12.6736 8.4987 13.0314 6.8635 12.7674 C 5.2283 12.5034 3.8438 11.6675 2.9264 10.5299 C 2.0101 9.3924 1.5608 7.9533 1.7981 6.4834 C 2.0355 5.0134 2.9148 3.7888 4.1425 2.9975 C 5.3713 2.2064 6.9485 1.8486 8.5837 2.1126 Z " stroke-width="1.1013090298850463"/>
      <path id="ID0.23814574256539345" fill="#FAA51D" stroke="none" stroke-linecap="round" d="M 2.2714 0.2103 L 6.2676 2.752 L 2.1163 5.3169 L 2.2714 0.2103 Z " stroke-width="1.1013090298850463"/>
      <path id="ID0.23814574256539345" fill="#FAA51D" stroke="none" stroke-linecap="round" d="M 13.1711 1.3237 L 8.7369 2.9871 L 12.2704 6.3526 L 13.1711 1.3237 Z " stroke-width="1.1013089166142789"/>
      <path id="ID0.46886637480929494" fill="#FFFFFF" stroke="none" stroke-linecap="round" d="M 10.1754 8.823 C 11.1329 8.8761 12.0629 7.8906 12.9515 8.2114 C 13.8296 8.5284 14.719 9.5979 14.5926 10.4844 C 14.439 11.5462 13.4257 12.4814 12.423 12.8673 C 11.0575 13.4411 9.4888 13.3106 7.9976 13.1568 C 7.0232 13.0564 6.0165 12.7411 5.2314 12.1525 C 4.5931 11.6768 3.8235 10.9156 3.8358 10.0865 C 3.9202 9.1909 4.5893 8.0796 5.4723 7.8964 C 7.0386 7.5714 8.5911 8.7692 10.1754 8.823 Z " stroke-width="1.1013090298850463"/>
      <path id="ID0.2958779144100845" fill="#666666" stroke="none" stroke-linecap="round" d="M 9.9239 8.189 C 10.2788 8.195 10.8547 8.1864 10.8848 8.4557 C 10.9306 8.8011 10.5214 9.4144 10.1201 9.392 C 9.5878 9.3931 8.9275 8.7845 8.8839 8.4116 C 8.856 8.1494 9.5717 8.1455 9.9239 8.189 Z " stroke-width="1.1013090298850463"/>
    </g>
    <g id="ID0.26280788984149694">
      <g id="ID0.2985607646405697">
        <path id="ID0.6929170889779925" fill="#000000" stroke="none" d="M 11.8385 4.4255 C 12.1755 4.48 12.4502 4.7273 12.6193 5.0826 C 12.7895 5.4381 12.855 5.9027 12.7764 6.3898 C 12.6978 6.8768 12.4893 7.2972 12.2159 7.5811 C 11.9436 7.8651 11.6051 8.0135 11.268 7.959 C 10.931 7.9046 10.6563 7.6573 10.4872 7.302 C 10.317 6.9465 10.2515 6.4819 10.3301 5.9948 C 10.4088 5.5077 10.6172 5.0874 10.8906 4.8035 C 11.1629 4.5195 11.5015 4.3711 11.8385 4.4255 Z " stroke-width="1.1013090298850463"/>
        <path id="ID0.02252052817493677" fill="#CCCCCC" stroke="none" d="M 12.1725 4.835 C 12.2997 4.8555 12.3994 4.9776 12.455 5.1583 C 12.5116 5.3393 12.5266 5.5782 12.4854 5.8337 C 12.4441 6.0892 12.3547 6.3113 12.244 6.4652 C 12.1343 6.6193 12.0013 6.7038 11.8741 6.6832 C 11.7469 6.6627 11.6472 6.5406 11.5916 6.3599 C 11.5349 6.1789 11.52 5.94 11.5612 5.6845 C 11.6025 5.429 11.6919 5.2069 11.8026 5.053 C 11.9123 4.8989 12.0453 4.8144 12.1725 4.835 Z " stroke-width="1.1013090298850463"/>
      </g>
      <g id="ID0.2985607646405697">
        <path id="ID0.6929170889779925" fill="#000000" stroke="none" d="M 7.7385 3.9255 C 8.0755 3.98 8.3502 4.2273 8.5193 4.5826 C 8.6895 4.9381 8.755 5.4027 8.6764 5.8898 C 8.5978 6.3768 8.3893 6.7972 8.1159 7.0811 C 7.8436 7.3651 7.5051 7.5135 7.168 7.459 C 6.831 7.4046 6.5563 7.1573 6.3872 6.802 C 6.217 6.4465 6.1515 5.9819 6.2301 5.4948 C 6.3088 5.0077 6.5172 4.5874 6.7906 4.3035 C 7.0629 4.0195 7.4015 3.8711 7.7385 3.9255 Z " stroke-width="1.1013090298850463"/>
        <path id="ID0.02252052817493677" fill="#CCCCCC" stroke="none" d="M 8.0225 4.285 C 8.1497 4.3055 8.2494 4.4276 8.305 4.6083 C 8.3616 4.7893 8.3766 5.0282 8.3354 5.2837 C 8.2941 5.5392 8.2047 5.7613 8.094 5.9152 C 7.9843 6.0693 7.8513 6.1538 7.7241 6.1332 C 7.5969 6.1127 7.4972 5.9906 7.4416 5.8099 C 7.3849 5.6289 7.37 5.39 7.4112 5.1345 C 7.4525 4.879 7.5419 4.6569 7.6526 4.503 C 7.7623 4.3489 7.8953 4.2644 8.0225 4.285 Z " stroke-width="1.1013090298850463"/>
      </g>
    </g>
  </g>
  <path id="ID0.9358589742332697" fill="#F9B341" stroke="none" stroke-width="16.260503790977182" stroke-linecap="round" d="M 5.6438 12.5704 C 5.5106 12.8625 5.0271 13.0602 4.6555 13.1454 C 4.0518 13.283 3.4895 13.2144 2.9203 13.162 C 2.4785 13.1351 1.9071 13.2799 1.5691 12.9701 C 1.3522 12.7214 1.4089 12.1035 1.6997 11.9428 C 2.3033 11.6111 3.0704 11.7871 3.7636 11.7707 C 4.2594 11.7587 4.7779 11.6983 5.2244 11.9108 C 5.4741 11.9932 5.7452 12.3438 5.6438 12.5704 Z "/>
</svg>