<svg xmlns="http://www.w3.org/2000/svg" xmlns:xlink="http://www.w3.org/1999/xlink" version="1.1" width="31.311202163690808" height="36.86284362792421" viewBox="-8.013852422532679 -7.557552454468848 31.311202163690808 36.86284362792421">
  <!-- Exported by Scratch - http://scratch.mit.edu/ -->
  <path id="ID0.9358589742332697" fill="#DB861B" stroke="none" stroke-width="16.260501196805485" stroke-linecap="round" d="M 8.5001 14.0105 C 8.6255 14.306 9.1036 14.5165 9.4728 14.6115 C 10.0726 14.7652 10.6365 14.7116 11.2069 14.6744 C 11.6493 14.6592 12.2165 14.8192 12.5628 14.5185 C 12.7862 14.2757 12.7459 13.6565 12.4595 13.4881 C 11.865 13.1405 11.0935 13.296 10.4009 13.2611 C 9.9056 13.2359 9.3889 13.1618 8.937 13.3622 C 8.6851 13.4379 8.4048 13.7813 8.5001 14.0105 Z "/>
  <path id="ID0.19551143841817975" fill="#DB861B" stroke="none" stroke-width="16.260504837030652" stroke-linecap="round" d="M 9.2766 15.7255 C 8.9882 15.7939 8.5356 15.8111 8.3716 16.0941 C 8.0022 16.739 7.9296 17.5506 7.8104 18.303 C 7.6803 19.0166 7.456 19.7475 7.5364 20.4598 C 7.6175 20.7131 8.0063 20.7813 8.2366 20.8239 C 8.6674 20.9029 9.3233 21.2347 9.6076 20.8823 C 9.9364 20.4692 9.432 19.8828 9.4644 19.4148 C 9.5632 18.1494 10.0638 16.9106 9.9995 15.707 C 9.9834 15.4061 9.5081 15.6698 9.2766 15.7255 Z "/>
  <g id="ID0.30696602864190936">
    <path id="ID0.637318427208811" fill="#FAA51D" stroke="none" stroke-linecap="round" d="M 5.4485 16.5772 C 6.1458 16.4602 6.7304 15.8229 7.443 15.7912 C 7.7827 15.7775 8.1389 16.1073 8.1179 16.3929 C 8.1298 16.809 7.7693 17.1492 7.4206 17.3556 C 6.8975 17.6885 6.3219 17.9035 5.6728 18.0244 C 4.9578 18.1581 4.2093 18.2839 3.4927 18.1695 C 3.1419 18.1423 2.6562 17.9711 2.614 17.6215 C 2.5663 17.22 2.9094 16.7442 3.3048 16.5905 C 3.9561 16.3444 4.7408 16.7316 5.4485 16.5772 Z " stroke-width="1.084033520310011"/>
    <path id="ID0.9894068208523095" fill="#FFFFFF" stroke="none" stroke-linecap="round" d="M 3.195 16.628 C 3.6697 16.3188 4.5173 16.3516 4.9597 16.6184 C 5.1633 16.695 4.5109 17.0329 4.4873 17.3168 C 4.4636 17.6228 5.1127 18.0682 4.8647 18.1272 C 4.3086 18.3351 3.3586 18.2977 2.8787 17.8483 C 2.5727 17.5618 2.844 16.857 3.195 16.628 Z " stroke-width="1.084033520310011"/>
  </g>
  <g id="ID0.536394951865077">
    <path id="ID0.6198067106306553" fill="#FAA51D" stroke="none" stroke-linecap="round" d="M 7.9092 10.0761 C 8.4237 10.0218 9.1481 9.8055 9.4372 10.2521 C 10.0503 11.0956 10.0605 12.2778 10.1814 13.3237 C 10.302 14.3674 10.5276 15.5489 10.1882 16.6046 C 10.0288 17.0353 9.3645 17.1384 8.8767 17.2197 C 8.4123 17.2958 7.752 17.2911 7.4953 16.9146 C 6.877 16.0728 6.71 14.9687 6.5509 13.9795 C 6.3708 12.852 6.0521 11.6459 6.4148 10.552 C 6.5777 10.0585 7.3903 10.13 7.9092 10.0761 Z " stroke-width="1.0840336232080625"/>
    <path id="ID0.21503017749637365" fill="#FFFFFF" stroke="none" stroke-linecap="round" d="M 8.863 11.7159 C 9.1597 11.6769 9.493 11.8844 9.634 12.1585 C 9.961 12.7476 10.0852 13.4626 10.1754 14.1363 C 10.2792 14.9109 10.3864 15.7103 10.2232 16.5091 C 10.1523 16.7605 9.8287 16.9235 9.5295 17.0406 C 9.2165 17.153 8.6994 17.2439 8.5336 16.9567 C 8.1014 16.2047 8.0806 15.2033 8.0087 14.293 C 7.9608 13.6891 7.9404 12.9972 8.1301 12.3622 C 8.2441 12.0809 8.5418 11.7594 8.863 11.7159 Z " stroke-width="1.0840336232080625"/>
  </g>
  <path id="ID0.19551143841817975" fill="#FAA51D" stroke="none" stroke-linecap="round" d="M 7.6745 15.5373 C 7.416 15.4716 7.2886 15.937 7.1751 16.1947 C 6.8699 16.8883 6.6699 17.6305 6.5181 18.377 C 6.357 19.0842 6.101 19.8047 6.1503 20.5198 C 6.2203 20.7764 6.6057 20.8615 6.8339 20.9141 C 7.2609 21.0118 7.9017 21.3719 8.2011 21.0322 C 8.5476 20.6338 8.0837 20.0486 8.122 19.5599 C 8.2026 18.5487 8.6363 17.6045 8.516 16.6414 C 8.4762 16.1656 8.0962 15.6471 7.6745 15.5373 Z " stroke-width="1.0840335451291696"/>
  <g id="ID0.6909988787956536">
    <g id="ID0.847524844110012">
      <path id="ID0.10025785537436604" fill="#FAA51D" stroke="none" d="M 6.5864 2.9819 C 8.2142 2.6754 9.8002 2.992 11.0491 3.7509 C 12.297 4.51 13.2079 5.7113 13.4834 7.1745 C 13.7589 8.6378 13.3473 10.0881 12.4609 11.249 C 11.5734 12.4101 10.2112 13.2818 8.5835 13.5883 C 6.9557 13.8948 5.3697 13.5782 4.1208 12.8193 C 2.8729 12.0602 1.962 10.8589 1.6865 9.3957 C 1.4109 7.9324 1.8226 6.4821 2.709 5.3212 C 3.5965 4.1601 4.9587 3.2883 6.5864 2.9819 Z " stroke-width="1.1013091430075652"/>
      <path id="ID0.23814574256539345" fill="#FAA51D" stroke="none" stroke-linecap="round" d="M 0.1164 3.2739 L 4.7379 4.3089 L 1.7032 8.1302 L 0.1164 3.2739 Z " stroke-width="1.1013091430075652"/>
      <path id="ID0.23814574256539345" fill="#FAA51D" stroke="none" stroke-linecap="round" d="M 10.636 0.5727 L 7.0293 3.642 L 11.495 5.6089 L 10.636 0.5727 Z " stroke-width="1.1013090264149268"/>
      <path id="ID0.46886637480929494" fill="#FFFFFF" stroke="none" stroke-linecap="round" d="M 10.4057 8.7085 C 11.3245 8.4336 11.8649 7.191 12.8097 7.1913 C 13.7432 7.1915 14.9427 7.8958 15.1246 8.7726 C 15.3404 9.8235 14.7045 11.0471 13.8922 11.7503 C 12.8024 12.7534 11.2825 13.1628 9.8276 13.5242 C 8.8769 13.7603 7.823 13.8052 6.8847 13.5179 C 6.1229 13.2871 5.1407 12.8321 4.8709 12.048 C 4.6464 11.177 4.8988 9.9045 5.6672 9.4326 C 7.0303 8.5955 8.8971 9.1954 10.4057 8.7085 Z " stroke-width="1.1013091430075652"/>
      <path id="ID0.2958779144100845" fill="#666666" stroke="none" stroke-linecap="round" d="M 10.0301 8.2248 C 10.366 8.11 10.9048 7.9065 11.0245 8.1496 C 11.1848 8.459 11.008 9.1747 10.6229 9.2898 C 10.1225 9.4715 9.2949 9.123 9.1274 8.787 C 9.0121 8.5498 9.684 8.3034 10.0301 8.2248 Z " stroke-width="1.1013091430075652"/>
    </g>
    <g id="ID0.26280788984149694">
      <g id="ID0.2985607646405697">
        <path id="ID0.6929170889779925" fill="#000000" stroke="none" d="M 10.4668 4.0289 C 10.8023 3.9658 11.1446 4.1053 11.4242 4.3821 C 11.7049 4.6587 11.9242 5.0735 12.0155 5.5584 C 12.1068 6.0433 12.0534 6.5094 11.8925 6.8692 C 11.7327 7.2288 11.4646 7.4832 11.1291 7.5464 C 10.7936 7.6096 10.4513 7.47 10.1717 7.1932 C 9.891 6.9166 9.6717 6.5018 9.5804 6.0169 C 9.4891 5.532 9.5425 5.0659 9.7034 4.7061 C 9.8632 4.3465 10.1313 4.0921 10.4668 4.0289 Z " stroke-width="1.1013091430075652"/>
        <path id="ID0.02252052817493677" fill="#CCCCCC" stroke="none" d="M 10.9077 4.3029 C 11.0343 4.279 11.1695 4.36 11.2831 4.5112 C 11.3978 4.6622 11.493 4.8819 11.5409 5.1362 C 11.5888 5.3906 11.58 5.6298 11.5281 5.8121 C 11.4772 5.9943 11.3807 6.1189 11.2541 6.1428 C 11.1275 6.1666 10.9923 6.0856 10.8787 5.9344 C 10.764 5.7834 10.6688 5.5638 10.6209 5.3094 C 10.573 5.0551 10.5818 4.8159 10.6337 4.6335 C 10.6846 4.4513 10.7811 4.3267 10.9077 4.3029 Z " stroke-width="1.1013091430075652"/>
      </g>
      <g id="ID0.2985607646405697">
        <path id="ID0.6929170889779925" fill="#000000" stroke="none" d="M 6.4168 4.9289 C 6.7523 4.8658 7.0946 5.0053 7.3742 5.2821 C 7.6549 5.5587 7.8742 5.9735 7.9655 6.4584 C 8.0568 6.9433 8.0034 7.4094 7.8425 7.7692 C 7.6827 8.1288 7.4146 8.3832 7.0791 8.4464 C 6.7436 8.5096 6.4013 8.37 6.1217 8.0932 C 5.841 7.8166 5.6217 7.4018 5.5304 6.9169 C 5.4391 6.432 5.4925 5.9659 5.6534 5.6061 C 5.8132 5.2465 6.0813 4.9921 6.4168 4.9289 Z " stroke-width="1.1013091430075652"/>
        <path id="ID0.02252052817493677" fill="#CCCCCC" stroke="none" d="M 6.8577 5.1529 C 6.9843 5.129 7.1195 5.21 7.2331 5.3612 C 7.3478 5.5122 7.443 5.7319 7.4909 5.9862 C 7.5388 6.2406 7.53 6.4798 7.4781 6.6621 C 7.4272 6.8443 7.3307 6.9689 7.2041 6.9928 C 7.0775 7.0166 6.9423 6.9356 6.8287 6.7844 C 6.714 6.6334 6.6188 6.4138 6.5709 6.1594 C 6.523 5.9051 6.5318 5.6659 6.5837 5.4835 C 6.6346 5.3013 6.7311 5.1767 6.8577 5.1529 Z " stroke-width="1.1013091430075652"/>
      </g>
    </g>
  </g>
  <path id="ID0.9358589742332697" fill="#F9B341" stroke="none" stroke-width="16.260504180450624" stroke-linecap="round" d="M 6.497 14.0441 C 6.6295 13.7517 7.1125 13.5529 7.4839 13.4668 C 8.0873 13.3277 8.6498 13.3949 9.2191 13.446 C 9.661 13.4719 10.2319 13.3256 10.5708 13.6347 C 10.7883 13.8828 10.733 14.5008 10.4426 14.6622 C 9.8398 14.9954 9.0723 14.8212 8.3791 14.8393 C 7.8833 14.8525 7.365 14.9141 6.918 14.7028 C 6.668 14.621 6.3961 14.2709 6.497 14.0441 Z "/>
</svg>