<svg xmlns="http://www.w3.org/2000/svg" xmlns:xlink="http://www.w3.org/1999/xlink" version="1.1" width="19.539855241775513" height="16.569154977798462" viewBox="0.18807244300842285 0.20077240467071533 19.539855241775513 16.569154977798462">
  <!-- Exported by Scratch - http://scratch.mit.edu/ -->
  <path id="ID0.9160578120499849" fill="#B40101" stroke="none" d="M 8.8 11.75 L 4 11.75 L 4 15.95 L 9.35 15.95 L 8.8 11.75 Z " stroke-width="1"/>
  <path id="ID0.9160578120499849" fill="#B40101" stroke="none" d="M 16 11.7 L 11.5 11.75 L 11.5 15.95 L 16.5 15.95 L 16 11.7 Z " stroke-width="1"/>
  <g id="ID0.9870859365910292">
    <path id="ID0.20379002764821053" fill="#CC0000" stroke="none" d="M 17.9626 0.9726 L 2.8126 0.9726 L 2.8126 14.6226 L 17.9626 14.6226 L 17.9626 0.9726 Z " stroke-width="1.046257240048425"/>
    <path id="ID0.8935396964661777" fill="#FF0000" stroke="none" d="M 3.5549 0.9707 L 1.8049 0.9707 L 1.8049 14.5128 L 3.5549 14.5128 L 3.5549 0.9707 Z " stroke-width="0.7973665419300815"/>
  </g>
  <path id="ID0.8617808222770691" fill="#CC0000" stroke="none" d="M 2.55 6.95 L 2.5 6.95 L 2.5 6.95 L 2.55 6.95 L 2.55 6.95 Z " stroke-width="1"/>
  <path id="ID0.1019937596283853" fill="#CC0000" stroke="none" d="M 6.158 9.458 L 0.958 9.458 L 0.958 14.658 L 6.158 14.658 L 6.158 9.458 Z " stroke-width="1.283950686454773"/>
  <path id="ID0.1019937596283853" fill="#CC0000" stroke="none" d="M 18.958 9.458 L 13.6938 8.5593 L 13.758 14.658 L 18.958 14.658 L 18.958 9.458 Z " stroke-width="1.283950686454773"/>
  <path id="ID0.09020493365824223" fill="#000000" stroke="none" d="M 15.1038 8.5 L 6.2538 8.5 L 6.2538 10.75 L 15.1038 10.75 L 15.1038 8.5 Z " stroke-width="1.0694279762235979"/>
  <path id="ID0.8655728464946151" fill="#000000" stroke="none" stroke-linecap="round" d="M 3.8247 3.05 L 9.3247 4.15 L 9.3247 7.7 L 3.8247 7.7 L 3.8247 3.05 Z " stroke-width="1.0952181369497886"/>
  <path id="ID0.18048822786659002" fill="#FFFFFF" stroke="none" d="M 13.9656 8.4643 L 7.1656 8.4643 L 7.1656 9.0143 L 13.9656 9.0143 L 13.9656 8.4643 Z " stroke-width="0.9344124506016294"/>
  <path id="ID0.8655728464946151" fill="#000000" stroke="none" stroke-linecap="round" d="M 17.3253 2.95 L 11.8253 4.05 L 11.8253 7.6 L 17.3253 7.6 L 17.3253 2.95 Z " stroke-width="1.0952181369497886"/>
  <path id="ID0.5961301568895578" fill="#CC0000" stroke="none" d="M 12.85 13.3 L 11.35 13.3 L 11.35 16 L 12.85 16 L 12.85 13.3 Z " stroke-width="1"/>
  <path id="ID0.5961301568895578" fill="#CC0000" stroke="none" d="M 5.1 13.3 L 3.6 13.3 L 3.6 16 L 5.1 16 L 5.1 13.3 Z " stroke-width="1"/>
  <path id="ID0.006696532014757395" fill="#990000" stroke="none" d="M 17.3749 2.6097 L 11.758 3.8397 L 11.8757 4.377 L 17.4926 3.147 L 17.3749 2.6097 Z " stroke-width="1.0000000120779955"/>
  <path id="ID0.006696532014757395" fill="#990000" stroke="none" d="M 3.9251 2.4597 L 9.542 3.6897 L 9.4243 4.227 L 3.8074 2.997 L 3.9251 2.4597 Z " stroke-width="1.0000000120779955"/>
  <path id="ID0.8491002093069255" fill="#E5E5E5" stroke="none" d="M 8.6389 3.7636 L 7.792 3.7636 L 7.792 4.6875 L 8.6389 4.6875 L 8.6389 3.7636 Z " stroke-width="1.5398552417755127"/>
  <path id="ID0.8491002093069255" fill="#E5E5E5" stroke="none" d="M 16.8889 3.4636 L 16.042 3.4636 L 16.042 4.3875 L 16.8889 4.3875 L 16.8889 3.4636 Z " stroke-width="1.5398552417755127"/>
</svg>