<svg xmlns="http://www.w3.org/2000/svg" xmlns:xlink="http://www.w3.org/1999/xlink" version="1.1" width="22.245758278242917" height="10.304002983443114" viewBox="-0.022186270888732262 -0.47135659211485226 22.245758278242917 10.304002983443114">
  <!-- Exported by Scratch - http://scratch.mit.edu/ -->
  <g id="ID0.9007245465181768">
    <path id="ID0.6487746122293174" fill="#006622" stroke="none" stroke-linecap="round" d="M 10.5406 0.0903 C 12.6435 0.0506 14.9552 0.2062 16.7374 0.8198 C 18.4995 1.4261 19.9719 2.4523 20.7788 3.5758 C 21.7003 4.8581 21.6949 6.3496 21.6545 7.7502 C 21.672 8.1879 21.4995 8.8129 20.7115 8.9256 C 17.5861 9.3714 14.291 9.2765 11.0795 9.2498 C 8.0956 9.2247 5.0214 9.27 2.121 8.8445 C 1.31 8.697 0.627 8.1377 0.5718 7.6286 C 0.4344 6.3552 0.6553 5.0072 1.4475 3.8189 C 2.1695 2.7393 3.3132 1.6952 4.8826 1.063 C 6.5113 0.3837 8.6142 0.1268 10.5406 0.0903 Z " stroke-width="1.1117098163288561"/>
    <path id="ID0.6862273388542235" fill="#009933" stroke="none" stroke-linecap="round" d="M 11.0574 0.2062 C 13.0566 0.2297 15.146 0.4566 16.8164 1.0978 C 18.4357 1.7073 19.8138 2.6881 20.4537 3.7727 C 21.0895 4.8483 21.8129 6.369 20.4537 7.096 C 18.2013 8.3759 14.6893 8.6831 11.6299 8.6767 C 8.2998 8.6694 4.4793 8.3946 1.9979 7.0555 C 0.539 6.2911 1.4254 4.6732 2.0653 3.57 C 2.6769 2.5155 3.958 1.5355 5.5678 0.9357 C 7.1332 0.3472 9.1835 0.1835 11.0574 0.2062 Z " stroke-width="1.1117098163288561"/>
    <path id="ID0.01353864697739482" fill="#00CC44" stroke="none" stroke-linecap="round" d="M 11.1175 0.3993 C 12.7449 0.3872 14.4719 0.5347 15.8998 0.9667 C 17.2348 1.3939 18.3786 2.0756 19.0656 2.8716 C 19.7176 3.6262 20.7037 4.7781 19.6718 5.3033 C 17.5016 6.4859 14.2968 6.995 11.3869 6.965 C 8.4017 6.935 5.1497 6.4089 2.9 5.2222 C 1.8587 4.6727 2.6737 3.4665 3.2368 2.6689 C 3.7743 1.984 4.8399 1.3907 5.9984 1.0478 C 7.5611 0.585 9.4242 0.4123 11.1175 0.3993 Z " stroke-width="1.1117098163288561"/>
    <path id="ID0.40726609993726015" fill="#99FFBB" stroke="none" d="M 12.838 0.7819 C 13.3674 0.7819 13.847 0.8865 14.1945 1.0551 C 14.5421 1.2237 14.7576 1.4571 14.7576 1.7141 C 14.7576 1.971 14.5421 2.2045 14.1945 2.3731 C 13.847 2.5417 13.3674 2.6463 12.838 2.6463 C 12.3086 2.6463 11.829 2.5417 11.4814 2.3731 C 11.1339 2.2045 10.9183 1.971 10.9183 1.7141 C 10.9183 1.4571 11.1339 1.2237 11.4814 1.0551 C 11.829 0.8865 12.3086 0.7819 12.838 0.7819 Z " stroke-width="1.1117098163288561"/>
    <path id="ID0.44971933402121067" fill="#99FFBB" stroke="none" d="M 11.1131 2.6368 C 11.4014 2.6368 11.6628 2.6887 11.8514 2.7738 C 12.04 2.8581 12.1572 2.974 12.1572 3.1029 C 12.1572 3.2317 12.04 3.3477 11.8514 3.432 C 11.6628 3.5171 11.4014 3.5689 11.1131 3.5689 C 10.8248 3.5689 10.5635 3.5171 10.3749 3.432 C 10.1863 3.3477 10.0691 3.2317 10.0691 3.1029 C 10.0691 2.974 10.1863 2.8581 10.3749 2.7738 C 10.5635 2.6887 10.8248 2.6368 11.1131 2.6368 Z " stroke-width="1.1117098163288561"/>
  </g>
  <g id="ID0.41927978210151196">
    <g id="ID0.20715344790369272">
      <path id="ID0.19440001714974642" fill="#000000" stroke="none" d="M 7.6 0.25 C 8.193 0.25 8.731 0.656 9.12 1.312 C 9.509 1.969 9.75 2.875 9.75 3.875 C 9.75 4.875 9.509 5.781 9.12 6.438 C 8.731 7.094 8.193 7.5 7.6 7.5 C 7.007 7.5 6.469 7.094 6.08 6.438 C 5.691 5.781 5.45 4.875 5.45 3.875 C 5.45 2.875 5.691 1.969 6.08 1.312 C 6.469 0.656 7.007 0.25 7.6 0.25 Z " stroke-width="1"/>
      <path id="ID0.35307061253115535" fill="#FFFFFF" stroke="none" d="M 8.25 0.85 C 8.471 0.85 8.671 1.029 8.816 1.319 C 8.96 1.609 9.05 2.009 9.05 2.45 C 9.05 2.891 8.96 3.291 8.816 3.581 C 8.671 3.871 8.471 4.05 8.25 4.05 C 8.029 4.05 7.829 3.871 7.684 3.581 C 7.54 3.291 7.45 2.891 7.45 2.45 C 7.45 2.009 7.54 1.609 7.684 1.319 C 7.829 1.029 8.029 0.85 8.25 0.85 Z " stroke-width="1"/>
    </g>
    <g id="ID0.20715344790369272">
      <path id="ID0.19440001714974642" fill="#000000" stroke="none" d="M 14.45 0.4 C 15.043 0.4 15.581 0.806 15.97 1.462 C 16.359 2.119 16.6 3.025 16.6 4.025 C 16.6 5.025 16.359 5.931 15.97 6.588 C 15.581 7.244 15.043 7.65 14.45 7.65 C 13.857 7.65 13.319 7.244 12.93 6.588 C 12.541 5.931 12.3 5.025 12.3 4.025 C 12.3 3.025 12.541 2.119 12.93 1.462 C 13.319 0.806 13.857 0.4 14.45 0.4 Z " stroke-width="1"/>
      <path id="ID0.35307061253115535" fill="#FFFFFF" stroke="none" d="M 15.1 1 C 15.321 1 15.521 1.179 15.666 1.469 C 15.81 1.759 15.9 2.159 15.9 2.6 C 15.9 3.041 15.81 3.441 15.666 3.731 C 15.521 4.021 15.321 4.2 15.1 4.2 C 14.879 4.2 14.679 4.021 14.534 3.731 C 14.39 3.441 14.3 3.041 14.3 2.6 C 14.3 2.159 14.39 1.759 14.534 1.469 C 14.679 1.179 14.879 1 15.1 1 Z " stroke-width="1"/>
    </g>
  </g>
</svg>