<svg xmlns="http://www.w3.org/2000/svg" xmlns:xlink="http://www.w3.org/1999/xlink" version="1.1" width="18.926804445568276" height="17.59200467902775" viewBox="0.09584783395948371 -0.6344521752911572 18.926804445568276 17.59200467902775">
  <!-- Exported by Scratch - http://scratch.mit.edu/ -->
  <path id="ID0.1019937596283853" fill="#B40101" stroke="none" d="M 18.2085 9.4435 L 13.035 8.9196 L 12.5111 14.0931 L 17.6846 14.617 L 18.2085 9.4435 Z " stroke-width="1.2839506439787005"/>
  <g id="ID0.38220522552728653">
    <path id="ID0.9160578120499849" fill="#B40101" stroke="none" d="M 8.9389 12.1771 L 4.3708 10.703 L 3.081 14.7001 L 7.5539 16.1434 L 8.9389 12.1771 Z " stroke-width="1.000000048476317"/>
    <path id="ID0.5961301568895578" fill="#CC0000" stroke="none" d="M 5.0562 11.8999 L 3.6287 11.4393 L 2.5999 14.6274 L 4.0274 15.0881 L 5.0562 11.8999 Z " stroke-width="1.1268180107550492"/>
  </g>
  <g id="ID0.6226657046936452">
    <path id="ID0.9160578120499849" fill="#B40101" stroke="none" d="M 15.145 12.0934 L 10.9439 10.4797 L 9.3945 14.3835 L 13.4841 16.0067 L 15.145 12.0934 Z " stroke-width="0.999999986548817"/>
    <path id="ID0.5961301568895578" fill="#CC0000" stroke="none" d="M 11.6416 12.5029 L 10.2474 11.9495 L 9.2514 14.4591 L 10.6455 15.0125 L 11.6416 12.5029 Z " stroke-width="0.999999986548817"/>
  </g>
  <g id="ID0.4915104955434799">
    <path id="ID0.20379002764821053" fill="#CC0000" stroke="none" d="M 18.0862 1.4466 L 2.9862 0.2175 L 1.9599 12.8258 L 17.06 14.0549 L 18.0862 1.4466 Z " stroke-width="1.0134497281962016"/>
    <path id="ID0.8935396964661777" fill="#FF0000" stroke="none" d="M 8.3721 0.7042 L 1.9281 0.1797 L 0.91 12.6883 L 7.354 13.2129 L 8.3721 0.7042 Z " stroke-width="1.62830438453312"/>
  </g>
  <path id="ID0.1019937596283853" fill="#CC0000" stroke="none" d="M 6.9027 8.418 L 1.7153 8.0552 L 1.3526 13.2426 L 6.5399 13.6053 L 6.9027 8.418 Z " stroke-width="1.2839506837377772"/>
  <g id="ID0.3748739790171385">
    <path id="ID0.8617808222770691" fill="#CC0000" stroke="none" d="M 9.7479 7.0336 L 9.6982 7.0284 L 9.6982 7.0284 L 9.7479 7.0336 L 9.7479 7.0336 Z " stroke-width="1.0000000230971555"/>
    <path id="ID0.8655728464946151" fill="#000000" stroke="none" stroke-linecap="round" d="M 11.4901 3.3872 L 16.8466 5.0508 L 16.479 8.5817 L 11.0085 8.0122 L 11.4901 3.3872 Z " stroke-width="1.0952181414574131"/>
    <path id="ID0.006696532014757395" fill="#990000" stroke="none" d="M 11.6791 2.753 L 17.1384 4.558 L 16.9658 5.0802 L 11.5065 3.2752 L 11.6791 2.753 Z " stroke-width="0.9999999931065204"/>
    <path id="ID0.8491002093069255" fill="#E5E5E5" stroke="none" d="M 16.0666 4.5579 L 15.2242 4.4702 L 15.1286 5.3892 L 15.9709 5.4769 L 16.0666 4.5579 Z " stroke-width="1.5398551882137754"/>
  </g>
  <g id="ID0.2829335597343743">
    <path id="ID0.09020493365824223" fill="#000000" stroke="none" d="M 17.3455 9.6718 L 12.5879 8.7299 L 12.2869 10.2503 L 17.0445 11.1923 L 17.3455 9.6718 Z " stroke-width="0.6562000249017232"/>
    <path id="ID0.18048822786659002" fill="#FFFFFF" stroke="none" d="M 17.1626 9.5661 L 13.0916 8.7602 L 12.9848 9.2997 L 17.0558 10.1057 L 17.1626 9.5661 Z " stroke-width="0.7203534871619445"/>
  </g>
</svg>