<svg xmlns="http://www.w3.org/2000/svg" xmlns:xlink="http://www.w3.org/1999/xlink" version="1.1" width="495" height="375" viewBox="-7.5 -7.5 495 375">
  <!-- Exported by Scratch - http://scratch.mit.edu/ -->
  <path id="ID0.998705459292978" fill="#CC0000" stroke="none" stroke-linecap="round" d="M 0 0 L 480 0 L 480 360 L 0 360 L 0 0 Z " stroke-width="1"/>
  <g id="ID0.966675516217947">
    <g id="ID0.8721526921726763">
      <path id="ID0.6218647672794759" fill="#000000" stroke="none" d="M 352.5 87 C 364.501 87 375.376 91.874 383.251 99.749 C 391.126 107.624 396 118.499 396 130.5 C 396 142.501 391.126 153.376 383.251 161.251 C 375.376 169.126 364.501 174 352.5 174 C 340.499 174 329.624 169.126 321.749 161.251 C 313.874 153.376 309 142.501 309 130.5 C 309 118.499 313.874 107.624 321.749 99.749 C 329.624 91.874 340.499 87 352.5 87 Z " stroke-width="1"/>
      <path id="ID0.2995515433140099" fill="#CC0000" stroke="none" d="M 299.9859 160 L 390.9859 160 L 390.9859 178 L 299.9859 178 L 299.9859 160 Z " stroke-width="0.8675921071869689"/>
      <path id="ID0.599104342982173" fill="#FFFFFF" stroke="none" d="M 379 139.9857 C 380.3793 139.9857 381.6293 140.5457 382.5343 141.4514 C 383.44 142.3564 384 143.6064 384 144.9857 C 384 146.365 383.44 147.615 382.5343 148.52 C 381.6293 149.4257 380.3793 149.9857 379 149.9857 C 377.6207 149.9857 376.3707 149.4257 375.4657 148.52 C 374.56 147.615 374 146.365 374 144.9857 C 374 143.6064 374.56 142.3564 375.4657 141.4514 C 376.3707 140.5457 377.6207 139.9857 379 139.9857 Z " stroke-width="0.7142857313156128"/>
      <path id="ID0.14497793139889836" fill="#FFFFFF" stroke="none" stroke-linecap="round" d="M 333.956 97.6922 C 337.9402 96.3394 341.847 95.9896 344.9418 96.516 C 348.0354 97.0428 350.317 98.4459 351.0488 100.6012 C 351.7806 102.7565 350.8249 105.2586 348.6917 107.5601 C 346.5572 109.8621 343.2451 111.9634 339.2609 113.3162 C 335.2766 114.6689 331.3699 115.0187 328.275 114.4923 C 325.1815 113.9655 322.8999 112.5625 322.1681 110.4072 C 321.4363 108.2519 322.3919 105.7497 324.5251 103.4482 C 326.6596 101.1463 329.9717 99.045 333.956 97.6922 Z " stroke-width="1.1299352148071888"/>
      <path id="ID0.5801730575039983" fill="#FF0000" stroke="none" stroke-linecap="round" d="M 351.75 155 C 361.096 155.322 369.774 157.176 378.5 159.5 C 385.225 161.285 398.127 166.433 398 167.25 C 397.873 168.067 384.184 166.283 377.25 165.75 C 369.281 165.368 361.314 164.762 353.25 164.5 C 341.851 164.129 330.245 164.211 319 164.25 C 311.262 164.275 295.733 164.931 295.75 164.25 C 295.787 163.554 311.766 158.543 319.75 157.25 C 330.296 155.545 341.075 154.646 351.75 155 Z " stroke-width="1"/>
      <path id="ID0.24562435131520033" fill="#000000" stroke="none" stroke-linecap="round" d="M 346 152 C 355.275 152.092 364.987 152.423 374 155 C 380.863 157.031 394.451 163.772 392 165 C 389.338 166.273 371.947 162.362 362 162 C 351.945 161.028 342 161.183 332 161 C 324.018 160.854 310.364 162.556 307 161 C 305.073 159.911 315.659 156.024 320 155 C 328.493 152.994 337.291 151.9 346 152 Z " stroke-width="1"/>
    </g>
    <g id="ID0.7461316497065127">
      <path id="ID0.6218647672794759" fill="#000000" stroke="none" stroke-linecap="round" d="M 124 82.5 C 136.001 82.5 146.876 87.374 154.751 95.249 C 162.626 103.124 167.5 113.999 167.5 126 C 167.5 138.001 162.626 148.876 154.751 156.751 C 146.876 164.626 136.001 169.5 124 169.5 C 111.999 169.5 101.124 164.626 93.249 156.751 C 85.374 148.876 80.5 138.001 80.5 126 C 80.5 113.999 85.374 103.124 93.249 95.249 C 101.124 87.374 111.999 82.5 124 82.5 Z " stroke-width="1"/>
      <path id="ID0.8245977899059653" fill="#CF1147" stroke="none" stroke-linecap="round" d="M 133.5 138.6563 C 144.984 138.3612 159.038 136.6395 167.75 143.24 C 172.951 147.182 168.23 157.0172 163 160.9199 C 153.7 167.5745 140.678 169.3416 129 171.3968 C 119.365 173.0932 108.719 174.6098 99.5 171.8334 C 93.577 170.0951 87.059 164.4009 88 159.1737 C 89.182 152.6815 97.277 148.1825 104 145.2044 C 113.115 141.1699 123.369 138.9148 133.5 138.6563 Z " stroke-width="0.9386875712693403"/>
      <path id="ID0.5359117602929473" fill="#A00A33" stroke="none" stroke-linecap="round" d="M 117.75 145.25 C 128.667 142.662 139.462 140.119 150.5 140 C 153.738 139.96 155.697 144.956 159 145.25 C 161.47 145.255 163.491 139.01 165 140.75 C 168.118 144.35 170.92 151.335 168.25 155.5 C 162.997 163.18 153.33 167.217 144.962 170.707 C 137.391 173.865 129.12 175.244 120.75 175.25 C 111.691 175.257 102.355 173.234 93.5 170.75 C 91.285 170.128 89.832 168.57 89.75 166.75 C 89.646 163.955 90.929 161.082 92.75 159 C 95.704 155.633 99.234 153.087 103 151 C 107.586 148.507 112.62 146.468 117.75 145.25 Z " stroke-width="1"/>
      <path id="ID0.11056922981515527" fill="#000000" stroke="none" stroke-linecap="round" d="M 91.65 147.5219 C 95.572 144.9926 104.944 142.2669 104.8 143.5931 C 104.853 144.7639 95.152 149.9282 91.4 154.3756 C 89.41 156.7391 87.56 160.2052 88.8 162.8882 C 90.63 166.8319 100.131 171.2182 99.5 171.619 C 98.869 172.0197 88.207 168.9456 84 165.5947 C 81.835 163.9324 81.273 160.5003 82.3 158.0862 C 84.091 153.8823 87.554 150.1639 91.65 147.5219 Z " stroke-width="0.9386875712693403"/>
      <path id="ID0.4148817048408091" fill="#000000" stroke="none" stroke-linecap="round" d="M 150 136.4506 C 149.82 135.8831 158.341 135.8857 162 136.8871 C 165.37 137.8108 168.861 139.5229 170.75 142.1256 C 172.499 144.5396 172.876 147.8504 172 150.6381 C 171.27 153.5455 167.113 158.3963 166.25 158.0593 C 165.382 157.786 168.028 151.9311 167.5 148.892 C 166.992 146.0073 165.544 142.7202 162.75 140.816 C 159.307 138.2858 150.184 137.0189 150 136.4506 Z " stroke-width="0.9386875712693403"/>
      <path id="ID0.5653365841135383" fill="#000000" stroke="none" stroke-linecap="round" d="M 152.75 133.4179 C 154.709 134.4402 155.777 137.2123 155 139.0929 C 153.693 142.2517 150.922 145.3092 147.35 146.4704 C 133.554 151.2854 104.448 156.6933 104.25 156.5545 C 104.041 156.4078 131.183 149.1857 144.1 144.375 C 147.325 143.1012 147.924 141.7104 148.6 139.835 C 149.156 138.3674 146.524 136.7111 147.35 135.3386 C 148.252 133.8457 151.187 132.6094 152.75 133.4179 Z " stroke-width="0.9386875712693403"/>
      <path id="ID0.6210502297617495" fill="#000000" stroke="none" stroke-linecap="round" d="M 136.85 161.4216 C 143.743 160.3242 157.121 156.5411 157.2 156.7506 C 157.26 156.9366 144.947 163.5022 138 164.6084 C 131.023 165.7189 117.026 163.4341 117 163.2114 C 116.865 162.9888 130.237 162.4746 136.85 161.4216 Z " stroke-width="0.9386875712693403"/>
      <path id="ID0.14497793139889836" fill="#FFFFFF" stroke="none" stroke-linecap="round" d="M 107.7332 95.3713 C 111.7711 94.188 115.6891 94.0036 118.759 94.6603 C 121.8275 95.3173 124.0477 96.8155 124.6878 98.9998 C 125.3279 101.1841 124.2674 103.6437 122.0389 105.853 C 119.809 108.0627 116.4111 110.0221 112.3733 111.2054 C 108.3354 112.3886 104.4173 112.5731 101.3475 111.9164 C 98.279 111.2593 96.0587 109.7611 95.4187 107.5768 C 94.7786 105.3925 95.8391 102.933 98.0676 100.7237 C 100.2975 98.514 103.6954 96.5545 107.7332 95.3713 Z " stroke-width="1.1299352059587693"/>
      <path id="ID0.14671880239620805" fill="#CF1147" stroke="none" stroke-linecap="round" d="M 138.9 153.6 C 141.356 153.044 144.873 150.437 146 151 C 146.871 151.43 144.785 154.454 143.3 155.5 C 141.343 156.881 138.927 157.366 136.5 157.85 C 131.654 158.812 126.597 158.952 121.8 159.85 C 119.588 160.264 115.409 162.036 115.3 161.7 C 115.191 161.364 118.706 158.534 120.75 157.5 C 123.243 156.24 126.02 155.566 128.8 155 C 132.086 154.262 135.569 154.354 138.9 153.6 Z " stroke-width="1"/>
    </g>
    <g id="ID0.6140645579434931">
      <path id="ID0.9811667902395129" fill="#000000" stroke="none" stroke-linecap="round" d="M 184.8 185.1517 C 186.837 185.1238 189.523 184.8199 190.9 185.4573 C 191.523 185.7672 189.929 186.9834 189.15 187.1161 C 187.349 187.351 185.559 186.546 183.9 186.4613 C 182.611 186.3906 181.353 186.4456 180 186.5923 C 178.818 186.7197 176.482 187.2872 176.5 187.2034 C 176.503 187.1301 179.112 186.1391 180.5 185.8065 C 181.956 185.4547 183.347 185.1735 184.8 185.1517 Z " stroke-width="0.9386875712693403"/>
      <path id="ID0.38396652042865753" fill="#990000" stroke="none" stroke-linecap="round" d="M 239 274.5 C 253.009 274.701 266.999 272.527 281 272 C 285.961 271.813 296.595 270.208 295.5 272.5 C 293.966 275.667 283.692 282.017 277 284 C 264.645 287.135 251.856 287.766 239 287 C 227.45 286.767 215.766 284.28 204 281 C 199.744 279.712 196.496 276.301 192 274 C 186.044 270.934 172.552 265.711 174 265 C 175.442 264.281 192.717 269.06 202.5 270.5 C 214.628 272.295 227.01 274.326 239 274.5 Z " stroke-width="1"/>
      <path id="ID0.7153317499905825" fill="#FF0000" stroke="none" stroke-linecap="round" d="M 241 263 C 269.639 263.904 300.414 261.69 325.5 248 C 345.493 237.089 355.704 200.88 367.25 193.5 C 373.053 189.992 367.743 216.349 361.75 225.25 C 351.935 239.826 338.915 254.197 322.5 260 C 294.852 270.102 264.203 273.186 235 271 C 199.642 268.353 163.384 261.271 131.5 246 C 117.024 239.067 100.977 207.818 102.5 207.5 C 104.023 207.182 127.901 236.101 145 243 C 175.04 255.121 208.362 261.971 241 263 Z " stroke-width="1"/>
      <path id="ID0.8854387952014804" fill="#000000" stroke="none" stroke-linecap="round" d="M 238.7695 181 C 278.965 181.049 320.0935 181.483 359.1083 189 C 369.0118 190.887 366.8016 200.73 363.8742 206 C 354.5735 222.766 344.0921 242.236 325.0321 252.5 C 302.6932 263.673 274.2825 266.701 248.0034 266 C 213.8272 265.085 178.6311 258.868 148.0388 246 C 131.631 239.093 122.0623 224.103 114.0222 211 C 110.387 204.4 104.8693 192.291 114.8563 190 C 154.804 180.838 197.7828 181.053 238.7695 181 Z " stroke-width="1.0999110179987266"/>
      <path id="ID0.20585044752806425" fill="#FF9999" stroke="none" stroke-linecap="round" d="M 226 251 C 243.826 250.558 261.666 248.575 279.5 248.5 C 294.67 248.437 325.116 248.799 325.5 250 C 325.644 251.439 296.573 258.809 282 261 C 265.66 263.459 249.041 264.818 232.5 264.5 C 215.723 264.175 198.888 261.181 182.25 258.5 C 175.989 257.497 168.067 256.693 165.25 253.75 C 163.452 252.204 168.565 249.678 173 249.5 C 191.277 248.872 213.448 251.228 226 251 Z " stroke-width="1"/>
      <path id="ID0.7846189881674945" fill="#FF9999" stroke="none" stroke-linecap="round" d="M 239 183.413 C 268.974 183.4843 299.06 183.4824 329 184.7826 C 336.49 185.1077 342.466 185.188 340.7 187.8413 C 337.216 193.6793 327.615 201.1471 318.5 201.7652 C 285.23 204.025 251.784 199.6123 218.5 196.1957 C 210.173 195.331 205.388 190.617 200 189.3478 C 197.145 188.7397 193.979 188.2659 191.15 189.0283 C 187.348 190.0536 184.829 193.9605 180.9 194.5065 C 166.78 196.4869 152.103 198.5696 138 196.4696 C 134.474 195.9446 134.136 189.0712 137 187.9783 C 147.043 184.1252 158.192 184.8191 169.5 184.3261 C 192.619 183.3163 216.135 183.3583 239 183.413 Z " stroke-width="0.9575093814300814"/>
      <path id="ID0.470272037666291" fill="#E5E5E5" stroke="none" stroke-linecap="round" d="M 144.5 187.5 C 148.525 187.61 151.574 191.389 155 193.5 C 156.101 194.184 156.53 195.924 157.5 195.5 C 159.049 194.815 158.714 192.13 160 191 C 161.773 189.44 164.055 187.748 166.5 187.5 C 169.894 187.157 173.764 187.499 176.75 189.25 C 179.093 190.626 180.279 193.43 180.75 196 C 181.815 201.752 181.771 207.949 181.25 214 C 181.089 215.624 178.345 217.645 178.75 218.5 C 179.089 219.202 181.402 216.987 182.75 216.75 C 186.126 216.228 189.417 216.178 192.75 216.25 C 195.987 216.321 199.352 216.682 202.6 217.25 C 203.603 217.425 204.624 217.956 205.6 218.5 C 205.947 218.719 206.055 219.471 206.5 219.5 C 206.988 219.528 207.303 218.79 207.75 218.5 C 208.412 218.074 209.002 217.421 209.75 217.1 C 211.089 216.616 212.418 216.225 213.75 216 C 215.072 215.878 217.541 216.63 217.65 216.1 C 217.758 215.57 214.43 215.043 214.1 213.5 C 213.063 207.492 211.141 200.649 213.85 195.1 C 216.069 190.556 221.856 187.718 227 187.5 C 231.925 187.294 235.22 194.364 240.15 194.3 C 245.423 194.225 248.878 186.919 254.15 186.9 C 259.059 186.884 262.033 194.305 267 194.5 C 272.083 194.699 275.464 187.694 280.5 187.65 C 286.796 187.61 291.792 193.871 298 194.5 C 304.256 195.031 310.262 190.709 316.5 191 C 331.071 195.574 325.634 195.37 329 195.5 C 331.877 195.365 335.32 192.234 338.5 193 C 341.754 193.785 345.502 196.279 345.75 199.5 C 346.391 204.77 342.322 209.485 340.75 214.5 C 339.929 217.101 339.254 219.859 339 222.5 C 338.669 225.982 340.718 230.292 338.5 233 C 332.659 240.137 324.962 246.373 316.5 250.35 C 312.415 252.169 307.506 248.929 303 249.4 C 299.122 249.803 295.532 252.159 291.7 252.5 C 289.59 252.709 287.628 250.875 285.7 251 C 279.923 251.37 274.245 253.683 268.6 254.1 C 265.993 254.292 263.451 252.581 260.85 252.85 C 256.432 253.311 252.497 256.197 248 256.4 C 245.819 256.46 244.062 253.69 241.85 253.6 C 239.565 253.512 237.216 255.784 235.35 255.75 C 232.207 255.695 229.183 253.278 226.25 253.25 C 223.881 253.228 222.059 255.606 219.5 255.5 C 215.204 255.316 211.456 252.426 207 252.25 C 202.623 252.06 198.425 254.423 194 254.25 C 189.864 254.091 186.224 251.093 182 251 C 177.559 250.903 173.543 254.569 169 254 C 161.423 253.047 154.148 249.762 147.5 246 C 141.389 242.541 134.821 238.376 131 232.25 C 128.937 228.998 130.156 224.303 131.5 220.5 C 132.274 218.32 137.461 218.501 137 216.25 C 136.09 211.834 129.784 209.927 128.75 205.5 C 127.798 201.371 128.464 196.265 131.25 193 C 134.306 189.338 139.63 187.367 144.5 187.5 Z " stroke-width="1"/>
      <path id="ID0.03772310446947813" fill="#000000" stroke="none" stroke-linecap="round" d="M 241.25 272.75 C 246.429 272.86 251.712 272.729 257 272.75 C 262.119 272.646 272.418 272.206 272.5 272.5 C 272.583 272.794 262.71 274.943 257.75 275.75 C 252.082 276.641 246.44 277.527 240.75 277.5 C 235.986 277.478 231.161 276.794 226.5 275.75 C 224.246 275.108 220.056 273.304 220.25 272.5 C 220.444 271.696 225.111 271.699 227.5 271.75 C 232.127 271.778 236.662 272.652 241.25 272.75 Z " stroke-width="1"/>
      <path id="ID0.9733846550807357" fill="#000000" stroke="none" stroke-linecap="round" d="M 176.45 250.4 C 178.147 249.559 179.074 247.438 180.75 247.25 C 181.864 247.138 181.639 249.315 182.5 249.75 C 185.111 251.068 188.351 251.266 190.95 252.15 C 191.958 252.494 192.815 253.252 193.85 253.5 C 195.046 253.784 196.433 253.8 197.7 253.6 C 199.563 253.305 201.612 252.894 203.35 252 C 204.523 251.399 205.298 250.31 206 249.25 C 206.931 247.838 207.274 244.136 208.25 244.65 C 209.599 245.211 209.186 249.524 210.65 251.4 C 211.554 252.555 213.354 252.561 214.75 253 C 216.189 253.455 218.065 254.212 219.75 254 C 222.943 253.599 225.632 251.118 228.7 251.1 C 230.092 251.156 230.123 253.924 231.35 254.1 C 234.2 254.503 237.264 253.759 240 252.75 C 241.386 252.251 241.608 249.555 243 249.6 C 244.686 249.72 245.216 252.151 246.5 253.1 C 247.334 253.724 248.312 254.298 249.35 254.4 C 251.354 254.598 253.77 254.585 256 254 C 257.909 253.426 259.546 252.174 261.5 251 C 262.691 250.254 263.096 248.006 264.75 248.25 C 266.395 248.472 266.468 251.144 268 252 C 269.31 252.741 270.853 252.609 272.5 252.5 C 274.106 252.391 275.427 251.691 277.2 251.35 C 280.239 250.76 283.348 249.642 286.35 249.7 C 287.779 249.728 288.491 251.443 290.2 251.6 C 292.209 251.792 294.262 251.539 296.2 250.7 C 298.011 249.914 299.728 248.656 300.75 246.9 C 301.952 244.838 301.67 240.409 302.25 239.9 C 302.763 239.473 302.714 243.43 303.5 245.15 C 303.917 246.012 304.724 247.115 305.75 247.4 C 308.697 248.209 311.727 248.754 314.75 248.65 C 317.5 248.556 322.97 246.787 323 246.85 C 323.003 246.987 317.713 249.362 315 250.15 C 312.989 250.736 311.169 250.709 308.75 250.9 C 307.005 251.027 305.194 250.538 303.5 250.65 C 301.67 250.807 300.047 251.99 298.25 252.4 C 295.582 253.009 292.684 253.746 289.85 253.7 C 288.187 253.676 287.11 252.169 285.6 252.1 C 283.64 252.009 282.084 252.878 280.35 253.35 C 278.062 253.969 276.176 254.91 274 255.25 C 272.102 255.546 270.635 255.547 269 255.25 C 267.24 254.935 265.793 253.139 264 253.25 C 261.703 253.401 260.217 255.476 258.25 256 C 254.61 256.874 250.8 257.677 247.35 257.4 C 245.462 257.248 244.23 254.875 242.35 254.75 C 239.671 254.571 237.269 256.648 234.6 256.6 C 232.256 256.527 230.172 254.368 227.85 254.4 C 224.961 254.441 222.224 256.548 219.5 256.75 C 217.588 256.893 215.858 256.074 213.9 255.4 C 212.056 254.764 210.583 253.072 208.6 252.9 C 206.468 252.715 204.47 254.033 202.35 254.4 C 200.254 254.791 198.13 255.723 196 255.4 C 192.104 254.822 188.548 252.895 184.7 251.9 C 183.08 251.481 181.51 251.227 179.7 251.4 C 177.629 251.603 175.792 252.926 173.7 253.15 C 172.53 253.302 169.697 253.3 170.2 252.65 C 171.031 251.633 174.469 251.383 176.45 250.4 Z " stroke-width="1"/>
      <path id="ID0.023082690313458443" fill="#000000" stroke="none" stroke-linecap="round" d="M 323.5 245.5 C 342.873 234.691 346.885 207.663 361 191 C 364.529 186.834 370.304 187.912 370 191 C 368.783 203.32 365.783 216.283 358.5 226 C 348.608 239.008 335.582 251.23 320.5 256.5 C 294.163 265.716 265.38 269.127 237.5 268 C 207.114 266.769 177.26 260.285 149 250 C 134.549 244.741 121.661 234.191 111.75 222.25 C 105.138 214.102 100.465 202.812 101.5 192.25 C 101.939 187.776 111.701 189.226 115 192 C 118.908 195.293 116.698 202.39 119.25 206.75 C 126.975 219.239 132.298 236.005 145.5 242 C 173.953 254.919 206.256 259.94 237.5 260.5 C 266.775 261.024 298.319 259.764 323.5 245.5 Z " stroke-width="1"/>
      <path id="ID0.011438223998993635" fill="#000000" stroke="none" stroke-linecap="round" d="M 244.6939 180 C 286.1143 179.697 325.5234 182.266 364.9731 186 C 375.9859 186.966 395.6678 193.083 394.9982 194 C 394.2679 194.938 372.0612 193.753 360.9817 193 C 322.0991 191.091 283.692 185.996 244.9918 186 C 197.2721 186.007 148.9411 187.959 101.3001 193 C 89.5581 194.263 94.9638 202.904 94.2704 202 C 93.5924 201.095 86.0969 189.756 98.1427 188 C 146.3259 180.977 195.7911 180.358 244.6939 180 Z " stroke-width="1.0999110179987266"/>
      <path id="ID0.7354442607611418" fill="#000000" stroke="none" stroke-linecap="round" d="M 135.5 214.75 C 137.694 215.421 139.834 214.107 142 214.25 C 145.334 214.491 151.235 215.467 150.75 215.75 C 150.524 216.049 143.296 216.065 139.25 216.5 C 138.11 216.627 136.982 217.074 136 217.5 C 134.323 218.225 132.778 220.724 131.25 220.25 C 130.074 219.882 130.863 217.301 130.75 216 C 130.595 214.274 129.401 211.121 130.5 210.75 C 131.811 210.316 133.462 214.125 135.5 214.75 Z " stroke-width="1"/>
      <path id="ID0.28213059483096004" fill="#000000" stroke="none" stroke-linecap="round" d="M 142.75 205.75 C 142.795 202.466 144.11 196.061 144.25 196 C 144.299 196.032 143.998 202.354 144.25 205.5 C 144.394 207.029 144.689 208.562 145.25 210 C 145.964 211.839 147.751 213.292 148 215.25 C 148.162 216.55 146.476 217.471 146.25 218.75 C 145.384 223.244 145.086 232.312 145 232.25 C 144.805 232.313 144.253 223.303 144 218.75 C 143.918 217.429 143.893 216.095 143.75 214.75 C 143.418 211.638 142.689 208.751 142.75 205.75 Z " stroke-width="1"/>
      <path id="ID0.9856737572699785" fill="#000000" stroke="none" stroke-linecap="round" d="M 157.5 209.25 C 157.842 209.346 158.52 213.201 159.5 215.25 C 159.812 215.896 161.31 215.738 161.25 216.5 C 161.175 217.3 159.712 217.337 159.25 218 C 158.613 219.019 158.334 221.823 158 221.75 C 157.67 221.632 158.109 218.65 157.5 217.25 C 157.194 216.549 155.602 216.727 155.5 216 C 155.421 215.392 156.971 215.355 157 214.75 C 157.688 212.935 157.159 209.136 157.5 209.25 Z " stroke-width="1"/>
      <path id="ID0.4873570343479514" fill="#000000" stroke="none" stroke-linecap="round" d="M 337.25 213.5 C 339.05 212.327 339.326 209.618 341 208.25 C 343.335 206.341 347.129 203.125 349 204 C 350.651 204.777 349.057 209.199 348.5 211.75 C 347.972 214.732 347.784 218.229 345.75 220.5 C 344.509 221.867 342.407 221.513 340.75 221.25 C 338.388 220.866 336.735 218.918 334.5 218.75 C 328.386 218.291 317.941 219.658 316.4 219.4 C 314.899 219.171 323.245 218.463 326.7 217.5 C 330.319 216.49 334.161 215.512 337.25 213.5 Z " stroke-width="1"/>
      <path id="ID0.1709316372871399" fill="#000000" stroke="none" stroke-linecap="round" d="M 327.85 195.1 C 328.09 193.514 329.029 192.843 329.1 194.5 C 328.72 212.111 328.519 211.646 329 215.25 C 329.458 216.602 331.521 216.914 331.5 218 C 329.971 218.995 328.215 218.619 328 219.5 C 327.602 221.553 328.985 223.791 329 225.75 C 329.036 229.186 327.747 235.985 327.75 236 C 327.571 236.016 328.251 229.266 327.6 226 C 327.177 223.882 326.302 221.426 324.5 220.15 C 322.727 218.894 318.394 219.721 318.1 219.25 C 317.802 218.766 321.493 218.562 322.95 217.65 C 324.275 216.82 325.763 215.736 326.1 214.15 C 327.456 207.943 326.892 201.444 327.85 195.1 Z " stroke-width="1"/>
      <path id="ID0.818063807208091" fill="#000000" stroke="none" stroke-linecap="round" d="M 302.05 216.1 C 302.262 214.45 302.296 211.456 302.45 211.1 C 302.596 210.827 302.704 213.428 302.868 214.586 C 303.142 216.511 303.855 218.428 303.95 220.4 C 303.917 221.15 303.149 221.758 303.05 222.5 C 302.738 224.875 302.644 229.728 302.55 229.65 C 302.439 229.51 302.178 225.051 301.85 222.75 C 301.726 221.912 301.08 221.128 301.05 220.25 C 301.149 218.833 301.845 217.496 302.05 216.1 Z " stroke-width="1"/>
      <path id="ID0.6165316817350686" fill="#000000" stroke="none" stroke-linecap="round" d="M 302.6 218.9 C 303.397 218.896 303.91 219.457 304.6 219.6 C 305.853 219.854 308.515 219.867 308.6 220 C 308.67 220.138 306.207 220.433 305 220.6 C 304.006 220.742 302.844 220.884 301.75 220.9 C 301.13 220.909 300.431 220.633 299.75 220.6 C 298.834 220.561 296.914 220.768 296.9 220.6 C 296.955 220.46 298.899 219.82 299.9 219.5 C 300.791 219.215 301.686 218.89 302.6 218.9 Z " stroke-width="1"/>
      <path id="ID0.840762423351407" fill="#000000" stroke="none" stroke-linecap="round" d="M 149.25 189 C 151.864 189.487 153.931 191.88 156.2 192.9 C 156.771 193.145 157.345 193.209 157.8 192.9 C 159.276 191.875 159.973 189.641 161.7 189.1 C 165.096 188.043 168.75 187.991 172.3 187.75 C 173.216 187.688 174.039 187.731 174.8 188.1 C 176.712 189.179 178.78 190.318 180.15 192 C 181.08 193.144 181.639 196.205 181.4 196.25 C 181.161 196.295 179.49 193.539 178.3 192.4 C 177.311 191.446 176.127 190.446 174.8 189.9 C 173.302 189.283 171.5 188.982 169.8 188.9 C 168.476 188.838 167.288 189.06 166.25 189.5 C 164.73 190.025 163.394 190.923 162.25 191.75 C 160.941 192.683 159.398 193.57 158.5 194.75 C 157.976 195.447 158.309 197.339 157.7 197.25 C 156.819 197.118 156.477 195.193 155.5 194.5 C 153.138 192.938 150.716 191.131 147.85 190.6 C 146.53 190.356 145.657 192.527 144.35 192.6 C 143.439 192.649 143.032 191.27 142.2 190.9 C 140.564 190.179 135.504 189.566 136.5 189.25 C 138.71 188.702 145.259 188.268 149.25 189 Z " stroke-width="1"/>
      <path id="ID0.7547304378822446" fill="#000000" stroke="none" stroke-linecap="round" d="M 214.2 190.25 C 215.966 188.589 217.369 186.458 219.6 185.75 C 222.174 184.934 225.344 185.105 228.1 185.75 C 230.67 186.352 232.817 188.294 235.15 189.6 C 236.896 190.58 238.451 192.747 240.35 192.3 C 244.324 191.365 246.959 187.308 250.75 185.8 C 252.679 185.041 254.818 184.898 256.6 185.65 C 259.203 186.733 261.098 189.226 263.35 191 C 265.636 192.975 266.061 193.721 267.1 193.65 C 269.312 193.374 271.375 192.099 273.35 191 C 275.814 189.629 277.63 186.475 280.5 186.4 C 283.748 186.248 286.416 189.283 289.5 190.4 C 293.236 191.742 296.264 193.208 299.85 193.5 C 301.576 193.64 303.141 192.556 304.5 191.65 C 305.861 190.822 306.369 188.664 307.85 188.4 C 311.399 187.767 315.216 188.19 318.65 189.15 C 321.323 189.899 322.957 193.011 325.65 193.3 C 327.935 193.543 329.733 190.868 332 190.3 C 333.759 189.861 335.61 189.611 337.35 190 C 339.113 190.552 342.215 191.372 341.7 192.3 C 340.489 193.871 336.354 194.218 333.9 195 C 332.1 195.575 330.289 196.433 328.4 196.4 C 326.315 196.363 324.27 195.286 322.25 194.6 C 319.919 193.808 317.84 191.668 315.35 191.65 C 311.768 191.81 308.546 194.07 305.1 195 C 303.41 195.456 301.716 196.37 300 196.1 C 296.106 195.489 292.456 193.689 288.7 192.3 C 286.191 191.373 283.941 189.035 281.2 189.15 C 278.725 189.244 276.982 191.803 274.85 193 C 272.563 194.279 270.374 196.357 267.7 196.3 C 265.17 196.258 263.165 194.033 261 192.65 C 258.839 191.194 257.38 188.351 254.75 187.8 C 252.667 187.363 250.61 189.023 248.75 190 C 245.784 191.654 243.634 195.238 240.35 195.65 C 238.125 195.927 236.61 193.182 234.65 192 C 232.778 190.933 231.004 189.593 228.85 188.9 C 227.149 188.353 225.263 188.186 223.5 188.5 C 221.581 188.801 219.617 189.533 217.9 190.6 C 216.538 191.557 215.447 192.955 214.5 194.4 C 213.334 196.185 212.989 199.512 211.85 200.25 C 211.207 200.666 211.362 197.845 211 196.75 C 210.693 195.887 209.764 195.222 209.85 194.4 C 209.907 193.948 210.815 194.44 211.1 194.1 C 212.325 193 213.003 191.378 214.2 190.25 Z " stroke-width="1"/>
      <path id="ID0.9422479625791311" fill="#FFFFFF" stroke="none" stroke-linecap="round" d="M 152.625 220 C 153.901 220 155.057 220.966 155.895 222.528 C 156.732 224.089 157.252 226.528 157.25 228.625 C 157.246 230.196 156.821 231.621 156 232.75 C 155.189 233.848 153.893 234.888 152.65 234.9 C 150.938 234.908 148.755 234.539 147.8 233.1 C 146.705 231.449 147.123 228.897 147.4 226.75 C 147.655 225.274 148.405 223.858 149.355 222.528 C 150.173 221.386 151.349 220 152.625 220 Z " stroke-width="1"/>
      <path id="ID0.8313381420448422" fill="#FFFFFF" stroke="none" stroke-linecap="round" d="M 152 197 C 153.279 197.578 153.607 199.73 154.3 201.15 C 155 202.592 155.806 204.125 156.15 205.8 C 156.469 207.27 156.752 208.908 156.261 210.442 C 155.918 211.507 154.962 212.593 153.875 212.75 C 152.783 212.907 151.437 212.343 150.9 211.4 C 149.811 209.486 149.296 207.203 149.15 205 C 149.025 203.052 149.069 200.964 149.8 199.15 C 150.238 198.102 151.146 196.613 152 197 Z " stroke-width="1"/>
      <path id="ID0.10044286493211985" fill="#FFFFFF" stroke="none" stroke-linecap="round" d="M 165.45 193.15 C 168.173 192.37 171.847 192.726 173.75 194.8 C 175.847 197.097 175.477 201.003 175.25 204.15 C 175.041 207.01 174.085 210.373 172.1 212.65 C 170.746 214.197 168.074 214.725 165.85 214.5 C 164.056 214.301 162.269 213.087 161.101 211.489 C 159.617 209.453 158.599 206.807 158.75 204.3 C 158.874 201.893 160.966 200.418 162.1 198.5 C 163.167 196.691 163.424 193.727 165.45 193.15 Z " stroke-width="1"/>
      <path id="ID0.9994058320298791" fill="#FFFFFF" stroke="none" stroke-linecap="round" d="M 172.1 220.4 C 173.608 220.173 175.601 220.772 176.35 222.1 C 177.653 224.402 178.133 227.264 177.9 229.9 C 177.637 232.625 176.289 235.205 174.9 237.6 C 174.153 239.004 173.209 240.941 171.6 241.1 C 169.531 241.313 166.956 240.199 165.95 238.5 C 164.497 235.955 165.029 232.747 165.1 230 C 165.159 227.82 164.874 225.37 166.1 223.6 C 167.381 221.769 169.859 220.734 172.1 220.4 Z " stroke-width="1"/>
      <path id="ID0.9905957276932895" fill="#FFFFFF" stroke="none" stroke-linecap="round" d="M 192.35 218.1 C 196.29 218.068 200.29 219.499 203.768 221.383 C 206.269 222.741 209.526 224.556 210 227.4 C 210.511 230.497 208.095 233.379 206.5 236 C 205.433 237.594 203.822 238.845 202.2 239.75 C 198.916 241.573 195.551 244.403 191.75 244 C 187.75 243.576 184.683 240.201 181.5 237.6 C 178.976 235.753 175.114 234.095 174.75 230.75 C 174.367 227.238 176.861 223.488 179.732 221.383 C 183.188 218.853 187.984 218.068 192.35 218.1 Z " stroke-width="1"/>
      <path id="ID0.20623035915195942" fill="#FFFFFF" stroke="none" stroke-linecap="round" d="M 217.5 217.5 C 220.719 217.363 223.962 218.263 226.5 220 C 229.679 222.273 233.859 225.238 233.9 229 C 233.95 234.349 230.137 239.517 227 243.5 C 225.081 245.939 222.192 247.677 219.125 248.5 C 216.678 249.158 213.618 249.247 211.55 247.75 C 209.443 246.137 209.334 242.853 208.25 240.4 C 207.085 237.764 204.885 235.368 205 232.375 C 205.159 228.333 206.491 224.017 209.14 220.976 C 211.235 218.576 214.491 217.631 217.5 217.5 Z " stroke-width="1"/>
      <path id="ID0.1711117923259735" fill="#FFFFFF" stroke="none" stroke-linecap="round" d="M 238.25 218.5 C 240.567 218.32 243.012 219.269 245 220.5 C 246.785 221.603 248.594 223.365 248.75 225.5 C 249.388 230.81 249.012 236.417 247.25 241.6 C 246.48 243.866 244.014 245.16 241.9 246.4 C 239.397 247.917 236.654 250.523 233.6 249.75 C 231.239 249.138 231.06 245.488 230.5 243.1 C 229.719 239.731 229.662 236.226 230.1 232.75 C 229.425 229.332 228.027 225.398 229.767 222.433 C 231.319 219.787 235.176 219.002 238.25 218.5 Z " stroke-width="1"/>
      <path id="ID0.896534139290452" fill="#FFFFFF" stroke="none" stroke-width="15" stroke-linecap="round" d="M 223.6 191.75 C 227.074 192.042 230.183 194.449 232.75 196.75 C 234.937 198.296 237.092 200.418 237.5 203 C 237.963 205.915 237.352 209.648 235.1 211.6 C 232.654 213.752 228.773 213.411 225.5 213.6 C 222.659 213.681 219.227 214.183 217 212.4 C 214.578 210.439 213.631 206.794 213.4 203.75 C 213.168 200.773 213.813 197.313 215.75 195.1 C 217.634 192.976 220.816 191.515 223.6 191.75 Z "/>
      <path id="ID0.2612742749042809" fill="#FFFFFF" stroke="none" stroke-linecap="round" d="M 252.65 192.25 C 256.035 192.815 257.61 196.972 260.5 198.75 C 263.135 200.369 267.895 199.605 268.75 202.5 C 270.005 206.725 268.457 212.251 265.5 215.75 C 263.441 217.97 259.338 216.89 256.25 216.75 C 251.522 216.536 245.938 217.194 242.25 214.25 C 239.813 212.367 241.097 208.163 241.5 205.125 C 241.908 202.053 242.654 198.679 244.75 196.4 C 246.86 194.125 249.72 191.762 252.65 192.25 Z " stroke-width="1"/>
      <path id="ID0.9403311391361058" fill="#FFFFFF" stroke="none" stroke-linecap="round" d="M 282.6 195.1 C 284.616 194.816 286.645 196.687 287.75 198.4 C 289.16 200.612 289.86 203.388 289.75 206 C 289.643 208.734 289.037 211.805 287.25 214 C 285.647 215.744 282.901 216.449 280.5 216.75 C 278.537 216.97 276.053 216.705 274.75 215.25 C 272.94 213.22 272.207 210.087 272.5 207.4 C 272.8 204.64 274.507 202.015 276.25 199.75 C 277.963 197.808 279.982 195.469 282.6 195.1 Z " stroke-width="1"/>
      <path id="ID0.15967259416356683" fill="#FFFFFF" stroke="none" stroke-linecap="round" d="M 252.5 222 C 263.51 221.679 256.797 222.134 258.5 222.25 C 260.504 222.383 264.476 220.512 265.5 222.5 C 267.405 226.421 265.857 231.208 265 235.375 C 264.218 239.164 263.456 243.221 261 246 C 258.845 248.278 255.31 249.563 252.35 249.25 C 249.73 248.967 248.448 244.997 245.95 244.6 C 243.684 244.243 239.279 249.074 239.45 246.9 C 239.998 239.947 243.828 232.761 247.25 226.25 C 248.31 224.3 250.335 222.602 252.5 222 Z " stroke-width="1"/>
      <path id="ID0.8366149091161788" fill="#FFFFFF" stroke="none" stroke-linecap="round" d="M 272.0269 223.25 C 274.607 223.165 276.7492 224.827 279.2662 225.25 C 281.0396 225.508 283.9007 223.898 284.7731 225.25 C 287.0786 228.81 287.1491 233.277 287.0006 237.25 C 286.9053 239.792 286.096 242.625 284.0306 244.5 C 281.8254 246.48 277.9322 246.798 274.9969 247.75 C 272.6877 248.5 269.3996 251.191 267.8812 249.6 C 264.2059 245.742 263.7802 240.068 263.3644 235.1 C 263.102 231.971 263.618 228.251 265.7775 225.5 C 267.0719 223.868 269.7573 223.337 272.0269 223.25 Z " stroke-width="1.1250346954611679"/>
      <path id="ID0.23162290174514055" fill="#FFFFFF" stroke="none" stroke-linecap="round" d="M 290.5 229 C 291.796 229.086 292.946 231.141 293.25 232.5 C 293.695 234.797 293.275 237.283 292.6 239.25 C 291.86 241.396 290.924 243.675 289.1 245.1 C 288.18 245.819 286.334 245.794 285.6 244.9 C 284.458 243.506 284.113 241.359 284.5 239.6 C 285.1 236.887 286.777 234.625 288 232.25 C 288.783 231.081 289.376 228.93 290.5 229 Z " stroke-width="1"/>
      <path id="ID0.5799082554876804" fill="#FFFFFF" stroke="none" stroke-linecap="round" d="M 310.2478 194.75 C 311.1772 194.28 311.8851 192.983 312.7261 193.4 C 313.9801 193.985 314.8756 195.672 315.4935 197.25 C 316.3691 199.809 317.0308 202.676 317.1043 205.5 C 317.1754 208.242 317.1993 211.346 315.8652 213.6 C 314.6773 215.76 312.4039 217.197 310.2478 217.5 C 308.2 217.795 305.597 217.265 304.3413 215.25 C 302.889 212.915 303.0501 209.378 303.1022 206.6 C 303.1509 203.379 303.3723 199.72 304.9427 197.194 C 306.0868 195.358 308.5056 195.629 310.2478 194.75 Z " stroke-width="0.9171749096448333"/>
      <path id="ID0.16719880374148488" fill="#FFFFFF" stroke="none" stroke-linecap="round" d="M 312.7 223.75 C 314.238 223.642 316.53 221.924 317.35 223.5 C 318.617 226.003 316.78 229.095 316.25 231.875 C 315.791 234.286 315.608 236.848 314.492 239.033 C 313.606 240.763 312.104 242.412 310.2 243.1 C 308.519 243.814 305.612 244.568 304.6 242.9 C 302.848 240.006 303.703 236.063 304.1 232.75 C 304.458 229.764 304.657 226.175 306.7 224.1 C 308.096 222.675 310.645 223.884 312.7 223.75 Z " stroke-width="1"/>
      <path id="ID0.8751112269237638" fill="#FFFFFF" stroke="none" stroke-linecap="round" d="M 333.9 197.75 C 334.636 197.688 335.637 197.561 336.057 198.249 C 336.756 199.374 336.901 200.836 336.9 202.225 C 336.899 203.431 336.625 204.504 336.05 205.4 C 335.495 206.375 334.673 207.423 333.65 207.6 C 332.833 207.767 331.851 207.282 331.4 206.5 C 330.783 205.399 330.968 203.993 330.9 202.75 C 330.909 201.484 330.642 200.025 331.25 199 C 331.756 198.142 333.063 197.799 333.9 197.75 Z " stroke-width="1"/>
    </g>
  </g>
</svg>