<svg xmlns="http://www.w3.org/2000/svg" xmlns:xlink="http://www.w3.org/1999/xlink" version="1.1" width="30.232702912775807" height="36.93452996203118" viewBox="-7.35725268815365 -7.301452667458918 30.232702912775807 36.93452996203118">
  <!-- Exported by Scratch - http://scratch.mit.edu/ -->
  <path id="ID0.9358589742332697" fill="#DB861B" stroke="none" stroke-width="16.260504098868306" stroke-linecap="round" d="M 7.9521 13.2784 C 7.7473 13.0313 7.2289 12.9667 6.8479 12.9816 C 6.2293 13.0064 5.7044 13.2195 5.1686 13.4188 C 4.7492 13.5602 4.1599 13.5696 3.9145 13.957 C 3.7701 14.2537 3.9863 14.8353 4.309 14.9145 C 4.9782 15.077 5.6727 14.7067 6.3461 14.5415 C 6.8278 14.4236 7.3441 14.3464 7.7196 14.0247 C 7.9392 13.8799 8.1092 13.4706 7.9521 13.2784 Z "/>
  <path id="ID0.19551143841817975" fill="#DB861B" stroke="none" stroke-width="16.260505380121998" stroke-linecap="round" d="M 8.0132 16.5691 C 7.7919 16.372 7.5183 16.011 7.1925 16.0388 C 6.4523 16.1058 5.7456 16.5115 5.0608 16.8451 C 4.4015 17.1475 3.674 17.3827 3.1364 17.8568 C 2.9753 18.0685 3.1422 18.4262 3.2394 18.6393 C 3.4216 19.0376 3.5256 19.7653 3.9774 19.7962 C 4.5043 19.8288 4.6957 19.0794 5.0978 18.8377 C 6.1914 18.1933 7.4933 17.8934 8.4427 17.1509 C 8.6801 16.9652 8.1915 16.7269 8.0132 16.5691 Z "/>
  <g id="ID0.30696602864190936">
    <path id="ID0.637318427208811" fill="#FAA51D" stroke="none" stroke-linecap="round" d="M 5.0779 15.7058 C 5.696 16.049 6.5505 15.9152 7.1274 16.3347 C 7.4015 16.5357 7.4744 17.0157 7.28 17.2259 C 7.0298 17.5587 6.5359 17.5999 6.1345 17.5439 C 5.518 17.4781 4.9339 17.2872 4.3511 16.9772 C 3.7087 16.6359 3.045 16.2676 2.5561 15.7314 C 2.2987 15.4915 2.0256 15.0548 2.2106 14.7552 C 2.4236 14.4116 2.9886 14.2534 3.3935 14.3797 C 4.0562 14.5933 4.4283 15.3853 5.0779 15.7058 Z " stroke-width="1.0840336296178195"/>
    <path id="ID0.9894068208523095" fill="#FFFFFF" stroke="none" stroke-linecap="round" d="M 3.1431 14.3306 C 3.707 14.3848 4.3493 14.9389 4.5289 15.4233 C 4.6403 15.6101 3.9195 15.4676 3.7241 15.6749 C 3.5148 15.8994 3.7447 16.6523 3.5139 16.5438 C 2.9496 16.3596 2.23 15.7381 2.135 15.0876 C 2.0744 14.6729 2.7259 14.2908 3.1431 14.3306 Z " stroke-width="1.0840336296178195"/>
  </g>
  <g id="ID0.536394951865077">
    <path id="ID0.6198067106306553" fill="#FAA51D" stroke="none" stroke-linecap="round" d="M 6.3055 10.5616 C 6.8095 10.4454 7.5025 10.1431 7.8435 10.5514 C 8.5541 11.3146 8.7073 12.4869 8.9538 13.5105 C 9.1997 14.5319 9.5666 15.6774 9.3574 16.7664 C 9.2513 17.2132 8.6044 17.3959 8.13 17.5357 C 7.6781 17.6674 7.0221 17.7426 6.7218 17.3999 C 6.0062 16.6391 5.7068 15.5633 5.4292 14.6006 C 5.1141 13.5031 4.6518 12.3444 4.8796 11.2148 C 4.9816 10.7051 5.7969 10.6778 6.3055 10.5616 Z " stroke-width="1.0840336259501413"/>
    <path id="ID0.21503017749637365" fill="#FFFFFF" stroke="none" stroke-linecap="round" d="M 7.5368 12.1093 C 7.8265 12.0346 8.1825 12.2003 8.3556 12.4553 C 8.7515 13.0006 8.9613 13.6953 9.1322 14.3531 C 9.329 15.1096 9.5321 15.8901 9.4668 16.7027 C 9.4267 16.9608 9.1252 17.1619 8.8424 17.3143 C 8.5454 17.4637 8.043 17.6164 7.8437 17.3515 C 7.3237 16.6572 7.1819 15.6657 7.0005 14.7708 C 6.8799 14.1771 6.7759 13.4927 6.8874 12.8395 C 6.9665 12.5465 7.2232 12.1913 7.5368 12.1093 Z " stroke-width="1.0840336259501413"/>
  </g>
  <path id="ID0.19551143841817975" fill="#FAA51D" stroke="none" stroke-linecap="round" d="M 6.7461 16.5071 C 6.4978 16.646 6.7734 17.1676 6.8605 17.4775 C 7.101 18.2326 7.4892 19.0033 7.7669 19.5685 C 8.0862 20.2185 8.3619 20.9345 8.8689 21.4428 C 9.0816 21.6004 9.4373 21.4099 9.6455 21.3028 C 10.0348 21.1019 10.7567 20.9635 10.7661 20.5107 C 10.7737 19.9828 10.0442 19.8327 9.7556 19.437 C 9.1424 18.5921 8.7799 17.601 8.028 16.9039 C 7.723 16.5731 7.0975 16.3127 6.7461 16.5071 Z " stroke-width="1.0840336625255376"/>
  <g id="ID0.6909988787956536">
    <g id="ID0.847524844110012">
      <path id="ID0.10025785537436604" fill="#FAA51D" stroke="none" d="M 7.3595 2.4142 C 9.0155 2.3795 10.5278 2.9526 11.6351 3.9065 C 12.7412 4.8604 13.4422 6.1951 13.4734 7.6837 C 13.5045 9.1724 12.86 10.5353 11.7949 11.5347 C 10.7286 12.5341 9.2416 13.17 7.5856 13.2047 C 5.9296 13.2394 4.4172 12.6663 3.31 11.7124 C 2.2039 10.7585 1.5029 9.4238 1.4717 7.9351 C 1.4405 6.4465 2.085 5.0836 3.1502 4.0842 C 4.2165 3.0848 5.7035 2.4489 7.3595 2.4142 Z " stroke-width="1.1013089609217264"/>
      <path id="ID0.23814574256539345" fill="#FAA51D" stroke="none" stroke-linecap="round" d="M 0.773 1.6435 L 5.1615 3.4242 L 1.5398 6.6945 L 0.773 1.6435 Z " stroke-width="1.1013089609217264"/>
      <path id="ID0.23814574256539345" fill="#FAA51D" stroke="none" stroke-linecap="round" d="M 11.526 0.8288 L 7.4637 3.2634 L 11.5453 5.9377 L 11.526 0.8288 Z " stroke-width="1.1013089012708415"/>
      <path id="ID0.46886637480929494" fill="#FFFFFF" stroke="none" stroke-linecap="round" d="M 10.0997 8.7422 C 11.0511 8.622 11.7885 7.4852 12.7204 7.6408 C 13.6412 7.7944 14.7085 8.6864 14.7438 9.5812 C 14.7839 10.6533 13.9555 11.7556 13.0386 12.3157 C 11.7987 13.126 10.2322 13.28 8.7377 13.3972 C 7.7611 13.4738 6.7141 13.3449 5.8358 12.9072 C 5.1223 12.5542 4.2283 11.944 4.0911 11.1262 C 4.0129 10.2301 4.471 9.0165 5.3066 8.6773 C 6.7888 8.0757 8.5316 8.9744 10.0997 8.7422 Z " stroke-width="1.1013089609217264"/>
      <path id="ID0.2958779144100845" fill="#666666" stroke="none" stroke-linecap="round" d="M 9.7319 8.0933 C 10.0821 8.0353 10.647 7.9232 10.7252 8.1826 C 10.8324 8.5141 10.5403 9.1911 10.1415 9.2413 C 9.6181 9.3382 8.859 8.8584 8.749 8.4994 C 8.6743 8.2465 9.3777 8.1139 9.7319 8.0933 Z " stroke-width="1.1013089609217264"/>
    </g>
    <g id="ID0.26280788984149694">
      <g id="ID0.2985607646405697">
        <path id="ID0.6929170889779925" fill="#000000" stroke="none" d="M 10.9777 4.1093 C 11.3191 4.1021 11.6338 4.296 11.8641 4.6151 C 12.0955 4.9341 12.2436 5.3793 12.2539 5.8726 C 12.2643 6.3659 12.1349 6.8169 11.9171 7.1453 C 11.7003 7.4737 11.394 7.6806 11.0527 7.6878 C 10.7114 7.6949 10.3967 7.501 10.1664 7.182 C 9.935 6.863 9.7869 6.4178 9.7765 5.9245 C 9.7662 5.4312 9.8955 4.9802 10.1134 4.6517 C 10.3301 4.3233 10.6364 4.1164 10.9777 4.1093 Z " stroke-width="1.1013089609217264"/>
        <path id="ID0.02252052817493677" fill="#CCCCCC" stroke="none" d="M 11.4133 4.5041 C 11.5421 4.5014 11.6621 4.6035 11.7494 4.7713 C 11.8377 4.9391 11.8954 5.1714 11.9008 5.4302 C 11.9063 5.6889 11.8583 5.9235 11.7771 6.0948 C 11.6969 6.2661 11.5813 6.3732 11.4525 6.3759 C 11.3237 6.3786 11.2037 6.2765 11.1164 6.1087 C 11.0281 5.9409 10.9704 5.7086 10.9649 5.4498 C 10.9595 5.1911 11.0075 4.9565 11.0887 4.7852 C 11.1688 4.6139 11.2845 4.5068 11.4133 4.5041 Z " stroke-width="1.1013089609217264"/>
      </g>
      <g id="ID0.2985607646405697">
        <path id="ID0.6929170889779925" fill="#000000" stroke="none" d="M 6.8825 4.3139 C 7.2239 4.3068 7.5386 4.5007 7.7689 4.8197 C 8.0003 5.1387 8.1484 5.5839 8.1587 6.0772 C 8.1691 6.5705 8.0397 7.0215 7.8219 7.3499 C 7.6051 7.6783 7.2988 7.8852 6.9575 7.8924 C 6.6162 7.8995 6.3015 7.7056 6.0712 7.3866 C 5.8398 7.0676 5.6917 6.6224 5.6813 6.1291 C 5.671 5.6358 5.8003 5.1848 6.0182 4.8564 C 6.2349 4.528 6.5412 4.3211 6.8825 4.3139 Z " stroke-width="1.1013089609217264"/>
        <path id="ID0.02252052817493677" fill="#CCCCCC" stroke="none" d="M 7.2121 4.6151 C 7.3409 4.6124 7.4609 4.7145 7.5481 4.8824 C 7.6365 5.0501 7.6942 5.2825 7.6996 5.5412 C 7.7051 5.8 7.6571 6.0345 7.5759 6.2058 C 7.4957 6.3772 7.3801 6.4842 7.2513 6.4869 C 7.1225 6.4896 7.0025 6.3875 6.9152 6.2197 C 6.8269 6.0519 6.7691 5.8196 6.7637 5.5608 C 6.7583 5.3021 6.8063 5.0675 6.8875 4.8962 C 6.9676 4.7249 7.0833 4.6178 7.2121 4.6151 Z " stroke-width="1.1013089609217264"/>
      </g>
    </g>
  </g>
  <path id="ID0.9358589742332697" fill="#F9B341" stroke="none" stroke-width="16.26050345662513" stroke-linecap="round" d="M 6.4733 13.4626 C 6.4124 13.7778 5.9887 14.0834 5.6475 14.2534 C 5.093 14.5289 4.5303 14.5942 3.9647 14.6768 C 3.5289 14.7543 3.0075 15.0291 2.6061 14.8073 C 2.337 14.6165 2.2471 14.0025 2.4921 13.7781 C 3.001 13.314 3.788 13.3051 4.458 13.1264 C 4.9371 12.9984 5.427 12.8181 5.9108 12.9198 C 6.1729 12.9413 6.5187 13.2186 6.4733 13.4626 Z "/>
</svg>