<svg xmlns="http://www.w3.org/2000/svg" xmlns:xlink="http://www.w3.org/1999/xlink" version="1.1" width="21.544753633996674" height="11.051874720117281" viewBox="0.324747997988845 -0.28167171431622395 21.544753633996674 11.051874720117281">
  <!-- Exported by Scratch - http://scratch.mit.edu/ -->
  <g id="ID0.9007245465181768">
    <path id="ID0.6487746122293174" fill="#006622" stroke="none" stroke-linecap="round" d="M 10.5556 0.2797 C 12.5889 0.2368 14.824 0.4051 16.5473 1.0687 C 18.251 1.7245 19.6747 2.8343 20.4549 4.0493 C 21.3459 5.4362 21.3407 7.0492 21.3016 8.5641 C 21.3185 9.0375 21.1518 9.7134 20.3898 9.8352 C 17.3679 10.3174 14.1819 10.2148 11.0766 10.1859 C 8.1915 10.1587 5.219 10.2078 2.4147 9.7476 C 1.6305 9.588 0.9701 8.9831 0.9167 8.4326 C 0.7839 7.0554 0.9975 5.5975 1.7634 4.3123 C 2.4616 3.1446 3.5674 2.0155 5.0849 1.3317 C 6.6597 0.5971 8.6929 0.3192 10.5556 0.2797 Z " stroke-width="1.1102138390748002"/>
    <path id="ID0.6862273388542235" fill="#009933" stroke="none" stroke-linecap="round" d="M 11.0643 0.4447 C 12.9972 0.4701 15.0175 0.7156 16.6327 1.409 C 18.1983 2.0683 19.5308 3.129 20.1495 4.302 C 20.7643 5.4653 21.4638 7.1099 20.1495 7.8963 C 17.9717 9.2805 14.5759 9.6127 11.6178 9.6057 C 8.3979 9.5978 4.7039 9.3007 2.3046 7.8524 C 0.894 7.0257 1.751 5.2759 2.3698 4.0828 C 2.9611 2.9423 4.1998 1.8824 5.7564 1.2337 C 7.2699 0.5973 9.2524 0.4202 11.0643 0.4447 Z " stroke-width="1.1102138390748002"/>
    <path id="ID0.01353864697739482" fill="#00CC44" stroke="none" stroke-linecap="round" d="M 11.1956 0.6077 C 12.769 0.5946 14.4389 0.7541 15.8196 1.2214 C 17.1104 1.6834 18.2163 2.4206 18.8806 3.2815 C 19.511 4.0977 20.4645 5.3434 19.4667 5.9115 C 17.3683 7.1905 14.2696 7.741 11.4561 7.7086 C 8.5696 7.6762 5.4253 7.1072 3.25 5.8238 C 2.2431 5.2294 3.0312 3.925 3.5756 3.0623 C 4.0954 2.3216 5.1257 1.6799 6.2459 1.309 C 7.7568 0.8085 9.5582 0.6217 11.1956 0.6077 Z " stroke-width="1.1102138390748002"/>
    <path id="ID0.40726609993726015" fill="#99FFBB" stroke="none" d="M 12.8538 0.9941 C 13.3657 0.9941 13.8294 1.1071 14.1654 1.2895 C 14.5015 1.4718 14.7099 1.7243 14.7099 2.0022 C 14.7099 2.2801 14.5015 2.5326 14.1654 2.7149 C 13.8294 2.8973 13.3657 3.0104 12.8538 3.0104 C 12.3419 3.0104 11.8781 2.8973 11.5421 2.7149 C 11.206 2.5326 10.9976 2.2801 10.9976 2.0022 C 10.9976 1.7243 11.206 1.4718 11.5421 1.2895 C 11.8781 1.1071 12.3419 0.9941 12.8538 0.9941 Z " stroke-width="1.1102138390748002"/>
    <path id="ID0.44971933402121067" fill="#99FFBB" stroke="none" d="M 11.1092 3.0042 C 11.3879 3.0042 11.6406 3.0603 11.823 3.1523 C 12.0053 3.2435 12.1186 3.3689 12.1186 3.5083 C 12.1186 3.6477 12.0053 3.773 11.823 3.8642 C 11.6406 3.9562 11.3879 4.0123 11.1092 4.0123 C 10.8304 4.0123 10.5777 3.9562 10.3954 3.8642 C 10.213 3.773 10.0997 3.6477 10.0997 3.5083 C 10.0997 3.3689 10.213 3.2435 10.3954 3.1523 C 10.5777 3.0603 10.8304 3.0042 11.1092 3.0042 Z " stroke-width="1.1102138390748002"/>
  </g>
  <g id="ID0.8220732379704714">
    <g id="ID0.20715344790369272">
      <path id="ID0.19440001714974642" fill="#000000" stroke="none" d="M 11 0.75 C 11.593 0.75 12.131 1.156 12.52 1.812 C 12.909 2.469 13.15 3.375 13.15 4.375 C 13.15 5.375 12.909 6.281 12.52 6.938 C 12.131 7.594 11.593 8 11 8 C 10.407 8 9.869 7.594 9.48 6.938 C 9.091 6.281 8.85 5.375 8.85 4.375 C 8.85 3.375 9.091 2.469 9.48 1.812 C 9.869 1.156 10.407 0.75 11 0.75 Z " stroke-width="1"/>
      <path id="ID0.35307061253115535" fill="#FFFFFF" stroke="none" d="M 11.65 1.35 C 11.871 1.35 12.071 1.529 12.216 1.819 C 12.36 2.109 12.45 2.509 12.45 2.95 C 12.45 3.391 12.36 3.791 12.216 4.081 C 12.071 4.371 11.871 4.55 11.65 4.55 C 11.429 4.55 11.229 4.371 11.084 4.081 C 10.94 3.791 10.85 3.391 10.85 2.95 C 10.85 2.509 10.94 2.109 11.084 1.819 C 11.229 1.529 11.429 1.35 11.65 1.35 Z " stroke-width="1"/>
    </g>
    <g id="ID0.20715344790369272">
      <path id="ID0.19440001714974642" fill="#000000" stroke="none" d="M 16.85 0.85 C 17.443 0.85 17.981 1.256 18.37 1.912 C 18.759 2.569 19 3.475 19 4.475 C 19 5.475 18.759 6.381 18.37 7.038 C 17.981 7.694 17.443 8.1 16.85 8.1 C 16.257 8.1 15.719 7.694 15.33 7.038 C 14.941 6.381 14.7 5.475 14.7 4.475 C 14.7 3.475 14.941 2.569 15.33 1.912 C 15.719 1.256 16.257 0.85 16.85 0.85 Z " stroke-width="1"/>
      <path id="ID0.35307061253115535" fill="#FFFFFF" stroke="none" d="M 17.5 1.45 C 17.721 1.45 17.921 1.629 18.066 1.919 C 18.21 2.209 18.3 2.609 18.3 3.05 C 18.3 3.491 18.21 3.891 18.066 4.181 C 17.921 4.471 17.721 4.65 17.5 4.65 C 17.279 4.65 17.079 4.471 16.934 4.181 C 16.79 3.891 16.7 3.491 16.7 3.05 C 16.7 2.609 16.79 2.209 16.934 1.919 C 17.079 1.629 17.279 1.45 17.5 1.45 Z " stroke-width="1"/>
    </g>
  </g>
</svg>