<svg xmlns="http://www.w3.org/2000/svg" xmlns:xlink="http://www.w3.org/1999/xlink" version="1.1" width="482" height="83" viewBox="-1 -1 482 83">
  <!-- Exported by Scratch - http://scratch.mit.edu/ -->
  <path id="ID0.8520442279987037" fill="#000000" stroke="none" stroke-linecap="round" d="M 0 81 L 480 81 L 480 33 L 451 30 L 410 39 L 357 36 L 317 32 L 271 41 L 212 37 L 192 17 L 163 9 L 136 12 L 98 5 L 58 2 L 26 6 L 0 0 L 0 81 Z " stroke-width="1"/>
  <g id="ID0.8208565139211714">
    <g id="ID0.2558769751340151">
      <path id="ID0.12147866515442729" fill="#7F7F7F" stroke="#000000" stroke-width="2" stroke-linecap="round" d="M 12.25 49.75 L 87.5 49.75 L 92 74.75 L 8 74.75 L 12.25 49.75 Z "/>
      <path id="ID0.7274534073658288" fill="#666666" stroke="none" stroke-linecap="round" d="M 13.25 50.5 L 16 53 L 13 71 L 87.25 71 L 90.75 73.75 L 9.25 73.75 L 13.25 50.5 Z " stroke-width="1"/>
      <path id="ID0.5682024150155485" fill="#CCCCCC" stroke="none" stroke-linecap="round" d="M 13.5 50.75 L 86.5 50.75 L 90.5 73.5 L 87.25 71 L 84.25 53.75 L 16.25 53.75 L 13.5 50.75 Z " stroke-width="1"/>
    </g>
    <g id="ID0.07341922586783767">
      <text id="ID0.07556489249691367" fill="#000000" text-anchor="start" font-family="Sans Serif" font-size="22" transform="matrix(1 0 0 0.82669 16.5 47.0699)" stroke-width="1" alignment-baseline="text-before-edge" xml:space="preserve"><tspan x="0" style="white-space: pre" dy="1.13em">Space</tspan></text>
      <text id="ID0.07556489249691367" fill="#000000" text-anchor="start" font-family="Sans Serif" font-size="22" transform="matrix(1 0 0 0.82669 17.25 47.0699)" stroke-width="1" alignment-baseline="text-before-edge" xml:space="preserve"><tspan x="0" style="white-space: pre" dy="1.13em">Space</tspan></text>
    </g>
  </g>
  <g id="ID0.6523071527481079">
    <g id="ID0.9708281131461263">
      <path id="ID0.1410136129707098" fill="#7F7F7F" stroke="#000000" stroke-width="2" stroke-linecap="round" d="M 16.5 16.5 L 39.5 16.5 L 44 41.5 L 13.5 41.5 L 16.5 16.5 Z "/>
      <path id="ID0.6062563224695623" fill="#666666" stroke="none" stroke-linecap="round" d="M 17.35 17.5 L 19.1 19.85 L 17.35 37.65 L 39.35 37.65 L 42.85 40.5 L 14.6 40.5 L 17.35 17.5 Z " stroke-width="1"/>
      <path id="ID0.7789044948294759" fill="#CCCCCC" stroke="none" stroke-linecap="round" d="M 17.35 17.35 L 38.7 17.35 L 42.85 40.5 L 39.7 37.65 L 36.7 19.65 L 19.2 19.65 L 17.35 17.35 Z " stroke-width="1"/>
    </g>
    <g id="ID0.00847885012626648">
      <text id="ID0.6737900669686496" fill="#000000" text-anchor="start" font-family="Sans Serif" font-size="22" transform="matrix(1 0 0 0.788562 20.15 14.9343)" stroke-width="1" alignment-baseline="text-before-edge" xml:space="preserve"><tspan x="0" style="white-space: pre" dy="1.13em">Z</tspan></text>
      <text id="ID0.6737900669686496" fill="#000000" text-anchor="start" font-family="Sans Serif" font-size="22" transform="matrix(1 0 0 0.788562 22.05 14.9343)" stroke-width="1" alignment-baseline="text-before-edge" xml:space="preserve"><tspan x="0" style="white-space: pre" dy="1.13em">Z</tspan></text>
    </g>
  </g>
  <g id="ID0.7281194133684039">
    <text id="ID0.8860063850879669" fill="#FFFFFF" text-anchor="start" font-family="Sans Serif" font-size="22" transform="matrix(1 0 0 1 53 12.15)" stroke-width="1" alignment-baseline="text-before-edge" xml:space="preserve"><tspan x="0" style="white-space: pre" dy="1.13em">Back to map</tspan></text>
    <text id="ID0.8860063850879669" fill="#FFFFFF" text-anchor="start" font-family="Sans Serif" font-size="22" transform="matrix(1 0 0 1 53.8 12.25)" stroke-width="1" alignment-baseline="text-before-edge" xml:space="preserve"><tspan x="0" style="white-space: pre" dy="1.13em">Back to map</tspan></text>
  </g>
  <g id="ID0.04564559180289507">
    <g id="ID0.9708281131461263">
      <path id="ID0.1410136129707098" fill="#7F7F7F" stroke="#000000" stroke-width="2" stroke-linecap="round" d="M 444.5 47.5 L 467.5 47.5 L 472 72.5 L 441.5 72.5 L 444.5 47.5 Z "/>
      <path id="ID0.6062563224695623" fill="#666666" stroke="none" stroke-linecap="round" d="M 445.35 48.5 L 447.1 50.85 L 445.35 68.65 L 467.35 68.65 L 470.85 71.5 L 442.6 71.5 L 445.35 48.5 Z " stroke-width="1"/>
      <path id="ID0.7789044948294759" fill="#CCCCCC" stroke="none" stroke-linecap="round" d="M 445.35 48.35 L 466.7 48.35 L 470.85 71.5 L 467.7 68.65 L 464.7 50.65 L 447.2 50.65 L 445.35 48.35 Z " stroke-width="1"/>
    </g>
    <g id="ID0.00847885012626648">
      <text id="ID0.6737900669686496" fill="#000000" text-anchor="start" font-family="Sans Serif" font-size="22" transform="matrix(1 0 0 0.788562 448.2 45.9343)" stroke-width="1" alignment-baseline="text-before-edge" xml:space="preserve"><tspan x="0" style="white-space: pre" dy="1.13em">X</tspan></text>
      <text id="ID0.6737900669686496" fill="#000000" text-anchor="start" font-family="Sans Serif" font-size="22" transform="matrix(1 0 0 0.788562 450.05 45.9343)" stroke-width="1" alignment-baseline="text-before-edge" xml:space="preserve"><tspan x="0" style="white-space: pre" dy="1.13em">X</tspan></text>
    </g>
  </g>
  <g id="ID0.7281194133684039">
    <text id="ID0.8860063850879669" fill="#FFFFFF" text-anchor="start" font-family="Sans Serif" font-size="22" transform="matrix(1 0 0 1 353 42.9)" stroke-width="1" alignment-baseline="text-before-edge" xml:space="preserve"><tspan x="0" style="white-space: pre" dy="1.13em">Restart</tspan></text>
    <text id="ID0.8860063850879669" fill="#FFFFFF" text-anchor="start" font-family="Sans Serif" font-size="22" transform="matrix(1 0 0 1 353.8 43)" stroke-width="1" alignment-baseline="text-before-edge" xml:space="preserve"><tspan x="0" style="white-space: pre" dy="1.13em">Restart</tspan></text>
  </g>
  <g id="ID0.8712019454687834">
    <text id="ID0.903559950646013" fill="#FFFFFF" text-anchor="start" font-family="Sans Serif" font-size="22" transform="matrix(1 0 0 1 99 45.15)" stroke-width="1" alignment-baseline="text-before-edge" xml:space="preserve"><tspan x="0" style="white-space: pre" dy="1.13em">Next level</tspan></text>
    <text id="ID0.903559950646013" fill="#FFFFFF" text-anchor="start" font-family="Sans Serif" font-size="22" transform="matrix(1 0 0 1 100.25 45.15)" stroke-width="1" alignment-baseline="text-before-edge" xml:space="preserve"><tspan x="0" style="white-space: pre" dy="1.13em">Next level</tspan></text>
  </g>
</svg>