<svg xmlns="http://www.w3.org/2000/svg" xmlns:xlink="http://www.w3.org/1999/xlink" version="1.1" width="30.70661129519675" height="36.462026257965306" viewBox="-7.975252667890658 -7.880752662645449 30.70661129519675 36.462026257965306">
  <!-- Exported by Scratch - http://scratch.mit.edu/ -->
  <path id="ID0.9358589742332697" fill="#DB861B" stroke="none" stroke-width="16.26050339717964" stroke-linecap="round" d="M 7.8883 12.6524 C 7.622 12.4733 7.1065 12.5581 6.7453 12.6801 C 6.1589 12.879 5.7158 13.2318 5.2583 13.5746 C 4.896 13.8289 4.3335 14.0046 4.2077 14.4456 C 4.1531 14.7711 4.525 15.2678 4.8569 15.2524 C 5.5448 15.2189 6.1062 14.6673 6.7053 14.3183 C 7.134 14.0689 7.6073 13.8488 7.8765 13.434 C 8.0461 13.233 8.0934 12.7923 7.8883 12.6524 Z "/>
  <path id="ID0.19551143841817975" fill="#DB861B" stroke="none" stroke-width="16.2605053381655" stroke-linecap="round" d="M 8.1018 16.1501 C 7.8404 16.0106 7.4896 15.7239 7.1795 15.8276 C 6.4757 16.0666 5.8842 16.627 5.297 17.1122 C 4.7272 17.5611 4.0753 17.9607 3.6642 18.5479 C 3.5574 18.7914 3.8037 19.0999 3.9482 19.2842 C 4.2189 19.6286 4.4911 20.3114 4.9375 20.2353 C 5.4573 20.1431 5.4672 19.3698 5.8012 19.0403 C 6.7127 18.157 7.9078 17.5595 8.656 16.6146 C 8.8431 16.3784 8.3122 16.2616 8.1018 16.1501 Z "/>
  <g id="ID0.30696602864190936">
    <path id="ID0.637318427208811" fill="#FAA51D" stroke="none" stroke-linecap="round" d="M 5.1807 16.0068 C 5.8721 16.1545 6.6502 15.7769 7.3245 16.0097 C 7.6453 16.1219 7.8553 16.5596 7.7307 16.8174 C 7.5887 17.2088 7.1284 17.3924 6.7281 17.4561 C 6.1192 17.5732 5.5049 17.5613 4.8569 17.435 C 4.1428 17.2962 3.4005 17.1378 2.7763 16.7678 C 2.4601 16.6134 2.0714 16.2756 2.1608 15.935 C 2.2642 15.5441 2.7583 15.2278 3.1824 15.2304 C 3.8787 15.2412 4.4659 15.8899 5.1807 16.0068 Z " stroke-width="1.0840336692054724"/>
    <path id="ID0.9894068208523095" fill="#FFFFFF" stroke="none" stroke-linecap="round" d="M 2.9635 15.2893 C 3.5186 15.1765 4.2947 15.5188 4.6079 15.9296 C 4.7691 16.0757 4.0381 16.15 3.9118 16.4053 C 3.7772 16.6811 4.2169 17.3341 3.9645 17.2977 C 3.371 17.2864 2.5013 16.9022 2.2204 16.3077 C 2.0413 15.9288 2.5529 15.3731 2.9635 15.2893 Z " stroke-width="1.0840336692054724"/>
  </g>
  <g id="ID0.536394951865077">
    <path id="ID0.6198067106306553" fill="#FAA51D" stroke="none" stroke-linecap="round" d="M 6.3055 10.3116 C 6.8095 10.1954 7.5025 9.8931 7.8435 10.3014 C 8.5541 11.0646 8.7073 12.2369 8.9538 13.2605 C 9.1997 14.2819 9.5666 15.4274 9.3574 16.5164 C 9.2513 16.9632 8.6044 17.1459 8.13 17.2857 C 7.6781 17.4174 7.0221 17.4926 6.7218 17.1499 C 6.0062 16.3891 5.7068 15.3133 5.4292 14.3506 C 5.1141 13.2531 4.6518 12.0944 4.8796 10.9648 C 4.9816 10.4551 5.7969 10.4278 6.3055 10.3116 Z " stroke-width="1.0840336259501413"/>
    <path id="ID0.21503017749637365" fill="#FFFFFF" stroke="none" stroke-linecap="round" d="M 7.5368 11.8593 C 7.8265 11.7846 8.1825 11.9503 8.3556 12.2053 C 8.7515 12.7506 8.9613 13.4453 9.1322 14.1031 C 9.329 14.8596 9.5321 15.6401 9.4668 16.4527 C 9.4267 16.7108 9.1252 16.9119 8.8424 17.0643 C 8.5454 17.2137 8.043 17.3664 7.8437 17.1015 C 7.3237 16.4072 7.1819 15.4157 7.0005 14.5208 C 6.8799 13.9271 6.7759 13.2427 6.8874 12.5895 C 6.9665 12.2965 7.2232 11.9413 7.5368 11.8593 Z " stroke-width="1.0840336259501413"/>
  </g>
  <path id="ID0.19551143841817975" fill="#FAA51D" stroke="none" stroke-linecap="round" d="M 6.7438 16.4644 C 6.5544 16.6766 6.9851 17.0798 7.1684 17.3444 C 7.6421 17.9797 8.2605 18.5816 8.7074 19.0254 C 9.2212 19.5356 9.7154 20.1226 10.3603 20.4377 C 10.6128 20.5173 10.887 20.2212 11.0489 20.052 C 11.3513 19.7352 11.9886 19.3688 11.8498 18.9378 C 11.6848 18.4363 10.9462 18.5324 10.5443 18.2524 C 9.6891 17.6537 9.0232 16.8351 8.085 16.4214 C 7.6888 16.2081 7.0125 16.166 6.7438 16.4644 Z " stroke-width="1.0840336798918635"/>
  <g id="ID0.6909988787956536">
    <g id="ID0.847524844110012">
      <path id="ID0.10025785537436604" fill="#FAA51D" stroke="none" d="M 6.7377 2.1218 C 8.3882 1.9821 9.9338 2.4579 11.0994 3.3396 C 12.2638 4.2213 13.0482 5.5088 13.1738 6.9925 C 13.2995 8.4762 12.7428 9.8772 11.7432 10.9422 C 10.7425 12.0073 9.2989 12.7364 7.6485 12.8762 C 5.998 13.0159 4.4524 12.54 3.2868 11.6584 C 2.1224 10.7766 1.338 9.4891 1.2124 8.0055 C 1.0867 6.5218 1.6434 5.1207 2.643 4.0557 C 3.6437 2.9906 5.0873 2.2616 6.7377 2.1218 Z " stroke-width="1.1013090191957269"/>
      <path id="ID0.23814574256539345" fill="#FAA51D" stroke="none" stroke-linecap="round" d="M 0.155 1.7758 L 4.6477 3.2742 L 1.2409 6.768 L 0.155 1.7758 Z " stroke-width="1.1013090191957269"/>
      <path id="ID0.23814574256539345" fill="#FAA51D" stroke="none" stroke-linecap="round" d="M 10.8435 0.2495 L 6.944 2.9371 L 11.1872 5.3469 L 10.8435 0.2495 Z " stroke-width="1.1013089156605336"/>
      <path id="ID0.46886637480929494" fill="#FFFFFF" stroke="none" stroke-linecap="round" d="M 9.9028 8.2226 C 10.8446 8.0422 11.5083 6.8609 12.4482 6.957 C 13.3769 7.0519 14.4987 7.8742 14.5908 8.765 C 14.6988 9.8324 13.9421 10.9851 13.0626 11.6023 C 11.8767 12.4897 10.3231 12.7428 8.8391 12.9547 C 7.8693 13.0932 6.8163 13.0309 5.912 12.65 C 5.1775 12.343 4.2465 11.7907 4.0577 10.9833 C 3.9227 10.094 4.3029 8.8537 5.1152 8.4622 C 6.5562 7.7677 8.3525 8.5539 9.9028 8.2226 Z " stroke-width="1.1013090191957269"/>
      <path id="ID0.2958779144100845" fill="#666666" stroke="none" stroke-linecap="round" d="M 9.4809 7.6221 C 9.8267 7.542 10.3834 7.3943 10.4779 7.6482 C 10.6059 7.9723 10.3574 8.6664 9.9626 8.7418 C 9.4464 8.8718 8.6584 8.4411 8.5258 8.0898 C 8.4352 7.8422 9.1287 7.6652 9.4809 7.6221 Z " stroke-width="1.1013090191957269"/>
    </g>
    <g id="ID0.26280788984149694">
      <g id="ID0.2985607646405697">
        <path id="ID0.6929170889779925" fill="#000000" stroke="none" d="M 10.443 3.617 C 10.7832 3.5881 11.1095 3.7617 11.3596 4.0654 C 11.6108 4.3691 11.7869 4.804 11.8285 5.2956 C 11.8702 5.7873 11.7697 6.2456 11.5732 6.5872 C 11.3777 6.9287 11.0852 7.1546 10.745 7.1834 C 10.4048 7.2122 10.0784 7.0387 9.8283 6.735 C 9.5772 6.4313 9.4011 5.9964 9.3594 5.5047 C 9.3178 5.0131 9.4182 4.5548 9.6148 4.2132 C 9.8102 3.8717 10.1028 3.6458 10.443 3.617 Z " stroke-width="1.1013090191957269"/>
        <path id="ID0.02252052817493677" fill="#CCCCCC" stroke="none" d="M 10.917 3.8863 C 11.0454 3.8755 11.1716 3.9698 11.2693 4.1317 C 11.3681 4.2935 11.4405 4.5217 11.4624 4.7796 C 11.4842 5.0375 11.4512 5.2746 11.381 5.4508 C 11.3119 5.6268 11.2034 5.741 11.075 5.7519 C 10.9466 5.7628 10.8203 5.6684 10.7226 5.5065 C 10.6238 5.3447 10.5514 5.1165 10.5296 4.8586 C 10.5077 4.6007 10.5407 4.3636 10.6109 4.1875 C 10.68 4.0114 10.7886 3.8972 10.917 3.8863 Z " stroke-width="1.1013090191957269"/>
      </g>
      <g id="ID0.2985607646405697">
        <path id="ID0.6929170889779925" fill="#000000" stroke="none" d="M 6.357 4.0692 C 6.6971 4.0404 7.0235 4.2139 7.2736 4.5177 C 7.5248 4.8213 7.7009 5.2563 7.7425 5.7479 C 7.7842 6.2395 7.6837 6.6979 7.4872 7.0394 C 7.2917 7.3809 6.9992 7.6069 6.659 7.6357 C 6.3188 7.6645 5.9924 7.491 5.7423 7.1872 C 5.4911 6.8835 5.3151 6.4486 5.2734 5.957 C 5.2318 5.4654 5.3322 5.007 5.5288 4.6654 C 5.7242 4.3239 6.0168 4.098 6.357 4.0692 Z " stroke-width="1.1013090191957269"/>
        <path id="ID0.02252052817493677" fill="#CCCCCC" stroke="none" d="M 6.731 4.3423 C 6.8594 4.3314 6.9857 4.4257 7.0834 4.5877 C 7.1822 4.7495 7.2546 4.9777 7.2764 5.2356 C 7.2983 5.4935 7.2653 5.7306 7.1951 5.9067 C 7.126 6.0828 7.0174 6.197 6.889 6.2078 C 6.7606 6.2187 6.6344 6.1244 6.5367 5.9625 C 6.4379 5.8006 6.3655 5.5725 6.3436 5.3146 C 6.3218 5.0567 6.3548 4.8196 6.425 4.6434 C 6.494 4.4674 6.6026 4.3532 6.731 4.3423 Z " stroke-width="1.1013090191957269"/>
      </g>
    </g>
  </g>
  <path id="ID0.9358589742332697" fill="#F9B341" stroke="none" stroke-width="16.260503574564353" stroke-linecap="round" d="M 6.2282 12.8383 C 6.2687 13.1567 5.9617 13.5794 5.6906 13.8474 C 5.2499 14.2823 4.7357 14.52 4.2241 14.7751 C 3.8343 14.9848 3.4248 15.4087 2.9743 15.3233 C 2.659 15.226 2.3819 14.6708 2.5446 14.3811 C 2.8831 13.7813 3.6279 13.5271 4.2087 13.1482 C 4.6239 12.877 5.0329 12.5527 5.5244 12.4983 C 5.7801 12.4368 6.1952 12.5923 6.2282 12.8383 Z "/>
</svg>