<svg xmlns="http://www.w3.org/2000/svg" xmlns:xlink="http://www.w3.org/1999/xlink" version="1.1" width="29.29253478742242" height="35.82700248456597" viewBox="-6.8453258072167635 -7.5733523761063815 29.29253478742242 35.82700248456597">
  <!-- Exported by Scratch - http://scratch.mit.edu/ -->
  <path id="ID0.9358589742332697" fill="#DB861B" stroke="none" stroke-width="16.26050411188346" stroke-linecap="round" d="M 7.7385 12.2275 C 7.5219 11.9907 7.0009 11.9515 6.6212 11.9848 C 6.0045 12.0398 5.4906 12.2782 4.9652 12.5034 C 4.5531 12.6651 3.965 12.7032 3.7387 13.1021 C 3.609 13.4055 3.8532 13.9759 4.1794 14.0392 C 4.8558 14.1689 5.5314 13.7652 6.196 13.5674 C 6.6714 13.4261 7.1833 13.3238 7.5426 12.9842 C 7.7549 12.8289 7.9048 12.4118 7.7385 12.2275 Z "/>
  <path id="ID0.19551143841817975" fill="#DB861B" stroke="none" stroke-width="16.2605046818316" stroke-linecap="round" d="M 8.5107 14.9169 C 8.252 15.0614 7.8212 15.2015 7.7407 15.5185 C 7.5613 16.2397 7.7129 17.0403 7.8035 17.7967 C 7.8731 18.5187 7.8568 19.2831 8.1285 19.9464 C 8.2756 20.168 8.6683 20.1275 8.9014 20.1056 C 9.3375 20.0641 10.059 20.2043 10.2364 19.7877 C 10.4399 19.3005 9.7947 18.874 9.6982 18.415 C 9.4479 17.1706 9.5914 15.8422 9.2011 14.7019 C 9.1036 14.4168 8.7182 14.8002 8.5107 14.9169 Z "/>
  <g id="ID0.30696602864190936">
    <path id="ID0.637318427208811" fill="#FAA51D" stroke="none" stroke-linecap="round" d="M 5.0779 14.4558 C 5.696 14.799 6.5505 14.6652 7.1274 15.0847 C 7.4015 15.2857 7.4744 15.7657 7.28 15.9759 C 7.0298 16.3087 6.5359 16.3499 6.1345 16.2939 C 5.518 16.2281 4.9339 16.0372 4.3511 15.7272 C 3.7087 15.3859 3.045 15.0176 2.5561 14.4814 C 2.2987 14.2415 2.0256 13.8048 2.2106 13.5052 C 2.4236 13.1616 2.9886 13.0034 3.3935 13.1297 C 4.0562 13.3433 4.4283 14.1353 5.0779 14.4558 Z " stroke-width="1.0840336296178195"/>
    <path id="ID0.9894068208523095" fill="#FFFFFF" stroke="none" stroke-linecap="round" d="M 3.1431 13.0806 C 3.707 13.1348 4.3493 13.6889 4.5289 14.1733 C 4.6403 14.3601 3.9195 14.2176 3.7241 14.4249 C 3.5148 14.6494 3.7447 15.4023 3.5139 15.2938 C 2.9496 15.1096 2.23 14.4881 2.135 13.8376 C 2.0744 13.4229 2.7259 13.0408 3.1431 13.0806 Z " stroke-width="1.0840336296178195"/>
  </g>
  <g id="ID0.536394951865077">
    <path id="ID0.6198067106306553" fill="#FAA51D" stroke="none" stroke-linecap="round" d="M 6.3055 9.3116 C 6.8095 9.1954 7.5025 8.8931 7.8435 9.3014 C 8.5541 10.0646 8.7073 11.2369 8.9538 12.2605 C 9.1997 13.2819 9.5666 14.4274 9.3574 15.5164 C 9.2513 15.9632 8.6044 16.1459 8.13 16.2857 C 7.6781 16.4174 7.0221 16.4926 6.7218 16.1499 C 6.0062 15.3891 5.7068 14.3133 5.4292 13.3506 C 5.1141 12.2531 4.6518 11.0944 4.8796 9.9648 C 4.9816 9.4551 5.7969 9.4278 6.3055 9.3116 Z " stroke-width="1.0840336259501413"/>
    <path id="ID0.21503017749637365" fill="#FFFFFF" stroke="none" stroke-linecap="round" d="M 7.5368 10.8593 C 7.8265 10.7846 8.1825 10.9503 8.3556 11.2053 C 8.7515 11.7506 8.9613 12.4453 9.1322 13.1031 C 9.329 13.8596 9.5321 14.6401 9.4668 15.4527 C 9.4267 15.7108 9.1252 15.9119 8.8424 16.0643 C 8.5454 16.2137 8.043 16.3664 7.8437 16.1015 C 7.3237 15.4072 7.1819 14.4157 7.0005 13.5208 C 6.8799 12.9271 6.7759 12.2427 6.8874 11.5895 C 6.9665 11.2965 7.2232 10.9413 7.5368 10.8593 Z " stroke-width="1.0840336259501413"/>
  </g>
  <path id="ID0.19551143841817975" fill="#FAA51D" stroke="none" stroke-linecap="round" d="M 7.8296 13.3133 C 7.5601 13.2224 7.3582 13.7768 7.1868 14.0493 C 6.7884 14.7343 6.4775 15.5393 6.2447 16.1245 C 5.977 16.7973 5.6311 17.4822 5.5944 18.1991 C 5.6203 18.4626 6.0002 18.5985 6.2194 18.681 C 6.6295 18.8349 7.2165 19.2772 7.5586 18.9804 C 7.9551 18.6318 7.5768 17.9902 7.6766 17.5107 C 7.8916 16.4891 8.3832 15.5553 8.3956 14.5301 C 8.4362 14.0819 8.2095 13.4434 7.8296 13.3133 Z " stroke-width="1.0840336263380983"/>
  <g id="ID0.6909988787956536">
    <g id="ID0.847524844110012">
      <path id="ID0.10025785537436604" fill="#FAA51D" stroke="none" d="M 7.7697 2.0395 C 9.4193 2.189 10.8586 2.9265 11.853 3.9975 C 12.8463 5.0683 13.3947 6.4727 13.2603 7.9556 C 13.1259 9.4385 12.334 10.7213 11.1644 11.5962 C 9.9937 12.471 8.4453 12.9378 6.7956 12.7883 C 5.146 12.6388 3.7067 11.9013 2.7123 10.8303 C 1.719 9.7594 1.1706 8.3551 1.305 6.8722 C 1.4394 5.3893 2.2313 4.1065 3.4009 3.2316 C 4.5716 2.3568 6.1201 1.89 7.7697 2.0395 Z " stroke-width="1.1013090585472132"/>
      <path id="ID0.23814574256539345" fill="#FAA51D" stroke="none" stroke-linecap="round" d="M 1.3202 0.5569 L 5.4837 2.814 L 1.5211 5.6619 L 1.3202 0.5569 Z " stroke-width="1.1013090585472132"/>
      <path id="ID0.23814574256539345" fill="#FAA51D" stroke="none" stroke-linecap="round" d="M 12.1717 0.9519 L 7.8641 2.9201 L 11.6234 6.0313 L 12.1717 0.9519 Z " stroke-width="1.1013089508809097"/>
      <path id="ID0.46886637480929494" fill="#FFFFFF" stroke="none" stroke-linecap="round" d="M 9.7918 8.6176 C 10.7506 8.6039 11.6097 7.556 12.5185 7.8142 C 13.4166 8.0692 14.3782 9.0741 14.3139 9.9674 C 14.2346 11.0372 13.2889 12.0408 12.3155 12.4955 C 10.9933 13.1631 9.4194 13.1421 7.921 13.0926 C 6.942 13.0602 5.9158 12.8157 5.0916 12.2832 C 4.4217 11.8532 3.601 11.1474 3.5555 10.3194 C 3.5773 9.4202 4.1674 8.265 5.0355 8.0208 C 6.5754 7.5875 8.2075 8.6742 9.7918 8.6176 Z " stroke-width="1.1013090585472132"/>
      <path id="ID0.2958779144100845" fill="#666666" stroke="none" stroke-linecap="round" d="M 9.5045 7.9809 C 9.8589 7.9621 10.4328 7.9135 10.4816 8.18 C 10.5513 8.5214 10.1859 9.1617 9.784 9.1673 C 9.253 9.2055 8.5519 8.6443 8.4825 8.2753 C 8.4364 8.0157 9.1501 7.962 9.5045 7.9809 Z " stroke-width="1.1013090585472132"/>
    </g>
    <g id="ID0.26280788984149694">
      <g id="ID0.2985607646405697">
        <path id="ID0.6929170889779925" fill="#000000" stroke="none" d="M 11.1353 4.155 C 11.4753 4.1858 11.7665 4.4134 11.9599 4.7561 C 12.1545 5.0988 12.2522 5.5577 12.2077 6.0491 C 12.1632 6.5405 11.9845 6.9744 11.7315 7.2766 C 11.4797 7.5788 11.1523 7.7504 10.8123 7.7196 C 10.4722 7.6888 10.181 7.4612 9.9876 7.1185 C 9.7931 6.7758 9.6953 6.3169 9.7398 5.8255 C 9.7844 5.3341 9.963 4.9002 10.216 4.598 C 10.4679 4.2958 10.7953 4.1242 11.1353 4.155 Z " stroke-width="1.1013090585472132"/>
        <path id="ID0.02252052817493677" fill="#CCCCCC" stroke="none" d="M 11.5702 4.5454 C 11.6985 4.557 11.8064 4.6718 11.8745 4.8483 C 11.9436 5.0249 11.9752 5.2621 11.9519 5.5199 C 11.9285 5.7776 11.8548 6.0054 11.755 6.1667 C 11.6564 6.328 11.5296 6.4216 11.4012 6.4099 C 11.2729 6.3983 11.165 6.2835 11.0969 6.107 C 11.0278 5.9305 10.9962 5.6932 11.0196 5.4354 C 11.0429 5.1777 11.1166 4.9499 11.2164 4.7887 C 11.3151 4.6273 11.4419 4.5337 11.5702 4.5454 Z " stroke-width="1.1013090585472132"/>
      </g>
      <g id="ID0.2985607646405697">
        <path id="ID0.6929170889779925" fill="#000000" stroke="none" d="M 7.0398 3.9111 C 7.3798 3.9419 7.671 4.1696 7.8644 4.5122 C 8.059 4.8549 8.1567 5.3139 8.1122 5.8052 C 8.0677 6.2966 7.889 6.7305 7.636 7.0327 C 7.3842 7.335 7.0568 7.5066 6.7168 7.4757 C 6.3768 7.4449 6.0855 7.2173 5.8921 6.8746 C 5.6976 6.5319 5.5998 6.073 5.6444 5.5816 C 5.6889 5.0902 5.8675 4.6563 6.1205 4.3542 C 6.3724 4.0519 6.6998 3.8803 7.0398 3.9111 Z " stroke-width="1.1013090585472132"/>
        <path id="ID0.02252052817493677" fill="#CCCCCC" stroke="none" d="M 7.3759 4.2492 C 7.5042 4.2608 7.6121 4.3757 7.6802 4.5521 C 7.7493 4.7287 7.7809 4.966 7.7575 5.2237 C 7.7342 5.4815 7.6605 5.7092 7.5607 5.8705 C 7.462 6.0319 7.3352 6.1254 7.2069 6.1138 C 7.0786 6.1022 6.9707 5.9873 6.9026 5.8109 C 6.8335 5.6343 6.8019 5.397 6.8253 5.1393 C 6.8486 4.8815 6.9223 4.6538 7.0221 4.4925 C 7.1207 4.3311 7.2476 4.2376 7.3759 4.2492 Z " stroke-width="1.1013090585472132"/>
      </g>
    </g>
  </g>
  <path id="ID0.9358589742332697" fill="#F9B341" stroke="none" stroke-width="16.260504216257743" stroke-linecap="round" d="M 6.4875 12.7288 C 6.4292 13.0444 6.0081 13.3536 5.6683 13.5264 C 5.116 13.8064 4.5538 13.8763 3.9889 13.9635 C 3.5538 14.0446 3.0347 14.3238 2.6315 14.1052 C 2.3608 13.9166 2.2659 13.3034 2.5091 13.0769 C 3.0141 12.6087 3.801 12.5933 4.4695 12.4092 C 4.9475 12.2772 5.4359 12.0929 5.9206 12.1906 C 6.1829 12.21 6.5309 12.4844 6.4875 12.7288 Z "/>
</svg>