<svg xmlns="http://www.w3.org/2000/svg" xmlns:xlink="http://www.w3.org/1999/xlink" version="1.1" width="49.04999923706055" height="28.700000762939453" viewBox="0.75 0.5 49.04999923706055 28.700000762939453">
  <defs>
    <linearGradient id="grad_1" y2="1" x2="0">
      <stop offset="0" stop-color="#000000" stop-opacity="1"/>
      <stop offset="1" stop-color="#000000" stop-opacity="1"/>
    </linearGradient>
  </defs>
  <!-- Exported by Scratch - http://scratch.mit.edu/ -->
  <path id="ID0.09305148804560304" fill="#990000" stroke="#FF0000" stroke-linecap="round" d="M 6.8 3 L 14.2 2 L 24.9 1.5 L 34.7 2 L 43.8 3 L 48.8 28 L 37.05 27.35 L 25.2 27 L 13.2 27.5 L 1.8 28 L 6.8 3 Z " stroke-width="1"/>
  <path id="ID0.6030790996737778" fill="#7F0101" stroke="none" stroke-linecap="round" d="M 7.1 3.5 L 5.65 22.35 L 7.5 24.85 L 24.85 24.75 L 42.35 24.85 L 44.65 22.5 L 43.85 3.15 L 48.45 27.65 L 24.95 26.75 L 1.85 27.75 L 7.1 3.5 Z " stroke-width="1"/>
  <path id="ID0.09305148804560304" fill="none" stroke="url(#grad_1)" stroke-width="2" stroke-linecap="round" d="M 6.75 3.2 L 14.15 2.2 L 24.85 1.7 L 34.65 2.2 L 43.75 3.2 L 48.75 28.2 L 37 27.55 L 25.15 27.2 L 13.15 27.7 L 1.75 28.2 L 6.75 3.2 Z "/>
  <g id="ID0.374381254427135">
    <path id="ID0.24749952694401145" fill="#000000" stroke="none" stroke-linecap="round" d="M 34.25 4.7 C 35.408 4.778 36.498 5.488 37 6.45 C 38.667 9.646 40.203 13.017 40.65 16.55 C 40.711 17.565 38.901 19.386 38.35 18.55 C 36.171 15.244 36.508 6.719 34.35 7.35 C 31.594 8.155 31.478 17.203 28.75 21.45 C 28.055 22.512 25.417 22.08 25.65 20.85 C 26.645 15.631 29.205 10.796 31.65 6.2 C 32.262 5.05 33.254 4.637 34.25 4.7 Z " stroke-width="1"/>
    <path id="ID0.39341806387528777" fill="#000000" stroke="none" stroke-linecap="round" d="M 34.25 9.85 C 35.792 9.621 37.345 9.303 38.9 9.3 C 39.297 9.304 39.612 9.518 39.65 9.8 C 39.803 10.188 39.791 10.734 39.35 10.9 C 37.657 11.547 35.815 11.651 34 12.05 C 31.917 12.508 29.88 13.391 27.75 13.45 C 27.194 13.474 26.697 12.814 26.85 12.35 C 26.96 11.657 27.658 11.107 28.332 10.89 C 30.228 10.278 32.271 10.144 34.25 9.85 Z " stroke-width="1"/>
    <path id="ID0.957816299982369" fill="#000000" stroke="none" stroke-linecap="round" d="M 42.05 9.39 C 42.392 9.6476 42.466 10.1516 42.25 10.47 C 42.094 10.7452 41.468 10.9604 41.2 10.75 C 40.776 10.4308 40.574 9.7788 40.85 9.39 C 41.061 9.0964 41.766 9.1676 42.05 9.39 Z " stroke-width="0.9055385190795272"/>
  </g>
</svg>