<svg xmlns="http://www.w3.org/2000/svg" xmlns:xlink="http://www.w3.org/1999/xlink" version="1.1" width="17.822951650270582" height="17.875852918275953" viewBox="-0.5417260406656856 -0.550226020638525 17.822951650270582 17.875852918275953">
  <!-- Exported by Scratch - http://scratch.mit.edu/ -->
  <path id="ID0.09066551923751831" fill="#B40101" stroke="none" d="M 9.7147 11.4177 L 6.2738 10.974 L 5.7623 14.9412 L 9.2033 15.3848 L 9.7147 11.4177 Z " stroke-width="0.9574941352997981"/>
  <path id="ID0.09066551923751831" fill="#B40101" stroke="none" d="M 10.556 11.9029 L 6.9438 12.4266 L 7.5177 16.3852 L 11.1299 15.8615 L 10.556 11.9029 Z " stroke-width="0.9804618141117454"/>
  <g id="ID0.08273157011717558">
    <path id="ID0.20379002764821053" fill="#CC0000" stroke="none" d="M 16.3408 0.8294 L 6.7372 0.5944 L 6.4379 13.6752 L 16.0416 13.9103 L 16.3408 0.8294 Z " stroke-width="0.8291662492523713"/>
    <path id="ID0.8935396964661777" fill="#FF0000" stroke="none" d="M 8.2934 0.5761 L 0.6956 0.3902 L 0.3987 13.3677 L 7.9966 13.5536 L 8.2934 0.5761 Z " stroke-width="1.880852079042553"/>
  </g>
  <path id="ID0.1019937596283853" fill="#CC0000" stroke="none" d="M 8.8371 8.6617 L 3.6434 8.4059 L 3.3876 13.5996 L 8.5813 13.8554 L 8.8371 8.6617 Z " stroke-width="1.2839504978325567"/>
  <path id="ID0.8617808222770691" fill="#CC0000" stroke="none" d="M 6.2032 7.0745 L 6.1538 7.0667 L 6.1538 7.0667 L 6.2032 7.0745 L 6.2032 7.0745 Z " stroke-width="0.9999999766464479"/>
  <g id="ID0.6190438214689493">
    <path id="ID0.09020493365824223" fill="#000000" stroke="none" d="M 16.1418 8.1808 L 12.2265 8.0835 L 12.1879 9.633 L 16.1033 9.7303 L 16.1418 8.1808 Z " stroke-width="0.602781508934987"/>
    <path id="ID0.18048822786659002" fill="#FFFFFF" stroke="none" d="M 15.9995 8.3862 L 13.3503 8.3204 L 13.3367 8.8702 L 15.9858 8.9361 L 15.9995 8.3862 Z " stroke-width="0.6280106351641983"/>
    <path id="ID0.5967760691419244" fill="#E5E5E5" stroke="none" d="M 15.8796 9.1584 L 13.5303 9.1 L 13.5154 9.6998 L 15.8647 9.7582 L 15.8796 9.1584 Z " stroke-width="0.6224253821581038"/>
  </g>
  <g id="ID0.6651764921844006">
    <path id="ID0.8655728464946151" fill="#000000" stroke="none" stroke-linecap="round" d="M 10.1521 3.1026 L 15.5721 4.3768 L 15.3635 7.1637 L 9.8788 6.753 L 10.1521 3.1026 Z " stroke-width="1.0046748347561354"/>
    <path id="ID0.006696532014757395" fill="#990000" stroke="none" d="M 10.1956 2.6344 L 15.8145 3.8548 L 15.6978 4.3923 L 10.0788 3.1718 L 10.1956 2.6344 Z " stroke-width="0.9999999870441129"/>
    <path id="ID0.8491002093069255" fill="#E5E5E5" stroke="none" d="M 14.685 4.2271 L 13.8404 4.1639 L 13.7714 5.0852 L 14.616 5.1484 L 14.685 4.2271 Z " stroke-width="1.539855374892966"/>
  </g>
</svg>