<svg xmlns="http://www.w3.org/2000/svg" xmlns:xlink="http://www.w3.org/1999/xlink" version="1.1" width="31.203250999445203" height="36.98024475097108" viewBox="-7.9494524127217545 -7.574952421185614 31.203250999445203 36.98024475097108">
  <!-- Exported by Scratch - http://scratch.mit.edu/ -->
  <path id="ID0.9358589742332697" fill="#DB861B" stroke="none" stroke-width="16.26050270714882" stroke-linecap="round" d="M 8.2409 13.4723 C 8.2931 13.789 8.708 14.1063 9.0444 14.2858 C 9.591 14.5766 10.1517 14.6576 10.7148 14.756 C 11.1482 14.8456 11.6617 15.1349 12.0691 14.9243 C 12.3435 14.7411 12.4504 14.1299 12.2118 13.8987 C 11.7161 13.4206 10.9296 13.3897 10.2649 13.1924 C 9.7895 13.0511 9.3049 12.8572 8.8184 12.9454 C 8.5558 12.9595 8.2024 13.227 8.2409 13.4723 Z "/>
  <path id="ID0.19551143841817975" fill="#DB861B" stroke="none" stroke-width="16.260504837030652" stroke-linecap="round" d="M 9.1266 15.8755 C 8.8382 15.9439 8.3856 15.9611 8.2216 16.2441 C 7.8522 16.889 7.7796 17.7006 7.6604 18.453 C 7.5303 19.1666 7.306 19.8975 7.3864 20.6098 C 7.4675 20.8631 7.8563 20.9313 8.0866 20.9739 C 8.5174 21.0529 9.1733 21.3847 9.4576 21.0323 C 9.7864 20.6192 9.282 20.0328 9.3144 19.5648 C 9.4132 18.2994 9.9138 17.0606 9.8495 15.857 C 9.8334 15.5561 9.3581 15.8198 9.1266 15.8755 Z "/>
  <g id="ID0.30696602864190936">
    <path id="ID0.637318427208811" fill="#FAA51D" stroke="none" stroke-linecap="round" d="M 5.4411 16.6649 C 6.1409 16.5645 6.7404 15.9411 7.4536 15.9264 C 7.7935 15.9207 8.1418 16.2588 8.1141 16.5439 C 8.1161 16.9602 7.7477 17.2917 7.3941 17.4898 C 6.8633 17.8102 6.2827 18.0115 5.631 18.117 C 4.9131 18.2337 4.1617 18.3417 3.4481 18.2104 C 3.098 18.1749 2.6165 17.9922 2.5826 17.6418 C 2.5444 17.2393 2.8987 16.7716 3.2976 16.6274 C 3.9546 16.3968 4.7299 16.8025 5.4411 16.6649 Z " stroke-width="1.0840335299264967"/>
    <path id="ID0.9894068208523095" fill="#FFFFFF" stroke="none" stroke-linecap="round" d="M 3.1721 16.6737 C 3.6539 16.3758 4.5005 16.4287 4.9364 16.7059 C 5.1382 16.7873 4.478 17.1097 4.4477 17.3929 C 4.4167 17.6983 5.0551 18.159 4.8057 18.212 C 4.2449 18.4067 3.296 18.3469 2.8269 17.8862 C 2.5278 17.5925 2.8157 16.8943 3.1721 16.6737 Z " stroke-width="1.0840335299264967"/>
  </g>
  <g id="ID0.536394951865077">
    <path id="ID0.6198067106306553" fill="#FAA51D" stroke="none" stroke-linecap="round" d="M 7.9415 10.1702 C 8.457 10.127 9.186 9.9266 9.4653 10.3793 C 10.0599 11.236 10.0444 12.4182 10.1424 13.4664 C 10.2402 14.5125 10.4401 15.6986 10.0777 16.7467 C 9.909 17.1738 9.2426 17.2624 8.7532 17.3331 C 8.2872 17.399 7.6271 17.38 7.3788 16.9979 C 6.7789 16.143 6.636 15.0354 6.4984 14.043 C 6.343 12.9118 6.0506 11.699 6.4371 10.6134 C 6.6107 10.1235 7.4216 10.2127 7.9415 10.1702 Z " stroke-width="1.0840336501046555"/>
    <path id="ID0.21503017749637365" fill="#FFFFFF" stroke="none" stroke-linecap="round" d="M 8.8866 11.8458 C 9.184 11.8132 9.5127 12.028 9.6477 12.3051 C 9.9618 12.9011 10.0704 13.6187 10.1459 14.2942 C 10.2328 15.0709 10.3225 15.8724 10.142 16.6675 C 10.0656 16.9172 9.7385 17.0732 9.4369 17.1838 C 9.1215 17.2893 8.6025 17.3689 8.443 17.0782 C 8.0273 16.3169 8.0283 15.3153 7.9763 14.4036 C 7.9416 13.7988 7.9363 13.1066 8.1397 12.4759 C 8.2598 12.1972 8.5645 11.8823 8.8866 11.8458 Z " stroke-width="1.0840336501046555"/>
  </g>
  <path id="ID0.19551143841817975" fill="#FAA51D" stroke="none" stroke-linecap="round" d="M 7.6745 15.6373 C 7.416 15.5716 7.2886 16.037 7.1751 16.2947 C 6.8699 16.9883 6.6699 17.7305 6.5181 18.477 C 6.357 19.1842 6.101 19.9047 6.1503 20.6198 C 6.2203 20.8764 6.6057 20.9615 6.8339 21.0141 C 7.2609 21.1118 7.9017 21.4719 8.2011 21.1322 C 8.5476 20.7338 8.0837 20.1486 8.122 19.6599 C 8.2026 18.6487 8.6363 17.7045 8.516 16.7414 C 8.4762 16.2656 8.0962 15.7471 7.6745 15.6373 Z " stroke-width="1.0840335451291696"/>
  <g id="ID0.6909988787956536">
    <g id="ID0.847524844110012">
      <path id="ID0.10025785537436604" fill="#FAA51D" stroke="none" d="M 6.6679 2.8998 C 8.3005 2.6201 9.8811 2.9628 11.1174 3.7421 C 12.3526 4.5215 13.2437 5.7376 13.4951 7.2052 C 13.7465 8.6728 13.3111 10.1162 12.4057 11.2624 C 11.4993 12.4087 10.1229 13.258 8.4903 13.5376 C 6.8577 13.8173 5.2772 13.4746 4.0409 12.6954 C 2.8056 11.9159 1.9146 10.6998 1.6632 9.2322 C 1.4118 7.7646 1.8472 6.3212 2.7526 5.175 C 3.659 4.0287 5.0354 3.1795 6.6679 2.8998 Z " stroke-width="1.1013091286986187"/>
      <path id="ID0.23814574256539345" fill="#FAA51D" stroke="none" stroke-linecap="round" d="M 0.1808 3.099 L 4.7846 4.2098 L 1.6875 7.9807 L 0.1808 3.099 Z " stroke-width="1.1013091286986187"/>
      <path id="ID0.23814574256539345" fill="#FAA51D" stroke="none" stroke-linecap="round" d="M 10.7916 0.5553 L 7.1349 3.5648 L 11.5677 5.6049 L 10.7916 0.5553 Z " stroke-width="1.1013090511490047"/>
      <path id="ID0.46886637480929494" fill="#FFFFFF" stroke="none" stroke-linecap="round" d="M 10.3707 8.7206 C 11.2938 8.4608 11.8546 7.2273 12.7992 7.2431 C 13.7326 7.2586 14.9204 7.9825 15.0878 8.8623 C 15.2863 9.9166 14.6304 11.1295 13.8066 11.8193 C 12.7005 12.8043 11.1741 13.1887 9.7134 13.5261 C 8.759 13.7466 7.7045 13.7741 6.771 13.4715 C 6.0131 13.2281 5.0385 12.7571 4.7817 11.9686 C 4.5715 11.094 4.8448 9.8259 5.6209 9.3667 C 6.9976 8.5521 8.8543 9.1826 10.3707 8.7206 Z " stroke-width="1.1013091286986187"/>
      <path id="ID0.2958779144100845" fill="#666666" stroke="none" stroke-linecap="round" d="M 10.0017 8.197 C 10.3394 8.0877 10.8815 7.8932 10.9972 8.1382 C 11.1523 8.4502 10.9638 9.1629 10.5769 9.2717 C 10.0736 9.445 9.2518 9.083 9.0898 8.7443 C 8.9785 8.5052 9.6544 8.2699 10.0017 8.197 Z " stroke-width="1.1013091286986187"/>
    </g>
    <g id="ID0.26280788984149694">
      <g id="ID0.2985607646405697">
        <path id="ID0.6929170889779925" fill="#000000" stroke="none" d="M 10.5414 3.998 C 10.8779 3.9403 11.2178 4.0854 11.4929 4.3668 C 11.769 4.648 11.9814 5.0664 12.0647 5.5527 C 12.148 6.039 12.087 6.5042 11.9202 6.8613 C 11.7545 7.2182 11.4822 7.4682 11.1457 7.5258 C 10.8092 7.5835 10.4693 7.4383 10.1942 7.157 C 9.9181 6.8758 9.7057 6.4574 9.6224 5.9711 C 9.5391 5.4848 9.6001 5.0196 9.7669 4.6625 C 9.9326 4.3056 10.2049 4.0556 10.5414 3.998 Z " stroke-width="1.1013091286986187"/>
        <path id="ID0.02252052817493677" fill="#CCCCCC" stroke="none" d="M 10.9736 4.2799 C 11.1006 4.2581 11.2344 4.3414 11.3455 4.4944 C 11.4577 4.6472 11.5493 4.8684 11.593 5.1235 C 11.6367 5.3786 11.624 5.6177 11.569 5.7992 C 11.5152 5.9805 11.4167 6.1035 11.2897 6.1252 C 11.1627 6.147 11.0289 6.0638 10.9177 5.9107 C 10.8055 5.7579 10.714 5.5367 10.6703 5.2816 C 10.6266 5.0265 10.6393 4.7875 10.6942 4.606 C 10.7481 4.4247 10.8466 4.3016 10.9736 4.2799 Z " stroke-width="1.1013091286986187"/>
      </g>
      <g id="ID0.2985607646405697">
        <path id="ID0.6929170889779925" fill="#000000" stroke="none" d="M 6.4414 4.848 C 6.7779 4.7903 7.1178 4.9354 7.3929 5.2168 C 7.669 5.498 7.8814 5.9164 7.9647 6.4027 C 8.048 6.889 7.987 7.3542 7.8202 7.7113 C 7.6545 8.0682 7.3822 8.3182 7.0457 8.3758 C 6.7092 8.4335 6.3693 8.2883 6.0942 8.007 C 5.8181 7.7258 5.6057 7.3074 5.5224 6.8211 C 5.4391 6.3348 5.5001 5.8696 5.6669 5.5125 C 5.8326 5.1556 6.1049 4.9056 6.4414 4.848 Z " stroke-width="1.1013091286986187"/>
        <path id="ID0.02252052817493677" fill="#CCCCCC" stroke="none" d="M 6.9236 5.0799 C 7.0506 5.0581 7.1844 5.1414 7.2955 5.2944 C 7.4077 5.4472 7.4993 5.6684 7.543 5.9235 C 7.5867 6.1786 7.574 6.4177 7.519 6.5992 C 7.4652 6.7805 7.3667 6.9035 7.2397 6.9252 C 7.1127 6.947 6.9789 6.8638 6.8677 6.7107 C 6.7555 6.5579 6.664 6.3367 6.6203 6.0816 C 6.5766 5.8265 6.5893 5.5875 6.6442 5.406 C 6.6981 5.2247 6.7966 5.1016 6.9236 5.0799 Z " stroke-width="1.1013091286986187"/>
      </g>
    </g>
  </g>
  <path id="ID0.9358589742332697" fill="#F9B341" stroke="none" stroke-width="16.26050320490738" stroke-linecap="round" d="M 6.4269 13.6959 C 6.6089 13.4315 7.1195 13.3211 7.5002 13.302 C 8.1187 13.2716 8.6605 13.4371 9.2118 13.588 C 9.6422 13.6914 10.23 13.6484 10.5089 14.0124 C 10.6792 14.295 10.5156 14.8936 10.2012 15.0011 C 9.5491 15.2226 8.8244 14.9156 8.1389 14.811 C 7.6486 14.7365 7.1275 14.7055 6.7249 14.4186 C 6.4933 14.2939 6.2875 13.9014 6.4269 13.6959 Z "/>
</svg>