<svg xmlns="http://www.w3.org/2000/svg" xmlns:xlink="http://www.w3.org/1999/xlink" version="1.1" width="30.203969047795198" height="36.20251946283426" viewBox="-7.5765523544601905 -7.541052424078416 30.203969047795198 36.20251946283426">
  <!-- Exported by Scratch - http://scratch.mit.edu/ -->
  <path id="ID0.9358589742332697" fill="#DB861B" stroke="none" stroke-width="16.2605041616835" stroke-linecap="round" d="M 8.0525 13.3124 C 7.935 13.0137 7.4626 12.7906 7.0961 12.6858 C 6.5006 12.5164 5.9354 12.555 5.3642 12.5771 C 4.9216 12.5806 4.3588 12.4056 4.0047 12.6971 C 3.7749 12.9339 3.7988 13.5539 4.0807 13.7298 C 4.6658 14.0931 5.4412 13.958 6.1325 14.0112 C 6.627 14.0496 7.1415 14.1373 7.5987 13.9489 C 7.8524 13.8799 8.1417 13.5441 8.0525 13.3124 Z "/>
  <path id="ID0.19551143841817975" fill="#DB861B" stroke="none" stroke-width="16.260504768620393" stroke-linecap="round" d="M 8.3345 16.2251 C 8.2108 16.4944 7.9455 16.8616 8.0674 17.1651 C 8.3479 17.8533 8.9425 18.4105 9.4618 18.9678 C 9.9439 19.5098 10.3815 20.1368 10.9921 20.5122 C 11.2416 20.6043 11.5348 20.3401 11.7102 20.1849 C 12.0379 19.8941 12.7033 19.5819 12.6007 19.1408 C 12.4778 18.6273 11.7052 18.6635 11.3565 18.3497 C 10.4205 17.4924 9.7529 16.335 8.7652 15.6443 C 8.5183 15.4716 8.4332 16.0085 8.3345 16.2251 Z "/>
  <g id="ID0.30696602864190936">
    <path id="ID0.637318427208811" fill="#FAA51D" stroke="none" stroke-linecap="round" d="M 5.2652 15.3354 C 5.8379 15.7499 6.7022 15.7189 7.225 16.2043 C 7.4731 16.4365 7.4883 16.9217 7.2702 17.1072 C 6.9821 17.4078 6.4869 17.3898 6.095 17.2864 C 5.4907 17.1475 4.9336 16.8883 4.3919 16.511 C 3.7948 16.0955 3.1797 15.6507 2.7583 15.06 C 2.5314 14.7911 2.3123 14.325 2.5318 14.0496 C 2.7842 13.7337 3.364 13.6441 3.7509 13.8178 C 4.3835 14.109 4.6585 14.9397 5.2652 15.3354 Z " stroke-width="1.084033669140244"/>
    <path id="ID0.9894068208523095" fill="#FFFFFF" stroke="none" stroke-linecap="round" d="M 3.4949 13.7389 C 4.0483 13.86 4.6199 14.4868 4.7404 14.9891 C 4.8288 15.1878 4.1301 14.9604 3.9114 15.1429 C 3.6768 15.3408 3.8152 16.1158 3.5991 15.9805 C 3.0607 15.7304 2.4204 15.0275 2.4037 14.3703 C 2.3929 13.9513 3.0854 13.6497 3.4949 13.7389 Z " stroke-width="1.084033669140244"/>
  </g>
  <g id="ID0.536394951865077">
    <path id="ID0.6198067106306553" fill="#FAA51D" stroke="none" stroke-linecap="round" d="M 6.3055 10.3116 C 6.8095 10.1954 7.5025 9.8931 7.8435 10.3014 C 8.5541 11.0646 8.7073 12.2369 8.9538 13.2605 C 9.1997 14.2819 9.5666 15.4274 9.3574 16.5164 C 9.2513 16.9632 8.6044 17.1459 8.13 17.2857 C 7.6781 17.4174 7.0221 17.4926 6.7218 17.1499 C 6.0062 16.3891 5.7068 15.3133 5.4292 14.3506 C 5.1141 13.2531 4.6518 12.0944 4.8796 10.9648 C 4.9816 10.4551 5.7969 10.4278 6.3055 10.3116 Z " stroke-width="1.0840336259501413"/>
    <path id="ID0.21503017749637365" fill="#FFFFFF" stroke="none" stroke-linecap="round" d="M 7.5368 11.8593 C 7.8265 11.7846 8.1825 11.9503 8.3556 12.2053 C 8.7515 12.7506 8.9613 13.4453 9.1322 14.1031 C 9.329 14.8596 9.5321 15.6401 9.4668 16.4527 C 9.4267 16.7108 9.1252 16.9119 8.8424 17.0643 C 8.5454 17.2137 8.043 17.3664 7.8437 17.1015 C 7.3237 16.4072 7.1819 15.4157 7.0005 14.5208 C 6.8799 13.9271 6.7759 13.2427 6.8874 12.5895 C 6.9665 12.2965 7.2232 11.9413 7.5368 11.8593 Z " stroke-width="1.0840336259501413"/>
  </g>
  <path id="ID0.19551143841817975" fill="#FAA51D" stroke="none" stroke-linecap="round" d="M 8.7689 15.6737 C 8.6187 15.4322 8.1104 15.7316 7.8049 15.8329 C 7.0617 16.1082 6.3099 16.5317 5.7581 16.8354 C 5.1237 17.1844 4.4211 17.493 3.937 18.023 C 3.7894 18.2427 3.9961 18.5892 4.1128 18.7923 C 4.3315 19.1718 4.5033 19.8865 4.956 19.875 C 5.4837 19.8581 5.5997 19.1224 5.9816 18.8157 C 6.7973 18.1641 7.7704 17.756 8.4319 16.9726 C 8.7483 16.6526 8.9794 16.0157 8.7689 15.6737 Z " stroke-width="1.0840336269141668"/>
  <g id="ID0.6909988787956536">
    <g id="ID0.847524844110012">
      <path id="ID0.10025785537436604" fill="#FAA51D" stroke="none" d="M 7.1458 2.1404 C 8.8019 2.111 10.3124 2.6889 11.4166 3.6463 C 12.5197 4.6037 13.2164 5.9406 13.2429 7.4294 C 13.2693 8.9181 12.6205 10.2789 11.5521 11.2749 C 10.4827 12.2709 8.9937 12.9021 7.3376 12.9315 C 5.6814 12.961 4.171 12.3831 3.0668 11.4257 C 1.9637 10.4683 1.267 9.1313 1.2405 7.6426 C 1.214 6.1539 1.8629 4.793 2.9312 3.797 C 4.0007 2.801 5.4897 2.1698 7.1458 2.1404 Z " stroke-width="1.1013090021017868"/>
      <path id="ID0.23814574256539345" fill="#FAA51D" stroke="none" stroke-linecap="round" d="M 0.5537 1.3596 L 4.9365 3.1542 L 1.3044 6.4131 L 0.5537 1.3596 Z " stroke-width="1.1013090021017868"/>
      <path id="ID0.23814574256539345" fill="#FAA51D" stroke="none" stroke-linecap="round" d="M 11.3348 0.5892 L 7.2648 3.0108 L 11.3379 5.6982 L 11.3348 0.5892 Z " stroke-width="1.1013089041003234"/>
      <path id="ID0.46886637480929494" fill="#FFFFFF" stroke="none" stroke-linecap="round" d="M 9.8546 8.447 C 10.8064 8.3298 11.5473 7.1954 12.4787 7.354 C 13.399 7.5105 14.4635 8.4059 14.496 9.3008 C 14.5326 10.373 13.7007 11.4727 12.7821 12.0299 C 11.5396 12.8362 9.9727 12.9852 8.4777 13.0977 C 7.5009 13.1712 6.4544 13.0389 5.5775 12.5985 C 4.8651 12.2432 3.973 11.6301 3.8384 10.8119 C 3.763 9.9156 4.225 8.7034 5.0617 8.3669 C 6.5458 7.77 8.2857 8.6742 9.8546 8.447 Z " stroke-width="1.1013090021017868"/>
      <path id="ID0.2958779144100845" fill="#666666" stroke="none" stroke-linecap="round" d="M 9.4837 7.858 C 9.8341 7.8011 10.3994 7.6908 10.4767 7.9505 C 10.5828 8.2823 10.2886 8.9584 9.8896 9.0073 C 9.3659 9.1025 8.6084 8.6203 8.4995 8.261 C 8.4256 8.0078 9.1294 7.8775 9.4837 7.858 Z " stroke-width="1.1013090021017868"/>
    </g>
    <g id="ID0.26280788984149694">
      <g id="ID0.2985607646405697">
        <path id="ID0.6929170889779925" fill="#000000" stroke="none" d="M 10.6963 3.9023 C 11.0377 3.8962 11.3518 4.0911 11.581 4.4109 C 11.8114 4.7306 11.9581 5.1763 11.9669 5.6696 C 11.9757 6.1629 11.8449 6.6136 11.626 6.9413 C 11.4082 7.269 11.1013 7.4749 10.7599 7.481 C 10.4186 7.487 10.1045 7.2922 9.8752 6.9724 C 9.6448 6.6527 9.4981 6.207 9.4893 5.7136 C 9.4806 5.2203 9.6113 4.7697 9.8302 4.442 C 10.048 4.1143 10.355 3.9084 10.6963 3.9023 Z " stroke-width="1.1013090021017868"/>
        <path id="ID0.02252052817493677" fill="#CCCCCC" stroke="none" d="M 11.1841 4.1984 C 11.3129 4.1961 11.4326 4.2986 11.5193 4.4667 C 11.6071 4.6348 11.6641 4.8673 11.6687 5.1261 C 11.6733 5.3848 11.6246 5.6192 11.5428 5.7903 C 11.4622 5.9613 11.3462 6.068 11.2174 6.0703 C 11.0885 6.0726 10.9689 5.9701 10.8822 5.802 C 10.7944 5.634 10.7373 5.4015 10.7328 5.1427 C 10.7282 4.8839 10.7769 4.6495 10.8586 4.4785 C 10.9393 4.3074 11.0553 4.2007 11.1841 4.1984 Z " stroke-width="1.1013090021017868"/>
      </g>
      <g id="ID0.2985607646405697">
        <path id="ID0.6929170889779925" fill="#000000" stroke="none" d="M 6.5993 4.0662 C 6.9406 4.0601 7.2547 4.255 7.484 4.5747 C 7.7144 4.8945 7.8611 5.3402 7.8699 5.8335 C 7.8786 6.3268 7.7478 6.7774 7.529 7.1052 C 7.3112 7.4329 7.0042 7.6388 6.6629 7.6449 C 6.3215 7.6509 6.0074 7.456 5.7782 7.1363 C 5.5478 6.8165 5.4011 6.3708 5.3923 5.8775 C 5.3835 5.3842 5.5143 4.9336 5.7332 4.6059 C 5.951 4.2782 6.2579 4.0722 6.5993 4.0662 Z " stroke-width="1.1013090021017868"/>
        <path id="ID0.02252052817493677" fill="#CCCCCC" stroke="none" d="M 6.9871 4.3651 C 7.1159 4.3628 7.2356 4.4653 7.3223 4.6334 C 7.4101 4.8014 7.4671 5.0339 7.4717 5.2927 C 7.4763 5.5515 7.4276 5.7859 7.3458 5.9569 C 7.2652 6.128 7.1492 6.2347 7.0204 6.237 C 6.8915 6.2393 6.7719 6.1368 6.6852 5.9687 C 6.5974 5.8006 6.5404 5.5681 6.5358 5.3093 C 6.5312 5.0506 6.5799 4.8162 6.6616 4.6451 C 6.7423 4.474 6.8583 4.3673 6.9871 4.3651 Z " stroke-width="1.1013090021017868"/>
      </g>
    </g>
  </g>
  <path id="ID0.9358589742332697" fill="#F9B341" stroke="none" stroke-width="16.260503211983625" stroke-linecap="round" d="M 6.4491 13.7696 C 6.2806 14.0428 5.7762 14.1788 5.3969 14.2171 C 4.7808 14.2785 4.2313 14.1405 3.6731 14.0176 C 3.2381 13.936 2.6532 14.0086 2.3563 13.6591 C 2.172 13.3854 2.3052 12.7793 2.6137 12.6561 C 3.2539 12.402 3.9931 12.6721 4.683 12.7421 C 5.1764 12.7919 5.6984 12.7965 6.115 13.0629 C 6.3526 13.1757 6.5779 13.5574 6.4491 13.7696 Z "/>
</svg>