<svg xmlns="http://www.w3.org/2000/svg" xmlns:xlink="http://www.w3.org/1999/xlink" version="1.1" width="29.322128780465853" height="37.291979320626986" viewBox="-7.342778686573869 -7.316452089836961 29.322128780465853 37.291979320626986">
  <!-- Exported by Scratch - http://scratch.mit.edu/ -->
  <path id="ID0.9358589742332697" fill="#DB861B" stroke="none" stroke-width="16.26050408257795" stroke-linecap="round" d="M 3.9469 11.93 C 3.94 12.2509 4.2895 12.6391 4.5872 12.8773 C 5.0711 13.2636 5.6073 13.4463 6.1428 13.6464 C 6.5524 13.8141 7.004 14.1928 7.4431 14.0607 C 7.7465 13.931 7.9639 13.3498 7.7718 13.0787 C 7.3724 12.5177 6.605 12.3428 5.9878 12.0268 C 5.5465 11.8005 5.1057 11.5209 4.6113 11.5182 C 4.3506 11.4838 3.954 11.6819 3.9469 11.93 Z "/>
  <path id="ID0.19551143841817975" fill="#DB861B" stroke="none" stroke-width="16.26050284035421" stroke-linecap="round" d="M 7.8866 17.0976 C 7.9554 17.3858 7.9731 17.8385 8.2563 18.0021 C 8.9016 18.3707 9.7134 18.4423 10.4659 18.5605 C 11.1796 18.6897 11.9108 18.9132 12.623 18.8319 C 12.8762 18.7505 12.944 18.3616 12.9862 18.1313 C 13.0648 17.7003 13.3958 17.044 13.043 16.7601 C 12.6295 16.4319 12.0437 16.937 11.5757 16.9052 C 10.3101 16.8079 9.0707 16.3089 7.8672 16.3747 C 7.5663 16.3911 7.8306 16.8661 7.8866 17.0976 Z "/>
  <g id="ID0.30696602864190936">
    <path id="ID0.637318427208811" fill="#FAA51D" stroke="none" stroke-linecap="round" d="M 4.4943 16.5947 C 5.0531 17.0278 5.9179 17.0253 6.4244 17.5277 C 6.6648 17.768 6.664 18.2535 6.4398 18.4317 C 6.142 18.7226 5.6476 18.6883 5.2594 18.5719 C 4.66 18.4132 4.1117 18.1358 3.5827 17.7408 C 2.9997 17.3059 2.3996 16.841 1.9979 16.2368 C 1.78 15.9605 1.5764 15.4874 1.8048 15.2194 C 2.0675 14.9121 2.6499 14.8416 3.031 15.028 C 3.6535 15.3398 3.901 16.1792 4.4943 16.5947 Z " stroke-width="1.084033604394292"/>
    <path id="ID0.9894068208523095" fill="#FFFFFF" stroke="none" stroke-linecap="round" d="M 2.751 14.8406 C 3.3001 14.9798 3.8507 15.6251 3.9546 16.1311 C 4.0363 16.3327 3.3456 16.0823 3.1209 16.2575 C 2.88 16.4476 2.9927 17.2267 2.7812 17.0843 C 2.2513 16.8166 1.6345 16.093 1.6395 15.4356 C 1.6426 15.0164 2.3446 14.7378 2.751 14.8406 Z " stroke-width="1.084033604394292"/>
  </g>
  <g id="ID0.536394951865077">
    <path id="ID0.6198067106306553" fill="#FAA51D" stroke="none" stroke-linecap="round" d="M 5.9 11.3479 C 6.4106 11.2647 7.1217 11.008 7.4355 11.4375 C 8.0951 12.2452 8.1719 13.425 8.3515 14.4623 C 8.5307 15.4976 8.8225 16.6645 8.5431 17.7376 C 8.4082 18.1766 7.7508 18.317 7.2684 18.4257 C 6.8089 18.5278 6.1494 18.5603 5.872 18.1988 C 5.2072 17.3933 4.9783 16.3003 4.7637 15.3216 C 4.5204 14.206 4.1343 13.0198 4.4348 11.9072 C 4.5696 11.4053 5.385 11.4309 5.9 11.3479 Z " stroke-width="1.0840334721051679"/>
    <path id="ID0.21503017749637365" fill="#FFFFFF" stroke="none" stroke-linecap="round" d="M 7.0234 13.0324 C 7.3174 12.9767 7.6619 13.1651 7.8181 13.4308 C 8.1778 14.0005 8.3421 14.7074 8.47 15.375 C 8.6173 16.1426 8.7693 16.9346 8.6515 17.7413 C 8.5948 17.9963 8.2809 18.1773 7.9888 18.3111 C 7.6826 18.4409 7.1714 18.5607 6.9897 18.2834 C 6.5158 17.5569 6.4387 16.5582 6.3157 15.6535 C 6.2338 15.0532 6.1745 14.3636 6.3281 13.7189 C 6.426 13.4316 6.7052 13.0939 7.0234 13.0324 Z " stroke-width="1.0840334721051679"/>
  </g>
  <path id="ID0.19551143841817975" fill="#FAA51D" stroke="none" stroke-linecap="round" d="M 6.8381 17.0115 C 6.6464 16.8014 6.2011 17.1883 5.9191 17.3435 C 5.2384 17.7494 4.5762 18.3027 4.0888 18.7016 C 3.5285 19.1603 2.8939 19.5915 2.5142 20.2007 C 2.409 20.4437 2.6754 20.7468 2.8271 20.9252 C 3.1112 21.2586 3.4101 21.9301 3.8531 21.8364 C 4.3689 21.7238 4.3492 20.9793 4.669 20.6083 C 5.3524 19.8191 6.2351 19.2408 6.743 18.3501 C 6.9959 17.9779 7.1072 17.3095 6.8381 17.0115 Z " stroke-width="1.0840336426339554"/>
  <g id="ID0.6909988787956536">
    <g id="ID0.847524844110012">
      <path id="ID0.10025785537436604" fill="#FAA51D" stroke="none" d="M 7.3903 2.374 C 9.0361 2.5605 10.4585 3.3302 11.4286 4.4233 C 12.3976 5.5162 12.9143 6.9325 12.7466 8.412 C 12.579 9.8915 11.7585 11.1562 10.5695 12.0046 C 9.3794 12.8529 7.8209 13.2847 6.1751 13.0982 C 4.5292 12.9117 3.1069 12.1421 2.1368 11.049 C 1.1678 9.9561 0.6511 8.5398 0.8187 7.0603 C 0.9864 5.5808 1.8069 4.3161 2.9959 3.4677 C 4.1859 2.6194 5.7444 2.1875 7.3903 2.374 Z " stroke-width="1.10130905145636"/>
      <path id="ID0.23814574256539345" fill="#FAA51D" stroke="none" stroke-linecap="round" d="M 1.0537 0.8138 L 5.1654 3.164 L 1.1399 5.922 L 1.0537 0.8138 Z " stroke-width="1.10130905145636"/>
      <path id="ID0.23814574256539345" fill="#FAA51D" stroke="none" stroke-linecap="round" d="M 11.7603 1.3647 L 7.4096 3.2357 L 11.098 6.4306 L 11.7603 1.3647 Z " stroke-width="1.1013089911733802"/>
      <path id="ID0.46886637480929494" fill="#FFFFFF" stroke="none" stroke-linecap="round" d="M 9.3531 9.023 C 10.3121 9.0308 11.1945 8.0025 12.0972 8.281 C 12.9893 8.5561 13.9282 9.5824 13.8438 10.474 C 13.7405 11.5418 12.7725 12.5238 11.7891 12.9566 C 10.4522 13.5943 8.8792 13.5379 7.3823 13.4548 C 6.4043 13.4005 5.3839 13.133 4.5718 12.5821 C 3.9118 12.1371 3.1071 11.4131 3.0802 10.5843 C 3.1222 9.6857 3.7381 8.5441 4.6115 8.3194 C 6.1607 7.9208 7.768 9.044 9.3531 9.023 Z " stroke-width="1.10130905145636"/>
      <path id="ID0.2958779144100845" fill="#666666" stroke="none" stroke-linecap="round" d="M 9.0481 8.3919 C 9.4029 8.3811 9.9777 8.3453 10.0205 8.6129 C 10.0826 8.9557 9.7028 9.5877 9.3009 9.5843 C 8.7692 9.6105 8.0809 9.0337 8.0198 8.6633 C 7.9795 8.4027 8.6942 8.3651 9.0481 8.3919 Z " stroke-width="1.10130905145636"/>
    </g>
    <g id="ID0.26280788984149694">
      <g id="ID0.2985607646405697">
        <path id="ID0.6929170889779925" fill="#000000" stroke="none" d="M 10.8207 4.5767 C 11.1599 4.6151 11.446 4.8493 11.6316 5.1962 C 11.8184 5.5432 11.9058 6.0042 11.8503 6.4945 C 11.7947 6.9847 11.6064 7.4145 11.3467 7.7109 C 11.0881 8.0074 10.7569 8.1716 10.4177 8.1332 C 10.0785 8.0948 9.7924 7.8606 9.6067 7.5137 C 9.42 7.1667 9.3325 6.7057 9.3881 6.2154 C 9.4437 5.7252 9.632 5.2954 9.8917 4.999 C 10.1503 4.7025 10.4815 4.5383 10.8207 4.5767 Z " stroke-width="1.10130905145636"/>
        <path id="ID0.02252052817493677" fill="#CCCCCC" stroke="none" d="M 11.1355 4.872 C 11.2635 4.8865 11.3689 5.0037 11.4329 5.1817 C 11.4981 5.3597 11.5243 5.5977 11.4952 5.8548 C 11.466 6.112 11.3872 6.338 11.2839 6.497 C 11.1816 6.6561 11.0527 6.7468 10.9247 6.7323 C 10.7967 6.7178 10.6914 6.6006 10.6273 6.4226 C 10.5621 6.2445 10.5359 6.0066 10.565 5.7494 C 10.5942 5.4923 10.673 5.2662 10.7763 5.1073 C 10.8786 4.9482 11.0075 4.8575 11.1355 4.872 Z " stroke-width="1.10130905145636"/>
      </g>
      <g id="ID0.2985607646405697">
        <path id="ID0.6929170889779925" fill="#000000" stroke="none" d="M 6.6707 4.2767 C 7.0099 4.3151 7.296 4.5493 7.4816 4.8962 C 7.6684 5.2432 7.7558 5.7042 7.7003 6.1945 C 7.6447 6.6847 7.4564 7.1145 7.1967 7.4109 C 6.9381 7.7074 6.6069 7.8716 6.2677 7.8332 C 5.9285 7.7948 5.6424 7.5606 5.4567 7.2137 C 5.27 6.8667 5.1825 6.4057 5.2381 5.9154 C 5.2937 5.4252 5.482 4.9954 5.7417 4.699 C 6.0003 4.4025 6.3315 4.2383 6.6707 4.2767 Z " stroke-width="1.10130905145636"/>
        <path id="ID0.02252052817493677" fill="#CCCCCC" stroke="none" d="M 6.9355 4.572 C 7.0635 4.5865 7.1689 4.7037 7.2329 4.8817 C 7.2981 5.0597 7.3243 5.2977 7.2952 5.5548 C 7.266 5.812 7.1872 6.038 7.0839 6.197 C 6.9816 6.3561 6.8527 6.4468 6.7247 6.4323 C 6.5967 6.4178 6.4914 6.3006 6.4273 6.1226 C 6.3621 5.9445 6.3359 5.7066 6.365 5.4494 C 6.3942 5.1923 6.473 4.9662 6.5763 4.8073 C 6.6786 4.6482 6.8075 4.5575 6.9355 4.572 Z " stroke-width="1.10130905145636"/>
      </g>
    </g>
  </g>
  <path id="ID0.9358589742332697" fill="#F9B341" stroke="none" stroke-width="16.260504253488314" stroke-linecap="round" d="M 1.598 12.1071 C 1.8033 11.8603 2.3219 11.7968 2.7028 11.8123 C 3.3214 11.8383 3.8459 12.0523 4.3813 12.2526 C 4.8005 12.3948 5.3897 12.4053 5.6344 12.7931 C 5.7783 13.0901 5.561 13.6713 5.2382 13.7498 C 4.5687 13.9112 3.8748 13.5396 3.2017 13.3731 C 2.7202 13.2543 2.2041 13.1762 1.8292 12.8538 C 1.6099 12.7086 1.4406 12.299 1.598 12.1071 Z "/>
</svg>