<svg xmlns="http://www.w3.org/2000/svg" xmlns:xlink="http://www.w3.org/1999/xlink" version="1.1" width="18.760004858394282" height="16.822904447932856" viewBox="-0.6261521628597461 -0.23965214700491055 18.760004858394282 16.822904447932856">
  <!-- Exported by Scratch - http://scratch.mit.edu/ -->
  <g id="ID0.38220522552728653">
    <path id="ID0.9160578120499849" fill="#B40101" stroke="none" d="M 7.848 11.4954 L 3.0498 11.3651 L 2.9358 15.5635 L 7.634 15.6911 L 7.848 11.4954 Z " stroke-width="1.0000000158394338"/>
    <path id="ID0.5961301568895578" fill="#CC0000" stroke="none" d="M 4.0959 12.3575 L 2.5965 12.3168 L 2.5055 15.6656 L 4.005 15.7063 L 4.0959 12.3575 Z " stroke-width="1.126817990701889"/>
  </g>
  <g id="ID0.6226657046936452">
    <path id="ID0.9160578120499849" fill="#B40101" stroke="none" d="M 14.5651 11.4846 L 10.0652 11.4255 L 9.9633 15.6242 L 14.3621 15.7309 L 14.5651 11.4846 Z " stroke-width="0.99999997387012"/>
    <path id="ID0.5961301568895578" fill="#CC0000" stroke="none" d="M 11.3771 13.0699 L 9.8775 13.0335 L 9.812 15.7327 L 11.3116 15.7691 L 11.3771 13.0699 Z " stroke-width="0.99999997387012"/>
  </g>
  <g id="ID0.4915104955434799">
    <path id="ID0.20379002764821053" fill="#CC0000" stroke="none" d="M 16.7325 0.9772 L 1.5878 0.5745 L 1.2516 13.22 L 16.3962 13.6227 L 16.7325 0.9772 Z " stroke-width="1.0134497429578144"/>
    <path id="ID0.8935396964661777" fill="#FF0000" stroke="none" d="M 6.9846 0.7823 L 0.5216 0.6105 L 0.188 13.1561 L 6.651 13.3279 L 6.9846 0.7823 Z " stroke-width="1.6283043426472112"/>
  </g>
  <path id="ID0.1019937596283853" fill="#CC0000" stroke="none" d="M 17.3197 6.5062 L 12.1217 6.3625 L 11.9779 11.5605 L 17.1759 11.7042 L 17.3197 6.5062 Z " stroke-width="1.2839506073330564"/>
  <path id="ID0.1019937596283853" fill="#CC0000" stroke="none" d="M 5.9027 4.968 L 0.7153 4.6052 L 0.3526 9.7926 L 5.5399 10.1553 L 5.9027 4.968 Z " stroke-width="1.2839506837377772"/>
  <g id="ID0.3748739790171385">
    <path id="ID0.8617808222770691" fill="#CC0000" stroke="none" d="M 8.8028 6.1361 L 8.7528 6.1343 L 8.7528 6.1343 L 8.8028 6.1361 L 8.8028 6.1361 Z " stroke-width="1.0000000063517618"/>
    <path id="ID0.8655728464946151" fill="#000000" stroke="none" stroke-linecap="round" d="M 10.3574 2.4374 L 15.813 3.74 L 15.6817 7.2876 L 10.1855 7.0842 L 10.3574 2.4374 Z " stroke-width="1.095218139134482"/>
    <path id="ID0.006696532014757395" fill="#990000" stroke="none" d="M 10.402 1.8043 L 15.9696 3.2411 L 15.8321 3.7736 L 10.2645 2.3368 L 10.402 1.8043 Z " stroke-width="0.9999999682953526"/>
    <path id="ID0.8491002093069255" fill="#E5E5E5" stroke="none" d="M 15.0024 3.2924 L 14.156 3.2611 L 14.1219 4.1844 L 14.9682 4.2157 L 15.0024 3.2924 Z " stroke-width="1.5398551139239867"/>
  </g>
  <g id="ID0.2829335597343743">
    <path id="ID0.09020493365824223" fill="#000000" stroke="none" d="M 16.558 8.8554 L 11.708 8.8369 L 11.7021 10.3869 L 16.5521 10.4054 L 16.558 8.8554 Z " stroke-width="0.6562000313409185"/>
    <path id="ID0.18048822786659002" fill="#FFFFFF" stroke="none" d="M 16.3706 8.828 L 12.2206 8.8121 L 12.2185 9.3621 L 16.3685 9.378 L 16.3706 8.828 Z " stroke-width="0.720353484831584"/>
  </g>
</svg>