<svg xmlns="http://www.w3.org/2000/svg" xmlns:xlink="http://www.w3.org/1999/xlink" version="1.1" width="16.688121795654297" height="12.340483665466309" viewBox="-0.2783065438270569 0.39283764362335205 16.688121795654297 12.340483665466309">
  <!-- Exported by Scratch - http://scratch.mit.edu/ -->
  <g id="ID0.9007245465181768">
    <path id="ID0.6487746122293174" fill="#006622" stroke="none" stroke-linecap="round" d="M 7.65 0.9 C 9.211 0.851 10.927 1.043 12.25 1.8 C 13.558 2.548 14.651 3.814 15.25 5.2 C 15.934 6.782 15.93 8.622 15.9 10.35 C 15.913 10.89 15.785 11.661 15.2 11.8 C 12.88 12.35 10.434 12.233 8.05 12.2 C 5.835 12.169 3.553 12.225 1.4 11.7 C 0.798 11.518 0.291 10.828 0.25 10.2 C 0.148 8.629 0.312 6.966 0.9 5.5 C 1.436 4.168 2.285 2.88 3.45 2.1 C 4.659 1.262 6.22 0.945 7.65 0.9 Z " stroke-width="1"/>
    <path id="ID0.6862273388542235" fill="#009933" stroke="none" stroke-linecap="round" d="M 8.025 1.1 C 9.509 1.129 11.06 1.409 12.3 2.2 C 13.502 2.952 14.525 4.162 15 5.5 C 15.472 6.827 16.009 8.703 15 9.6 C 13.328 11.179 10.721 11.558 8.45 11.55 C 5.978 11.541 3.142 11.202 1.3 9.55 C 0.217 8.607 0.875 6.611 1.35 5.25 C 1.804 3.949 2.755 2.74 3.95 2 C 5.112 1.274 6.634 1.072 8.025 1.1 Z " stroke-width="1"/>
    <path id="ID0.01353864697739482" fill="#00CC44" stroke="none" stroke-linecap="round" d="M 8.1 1.3 C 9.308 1.285 10.59 1.467 11.65 2 C 12.641 2.527 13.49 3.368 14 4.35 C 14.484 5.281 15.216 6.702 14.45 7.35 C 12.839 8.809 10.46 9.437 8.3 9.4 C 6.084 9.363 3.67 8.714 2 7.25 C 1.227 6.572 1.832 5.084 2.25 4.1 C 2.649 3.255 3.44 2.523 4.3 2.1 C 5.46 1.529 6.843 1.316 8.1 1.3 Z " stroke-width="1"/>
    <path id="ID0.40726609993726015" fill="#99FFBB" stroke="none" d="M 9.375 1.75 C 9.768 1.75 10.124 1.879 10.382 2.087 C 10.64 2.295 10.8 2.583 10.8 2.9 C 10.8 3.217 10.64 3.505 10.382 3.713 C 10.124 3.921 9.768 4.05 9.375 4.05 C 8.982 4.05 8.626 3.921 8.368 3.713 C 8.11 3.505 7.95 3.217 7.95 2.9 C 7.95 2.583 8.11 2.295 8.368 2.087 C 8.626 1.879 8.982 1.75 9.375 1.75 Z " stroke-width="1"/>
    <path id="ID0.44971933402121067" fill="#99FFBB" stroke="none" d="M 8.075 4.05 C 8.289 4.05 8.483 4.114 8.623 4.219 C 8.763 4.323 8.85 4.466 8.85 4.625 C 8.85 4.784 8.763 4.927 8.623 5.031 C 8.483 5.136 8.289 5.2 8.075 5.2 C 7.861 5.2 7.667 5.136 7.527 5.031 C 7.387 4.927 7.3 4.784 7.3 4.625 C 7.3 4.466 7.387 4.323 7.527 4.219 C 7.667 4.114 7.861 4.05 8.075 4.05 Z " stroke-width="1"/>
  </g>
  <g id="ID0.35095602506771684">
    <g id="ID0.20715344790369272">
      <path id="ID0.19440001714974642" fill="#000000" stroke="none" d="M 4.6 2.5 C 5.193 2.5 5.731 2.906 6.12 3.562 C 6.509 4.219 6.75 5.125 6.75 6.125 C 6.75 7.125 6.509 8.031 6.12 8.688 C 5.731 9.344 5.193 9.75 4.6 9.75 C 4.007 9.75 3.469 9.344 3.08 8.688 C 2.691 8.031 2.45 7.125 2.45 6.125 C 2.45 5.125 2.691 4.219 3.08 3.562 C 3.469 2.906 4.007 2.5 4.6 2.5 Z " stroke-width="1"/>
      <path id="ID0.35307061253115535" fill="#FFFFFF" stroke="none" d="M 5.25 3.1 C 5.471 3.1 5.671 3.279 5.816 3.569 C 5.96 3.859 6.05 4.259 6.05 4.7 C 6.05 5.141 5.96 5.541 5.816 5.831 C 5.671 6.121 5.471 6.3 5.25 6.3 C 5.029 6.3 4.829 6.121 4.684 5.831 C 4.54 5.541 4.45 5.141 4.45 4.7 C 4.45 4.259 4.54 3.859 4.684 3.569 C 4.829 3.279 5.029 3.1 5.25 3.1 Z " stroke-width="1"/>
    </g>
    <g id="ID0.20715344790369272">
      <path id="ID0.19440001714974642" fill="#000000" stroke="none" d="M 11.45 2.65 C 12.043 2.65 12.581 3.056 12.97 3.712 C 13.359 4.369 13.6 5.275 13.6 6.275 C 13.6 7.275 13.359 8.181 12.97 8.838 C 12.581 9.494 12.043 9.9 11.45 9.9 C 10.857 9.9 10.319 9.494 9.93 8.838 C 9.541 8.181 9.3 7.275 9.3 6.275 C 9.3 5.275 9.541 4.369 9.93 3.712 C 10.319 3.056 10.857 2.65 11.45 2.65 Z " stroke-width="1"/>
      <path id="ID0.35307061253115535" fill="#FFFFFF" stroke="none" d="M 12.1 3.25 C 12.321 3.25 12.521 3.429 12.666 3.719 C 12.81 4.009 12.9 4.409 12.9 4.85 C 12.9 5.291 12.81 5.691 12.666 5.981 C 12.521 6.271 12.321 6.45 12.1 6.45 C 11.879 6.45 11.679 6.271 11.534 5.981 C 11.39 5.691 11.3 5.291 11.3 4.85 C 11.3 4.409 11.39 4.009 11.534 3.719 C 11.679 3.429 11.879 3.25 12.1 3.25 Z " stroke-width="1"/>
    </g>
  </g>
</svg>