<svg xmlns="http://www.w3.org/2000/svg" xmlns:xlink="http://www.w3.org/1999/xlink" version="1.1" width="19.907534013859642" height="11.562950502507105" viewBox="0.07802396482615959 0.20949917501597892 19.907534013859642 11.562950502507105">
  <!-- Exported by Scratch - http://scratch.mit.edu/ -->
  <g id="ID0.9007245465181768">
    <path id="ID0.6487746122293174" fill="#006622" stroke="none" stroke-linecap="round" d="M 9.5326 0.752 C 11.4068 0.7067 13.4671 0.8843 15.0556 1.5846 C 16.626 2.2766 17.9383 3.4478 18.6575 4.73 C 19.4787 6.1935 19.4739 7.8957 19.4379 9.4943 C 19.4535 9.9938 19.2998 10.7071 18.5974 10.8357 C 15.812 11.3445 12.8752 11.2363 10.0129 11.2057 C 7.3535 11.1771 4.6136 11.2289 2.0286 10.7432 C 1.3059 10.5748 0.6971 9.9365 0.6479 9.3555 C 0.5254 7.9022 0.7224 6.3637 1.4283 5.0075 C 2.0719 3.7752 3.0912 2.5837 4.4899 1.8621 C 5.9415 1.0869 7.8157 0.7936 9.5326 0.752 Z " stroke-width="1.0717643605393312"/>
    <path id="ID0.6862273388542235" fill="#009933" stroke="none" stroke-linecap="round" d="M 9.9942 0.8897 C 11.7759 0.9165 13.6381 1.1755 15.1269 1.9073 C 16.5701 2.603 17.7983 3.7223 18.3686 4.9601 C 18.9353 6.1878 19.5801 7.9233 18.3686 8.7531 C 16.3611 10.2138 13.2311 10.5645 10.5044 10.5571 C 7.5365 10.5487 4.1315 10.2351 1.9199 8.7068 C 0.6196 7.8345 1.4096 5.9879 1.9799 4.7289 C 2.525 3.5253 3.6668 2.4068 5.1016 1.7223 C 6.4967 1.0506 8.3241 0.8637 9.9942 0.8897 Z " stroke-width="1.0717643605393312"/>
    <path id="ID0.01353864697739482" fill="#00CC44" stroke="none" stroke-linecap="round" d="M 10.0739 1.0672 C 11.5242 1.0533 13.0635 1.2217 14.3361 1.7148 C 15.526 2.2023 16.5453 2.9803 17.1576 3.8888 C 17.7387 4.75 18.6176 6.0646 17.6979 6.6641 C 15.7637 8.0138 12.9074 8.5948 10.314 8.5606 C 7.6534 8.5263 4.755 7.926 2.75 6.5716 C 1.8219 5.9444 2.5483 4.5678 3.0501 3.6575 C 3.5292 2.8758 4.4789 2.1986 5.5114 1.8073 C 6.9042 1.279 8.5647 1.082 10.0739 1.0672 Z " stroke-width="1.0717643605393312"/>
    <path id="ID0.40726609993726015" fill="#99FFBB" stroke="none" d="M 11.604 1.5196 C 12.0759 1.5196 12.5033 1.6389 12.8131 1.8314 C 13.1228 2.0238 13.3149 2.2902 13.3149 2.5835 C 13.3149 2.8767 13.1228 3.1432 12.8131 3.3356 C 12.5033 3.528 12.0759 3.6474 11.604 3.6474 C 11.1322 3.6474 10.7048 3.528 10.395 3.3356 C 10.0852 3.1432 9.8931 2.8767 9.8931 2.5835 C 9.8931 2.2902 10.0852 2.0238 10.395 1.8314 C 10.7048 1.6389 11.1322 1.5196 11.604 1.5196 Z " stroke-width="1.0717643605393312"/>
    <path id="ID0.44971933402121067" fill="#99FFBB" stroke="none" d="M 10.0429 3.6436 C 10.2998 3.6436 10.5328 3.7028 10.7008 3.8 C 10.8689 3.8962 10.9734 4.0285 10.9734 4.1756 C 10.9734 4.3226 10.8689 4.4549 10.7008 4.5512 C 10.5328 4.6483 10.2998 4.7075 10.0429 4.7075 C 9.786 4.7075 9.553 4.6483 9.3849 4.5512 C 9.2169 4.4549 9.1124 4.3226 9.1124 4.1756 C 9.1124 4.0285 9.2169 3.8962 9.3849 3.8 C 9.553 3.7028 9.786 3.6436 10.0429 3.6436 Z " stroke-width="1.0717643605393312"/>
  </g>
  <g id="ID0.8220732379704714">
    <g id="ID0.20715344790369272">
      <path id="ID0.19440001714974642" fill="#000000" stroke="none" d="M 9.95 1.65 C 10.543 1.65 11.081 2.056 11.47 2.712 C 11.859 3.369 12.1 4.275 12.1 5.275 C 12.1 6.275 11.859 7.181 11.47 7.838 C 11.081 8.494 10.543 8.9 9.95 8.9 C 9.357 8.9 8.819 8.494 8.43 7.838 C 8.041 7.181 7.8 6.275 7.8 5.275 C 7.8 4.275 8.041 3.369 8.43 2.712 C 8.819 2.056 9.357 1.65 9.95 1.65 Z " stroke-width="1"/>
      <path id="ID0.35307061253115535" fill="#FFFFFF" stroke="none" d="M 10.6 2.25 C 10.821 2.25 11.021 2.429 11.166 2.719 C 11.31 3.009 11.4 3.409 11.4 3.85 C 11.4 4.291 11.31 4.691 11.166 4.981 C 11.021 5.271 10.821 5.45 10.6 5.45 C 10.379 5.45 10.179 5.271 10.034 4.981 C 9.89 4.691 9.8 4.291 9.8 3.85 C 9.8 3.409 9.89 3.009 10.034 2.719 C 10.179 2.429 10.379 2.25 10.6 2.25 Z " stroke-width="1"/>
    </g>
    <g id="ID0.20715344790369272">
      <path id="ID0.19440001714974642" fill="#000000" stroke="none" d="M 15.8 1.8 C 16.393 1.8 16.931 2.206 17.32 2.862 C 17.709 3.519 17.95 4.425 17.95 5.425 C 17.95 6.425 17.709 7.331 17.32 7.988 C 16.931 8.644 16.393 9.05 15.8 9.05 C 15.207 9.05 14.669 8.644 14.28 7.988 C 13.891 7.331 13.65 6.425 13.65 5.425 C 13.65 4.425 13.891 3.519 14.28 2.862 C 14.669 2.206 15.207 1.8 15.8 1.8 Z " stroke-width="1"/>
      <path id="ID0.35307061253115535" fill="#FFFFFF" stroke="none" d="M 16.45 2.4 C 16.671 2.4 16.871 2.579 17.016 2.869 C 17.16 3.159 17.25 3.559 17.25 4 C 17.25 4.441 17.16 4.841 17.016 5.131 C 16.871 5.421 16.671 5.6 16.45 5.6 C 16.229 5.6 16.029 5.421 15.884 5.131 C 15.74 4.841 15.65 4.441 15.65 4 C 15.65 3.559 15.74 3.159 15.884 2.869 C 16.029 2.579 16.229 2.4 16.45 2.4 Z " stroke-width="1"/>
    </g>
  </g>
</svg>