<svg xmlns="http://www.w3.org/2000/svg" xmlns:xlink="http://www.w3.org/1999/xlink" version="1.1" width="29.838832398293103" height="36.38514091574916" viewBox="-7.216552565513892 -7.762652585922522 29.838832398293103 36.38514091574916">
  <!-- Exported by Scratch - http://scratch.mit.edu/ -->
  <path id="ID0.9358589742332697" fill="#DB861B" stroke="none" stroke-width="16.26050339717964" stroke-linecap="round" d="M 7.8883 11.9024 C 7.622 11.7233 7.1065 11.8081 6.7453 11.9301 C 6.1589 12.129 5.7158 12.4818 5.2583 12.8246 C 4.896 13.0789 4.3335 13.2546 4.2077 13.6956 C 4.1531 14.0211 4.525 14.5178 4.8569 14.5024 C 5.5448 14.4689 6.1062 13.9173 6.7053 13.5683 C 7.134 13.3189 7.6073 13.0988 7.8765 12.684 C 8.0461 12.483 8.0934 12.0423 7.8883 11.9024 Z "/>
  <path id="ID0.19551143841817975" fill="#DB861B" stroke="none" stroke-width="16.260505219338025" stroke-linecap="round" d="M 8.7164 13.9848 C 8.5011 14.1885 8.118 14.4303 8.118 14.7573 C 8.1216 15.5005 8.4655 16.2392 8.7395 16.95 C 8.9846 17.6327 9.1568 18.3776 9.5834 18.9537 C 9.7805 19.1322 10.1512 18.9964 10.3718 18.9178 C 10.7842 18.7702 11.5181 18.7287 11.5874 18.2812 C 11.6649 17.7589 10.9345 17.5043 10.728 17.0831 C 10.1793 15.9385 9.9915 14.6157 9.3326 13.6065 C 9.1679 13.3541 8.8888 13.8206 8.7164 13.9848 Z "/>
  <g id="ID0.30696602864190936">
    <path id="ID0.637318427208811" fill="#FAA51D" stroke="none" stroke-linecap="round" d="M 5.0417 15.2097 C 5.73 15.3712 6.5155 15.0093 7.185 15.2556 C 7.5035 15.3742 7.7047 15.816 7.5749 16.0713 C 7.4251 16.4597 6.9611 16.6341 6.5597 16.6897 C 5.9486 16.7946 5.3346 16.7704 4.6893 16.6311 C 3.9782 16.4781 3.2392 16.3048 2.6225 15.9223 C 2.3094 15.7617 1.9276 15.4161 2.0238 15.0774 C 2.135 14.6887 2.6353 14.3824 3.0594 14.3934 C 3.7552 14.4181 4.3293 15.0785 5.0417 15.2097 Z " stroke-width="1.0840336222629765"/>
    <path id="ID0.9894068208523095" fill="#FFFFFF" stroke="none" stroke-linecap="round" d="M 2.8098 14.3938 C 3.367 14.292 4.1361 14.6499 4.441 15.0669 C 4.5992 15.2162 3.8669 15.2758 3.7355 15.5285 C 3.5953 15.8016 4.0219 16.4633 3.7703 16.4218 C 3.1771 16.3986 2.3153 15.997 2.0464 15.3971 C 1.8749 15.0146 2.3975 14.4693 2.8098 14.3938 Z " stroke-width="1.0840336222629765"/>
  </g>
  <g id="ID0.536394951865077">
    <path id="ID0.6198067106306553" fill="#FAA51D" stroke="none" stroke-linecap="round" d="M 6.3055 9.5616 C 6.8095 9.4454 7.5025 9.1431 7.8435 9.5514 C 8.5541 10.3146 8.7073 11.4869 8.9538 12.5105 C 9.1997 13.5319 9.5666 14.6774 9.3574 15.7664 C 9.2513 16.2132 8.6044 16.3959 8.13 16.5357 C 7.6781 16.6674 7.0221 16.7426 6.7218 16.3999 C 6.0062 15.6391 5.7068 14.5633 5.4292 13.6006 C 5.1141 12.5031 4.6518 11.3444 4.8796 10.2148 C 4.9816 9.7051 5.7969 9.6778 6.3055 9.5616 Z " stroke-width="1.0840336259501413"/>
    <path id="ID0.21503017749637365" fill="#FFFFFF" stroke="none" stroke-linecap="round" d="M 7.5368 11.1093 C 7.8265 11.0346 8.1825 11.2003 8.3556 11.4553 C 8.7515 12.0006 8.9613 12.6953 9.1322 13.3531 C 9.329 14.1096 9.5321 14.8901 9.4668 15.7027 C 9.4267 15.9608 9.1252 16.1619 8.8424 16.3143 C 8.5454 16.4637 8.043 16.6164 7.8437 16.3515 C 7.3237 15.6572 7.1819 14.6657 7.0005 13.7708 C 6.8799 13.1771 6.7759 12.4927 6.8874 11.8395 C 6.9665 11.5465 7.2232 11.1913 7.5368 11.1093 Z " stroke-width="1.0840336259501413"/>
  </g>
  <path id="ID0.19551143841817975" fill="#FAA51D" stroke="none" stroke-linecap="round" d="M 7.204 15.049 C 6.9673 14.8913 6.6285 15.3743 6.3923 15.593 C 5.8298 16.1512 5.3208 16.848 4.9441 17.3528 C 4.5111 17.9332 3.9994 18.5049 3.778 19.1877 C 3.7346 19.4489 4.0663 19.6787 4.2565 19.8153 C 4.6127 20.0702 5.0649 20.6497 5.4722 20.4518 C 5.9456 20.218 5.7467 19.5002 5.9674 19.063 C 6.4401 18.1322 7.1571 17.3579 7.435 16.3709 C 7.5904 15.9486 7.5371 15.2732 7.204 15.049 Z " stroke-width="1.0840336786820561"/>
  <g id="ID0.6909988787956536">
    <g id="ID0.847524844110012">
      <path id="ID0.10025785537436604" fill="#FAA51D" stroke="none" d="M 7.4459 1.7392 C 9.1018 1.7811 10.586 2.4234 11.648 3.4275 C 12.7088 4.4315 13.3474 5.7971 13.3098 7.2856 C 13.2721 8.7741 12.5654 10.1058 11.4551 11.0549 C 10.3438 12.004 8.829 12.5705 7.1732 12.5286 C 5.5173 12.4868 4.0331 11.8444 2.9711 10.8404 C 1.9103 9.8364 1.2717 8.4707 1.3093 6.9822 C 1.347 5.4937 2.0538 4.1621 3.164 3.213 C 4.2753 2.2639 5.7901 1.6974 7.4459 1.7392 Z " stroke-width="1.1013090530648204"/>
      <path id="ID0.23814574256539345" fill="#FAA51D" stroke="none" stroke-linecap="round" d="M 0.9137 0.6793 L 5.2152 2.6608 L 1.4462 5.7604 L 0.9137 0.6793 Z " stroke-width="1.1013090530648204"/>
      <path id="ID0.23814574256539345" fill="#FAA51D" stroke="none" stroke-linecap="round" d="M 11.768 0.3676 L 7.5975 2.6118 L 11.5512 5.4719 L 11.768 0.3676 Z " stroke-width="1.1013089453985172"/>
      <path id="ID0.46886637480929494" fill="#FFFFFF" stroke="none" stroke-linecap="round" d="M 9.8916 8.1719 C 10.8476 8.0958 11.6367 6.9943 12.5604 7.1928 C 13.4731 7.3888 14.4981 8.3291 14.492 9.2246 C 14.4825 10.2974 13.604 11.3603 12.6623 11.8774 C 11.3863 12.6295 9.8143 12.711 8.316 12.759 C 7.3369 12.7905 6.297 12.6132 5.4399 12.1355 C 4.7434 11.7499 3.8786 11.099 3.7793 10.2758 C 3.7425 9.377 4.2563 8.1859 5.1066 7.8857 C 6.6151 7.3531 8.3144 8.3314 9.8916 8.1719 Z " stroke-width="1.1013090530648204"/>
      <path id="ID0.2958779144100845" fill="#666666" stroke="none" stroke-linecap="round" d="M 9.5635 7.5552 C 9.916 7.5134 10.4855 7.4276 10.5516 7.6903 C 10.6434 8.0265 10.3203 8.6892 9.9196 8.7209 C 9.3923 8.7935 8.6562 8.2792 8.5629 7.9155 C 8.5 7.6594 9.2087 7.5594 9.5635 7.5552 Z " stroke-width="1.1013090530648204"/>
    </g>
    <g id="ID0.26280788984149694">
      <g id="ID0.2985607646405697">
        <path id="ID0.6929170889779925" fill="#000000" stroke="none" d="M 10.942 3.6313 C 11.2833 3.6399 11.5887 3.8482 11.804 4.1775 C 12.0205 4.5069 12.1478 4.9584 12.1354 5.4517 C 12.1229 5.9449 11.9729 6.3895 11.7401 6.7075 C 11.5084 7.0255 11.1929 7.218 10.8516 7.2094 C 10.5103 7.2008 10.2049 6.9926 9.9896 6.6632 C 9.7731 6.3339 9.6458 5.8823 9.6582 5.389 C 9.6707 4.8958 9.8207 4.4512 10.0535 4.1332 C 10.2852 3.8152 10.6007 3.6227 10.942 3.6313 Z " stroke-width="1.1013090530648204"/>
        <path id="ID0.02252052817493677" fill="#CCCCCC" stroke="none" d="M 11.4014 3.9926 C 11.5302 3.9958 11.6454 4.1034 11.7248 4.2751 C 11.8053 4.4468 11.8522 4.6815 11.8457 4.9402 C 11.8391 5.199 11.7804 5.431 11.6913 5.5984 C 11.6034 5.7659 11.4829 5.8675 11.3541 5.8642 C 11.2253 5.861 11.1101 5.7534 11.0307 5.5817 C 10.9503 5.41 10.9033 5.1753 10.9099 4.9166 C 10.9164 4.6578 10.9751 4.4258 11.0642 4.2584 C 11.1522 4.0909 11.2726 3.9893 11.4014 3.9926 Z " stroke-width="1.1013090530648204"/>
      </g>
      <g id="ID0.2985607646405697">
        <path id="ID0.6929170889779925" fill="#000000" stroke="none" d="M 6.8394 3.6543 C 7.1806 3.663 7.4861 3.8712 7.7014 4.2005 C 7.9178 4.5299 8.0452 4.9815 8.0327 5.4747 C 8.0202 5.9679 7.8702 6.4125 7.6374 6.7305 C 7.4057 7.0486 7.0902 7.2411 6.7489 7.2324 C 6.4076 7.2238 6.1022 7.0156 5.8869 6.6863 C 5.6705 6.3569 5.5431 5.9053 5.5555 5.4121 C 5.568 4.9189 5.7181 4.4743 5.9508 4.1563 C 6.1825 3.8382 6.4981 3.6457 6.8394 3.6543 Z " stroke-width="1.1013090530648204"/>
        <path id="ID0.02252052817493677" fill="#CCCCCC" stroke="none" d="M 7.1967 3.9699 C 7.3255 3.9731 7.4407 4.0807 7.5201 4.2524 C 7.6006 4.4241 7.6475 4.6588 7.641 4.9175 C 7.6344 5.1762 7.5757 5.4083 7.4866 5.5757 C 7.3987 5.7431 7.2782 5.8448 7.1494 5.8415 C 7.0206 5.8382 6.9054 5.7307 6.826 5.559 C 6.7456 5.3873 6.6986 5.1526 6.7052 4.8939 C 6.7117 4.6351 6.7704 4.4031 6.8595 4.2357 C 6.9475 4.0682 7.0679 3.9666 7.1967 3.9699 Z " stroke-width="1.1013090530648204"/>
      </g>
    </g>
  </g>
  <path id="ID0.9358589742332697" fill="#F9B341" stroke="none" stroke-width="16.260503574564353" stroke-linecap="round" d="M 6.2282 12.0883 C 6.2687 12.4067 5.9617 12.8294 5.6906 13.0974 C 5.2499 13.5323 4.7357 13.77 4.2241 14.0251 C 3.8343 14.2348 3.4248 14.6587 2.9743 14.5733 C 2.659 14.476 2.3819 13.9208 2.5446 13.6311 C 2.8831 13.0313 3.6279 12.7771 4.2087 12.3982 C 4.6239 12.127 5.0329 11.8027 5.5244 11.7483 C 5.7801 11.6868 6.1952 11.8423 6.2282 12.0883 Z "/>
</svg>