<svg xmlns="http://www.w3.org/2000/svg" xmlns:xlink="http://www.w3.org/1999/xlink" version="1.1" width="15.967143063986592" height="11.155952458823018" viewBox="-0.05632114670887223 3.1982984516797996 15.967143063986592 11.155952458823018">
  <!-- Exported by Scratch - http://scratch.mit.edu/ -->
  <g id="ID0.25547301582992077">
    <path id="ID0.7124150786548853" fill="#FFCCF2" stroke="none" stroke-linecap="round" d="M 0.8028 4.5285 C 1.2639 3.8644 2.0685 3.431 3.0638 3.8862 C 7.2192 5.7236 11.172 8.0758 14.7785 10.7481 C 15.6796 11.416 15.4534 12.18 15.1032 12.7821 C 14.7046 13.4639 13.9876 14.1577 12.9179 13.7147 C 8.7466 11.9465 4.7421 9.6222 1.1065 6.878 C 0.1977 6.1925 0.3531 5.1772 0.8028 4.5285 Z " stroke-width="1.0000000052097366"/>
    <path id="ID0.1552388546988368" fill="#EDBFE3" stroke="none" stroke-linecap="round" d="M 6.9666 5.9673 C 8.4264 6.2185 9.8096 7.1532 10.7263 8.2925 C 11.1626 8.8349 10.8067 9.7278 10.4935 10.3688 C 10.2136 10.9153 9.6921 11.7399 9.0636 11.6209 C 7.6159 11.3531 6.2371 10.4864 5.2681 9.3567 C 4.843 8.861 5.1326 7.9833 5.4294 7.4024 C 5.7466 6.7811 6.2882 5.8593 6.9666 5.9673 Z " stroke-width="1.0000000052097366"/>
    <path id="ID0.8780324994586408" fill="#FF99E5" stroke="none" d="M 9.0191 10.8573 C 9.0995 10.8363 9.1806 10.8503 9.2465 10.8889 C 9.3124 10.9275 9.3643 10.9914 9.3852 11.0717 C 9.4062 11.152 9.3923 11.2332 9.3537 11.2991 C 9.3151 11.365 9.2511 11.4168 9.1708 11.4378 C 9.0905 11.4588 9.0093 11.4449 8.9434 11.4063 C 8.8775 11.3677 8.8257 11.3037 8.8047 11.2234 C 8.7837 11.1431 8.7977 11.0619 8.8363 10.996 C 8.8749 10.9301 8.9388 10.8783 9.0191 10.8573 Z " stroke-width="1.0000000052097366"/>
    <path id="ID0.8780324994586408" fill="#FF99E5" stroke="none" d="M 9.6542 10.123 C 9.7345 10.102 9.8156 10.1159 9.8815 10.1545 C 9.9474 10.1931 9.9993 10.2571 10.0202 10.3374 C 10.0412 10.4177 10.0273 10.4988 9.9887 10.5647 C 9.9501 10.6306 9.8861 10.6825 9.8058 10.7035 C 9.7255 10.7244 9.6443 10.7105 9.5785 10.6719 C 9.5126 10.6333 9.4607 10.5693 9.4397 10.489 C 9.4187 10.4087 9.4327 10.3276 9.4713 10.2617 C 9.5099 10.1958 9.5739 10.1439 9.6542 10.123 Z " stroke-width="1.0000000052097366"/>
    <path id="ID0.8780324994586408" fill="#FF99E5" stroke="none" d="M 10.2282 9.3529 C 10.3085 9.3319 10.3896 9.3458 10.4555 9.3844 C 10.5214 9.423 10.5733 9.487 10.5942 9.5673 C 10.6152 9.6476 10.6013 9.7288 10.5627 9.7947 C 10.5241 9.8606 10.4601 9.9124 10.3798 9.9334 C 10.2995 9.9544 10.2183 9.9404 10.1524 9.9018 C 10.0866 9.8632 10.0347 9.7993 10.0137 9.719 C 9.9927 9.6386 10.0067 9.5575 10.0453 9.4916 C 10.0839 9.4257 10.1479 9.3738 10.2282 9.3529 Z " stroke-width="1.0000000052097366"/>
    <path id="ID0.8780324994586408" fill="#FF99E5" stroke="none" d="M 10.4487 8.4167 C 10.529 8.3958 10.6102 8.4097 10.6761 8.4483 C 10.742 8.4869 10.7938 8.5509 10.8148 8.6312 C 10.8358 8.7115 10.8218 8.7926 10.7832 8.8585 C 10.7446 8.9244 10.6807 8.9763 10.6004 8.9973 C 10.5201 9.0182 10.4389 9.0043 10.373 8.9657 C 10.3071 8.9271 10.2553 8.8631 10.2343 8.7828 C 10.2133 8.7025 10.2272 8.6214 10.2658 8.5555 C 10.3044 8.4896 10.3684 8.4377 10.4487 8.4167 Z " stroke-width="1.0000000052097366"/>
    <path id="ID0.8780324994586408" fill="#FF99E5" stroke="none" d="M 9.7588 8.5453 C 9.8391 8.5243 9.9203 8.5382 9.9862 8.5768 C 10.0521 8.6154 10.1039 8.6794 10.1249 8.7597 C 10.1459 8.84 10.1319 8.9212 10.0933 8.9871 C 10.0547 9.053 9.9908 9.1048 9.9105 9.1258 C 9.8301 9.1468 9.749 9.1328 9.6831 9.0942 C 9.6172 9.0556 9.5653 8.9917 9.5444 8.9114 C 9.5234 8.8311 9.5373 8.7499 9.5759 8.684 C 9.6145 8.6181 9.6785 8.5663 9.7588 8.5453 Z " stroke-width="1.0000000052097366"/>
    <path id="ID0.8780324994586408" fill="#FF99E5" stroke="none" d="M 9.3195 9.4352 C 9.3998 9.4142 9.4809 9.4282 9.5468 9.4668 C 9.6127 9.5054 9.6646 9.5693 9.6856 9.6496 C 9.7065 9.73 9.6926 9.8111 9.654 9.877 C 9.6154 9.9429 9.5514 9.9948 9.4711 10.0157 C 9.3908 10.0367 9.3097 10.0228 9.2438 9.9842 C 9.1779 9.9456 9.126 9.8816 9.105 9.8013 C 9.0841 9.721 9.098 9.6398 9.1366 9.5739 C 9.1752 9.508 9.2392 9.4562 9.3195 9.4352 Z " stroke-width="1.0000000052097366"/>
    <path id="ID0.8780324994586408" fill="#FF99E5" stroke="none" d="M 8.8065 10.241 C 8.8868 10.2201 8.9679 10.234 9.0338 10.2726 C 9.0997 10.3112 9.1516 10.3752 9.1726 10.4555 C 9.1935 10.5358 9.1796 10.6169 9.141 10.6828 C 9.1024 10.7487 9.0384 10.8006 8.9581 10.8216 C 8.8778 10.8425 8.7967 10.8286 8.7308 10.79 C 8.6649 10.7514 8.613 10.6874 8.592 10.6071 C 8.5711 10.5268 8.585 10.4457 8.6236 10.3798 C 8.6622 10.3139 8.7262 10.262 8.8065 10.241 Z " stroke-width="1.0000000052097366"/>
    <path id="ID0.8780324994586408" fill="#FF99E5" stroke="none" d="M 7.9588 10.3591 C 8.0391 10.3381 8.1203 10.3521 8.1862 10.3907 C 8.2521 10.4293 8.3039 10.4932 8.3249 10.5736 C 8.3459 10.6539 8.3319 10.735 8.2933 10.8009 C 8.2547 10.8668 8.1908 10.9187 8.1105 10.9396 C 8.0302 10.9606 7.949 10.9467 7.8831 10.9081 C 7.8172 10.8695 7.7653 10.8055 7.7444 10.7252 C 7.7234 10.6449 7.7373 10.5637 7.7759 10.4978 C 7.8145 10.432 7.8785 10.3801 7.9588 10.3591 Z " stroke-width="1.0000000052097366"/>
    <path id="ID0.8780324994586408" fill="#FF99E5" stroke="none" d="M 8.6169 9.5154 C 8.6972 9.4944 8.7784 9.5083 8.8443 9.5469 C 8.9102 9.5855 8.962 9.6495 8.983 9.7298 C 9.004 9.8101 8.99 9.8913 8.9514 9.9572 C 8.9128 10.0231 8.8489 10.0749 8.7686 10.0959 C 8.6883 10.1169 8.6071 10.1029 8.5412 10.0643 C 8.4753 10.0257 8.4235 9.9618 8.4025 9.8815 C 8.3815 9.8012 8.3954 9.72 8.434 9.6541 C 8.4726 9.5882 8.5366 9.5364 8.6169 9.5154 Z " stroke-width="1.0000000052097366"/>
    <path id="ID0.8780324994586408" fill="#FF99E5" stroke="none" d="M 9.0079 8.6381 C 9.0882 8.6171 9.1693 8.631 9.2352 8.6696 C 9.3011 8.7082 9.353 8.7722 9.374 8.8525 C 9.3949 8.9328 9.381 9.014 9.3424 9.0799 C 9.3038 9.1458 9.2398 9.1976 9.1595 9.2186 C 9.0792 9.2396 8.9981 9.2256 8.9322 9.187 C 8.8663 9.1484 8.8144 9.0845 8.7934 9.0042 C 8.7725 8.9239 8.7864 8.8427 8.825 8.7768 C 8.8636 8.7109 8.9276 8.6591 9.0079 8.6381 Z " stroke-width="1.0000000052097366"/>
    <path id="ID0.8780324994586408" fill="#FF99E5" stroke="none" d="M 9.6407 7.6976 C 9.721 7.6766 9.8022 7.6906 9.8681 7.7292 C 9.934 7.7678 9.9858 7.8317 10.0068 7.912 C 10.0278 7.9923 10.0138 8.0735 9.9752 8.1394 C 9.9366 8.2053 9.8727 8.2571 9.7924 8.2781 C 9.7121 8.2991 9.6309 8.2852 9.565 8.2466 C 9.4991 8.208 9.4473 8.144 9.4263 8.0637 C 9.4053 7.9834 9.4192 7.9022 9.4578 7.8363 C 9.4964 7.7704 9.5604 7.7186 9.6407 7.6976 Z " stroke-width="1.0000000052097366"/>
    <path id="ID0.8780324994586408" fill="#FF99E5" stroke="none" d="M 8.7551 7.6706 C 8.8354 7.6496 8.9166 7.6635 8.9825 7.7021 C 9.0484 7.7407 9.1002 7.8047 9.1212 7.885 C 9.1422 7.9653 9.1283 8.0465 9.0897 8.1123 C 9.0511 8.1782 8.9871 8.2301 8.9068 8.2511 C 8.8265 8.2721 8.7453 8.2581 8.6794 8.2195 C 8.6135 8.1809 8.5617 8.1169 8.5407 8.0366 C 8.5197 7.9563 8.5337 7.8752 8.5723 7.8093 C 8.6109 7.7434 8.6748 7.6915 8.7551 7.6706 Z " stroke-width="1.0000000052097366"/>
    <path id="ID0.8780324994586408" fill="#FF99E5" stroke="none" d="M 8.1602 8.7562 C 8.2405 8.7352 8.3217 8.7491 8.3876 8.7877 C 8.4535 8.8263 8.5053 8.8903 8.5263 8.9706 C 8.5473 9.0509 8.5333 9.1321 8.4947 9.198 C 8.4561 9.2639 8.3922 9.3157 8.3119 9.3367 C 8.2315 9.3577 8.1504 9.3437 8.0845 9.3051 C 8.0186 9.2665 7.9667 9.2026 7.9458 9.1223 C 7.9248 9.042 7.9387 8.9608 7.9773 8.8949 C 8.0159 8.829 8.0799 8.7772 8.1602 8.7562 Z " stroke-width="1.0000000052097366"/>
    <path id="ID0.8780324994586408" fill="#FF99E5" stroke="none" d="M 7.7566 9.5851 C 7.8369 9.5641 7.9181 9.5781 7.984 9.6167 C 8.0499 9.6553 8.1017 9.7192 8.1227 9.7995 C 8.1437 9.8798 8.1297 9.961 8.0911 10.0269 C 8.0525 10.0928 7.9886 10.1446 7.9083 10.1656 C 7.828 10.1866 7.7468 10.1727 7.6809 10.1341 C 7.615 10.0955 7.5631 10.0315 7.5422 9.9512 C 7.5212 9.8709 7.5351 9.7897 7.5737 9.7238 C 7.6123 9.6579 7.6763 9.6061 7.7566 9.5851 Z " stroke-width="1.0000000052097366"/>
    <path id="ID0.8780324994586408" fill="#FF99E5" stroke="none" d="M 6.7638 9.7411 C 6.8441 9.7201 6.9253 9.7341 6.9912 9.7727 C 7.0571 9.8112 7.1089 9.8752 7.1299 9.9555 C 7.1509 10.0358 7.1369 10.117 7.0983 10.1829 C 7.0597 10.2488 6.9958 10.3006 6.9154 10.3216 C 6.8351 10.3426 6.754 10.3286 6.6881 10.29 C 6.6222 10.2515 6.5703 10.1875 6.5494 10.1072 C 6.5284 10.0269 6.5423 9.9457 6.5809 9.8798 C 6.6195 9.8139 6.6835 9.7621 6.7638 9.7411 Z " stroke-width="1.0000000052097366"/>
    <path id="ID0.8780324994586408" fill="#FF99E5" stroke="none" d="M 7.2999 8.8259 C 7.3802 8.8049 7.4613 8.8188 7.5272 8.8574 C 7.5931 8.896 7.645 8.96 7.666 9.0403 C 7.6869 9.1206 7.673 9.2018 7.6344 9.2677 C 7.5958 9.3336 7.5318 9.3854 7.4515 9.4064 C 7.3712 9.4274 7.2901 9.4134 7.2242 9.3748 C 7.1583 9.3362 7.1064 9.2723 7.0855 9.192 C 7.0645 9.1117 7.0784 9.0305 7.117 8.9646 C 7.1556 8.8987 7.2196 8.8469 7.2999 8.8259 Z " stroke-width="1.0000000052097366"/>
    <path id="ID0.8780324994586408" fill="#FF99E5" stroke="none" d="M 8.0779 7.8475 C 8.1582 7.8265 8.2393 7.8404 8.3052 7.879 C 8.3711 7.9176 8.423 7.9816 8.4439 8.0619 C 8.4649 8.1422 8.451 8.2234 8.4124 8.2893 C 8.3738 8.3552 8.3098 8.407 8.2295 8.428 C 8.1492 8.449 8.068 8.435 8.0021 8.3964 C 7.9363 8.3578 7.8844 8.2939 7.8634 8.2136 C 7.8424 8.1333 7.8564 8.0521 7.895 7.9862 C 7.9336 7.9203 7.9976 7.8685 8.0779 7.8475 Z " stroke-width="1.0000000052097366"/>
    <path id="ID0.8780324994586408" fill="#FF99E5" stroke="none" d="M 8.5908 7.0417 C 8.6711 7.0207 8.7523 7.0346 8.8182 7.0732 C 8.8841 7.1118 8.9359 7.1758 8.9569 7.2561 C 8.9779 7.3364 8.964 7.4176 8.9254 7.4835 C 8.8868 7.5493 8.8228 7.6012 8.7425 7.6222 C 8.6622 7.6432 8.581 7.6292 8.5151 7.5906 C 8.4492 7.552 8.3974 7.4881 8.3764 7.4077 C 8.3554 7.3274 8.3694 7.2463 8.408 7.1804 C 8.4466 7.1145 8.5105 7.0626 8.5908 7.0417 Z " stroke-width="1.0000000052097366"/>
    <path id="ID0.8780324994586408" fill="#FF99E5" stroke="none" d="M 7.8504 6.9767 C 7.9307 6.9557 8.0118 6.9697 8.0777 7.0083 C 8.1436 7.0469 8.1955 7.1108 8.2165 7.1911 C 8.2374 7.2714 8.2235 7.3526 8.1849 7.4185 C 8.1463 7.4844 8.0823 7.5362 8.002 7.5572 C 7.9217 7.5782 7.8406 7.5643 7.7747 7.5257 C 7.7088 7.4871 7.6569 7.4231 7.6359 7.3428 C 7.615 7.2625 7.6289 7.1813 7.6675 7.1154 C 7.7061 7.0495 7.7701 6.9977 7.8504 6.9767 Z " stroke-width="1.0000000052097366"/>
    <path id="ID0.8780324994586408" fill="#FF99E5" stroke="none" d="M 7.2302 7.9656 C 7.3105 7.9446 7.3916 7.9585 7.4575 7.9971 C 7.5234 8.0357 7.5753 8.0997 7.5963 8.18 C 7.6172 8.2603 7.6033 8.3415 7.5647 8.4074 C 7.5261 8.4733 7.4621 8.5251 7.3818 8.5461 C 7.3015 8.5671 7.2204 8.5531 7.1545 8.5145 C 7.0886 8.4759 7.0367 8.412 7.0157 8.3316 C 6.9948 8.2513 7.0087 8.1702 7.0473 8.1043 C 7.0859 8.0384 7.1499 7.9865 7.2302 7.9656 Z " stroke-width="1.0000000052097366"/>
    <path id="ID0.8780324994586408" fill="#FF99E5" stroke="none" d="M 6.4775 9.0407 C 6.5578 9.0197 6.6389 9.0337 6.7048 9.0723 C 6.7707 9.1109 6.8226 9.1748 6.8436 9.2552 C 6.8645 9.3355 6.8506 9.4166 6.812 9.4825 C 6.7734 9.5484 6.7094 9.6003 6.6291 9.6212 C 6.5488 9.6422 6.4677 9.6283 6.4018 9.5897 C 6.3359 9.5511 6.284 9.4871 6.263 9.4068 C 6.2421 9.3265 6.256 9.2453 6.2946 9.1794 C 6.3332 9.1135 6.3972 9.0617 6.4775 9.0407 Z " stroke-width="1.0000000052097366"/>
    <path id="ID0.8780324994586408" fill="#FF99E5" stroke="none" d="M 5.615 8.9043 C 5.6953 8.8833 5.7765 8.8972 5.8424 8.9358 C 5.9083 8.9744 5.9601 9.0384 5.9811 9.1187 C 6.0021 9.199 5.9881 9.2802 5.9495 9.3461 C 5.9109 9.412 5.847 9.4638 5.7666 9.4848 C 5.6863 9.5058 5.6052 9.4918 5.5393 9.4532 C 5.4734 9.4146 5.4215 9.3507 5.4006 9.2704 C 5.3796 9.1901 5.3935 9.1089 5.4321 9.043 C 5.4707 8.9771 5.5347 8.9253 5.615 8.9043 Z " stroke-width="1.0000000052097366"/>
    <path id="ID0.8780324994586408" fill="#FF99E5" stroke="none" d="M 6.4182 8.0226 C 6.4985 8.0017 6.5797 8.0156 6.6456 8.0542 C 6.7115 8.0928 6.7633 8.1568 6.7843 8.2371 C 6.8053 8.3174 6.7914 8.3985 6.7528 8.4644 C 6.7142 8.5303 6.6502 8.5822 6.5699 8.6032 C 6.4896 8.6241 6.4084 8.6102 6.3425 8.5716 C 6.2766 8.533 6.2248 8.469 6.2038 8.3887 C 6.1828 8.3084 6.1968 8.2273 6.2354 8.1614 C 6.274 8.0955 6.3379 8.0436 6.4182 8.0226 Z " stroke-width="1.0000000052097366"/>
    <path id="ID0.8780324994586408" fill="#FF99E5" stroke="none" d="M 7.1247 7.1663 C 7.205 7.1453 7.2862 7.1592 7.3521 7.1978 C 7.418 7.2364 7.4698 7.3004 7.4908 7.3807 C 7.5118 7.461 7.4979 7.5422 7.4593 7.6081 C 7.4207 7.674 7.3567 7.7258 7.2764 7.7468 C 7.1961 7.7678 7.1149 7.7538 7.049 7.7152 C 6.9831 7.6766 6.9313 7.6127 6.9103 7.5323 C 6.8893 7.452 6.9033 7.3709 6.9419 7.305 C 6.9805 7.2391 7.0444 7.1872 7.1247 7.1663 Z " stroke-width="1.0000000052097366"/>
    <path id="ID0.8780324994586408" fill="#FF99E5" stroke="none" d="M 7.6608 6.2511 C 7.7411 6.2301 7.8223 6.244 7.8882 6.2826 C 7.9541 6.3212 8.0059 6.3852 8.0269 6.4655 C 8.0479 6.5458 8.0339 6.627 7.9953 6.6928 C 7.9567 6.7587 7.8928 6.8106 7.8125 6.8316 C 7.7322 6.8526 7.651 6.8386 7.5851 6.8 C 7.5192 6.7614 7.4674 6.6974 7.4464 6.6171 C 7.4254 6.5368 7.4393 6.4557 7.4779 6.3898 C 7.5165 6.3239 7.5805 6.272 7.6608 6.2511 Z " stroke-width="1.0000000052097366"/>
    <path id="ID0.8780324994586408" fill="#FF99E5" stroke="none" d="M 6.7648 6.3818 C 6.8451 6.3608 6.9262 6.3747 6.9921 6.4133 C 7.058 6.4519 7.1099 6.5159 7.1308 6.5962 C 7.1518 6.6765 7.1379 6.7577 7.0993 6.8236 C 7.0607 6.8895 6.9967 6.9413 6.9164 6.9623 C 6.8361 6.9833 6.755 6.9693 6.6891 6.9307 C 6.6232 6.8921 6.5713 6.8282 6.5503 6.7479 C 6.5294 6.6676 6.5433 6.5864 6.5819 6.5205 C 6.6205 6.4546 6.6845 6.4028 6.7648 6.3818 Z " stroke-width="1.0000000052097366"/>
    <path id="ID0.8780324994586408" fill="#FF99E5" stroke="none" d="M 6.3359 7.1139 C 6.4162 7.093 6.4974 7.1069 6.5633 7.1455 C 6.6291 7.1841 6.681 7.2481 6.702 7.3284 C 6.723 7.4087 6.709 7.4898 6.6704 7.5557 C 6.6318 7.6216 6.5679 7.6735 6.4875 7.6945 C 6.4072 7.7154 6.3261 7.7015 6.2602 7.6629 C 6.1943 7.6243 6.1424 7.5603 6.1215 7.48 C 6.1005 7.3997 6.1144 7.3186 6.153 7.2527 C 6.1916 7.1868 6.2556 7.1349 6.3359 7.1139 Z " stroke-width="1.0000000052097366"/>
    <path id="ID0.8780324994586408" fill="#FF99E5" stroke="none" d="M 5.5327 7.9956 C 5.613 7.9746 5.6941 7.9886 5.76 8.0271 C 5.8259 8.0657 5.8778 8.1297 5.8987 8.21 C 5.9197 8.2903 5.9058 8.3715 5.8672 8.4374 C 5.8286 8.5033 5.7646 8.5551 5.6843 8.5761 C 5.604 8.5971 5.5228 8.5831 5.4569 8.5445 C 5.391 8.506 5.3392 8.442 5.3182 8.3617 C 5.2972 8.2814 5.3112 8.2002 5.3498 8.1343 C 5.3884 8.0684 5.4523 8.0166 5.5327 7.9956 Z " stroke-width="1.0000000052097366"/>
  </g>
</svg>