<svg xmlns="http://www.w3.org/2000/svg" xmlns:xlink="http://www.w3.org/1999/xlink" version="1.1" width="111.33052621572003" height="55.78053079335675" viewBox="-2.2902631078600173 -2.7902631078600173 111.33052621572003 55.78053079335675">
  <defs>
    <linearGradient id="grad_1" y2="1" x2="0">
      <stop offset="0" stop-color="#CC0000" stop-opacity="1"/>
      <stop offset="1" stop-color="#CC0000" stop-opacity="1"/>
    </linearGradient>
    <linearGradient id="grad_2" y2="1" x2="0">
      <stop offset="0" stop-color="#CC0000" stop-opacity="1"/>
      <stop offset="1" stop-color="#CC0000" stop-opacity="1"/>
    </linearGradient>
  <linearGradient id="grad_1-,0,0,1.0266666412353516,-185.25,-156.25" y2="34.9667" x2="19" x1="19" y1="21.8767" gradientUnits="userSpaceOnUse">
      <stop offset="0" stop-color="#CC0000" stop-opacity="1"/>
      <stop offset="1" stop-color="#CC0000" stop-opacity="1"/>
    </linearGradient></defs>
  <!-- Exported by Scratch - http://scratch.mit.edu/ -->
  <path id="ID0.5977142141200602" fill="url(#grad_1-,0,0,1.0266666412353516,-185.25,-156.25)" stroke="url(#grad_2)" stroke-width="6.080526215720035" d="M 19 21.8767 L 65.75 21.8767 L 65.75 34.9667 L 19 34.9667 L 19 21.8767 Z "/>
  <path id="ID0.3931966032832861" fill="#CC0000" stroke="none" d="M 76.8 12.9 C 81.214 12.9 85.214 14.693 88.111 17.589 C 91.007 20.486 92.8 24.486 92.8 28.9 C 92.8 33.314 91.007 37.314 88.111 40.211 C 85.214 43.107 81.214 44.9 76.8 44.9 C 72.386 44.9 68.386 43.107 65.489 40.211 C 62.593 37.314 60.8 33.314 60.8 28.9 C 60.8 24.486 62.593 20.486 65.489 17.589 C 68.386 14.693 72.386 12.9 76.8 12.9 Z " stroke-width="1"/>
  <path id="ID0.16405341355130076" fill="#CC0000" stroke="none" d="M 16.4444 25.7528 C 16.8929 25.7528 17.2988 25.9348 17.5935 26.2287 C 17.8874 26.5234 18.0694 26.9293 18.0694 27.3778 C 18.0694 27.8263 17.8874 28.2322 17.5935 28.5268 C 17.2988 28.8208 16.8929 29.0028 16.4444 29.0028 C 15.9959 29.0028 15.5901 28.8208 15.2954 28.5268 C 15.0014 28.2322 14.8194 27.8263 14.8194 27.3778 C 14.8194 26.9293 15.0014 26.5234 15.2954 26.2287 C 15.5901 25.9348 15.9959 25.7528 16.4444 25.7528 Z " stroke-width="0.7222222089767456"/>
  <path id="ID0.7033307119272649" fill="#CC0000" stroke="none" d="M 17.4709 34.4843 C 18.3328 34.4843 19.1141 34.8346 19.6802 35.4 C 20.2456 35.9661 20.5959 36.7474 20.5959 37.6093 C 20.5959 38.4712 20.2456 39.2525 19.6802 39.8186 C 19.1141 40.384 18.3328 40.7343 17.4709 40.7343 C 16.609 40.7343 15.8278 40.384 15.2616 39.8186 C 14.6962 39.2525 14.3459 38.4712 14.3459 37.6093 C 14.3459 36.7474 14.6962 35.9661 15.2616 35.4 C 15.8278 34.8346 16.609 34.4843 17.4709 34.4843 Z " stroke-width="0.7267441749572754"/>
  <path id="ID0.41293808072805405" fill="#CC0000" stroke="none" d="M 62.5 34.6 C 63.19 34.6 63.815 34.88 64.267 35.333 C 64.72 35.785 65 36.41 65 37.1 C 65 37.79 64.72 38.415 64.267 38.867 C 63.815 39.32 63.19 39.6 62.5 39.6 C 61.81 39.6 61.185 39.32 60.733 38.867 C 60.28 38.415 60 37.79 60 37.1 C 60 36.41 60.28 35.785 60.733 35.333 C 61.185 34.88 61.81 34.6 62.5 34.6 Z " stroke-width="1"/>
  <path id="ID0.02874877769500017" fill="#CC0000" stroke="none" d="M 60.675 45.05 C 61.11 45.05 61.503 45.226 61.788 45.512 C 62.074 45.797 62.25 46.19 62.25 46.625 C 62.25 47.06 62.074 47.453 61.788 47.738 C 61.503 48.024 61.11 48.2 60.675 48.2 C 60.24 48.2 59.847 48.024 59.562 47.738 C 59.276 47.453 59.1 47.06 59.1 46.625 C 59.1 46.19 59.276 45.797 59.562 45.512 C 59.847 45.226 60.24 45.05 60.675 45.05 Z " stroke-width="1"/>
  <path id="ID0.5191513583995402" fill="#CC0000" stroke="none" d="M 74.775 43.6 C 75.651 43.6 76.445 43.956 77.019 44.531 C 77.594 45.105 77.95 45.899 77.95 46.775 C 77.95 47.651 77.594 48.445 77.019 49.019 C 76.445 49.594 75.651 49.95 74.775 49.95 C 73.899 49.95 73.105 49.594 72.531 49.019 C 71.956 48.445 71.6 47.651 71.6 46.775 C 71.6 45.899 71.956 45.105 72.531 44.531 C 73.105 43.956 73.899 43.6 74.775 43.6 Z " stroke-width="1"/>
  <path id="ID0.9023732645437121" fill="#CC0000" stroke="none" d="M 87.675 39.45 C 88.041 39.45 88.372 39.598 88.612 39.838 C 88.852 40.078 89 40.409 89 40.775 C 89 41.141 88.852 41.472 88.612 41.712 C 88.372 41.952 88.041 42.1 87.675 42.1 C 87.309 42.1 86.978 41.952 86.738 41.712 C 86.498 41.472 86.35 41.141 86.35 40.775 C 86.35 40.409 86.498 40.078 86.738 39.838 C 86.978 39.598 87.309 39.45 87.675 39.45 Z " stroke-width="1"/>
  <path id="ID0.25161455664783716" fill="#CC0000" stroke="none" d="M 104.25 15.5 C 104.733 15.5 105.17 15.696 105.487 16.013 C 105.804 16.33 106 16.767 106 17.25 C 106 17.733 105.804 18.17 105.487 18.487 C 105.17 18.804 104.733 19 104.25 19 C 103.767 19 103.33 18.804 103.013 18.487 C 102.696 18.17 102.5 17.733 102.5 17.25 C 102.5 16.767 102.696 16.33 103.013 16.013 C 103.33 15.696 103.767 15.5 104.25 15.5 Z " stroke-width="1"/>
  <path id="ID0.25161455664783716" fill="#CC0000" stroke="none" d="M 89.25 0.25 C 89.733 0.25 90.17 0.446 90.487 0.763 C 90.804 1.08 91 1.517 91 2 C 91 2.483 90.804 2.92 90.487 3.237 C 90.17 3.554 89.733 3.75 89.25 3.75 C 88.767 3.75 88.33 3.554 88.013 3.237 C 87.696 2.92 87.5 2.483 87.5 2 C 87.5 1.517 87.696 1.08 88.013 0.763 C 88.33 0.446 88.767 0.25 89.25 0.25 Z " stroke-width="1"/>
  <path id="ID0.6902042659930885" fill="#CC0000" stroke="none" d="M 67.25 2.75 C 68.354 2.75 69.354 3.198 70.078 3.922 C 70.802 4.646 71.25 5.646 71.25 6.75 C 71.25 7.854 70.802 8.854 70.078 9.578 C 69.354 10.302 68.354 10.75 67.25 10.75 C 66.146 10.75 65.146 10.302 64.422 9.578 C 63.698 8.854 63.25 7.854 63.25 6.75 C 63.25 5.646 63.698 4.646 64.422 3.922 C 65.146 3.198 66.146 2.75 67.25 2.75 Z " stroke-width="1"/>
  <path id="ID0.29816159326583147" fill="#CC0000" stroke="none" d="M 12.25 9.75 C 13.078 9.75 13.828 10.086 14.371 10.629 C 14.914 11.172 15.25 11.922 15.25 12.75 C 15.25 13.578 14.914 14.328 14.371 14.871 C 13.828 15.414 13.078 15.75 12.25 15.75 C 11.422 15.75 10.672 15.414 10.129 14.871 C 9.586 14.328 9.25 13.578 9.25 12.75 C 9.25 11.922 9.586 11.172 10.129 10.629 C 10.672 10.086 11.422 9.75 12.25 9.75 Z " stroke-width="1"/>
  <path id="ID0.4874770026654005" fill="#CC0000" stroke="none" d="M 2.375 29.25 C 2.823 29.25 3.23 29.432 3.524 29.726 C 3.818 30.02 4 30.427 4 30.875 C 4 31.323 3.818 31.73 3.524 32.024 C 3.23 32.318 2.823 32.5 2.375 32.5 C 1.927 32.5 1.52 32.318 1.226 32.024 C 0.932 31.73 0.75 31.323 0.75 30.875 C 0.75 30.427 0.932 30.02 1.226 29.726 C 1.52 29.432 1.927 29.25 2.375 29.25 Z " stroke-width="1"/>
  <g id="ID0.6023043445311487">
    <text id="ID0.32901171408593655" fill="#000000" text-anchor="start" font-family="Sans Serif" font-size="22" transform="matrix(0.843915 -0.234642 0.22832 0.867281 61.2529 15.1789)" stroke-width="1" alignment-baseline="text-before-edge" xml:space="preserve"><tspan x="0" style="white-space: pre" dy="1.13em">A+</tspan></text>
    <text id="ID0.32901171408593655" fill="#000000" text-anchor="start" font-family="Sans Serif" font-size="22" transform="matrix(0.843915 -0.234642 0.22832 0.867281 62.2029 15.0289)" stroke-width="1" alignment-baseline="text-before-edge" xml:space="preserve"><tspan x="0" style="white-space: pre" dy="1.13em">A+</tspan></text>
  </g>
  <g id="ID0.8828654973767698">
    <text id="ID0.9744727602228522" fill="#000000" text-anchor="start" font-family="Sans Serif" font-size="22" transform="matrix(0.688042 0 0 0.688042 17.2761 16.3359)" stroke-width="1" alignment-baseline="text-before-edge" xml:space="preserve"><tspan x="0" style="white-space: pre" dy="1.13em">Grade</tspan></text>
    <text id="ID0.9744727602228522" fill="#000000" text-anchor="start" font-family="Sans Serif" font-size="22" transform="matrix(0.688042 0 0 0.688042 18.0261 16.3359)" stroke-width="1" alignment-baseline="text-before-edge" xml:space="preserve"><tspan x="0" style="white-space: pre" dy="1.13em">Grade</tspan></text>
  </g>
</svg>