<svg xmlns="http://www.w3.org/2000/svg" xmlns:xlink="http://www.w3.org/1999/xlink" version="1.1" width="15.05627155303955" height="13.339640617370605" viewBox="-0.006272017955780029 0.1281105875968933 15.05627155303955 13.339640617370605">
  <!-- Exported by Scratch - http://scratch.mit.edu/ -->
  <g id="ID0.9007245465181768">
    <path id="ID0.6487746122293174" fill="#006622" stroke="none" stroke-linecap="round" d="M 6.7392 0.6359 C 8.0516 0.5826 9.4944 0.7915 10.6067 1.6152 C 11.7064 2.4291 12.6254 3.8067 13.129 5.3148 C 13.7041 7.0362 13.7007 9.0383 13.6755 10.9185 C 13.6864 11.5061 13.5788 12.345 13.087 12.4963 C 11.1364 13.0947 9.0799 12.9674 7.0755 12.9315 C 5.2132 12.8978 3.2946 12.9587 1.4844 12.3875 C 0.9783 12.1894 0.552 11.4386 0.5175 10.7553 C 0.4318 9.0459 0.5697 7.2364 1.064 5.6412 C 1.5147 4.1918 2.2285 2.7904 3.208 1.9416 C 4.2245 1.0298 5.5369 0.6849 6.7392 0.6359 Z " stroke-width="0.9723320187290784"/>
    <path id="ID0.6862273388542235" fill="#009933" stroke="none" stroke-linecap="round" d="M 7.0281 0.8681 C 8.2758 0.8996 9.5798 1.2043 10.6223 2.065 C 11.6329 2.8832 12.493 4.1999 12.8924 5.6557 C 13.2892 7.0997 13.7407 9.1409 12.8924 10.117 C 11.4866 11.8351 9.2948 12.2475 7.3854 12.2388 C 5.307 12.229 2.9226 11.8601 1.3739 10.0626 C 0.4634 9.0365 1.0166 6.8646 1.416 5.3837 C 1.7977 3.9681 2.5972 2.6526 3.6019 1.8474 C 4.5789 1.0574 5.8586 0.8376 7.0281 0.8681 Z " stroke-width="0.9723320187290784"/>
    <path id="ID0.01353864697739482" fill="#00CC44" stroke="none" stroke-linecap="round" d="M 7.1287 1.0945 C 8.1443 1.0782 9.2222 1.2762 10.1134 1.8562 C 10.9466 2.4296 11.6604 3.3447 12.0892 4.4132 C 12.4961 5.4263 13.1116 6.9725 12.4675 7.6775 C 11.1131 9.2651 9.1129 9.9484 7.2968 9.9082 C 5.4337 9.8679 3.4041 9.1617 2 7.5687 C 1.3501 6.831 1.8588 5.2119 2.2102 4.1412 C 2.5457 3.2218 3.2107 2.4253 3.9338 1.965 C 4.9091 1.3437 6.0719 1.1119 7.1287 1.0945 Z " stroke-width="0.9723320187290784"/>
    <path id="ID0.40726609993726015" fill="#99FFBB" stroke="none" d="M 8.1599 1.5328 C 8.4903 1.5328 8.7896 1.6732 9.0066 1.8995 C 9.2235 2.1258 9.358 2.4392 9.358 2.7842 C 9.358 3.1291 9.2235 3.4425 9.0066 3.6688 C 8.7896 3.8951 8.4903 4.0355 8.1599 4.0355 C 7.8295 4.0355 7.5302 3.8951 7.3133 3.6688 C 7.0963 3.4425 6.9618 3.1291 6.9618 2.7842 C 6.9618 2.4392 7.0963 2.1258 7.3133 1.8995 C 7.5302 1.6732 7.8295 1.5328 8.1599 1.5328 Z " stroke-width="0.9723320187290784"/>
    <path id="ID0.44971933402121067" fill="#99FFBB" stroke="none" d="M 7.0965 4.0399 C 7.2765 4.0399 7.4396 4.1095 7.5573 4.2238 C 7.675 4.3369 7.7481 4.4925 7.7481 4.6655 C 7.7481 4.8386 7.675 4.9941 7.5573 5.1073 C 7.4396 5.2216 7.2765 5.2912 7.0965 5.2912 C 6.9166 5.2912 6.7535 5.2216 6.6358 5.1073 C 6.5181 4.9941 6.4449 4.8386 6.4449 4.6655 C 6.4449 4.4925 6.5181 4.3369 6.6358 4.2238 C 6.7535 4.1095 6.9166 4.0399 7.0965 4.0399 Z " stroke-width="0.9723320187290784"/>
  </g>
  <g id="ID0.8220732379704714">
    <g id="ID0.20715344790369272">
      <path id="ID0.19440001714974642" fill="#000000" stroke="none" d="M 6.55 2.55 C 7.143 2.55 7.681 2.956 8.07 3.612 C 8.459 4.269 8.7 5.175 8.7 6.175 C 8.7 7.175 8.459 8.081 8.07 8.738 C 7.681 9.394 7.143 9.8 6.55 9.8 C 5.957 9.8 5.419 9.394 5.03 8.738 C 4.641 8.081 4.4 7.175 4.4 6.175 C 4.4 5.175 4.641 4.269 5.03 3.612 C 5.419 2.956 5.957 2.55 6.55 2.55 Z " stroke-width="1"/>
      <path id="ID0.35307061253115535" fill="#FFFFFF" stroke="none" d="M 7.2 3.15 C 7.421 3.15 7.621 3.329 7.766 3.619 C 7.91 3.909 8 4.309 8 4.75 C 8 5.191 7.91 5.591 7.766 5.881 C 7.621 6.171 7.421 6.35 7.2 6.35 C 6.979 6.35 6.779 6.171 6.634 5.881 C 6.49 5.591 6.4 5.191 6.4 4.75 C 6.4 4.309 6.49 3.909 6.634 3.619 C 6.779 3.329 6.979 3.15 7.2 3.15 Z " stroke-width="1"/>
    </g>
    <g id="ID0.20715344790369272">
      <path id="ID0.19440001714974642" fill="#000000" stroke="none" d="M 12.4 2.7 C 12.993 2.7 13.531 3.106 13.92 3.762 C 14.309 4.419 14.55 5.325 14.55 6.325 C 14.55 7.325 14.309 8.231 13.92 8.888 C 13.531 9.544 12.993 9.95 12.4 9.95 C 11.807 9.95 11.269 9.544 10.88 8.888 C 10.491 8.231 10.25 7.325 10.25 6.325 C 10.25 5.325 10.491 4.419 10.88 3.762 C 11.269 3.106 11.807 2.7 12.4 2.7 Z " stroke-width="1"/>
      <path id="ID0.35307061253115535" fill="#FFFFFF" stroke="none" d="M 13.05 3.3 C 13.271 3.3 13.471 3.479 13.616 3.769 C 13.76 4.059 13.85 4.459 13.85 4.9 C 13.85 5.341 13.76 5.741 13.616 6.031 C 13.471 6.321 13.271 6.5 13.05 6.5 C 12.829 6.5 12.629 6.321 12.484 6.031 C 12.34 5.741 12.25 5.341 12.25 4.9 C 12.25 4.459 12.34 4.059 12.484 3.769 C 12.629 3.479 12.829 3.3 13.05 3.3 Z " stroke-width="1"/>
    </g>
  </g>
</svg>