<svg xmlns="http://www.w3.org/2000/svg" xmlns:xlink="http://www.w3.org/1999/xlink" version="1.1" width="18.151626586914062" height="10.371589660644531" viewBox="-0.1008138656616211 -0.005563259124755859 18.151626586914062 10.371589660644531">
  <!-- Exported by Scratch - http://scratch.mit.edu/ -->
  <g id="ID0.5668268920853734">
    <path id="ID0.6798444245941937" fill="#000000" stroke="none" stroke-linecap="round" d="M 7.4 0.8 C 7.664 0.794 7.888 1.067 7.95 1.3 C 8.112 1.844 8.104 2.423 8.1 3 C 8.097 3.514 8.105 4.023 7.95 4.5 C 7.866 4.762 7.654 5.018 7.4 5 C 7.132 5.039 6.864 4.82 6.75 4.55 C 6.556 4.085 6.543 3.558 6.55 3.05 C 6.559 2.449 6.538 1.841 6.75 1.3 C 6.865 1.026 7.14 0.794 7.4 0.8 Z " stroke-width="1"/>
    <path id="ID0.1390668787062168" fill="#000000" stroke="none" stroke-linecap="round" d="M 3 0.5 C 3.189 0.576 2.362 1.596 2.2 2.2 C 1.947 3.144 1.677 4.119 1.7 5.1 C 1.727 6.153 2.091 7.178 2.35 8.2 C 2.485 8.733 3.142 9.718 2.9 9.85 C 2.649 9.98 1.643 9.294 1.35 8.7 C 0.763 7.641 0.42 6.375 0.4 5.15 C 0.382 4 0.663 2.803 1.2 1.8 C 1.582 1.16 2.808 0.423 3 0.5 Z " stroke-width="1"/>
    <path id="ID0.1390668787062168" fill="#000000" stroke="none" stroke-linecap="round" d="M 14.95 0.5 C 14.761 0.576 15.588 1.596 15.75 2.2 C 16.003 3.144 16.273 4.119 16.25 5.1 C 16.223 6.153 15.859 7.178 15.6 8.2 C 15.465 8.733 14.808 9.718 15.05 9.85 C 15.301 9.98 16.307 9.294 16.6 8.7 C 17.187 7.641 17.53 6.375 17.55 5.15 C 17.568 4 17.287 2.803 16.75 1.8 C 16.368 1.16 15.142 0.423 14.95 0.5 Z " stroke-width="1"/>
    <path id="ID0.6798444245941937" fill="#000000" stroke="none" stroke-linecap="round" d="M 14.15 0.85 C 14.414 0.844 14.638 1.117 14.7 1.35 C 14.862 1.894 14.854 2.473 14.85 3.05 C 14.847 3.564 14.855 4.073 14.7 4.55 C 14.616 4.812 14.404 5.068 14.15 5.05 C 13.882 5.089 13.614 4.87 13.5 4.6 C 13.306 4.135 13.293 3.608 13.3 3.1 C 13.309 2.499 13.288 1.891 13.5 1.35 C 13.615 1.076 13.89 0.844 14.15 0.85 Z " stroke-width="1"/>
    <path id="ID0.9753554817289114" fill="#000000" stroke="none" stroke-linecap="round" d="M 10.2 3.4 C 10.851 3.49 11.386 3.95 11.9 4.35 C 12.137 4.529 12.41 4.756 12.45 5.05 C 12.487 5.33 12.291 5.547 12.1 5.7 C 11.579 6.122 11.018 6.574 10.35 6.7 C 10.145 6.761 9.9 6.343 10 6.15 C 10.25 5.669 11.211 5.574 11.15 5.05 C 11.136 4.499 10.146 4.488 9.85 4 C 9.73 3.802 9.976 3.341 10.2 3.4 Z " stroke-width="1"/>
  </g>
</svg>